<?xml version="1.0" encoding="utf-8"?>
<!-- Generator: Adobe Illustrator 18.0.0, SVG Export Plug-In . SVG Version: 6.00 Build 0)  -->
<!DOCTYPE svg PUBLIC "-//W3C//DTD SVG 1.1//EN" "http://www.w3.org/Graphics/SVG/1.1/DTD/svg11.dtd">
<svg version="1.1" id="Layer_1" xmlns="http://www.w3.org/2000/svg" xmlns:xlink="http://www.w3.org/1999/xlink" x="0px" y="0px"
	 viewBox="0 0 100 100" enable-background="new 0 0 100 100" xml:space="preserve">
<g id="Layer_3">
	<g>
		<circle fill="#507F6F" cx="49.5" cy="50.2" r="46.3"/>
		<g display="none">
			<path display="inline" fill="#357180" d="M81.8,72c0,0.4-0.4,0.9-0.9,0.9h-61c-0.4,0-0.9-0.4-0.9-0.9V28.8c0-0.4,0.4-0.9,0.9-0.9
				h60.9c0.4,0,0.9,0.4,0.9,0.9C81.8,28.8,81.8,72,81.8,72z"/>
			<rect x="48.8" y="27.9" display="inline" fill="#27636D" width="3.4" height="45"/>
			<polygon display="inline" fill="#D7D7BF" points="50.4,30.1 21.4,30.1 21.4,70.6 50.4,70.6 79.6,70.6 79.6,30.1 			"/>
			<rect x="48.8" y="30.1" display="inline" fill="#C5C3AE" width="3.3" height="40.6"/>
			<polygon display="inline" fill="#E7E7D6" points="50.4,70.6 22.6,69.4 22.6,28.8 50.4,30.1 			"/>
			<polygon display="inline" fill="#E7E7D6" points="78.4,69.4 50.4,70.6 50.4,30.1 78.4,28.8 			"/>
			<rect x="50.3" y="31" display="inline" fill="#DCDDD8" width="0.4" height="39.6"/>
			<g display="inline">
				<path fill="#B9B9BA" d="M48.2,35.8c0,0.5-0.4,0.9-0.9,0.9l-21.5-0.7c-0.5,0-0.9-0.4-0.9-0.9l0,0c0-0.5,0.4-0.9,0.9-0.9l21.5,0.7
					C47.9,34.9,48.2,35.3,48.2,35.8L48.2,35.8z"/>
				<path fill="#B9B9BA" d="M48.2,39.7c0,0.5-0.4,0.9-0.9,0.9L25.8,40c-0.5,0-0.9-0.4-0.9-0.9l0,0c0-0.5,0.4-0.9,0.9-0.9l21.5,0.7
					C47.9,38.8,48.2,39.2,48.2,39.7L48.2,39.7z"/>
				<path fill="#B9B9BA" d="M48.2,43.5c0,0.5-0.4,0.9-0.9,0.9l-21.5-0.7c-0.5,0-0.9-0.4-0.9-0.9l0,0c0-0.5,0.4-0.9,0.9-0.9l21.5,0.7
					C47.9,42.6,48.2,43,48.2,43.5L48.2,43.5z"/>
				<path fill="#B9B9BA" d="M48.2,47.4c0,0.5-0.4,0.9-0.9,0.9l-21.5-0.7c-0.5,0-0.9-0.4-0.9-0.9l0,0c0-0.5,0.4-0.9,0.9-0.9l21.5,0.7
					C47.9,46.4,48.2,46.9,48.2,47.4L48.2,47.4z"/>
				<path fill="#B9B9BA" d="M48.2,51.3c0,0.5-0.4,0.9-0.9,0.9l-21.5-0.7c-0.5,0-0.9-0.4-0.9-0.9l0,0c0-0.5,0.4-0.9,0.9-0.9l21.5,0.7
					C47.9,50.4,48.2,50.8,48.2,51.3L48.2,51.3z"/>
				<path fill="#B9B9BA" d="M48.2,55.2c0,0.5-0.4,0.9-0.9,0.9l-21.5-0.7c-0.5,0-0.9-0.4-0.9-0.9l0,0c0-0.5,0.4-0.9,0.9-0.9l21.5,0.7
					C47.9,54.2,48.2,54.7,48.2,55.2L48.2,55.2z"/>
				<path fill="#B9B9BA" d="M48.2,58.9c0,0.5-0.4,0.9-0.9,0.9l-21.5-0.7c-0.5,0-0.9-0.4-0.9-0.9l0,0c0-0.5,0.4-0.9,0.9-0.9L47.4,58
					C47.9,58,48.2,58.4,48.2,58.9L48.2,58.9z"/>
				<path fill="#B9B9BA" d="M48.2,62.8c0,0.5-0.4,0.9-0.9,0.9l-21.5-0.7c-0.5,0-0.9-0.4-0.9-0.9l0,0c0-0.5,0.4-0.9,0.9-0.9l21.5,0.7
					C47.9,61.8,48.2,62.3,48.2,62.8L48.2,62.8z"/>
			</g>
			<g display="inline">
				<path fill="#B9B9BA" d="M52.8,35.8c0,0.5,0.4,0.9,0.9,0.9l21.5-0.7c0.5,0,0.9-0.4,0.9-0.9l0,0c0-0.5-0.4-0.9-0.9-0.9l-21.5,0.7
					C53.2,34.9,52.8,35.3,52.8,35.8L52.8,35.8z"/>
				<path fill="#B9B9BA" d="M52.8,39.7c0,0.5,0.4,0.9,0.9,0.9L75.2,40c0.5,0,0.9-0.4,0.9-0.9l0,0c0-0.5-0.4-0.9-0.9-0.9l-21.5,0.7
					C53.2,38.8,52.8,39.2,52.8,39.7L52.8,39.7z"/>
				<path fill="#B9B9BA" d="M52.8,43.5c0,0.5,0.4,0.9,0.9,0.9l21.5-0.7c0.5,0,0.9-0.4,0.9-0.9l0,0c0-0.5-0.4-0.9-0.9-0.9l-21.5,0.7
					C53.2,42.6,52.8,43,52.8,43.5L52.8,43.5z"/>
				<path fill="#B9B9BA" d="M52.8,47.4c0,0.5,0.4,0.9,0.9,0.9l21.5-0.7c0.5,0,0.9-0.4,0.9-0.9l0,0c0-0.5-0.4-0.9-0.9-0.9l-21.5,0.7
					C53.2,46.4,52.8,46.9,52.8,47.4L52.8,47.4z"/>
				<path fill="#B9B9BA" d="M52.8,51.3c0,0.5,0.4,0.9,0.9,0.9l21.5-0.7c0.5,0,0.9-0.4,0.9-0.9l0,0c0-0.5-0.4-0.9-0.9-0.9l-21.5,0.7
					C53.2,50.4,52.8,50.8,52.8,51.3L52.8,51.3z"/>
				<path fill="#B9B9BA" d="M52.8,55.2c0,0.5,0.4,0.9,0.9,0.9l21.5-0.7c0.5,0,0.9-0.4,0.9-0.9l0,0c0-0.5-0.4-0.9-0.9-0.9l-21.5,0.7
					C53.2,54.2,52.8,54.7,52.8,55.2L52.8,55.2z"/>
				<path fill="#B9B9BA" d="M52.8,58.9c0,0.5,0.4,0.9,0.9,0.9l21.5-0.7c0.5,0,0.9-0.4,0.9-0.9l0,0c0-0.5-0.4-0.9-0.9-0.9L53.6,58
					C53.2,58,52.8,58.4,52.8,58.9L52.8,58.9z"/>
				<path fill="#B9B9BA" d="M52.8,62.8c0,0.5,0.4,0.9,0.9,0.9l21.5-0.7c0.5,0,0.9-0.4,0.9-0.9l0,0c0-0.5-0.4-0.9-0.9-0.9l-21.5,0.7
					C53.2,61.8,52.8,62.3,52.8,62.8L52.8,62.8z"/>
			</g>
		</g>
	</g>
</g>
<g>
	<g>
		<g>
			<g>
				<g>
					<path fill="#F1F0EE" d="M31.8,22c-1.8,0-3.1,1.4-3.1,3.1v50.1c0,1.8,1.4,3.1,3.1,3.1h36c1.8,0,3.1-1.4,3.1-3.1V36.5L55.8,22
						H31.8z"/>
				</g>
			</g>
		</g>
		<g>
			<g>
				<path fill="#CCCCCC" d="M70.9,36.6H59c-1.8,0-3.1-1.4-3.1-3.1V22L70.9,36.6z"/>
			</g>
		</g>
		<g>
			<g>
				<path fill="#B9B9BA" d="M66.5,40.8c0,0.5-0.4,0.9-0.9,0.9H34.3c-0.5,0-0.9-0.4-0.9-0.9l0,0c0-0.5,0.4-0.9,0.9-0.9h31.3
					C66.1,39.9,66.5,40.3,66.5,40.8L66.5,40.8z"/>
			</g>
		</g>
		<g>
			<g>
				<path fill="#B9B9BA" d="M66.5,45.9c0,0.5-0.4,0.9-0.9,0.9H34.3c-0.5,0-0.9-0.4-0.9-0.9l0,0c0-0.5,0.4-0.9,0.9-0.9h31.3
					C66.1,45,66.5,45.4,66.5,45.9L66.5,45.9z"/>
			</g>
		</g>
		<g>
			<g>
				<path fill="#B9B9BA" d="M66.5,50.8c0,0.5-0.4,0.9-0.9,0.9H34.3c-0.5,0-0.9-0.4-0.9-0.9l0,0c0-0.5,0.4-0.9,0.9-0.9h31.3
					C66.1,49.9,66.5,50.3,66.5,50.8L66.5,50.8z"/>
			</g>
		</g>
		<g>
			<g>
				<path fill="#B9B9BA" d="M66.5,55.9c0,0.5-0.4,0.9-0.9,0.9H34.3c-0.5,0-0.9-0.4-0.9-0.9l0,0c0-0.5,0.4-0.9,0.9-0.9h31.3
					C66.1,55,66.5,55.4,66.5,55.9L66.5,55.9z"/>
			</g>
		</g>
		<g>
			<g>
				<path fill="#B9B9BA" d="M50.7,60.1H34.3c-0.5,0-0.9,0.4-0.9,0.9c0,0.5,0.4,0.9,0.9,0.9h16.4c0.5,0,0.9-0.4,0.9-0.9
					C51.6,60.5,51.2,60.1,50.7,60.1z"/>
			</g>
		</g>
	</g>
</g>
</svg>
