<svg xmlns="http://www.w3.org/2000/svg" width="50" height="50" viewBox="0 0 50 50">
  <g id="Group_55" data-name="Group 55" transform="translate(-4968 -2101)">
    <rect id="Rectangle_80" data-name="Rectangle 80" width="50" height="50" rx="5" transform="translate(4968 2101)" fill="#4f9ec1"/>
    <g id="icon" transform="translate(4971.95 2108.962)">
      <path id="Path_62" data-name="Path 62" d="M16.92,2.043h2.586V14.511H16.095V7.057H13.756V5.17a7.784,7.784,0,0,0,3.161-3.132ZM18.8,13.789V2.75h-1.44a8.435,8.435,0,0,1-2.9,2.822v.765h2.354v7.457H18.8Z" transform="translate(22.308 0)" fill="#fff" fill-rule="evenodd"/>
      <path id="Path_63" data-name="Path 63" d="M36.371,2.554A3.9,3.9,0,0,1,34.96,3.568l.029,2.53H32a6.728,6.728,0,0,0-6.616,6.821A6.729,6.729,0,0,0,32,19.744a6.643,6.643,0,0,0,6.325-4.837h3.5a10.021,10.021,0,0,1-19.9-2A10.2,10.2,0,0,1,31.975,2.554h4.4ZM20.109,3.6V23.244c0,5.6-3.235,8.942-8.676,8.955H4.948l3.132-3.51h3.353c3.6,0,5.263-1.734,5.263-5.426V20.674a9.8,9.8,0,0,1-6.616,2.588A10.2,10.2,0,0,1,.05,12.907,10.168,10.168,0,0,1,10.079,2.57H19.2L16.065,6.083H10.079a6.729,6.729,0,0,0-6.616,6.824,6.727,6.727,0,0,0,6.616,6.821A6.729,6.729,0,0,0,16.7,12.9l-.013-5.468L20.109,3.6Z" transform="translate(0 0.84)" fill="#fff"/>
    </g>
  </g>
</svg>
