<svg xmlns="http://www.w3.org/2000/svg" viewBox="0 0 100 100" enable-background="new 0 0 100 100"><circle fill="#EDC928" cx="49.8" cy="49.6" r="49.7"/><circle fill="#E8484A" cx="50.2" cy="49.6" r="38.2"/><circle fill="#F7A2A4" cx="50.2" cy="49.6" r="33"/><ellipse fill="#E9E9E9" cx="50.2" cy="49.6" rx="30.4" ry="29.7"/><ellipse fill="#E9E9E9" cx="50.2" cy="51.6" rx="30.4" ry="29.7"/><g fill="#636564"><circle cx="50.4" cy="49.3" r="5.1"/><path d="M50.9 50.5c-.4.4-1.1.2-1.7-.4-.6-.6-.7-1.3-.4-1.7l11.8-11.8c.4-.4 1.1-.2 1.7.4.6.6.7 1.3.4 1.7l-11.8 11.8zM49.2 50c-.4-.4-.4-1.1 0-1.5.4-.4 1.1-.4 1.5 0l17.1 17.1c.4.4.4 1.1 0 1.5-.4.4-1.1.4-1.5 0l-17.1-17.1z"/></g><path d="M50.2 21.9c-15 0-27.5 10.6-29.9 24.6h59.9c-2.6-13.9-15-24.6-30-24.6z" fill="none"/><path fill="#DDDFDF" d="M50.2 23.1c24.2.2 30.2 22.7 30.2 22.7-2.3-14.6-14.9-25.9-30.2-25.9-15.3 0-27.9 11.3-30.2 25.9 0 .1 5.9-22.9 30.2-22.7z"/></svg>