<?xml version="1.0" encoding="utf-8"?>
<!-- Generator: Adobe Illustrator 18.0.0, SVG Export Plug-In . SVG Version: 6.00 Build 0)  -->
<!DOCTYPE svg PUBLIC "-//W3C//DTD SVG 1.1//EN" "http://www.w3.org/Graphics/SVG/1.1/DTD/svg11.dtd">
<svg version="1.1" id="Layer_1" xmlns="http://www.w3.org/2000/svg" xmlns:xlink="http://www.w3.org/1999/xlink" x="0px" y="0px"
	 viewBox="0 0 100 100" enable-background="new 0 0 100 100" xml:space="preserve">
<g>
	<g>
		<g>
			<circle fill="#EDC928" cx="49.8" cy="49.6" r="49.7"/>
		</g>
	</g>
	<g>
		<circle fill="#E8484A" cx="50.2" cy="49.6" r="38.2"/>
		<circle fill="#F7A2A4" cx="50.2" cy="49.6" r="33"/>
		<ellipse fill="#E9E9E9" cx="50.2" cy="49.6" rx="30.4" ry="29.7"/>
		<ellipse fill="#E9E9E9" cx="50.2" cy="51.6" rx="30.4" ry="29.7"/>
		<g>
			<circle fill="#636564" cx="50.4" cy="49.3" r="5.1"/>
			<path fill="#636564" d="M50.9,50.5c-0.4,0.4-1.1,0.2-1.7-0.4l0,0c-0.6-0.6-0.7-1.3-0.4-1.7l11.8-11.8c0.4-0.4,1.1-0.2,1.7,0.4
				l0,0c0.6,0.6,0.7,1.3,0.4,1.7L50.9,50.5z"/>
			<path fill="#636564" d="M49.2,50c-0.4-0.4-0.4-1.1,0-1.5l0,0c0.4-0.4,1.1-0.4,1.5,0l17.1,17.1c0.4,0.4,0.4,1.1,0,1.5l0,0
				c-0.4,0.4-1.1,0.4-1.5,0L49.2,50z"/>
		</g>
		<g>
			<path fill="none" d="M50.2,21.9c-15,0-27.5,10.6-29.9,24.6h59.9C77.6,32.6,65.2,21.9,50.2,21.9z"/>
			<path fill="#DDDFDF" d="M50.2,23.1c24.2,0.2,30.2,22.7,30.2,22.7c-2.3-14.6-14.9-25.9-30.2-25.9c-15.3,0-27.9,11.3-30.2,25.9
				C20,45.9,25.9,22.9,50.2,23.1z"/>
		</g>
	</g>
</g>
</svg>
