<svg xmlns="http://www.w3.org/2000/svg" width="50" height="50" viewBox="0 0 50 50">
  <g id="Group_166" data-name="Group 166" transform="translate(-5159 -1885)">
    <rect id="Rectangle_70" data-name="Rectangle 70" width="50" height="50" rx="5" transform="translate(5159 1885)" fill="#45a1cb"/>
    <g id="monologo" transform="translate(5167.8 1894.249)">
      <path id="Path_77" data-name="Path 77" d="M15.98,10.4h.126a6.416,6.416,0,0,1,.544-2.3,2.7,2.7,0,0,1-3.431-2.553,2.748,2.748,0,0,1,5.482,0v.209a6.677,6.677,0,0,1,2.134-.837c-.8-5.733-9.541-5.566-9.834.628A4.94,4.94,0,0,0,15.98,10.4Z" transform="translate(-6.281 0)" fill="#fff"/>
      <g id="Group_107" data-name="Group 107" transform="translate(0.2 11.693)">
        <path id="Path_78" data-name="Path 78" d="M42.446,35.9a7.9,7.9,0,0,1-1.046.46,7.772,7.772,0,0,1,1.423.251A2.326,2.326,0,0,0,42.446,35.9Z" transform="translate(-24.159 -32.134)"/>
        <path id="Path_79" data-name="Path 79" d="M6.937,34.265H2.418v-.628c.126-1.967,1.883-3.138,3.6-3.808a10.729,10.729,0,0,1,3.766-.711c.418,0,.837.042,1.3.084a5.105,5.105,0,0,1-1.088-2.3H9.03A11.885,11.885,0,0,0,3,28.783,5.622,5.622,0,0,0,.2,33.47v1.758A1.16,1.16,0,0,0,1.33,36.4H5.64A6.365,6.365,0,0,1,6.937,34.265Z" transform="translate(-0.2 -26.9)" fill="#fff"/>
      </g>
      <g id="Group_108" data-name="Group 108" transform="translate(6.058 5.427)">
        <path id="Path_80" data-name="Path 80" d="M30.18,21.581a4.84,4.84,0,0,0,4.9-4.854c-.251-6.4-9.583-6.4-9.876,0a4.94,4.94,0,0,0,4.98,4.854Zm-2.762-4.854a2.748,2.748,0,0,1,5.482,0,2.743,2.743,0,0,1-5.482,0Z" transform="translate(-20.597 -11.925)" fill="#fff"/>
        <path id="Path_81" data-name="Path 81" d="M30.646,39.983A11.885,11.885,0,0,0,24.62,38.1H23.03A11.885,11.885,0,0,0,17,39.983a5.622,5.622,0,0,0-2.8,4.687v1.758A1.16,1.16,0,0,0,15.33,47.6h16.99a1.16,1.16,0,0,0,1.13-1.172V44.67A5.622,5.622,0,0,0,30.646,39.983Zm.544,5.482H16.5v-.628c.126-1.967,1.883-3.138,3.6-3.808a10.325,10.325,0,0,1,7.532,0c1.674.67,3.473,1.841,3.6,3.808v.628Z" transform="translate(-14.2 -27.147)" fill="#fff"/>
      </g>
      <path id="Path_82" data-name="Path 82" d="M46.444,38.132a7.536,7.536,0,0,0-2.3-2.3,12.645,12.645,0,0,0-5.524-1.925,5.6,5.6,0,0,0,3.892-5.4h0a5.777,5.777,0,0,0-11.55,0h0a5.715,5.715,0,0,0,4.017,5.4,12.67,12.67,0,0,0-5.4,1.925,6.427,6.427,0,0,0-3.18,5.4v1.758a2.025,2.025,0,0,0,.418,1.214H46.4V38.132ZM34.853,28.507a1.885,1.885,0,0,1,1.925-1.716h.042a1.933,1.933,0,0,1,1.841,1.716,1.829,1.829,0,0,1-1.925,1.8A1.808,1.808,0,0,1,34.853,28.507Z" transform="translate(-15.236 -12.881)" fill="#fff"/>
      <g id="Group_109" data-name="Group 109" transform="translate(12.001 10.825)">
        <path id="Path_83" data-name="Path 83" d="M44.28,34.481a4.84,4.84,0,0,0,4.9-4.854c-.251-6.4-9.583-6.4-9.876,0a4.94,4.94,0,0,0,4.98,4.854Z" transform="translate(-34.739 -24.825)" fill="#fff"/>
        <path id="Path_84" data-name="Path 84" d="M44.846,52.883A11.885,11.885,0,0,0,38.82,51H37.23A11.885,11.885,0,0,0,31.2,52.883a5.622,5.622,0,0,0-2.8,4.687v1.758A1.16,1.16,0,0,0,29.53,60.5h16.99a1.16,1.16,0,0,0,1.13-1.172V57.57A5.622,5.622,0,0,0,44.846,52.883Z" transform="translate(-28.4 -40.047)" fill="#fff"/>
      </g>
    </g>
  </g>
</svg>
