<svg xmlns="http://www.w3.org/2000/svg" width="50" height="50" viewBox="0 0 50 50">
  <g id="Group_182" data-name="Group 182" transform="translate(-4939 -1885)">
    <rect id="Rectangle_71" data-name="Rectangle 71" width="50" height="50" rx="5" transform="translate(4939 1885)" fill="#c95151"/>
    <g id="icon" transform="translate(4943.056 1830.292)">
      <path id="Path_110" data-name="Path 110" d="M36.557,75.853a9.944,9.944,0,0,0,.095-1.381,10.475,10.475,0,0,0-18.845-6.294,8.908,8.908,0,0,0-2.1-.251A9.174,9.174,0,0,0,6.545,77.09c0,.128,0,.253.008.378a9.164,9.164,0,0,0,2.61,17.948H31.416a10.452,10.452,0,0,0,5.141-19.563ZM31.416,92.8H9.163a6.545,6.545,0,1,1,0-13.09c.2,0,.389.041.583.059A6.509,6.509,0,0,1,18.94,71.43a7.848,7.848,0,0,1,14.519,5.962A7.836,7.836,0,0,1,31.416,92.8Z" fill="#fff"/>
      <path id="Path_111" data-name="Path 111" d="M150.264,204.9l-3.7-3.7-3.7,3.7,7.405,7.4L161.37,201.2l-3.7-3.7Z" transform="translate(-131.171 -122.578)" fill="#fff"/>
    </g>
  </g>
</svg>
