<?xml version="1.0" encoding="utf-8"?>
<!-- Generator: Adobe Illustrator 18.0.0, SVG Export Plug-In . SVG Version: 6.00 Build 0)  -->
<!DOCTYPE svg PUBLIC "-//W3C//DTD SVG 1.1//EN" "http://www.w3.org/Graphics/SVG/1.1/DTD/svg11.dtd">
<svg version="1.1" id="Layer_1" xmlns="http://www.w3.org/2000/svg" xmlns:xlink="http://www.w3.org/1999/xlink" x="0px" y="0px"
	 viewBox="0 27 210 209.3" enable-background="new 0 27 210 209.3" xml:space="preserve">
<circle fill="#A0BF3B" cx="105" cy="129.2" r="102.2"/>
<path fill="#FFFFFF" d="M180.6,83c-3.5-8.4-9.8-7-16.8-5.6c-4.2,0.7-23.1,6.3-53.2,37.8C98,128.5,90.3,139,84.7,146.7
	c-3.5-4.2-7-8.4-11.2-12.6c-11.9-11.9-25.9-20.3-26.6-21c-5.6-3.5-13.3-1.4-16.8,4.2s-1.4,13.3,4.2,16.8c0,0,11.9,7,21.7,17.5
	c10.5,10.5,19.6,24.5,19.6,24.5c2.1,3.5,6.3,5.6,9.8,5.6c0.7,0,1.4,0,2.1,0c4.9-0.7,8.4-4.2,9.8-9.1c0,0,4.9-13.3,30.1-39.9
	c20.3-21.7,34.3-28.7,38.5-30.1l0,0c0,0,0,0,0.7,0s1.4-0.7,1.4-0.7h-0.7l0,0c2.1-0.7,6.3-2.8,6.3-2.8
	C181.3,95.6,183.4,89.3,180.6,83z"/>
</svg>
