<?xml version="1.0" encoding="utf-8"?>
<!-- Generator: Adobe Illustrator 18.0.0, SVG Export Plug-In . SVG Version: 6.00 Build 0)  -->
<!DOCTYPE svg PUBLIC "-//W3C//DTD SVG 1.1//EN" "http://www.w3.org/Graphics/SVG/1.1/DTD/svg11.dtd">
<svg version="1.1" id="Layer_1" xmlns="http://www.w3.org/2000/svg" xmlns:xlink="http://www.w3.org/1999/xlink" x="0px" y="0px"
	 viewBox="0 0 210 250" enable-background="new 0 0 210 250" xml:space="preserve">
<g>
	<circle fill="#A0BF3B" cx="105" cy="125" r="102.2"/>
	<path fill="#EDB20F" d="M165.1,67.1c-8.9,0.6-16.8,0-23.8-1.2c-24.4-4.4-36.6-17.5-37-17.9c0,0,0-0.1,0-0.1l0,0l0,0c0,0,0,0,0,0.1
		c-0.5,0.6-22.4,24-66.8,18.6c0,50.8,0,65.7,0,65.7c-0.3,4.3,2.4,14.9,10.4,27c3,4.5,6.6,9.2,11.2,13.8
		c10.5,10.7,25.5,21.3,46.7,28.7c63.1-26.8,65.3-69.6,65.3-69.6s0-15,0-65.7C169,66.8,167,67,165.1,67.1z"/>
	<path fill="#FFC50B" d="M104.3,48C104.3,48,104.3,47.9,104.3,48L104.3,48L104.3,48C104.2,47.9,104.2,48,104.3,48
		c-0.6,0.6-22.5,24-66.8,18.6c0,50.8,0,65.7,0,65.7c-0.3,4.3,2.4,14.9,10.4,27c3,4.5,6.6,9.2,11.2,13.8
		c10.5,10.7,25.5,21.3,46.7,28.7C105.8,201.8,104.7,48.4,104.3,48z"/>
</g>
<path fill="#FFFFFF" d="M179.6,79c-3.5-8.4-9.8-7-16.8-5.6c-4.2,0.7-23.1,6.3-53.2,37.8C97,124.5,89.3,135,83.7,142.7
	c-3.5-4.2-7-8.4-11.2-12.6c-11.9-11.9-25.9-20.3-26.6-21c-5.6-3.5-13.3-1.4-16.8,4.2s-1.4,13.3,4.2,16.8c0,0,11.9,7,21.7,17.5
	c10.5,10.5,19.6,24.5,19.6,24.5c2.1,3.5,6.3,5.6,9.8,5.6c0.7,0,1.4,0,2.1,0c4.9-0.7,8.4-4.2,9.8-9.1c0,0,4.9-13.3,30.1-39.9
	c20.3-21.7,34.3-28.7,38.5-30.1l0,0c0,0,0,0,0.7,0c0.7,0,1.4-0.7,1.4-0.7h-0.7l0,0c2.1-0.7,6.3-2.8,6.3-2.8
	C180.3,91.6,182.4,85.3,179.6,79z"/>
</svg>
