<?xml version="1.0" encoding="utf-8"?>
<!-- Generator: Adobe Illustrator 18.0.0, SVG Export Plug-In . SVG Version: 6.00 Build 0)  -->
<!DOCTYPE svg PUBLIC "-//W3C//DTD SVG 1.1//EN" "http://www.w3.org/Graphics/SVG/1.1/DTD/svg11.dtd">
<svg version="1.1" id="Layer_1" xmlns="http://www.w3.org/2000/svg" xmlns:xlink="http://www.w3.org/1999/xlink" x="0px" y="0px"
	 viewBox="0 0 30 30" enable-background="new 0 0 30 30" xml:space="preserve">
<g>
	<g>
		<circle fill="#FFC612" cx="15" cy="15" r="14.6"/>
	</g>
	<g>
		<path fill="#FFFFFF" d="M25.8,9c-0.5-1.2-1.4-1-2.4-0.8c-0.6,0.1-3.3,0.9-7.6,5.4c-1.8,1.9-2.9,3.4-3.7,4.5
			c-0.5-0.6-1-1.2-1.6-1.8c-1.7-1.7-3.7-2.9-3.8-3c-0.8-0.5-1.9-0.2-2.4,0.6c-0.5,0.8-0.2,1.9,0.6,2.4c0,0,1.7,1,3.1,2.5
			c1.5,1.5,2.8,3.5,2.8,3.5c0.3,0.5,0.9,0.8,1.4,0.8c0.1,0,0.2,0,0.3,0c0.7-0.1,1.2-0.6,1.4-1.3c0,0,0.7-1.9,4.3-5.7
			c2.9-3.1,4.9-4.1,5.5-4.3c0,0,0,0,0,0c0,0,0,0,0.1,0c0.1,0,0.2-0.1,0.2-0.1c0,0-0.1,0-0.1,0l0,0c0.3-0.1,0.9-0.4,0.9-0.4
			C25.9,10.8,26.2,9.9,25.8,9z"/>
	</g>
</g>
</svg>
