<?xml version="1.0" encoding="utf-8"?>
<!-- Generator: Adobe Illustrator 18.0.0, SVG Export Plug-In . SVG Version: 6.00 Build 0)  -->
<!DOCTYPE svg PUBLIC "-//W3C//DTD SVG 1.1//EN" "http://www.w3.org/Graphics/SVG/1.1/DTD/svg11.dtd">
<svg version="1.1" id="Layer_1" xmlns="http://www.w3.org/2000/svg" xmlns:xlink="http://www.w3.org/1999/xlink" x="0px" y="0px"
	 viewBox="0 0 210 250" enable-background="new 0 0 210 250" xml:space="preserve">
<circle fill-opacity="0.2" cx="105" cy="125" r="102.2"/>
<path fill="#FFFFFF" d="M93.2,137.6l-3.7-55.4c-0.7-10.8-1-18.5-1-23.2c0-6.4,1.7-11.4,5-15c3.4-3.6,7.8-5.4,13.2-5.4
	c6.6,0,11.1,2.3,13.3,6.9c2.2,4.6,3.4,11.2,3.4,19.8c0,5.1-0.3,10.3-0.8,15.5l-5,57c-0.5,6.8-1.7,12-3.5,15.6
	c-1.8,3.6-4.7,5.4-8.8,5.4c-4.2,0-7.1-1.7-8.7-5.3C95,150.1,93.9,144.8,93.2,137.6z M106,213.7c-4.7,0-8.8-1.5-12.3-4.6
	c-3.5-3-5.3-7.3-5.3-12.8c0-4.8,1.7-8.8,5-12.2c3.4-3.4,7.5-5,12.3-5c4.9,0,9,1.7,12.4,5c3.4,3.4,5.1,7.4,5.1,12.2
	c0,5.4-1.7,9.6-5.2,12.7C114.7,212.1,110.6,213.7,106,213.7z"/>
</svg>
