<?xml version="1.0" encoding="utf-8"?>
<!-- Generator: Adobe Illustrator 18.0.0, SVG Export Plug-In . SVG Version: 6.00 Build 0)  -->
<!DOCTYPE svg PUBLIC "-//W3C//DTD SVG 1.1//EN" "http://www.w3.org/Graphics/SVG/1.1/DTD/svg11.dtd">
<svg version="1.1" id="Layer_1" xmlns="http://www.w3.org/2000/svg" xmlns:xlink="http://www.w3.org/1999/xlink" x="0px" y="0px"
	 viewBox="0 0 210 250" enable-background="new 0 0 210 250" xml:space="preserve">
<circle fill="#D62428" cx="105" cy="124.3" r="103.6"/>
<path fill="#FFFFFF" d="M121.1,125.7l40.6-46.9c4.2-4.9,3.5-12.6-1.4-17.5c-4.9-4.2-12.6-3.5-17.5,1.4L105,106.8L66.5,62.7
	c-4.2-4.9-11.9-5.6-16.8-1.4c-5.6,4.9-6.3,12.6-1.4,17.5l40.6,46.9l-40.6,46.9c-4.2,4.9-3.5,12.6,1.4,17.5c2.1,2.1,4.9,2.8,7.7,2.8
	c3.5,0,7-1.4,9.1-4.2l37.8-44.1l37.8,44.1c2.1,2.8,5.6,4.2,9.1,4.2c2.8,0,5.6-0.7,7.7-2.8c4.9-4.2,5.6-11.9,1.4-17.5L121.1,125.7z"
	/>
</svg>
