<svg xmlns="http://www.w3.org/2000/svg" width="50" height="50" viewBox="0 0 50 50">
  <g id="Group_171" data-name="Group 171" transform="translate(-4893 -2407)">
    <rect id="Rectangle_79" data-name="Rectangle 79" width="50" height="50" rx="5" transform="translate(4893 2407)" fill="#3bb582"/>
    <g id="monologo" transform="translate(4888.586 2414.651)">
      <g id="g6" transform="translate(21.775 1.719)">
        <path id="path2" d="M20.362,11.693c-.469,0-.718.387-.718.856v6.3H7.217V6.446h7.677a.717.717,0,1,0,0-1.408h-8.2a.86.86,0,0,0-.856.856h0V19.452a.837.837,0,0,0,.828.856H20.2a.86.86,0,0,0,.856-.856V12.576C21.08,12.079,20.831,11.693,20.362,11.693Z" transform="translate(-5.837 -5.01)" fill="#fff"/>
        <path id="path4" d="M15.759,11.273a.9.9,0,0,0-1.215.166.938.938,0,0,0,.166,1.243l2.623,1.933a.658.658,0,0,0,.939,0c1.215-1.3,6.1-6.848,7.29-8.119a.94.94,0,0,0,.166-.994.88.88,0,0,0-.828-.525.777.777,0,0,0-.58.276c-1.215,1.3-5.44,6.186-6.572,7.428Z" transform="translate(-10.54 -4.976)" fill="#fff"/>
      </g>
      <g id="g848" transform="translate(21.795 18.029)">
        <path id="path844" d="M23.7,18.844H11.238V6.405H23.7Zm.55-13.851H10.711a.863.863,0,0,0-.859.859h0v13.6a.84.84,0,0,0,.831.859H24.258a.863.863,0,0,0,.859-.859l0-13.6a.877.877,0,0,0-.865-.859Z" transform="translate(-9.852 -4.992)" fill="#fff"/>
      </g>
    </g>
  </g>
</svg>
