<svg xmlns="http://www.w3.org/2000/svg" viewBox="0 0 16 16" enable-background="new 0 0 16 16"><g><circle fill="#4ABC96" cx="8" cy="8" r="7.9"/><path fill="#fff" d="M2.983 3.198l7.9-1.262 1.735 10.863-7.9 1.262z"/><g fill="#357180"><path d="M3.802 4.12l6.419-1.026.063.395-6.419 1.026zM4.015 5.217l6.419-1.025.063.395-6.419 1.025zM4.202 6.213l6.419-1.026.063.395-6.419 1.026zM4.388 7.28l3.555-.568.063.395-3.555.568z"/></g><path fill="#F7D98B" d="M7.347 10.491l1.958.409-.041.196-1.958-.409zM8.9 7.5l-1.5 3 1.9.4z"/><path fill="#626463" d="M8.9 7.5l-.6 1.3.8.2z"/><path fill="#F2BE3E" d="M4 36.6c-.1.4-.5.4-.9.3l-.5-.1c-.4-.1-.7-.2-.7-.6l.1-.3c.1-.4 2 0 1.9.4l.1.3z"/><path fill="#818282" d="M2.348 34.612l1.958.408-.265 1.273-1.958-.408z"/><path fill="#A4A5A4" d="M2.335 34.597l1.958.408-.041.196-1.958-.408zM2.243 34.994l1.958.409-.041.196-1.958-.409zM2.135 35.492l1.958.409-.041.196-1.958-.409z"/><path fill="#E84849" d="M8.9 11l-5 23.9.4.1 5-23.9-.1-.4zM7.7 10.8l-5 23.9.5.1 5-23.9-.2-.4z"/><path fill="#F06668" d="M7.3 10.7l-5 23.9.4.1 5-23.9-.2-.4zM8.2 10.9l-5 23.9.7.1 5-23.9-.3-.4z"/></g></svg>