<svg xmlns="http://www.w3.org/2000/svg" viewBox="0 0 100 100" enable-background="new 0 0 100 100"><g stroke-linejoin="round" stroke-linecap="round" stroke-miterlimit="10"><g stroke-width="3"><g stroke="#999"><g fill="#fff"><path d="m77.8 27.1h20.2l-25.5-24.4v19.1c0 3 2.4 5.3 5.3 5.3z"/><path d="M77.8,27.1c-3,0-5.3-2.3-5.3-5.3V2.7H32c-3,0-5.3,2.3-5.3,5.3v84.3c0,3,2.3,5.3,5.3,5.3h60.6
		c3,0,5.3-2.3,5.3-5.3V27.1H77.8z"/></g><path d="M42,63.9h39.1 M42,48h39.1 M42,80.2h39.1" fill="none"/></g><circle cx="26.2" cy="49.7" r="24.1" fill="#03a9f4" stroke="#03a9f4"/></g><path d="M26.2,65.4V36.2 M15.3,47.1l10.9-10.9l10.9,10.9" fill="none" stroke="#fff" stroke-width="5"/></g></svg>