<svg xmlns="http://www.w3.org/2000/svg" width="50" height="50" viewBox="0 0 50 50">
  <g id="Group_46" data-name="Group 46" transform="translate(-5006 -1885)">
    <rect id="Rectangle_70" data-name="Rectangle 70" width="50" height="50" rx="5" transform="translate(5006 1885)" fill="#45a1cb"/>
    <path id="Path_963-6_1_" d="M23.439,32.207a.814.814,0,0,1-.823-.779V27.705H13.785A1.368,1.368,0,0,1,12.4,26.32h0V1.385A1.368,1.368,0,0,1,13.785,0H28.5a1.273,1.273,0,0,1,.952.39l5.238,5.238a1.343,1.343,0,0,1,.39.952v19.7A1.368,1.368,0,0,1,33.7,27.662H24.824v3.68a.861.861,0,0,1-.823.866Zm9.394-6.84V9.307H27.205A1.359,1.359,0,0,1,25.82,7.965h0V2.338H14.694V25.411h7.922V22.034H20.409a.868.868,0,0,1-.866-.866,1.231,1.231,0,0,1,.173-.519l3.42-4.545a.868.868,0,0,1,1.169-.13c.043.043,3.463,4.675,3.463,4.675a.847.847,0,0,1-.173,1.212.908.908,0,0,1-.476.173H24.867v3.377ZM28.374,6.753h3.939L28.374,2.814S28.374,6.753,28.374,6.753Z" transform="translate(5007.6 1894)" fill="#fff"/>
  </g>
</svg>
