<svg xmlns="http://www.w3.org/2000/svg" viewBox="0 0 100 100" enable-background="new 0 0 100 100"><circle fill="#68B8CC" cx="49.8" cy="49.9" r="49.9"/><g><path fill="#E8E7E7" d="M22.05 20.814l47.598-7.601 10.503 65.767-47.598 7.601z"/><path fill="#fff" d="M24.455 18.398l48.186 1.226-1.694 66.58-48.186-1.226z"/><path fill="#4C4B4C" d="M58.5 27.8v-13c0-5.5-3-8.8-8.3-9.1-5.8.2-9 3.4-9 9v3.1l2.4-.4v-2.6c0-4.4 2.1-6.5 6.7-6.7 4 .2 6 2.4 6 6.7v40.9c0 3.1-3.1 4.2-4.7 4.2-1.1 0-2.1-.4-2.9-1.1-.8-.8-1.3-1.9-1.3-3.1v-26.1l-2.4.3v25.7c0 1.9.7 3.6 2 4.8 1.2 1.2 2.9 1.8 4.6 1.7 2.9 0 7-2 7-6.5v-27.8z"/></g><g><circle fill="#65A844" cx="84.5" cy="84.6" r="15.2"/><path fill="#fff" d="M94.4 83l-8.3-8.3c-.8-.8-2.2-.8-3.1 0l-8.3 8.3c-2 2 1.1 5 3.1 3l8.3-8.3h-3.1l8.3 8.3c2 2 5.1-1 3.1-3zM84.5 76.6v17.2"/><path fill="#fff" d="M82.4 76.6v17.2c0 2.8 4.3 2.8 4.3 0v-17.2c0-2.7-4.3-2.8-4.3 0z"/></g></svg>