<svg xmlns="http://www.w3.org/2000/svg" id="Layer_1" height="24px" width="24px" viewBox="0 0 100 100">
  <style>
    .st0{fill:#FFFFFF;stroke:#999999;stroke-width:3;stroke-linecap:round;stroke-linejoin:round;stroke-miterlimit:10;} .st1{fill:#999999;stroke:#999999;stroke-miterlimit:10;} .st2{fill:#8BC34A;stroke:#8BC34A;stroke-width:3;stroke-linecap:round;stroke-linejoin:round;stroke-miterlimit:10;} .st3{fill:#FFFFFF;stroke:#FFFFFF;stroke-miterlimit:10;}
  </style>
  <path d="M49.9 33.4h18.4L45 11.1v17.5c0 2.6 2.2 4.8 4.9 4.8z" class="st0"/>
  <path d="M49.9 33.4c-2.7 0-4.8-2.1-4.8-4.8V11.1h-37c-2.7 0-4.8 2.1-4.8 4.8v76.9c0 2.7 2.1 4.8 4.8 4.8h55.3c2.7 0 4.8-2.1 4.8-4.8V33.4H49.9z" class="st0"/>
  <path d="M18.8 44.6c-1 0-2-.4-2.8-1.1-.9-.8-1.3-1.9-1.3-3.2v-21c0-.5.4-.9.9-.9s.9.4.9.9v21c0 .7.3 1.4.7 1.8.4.4 1 .7 1.6.6.5 0 1.3-.2 1.9-.6.7-.4 1-1.1 1-1.8v-33c0-3-1.2-4.4-3.9-4.5-3.1.1-4.4 1.4-4.4 4.4v2.1c0 .5-.4.9-.9.9s-.9-.4-.9-.9V7.2c0-4.1 2.1-6.2 6.3-6.3 2.7.1 5.8 1.3 5.8 6.3v33c0 1.4-.7 2.6-1.8 3.4-1 .6-2.1.9-2.9.9-.1.1-.1.1-.2.1z" class="st1"/>
  <circle cx="79.7" cy="67" r="18.3" class="st2"/>
  <path d="M79.8 77.1c-.6 0-1-.5-1-1V57.4c0-.6.5-1 1-1 .6 0 1 .5 1 1v18.7c.1.6-.4 1-1 1z" class="st3"/>
  <path d="M89.2 67.8H70.5c-.6 0-1-.5-1-1 0-.6.5-1 1-1h18.7c.6 0 1 .5 1 1s-.4 1-1 1z" class="st3"/>
</svg>
