<?xml version="1.0" encoding="utf-8"?>
<!-- Generator: Adobe Illustrator 18.0.0, SVG Export Plug-In . SVG Version: 6.00 Build 0)  -->
<!DOCTYPE svg PUBLIC "-//W3C//DTD SVG 1.1//EN" "http://www.w3.org/Graphics/SVG/1.1/DTD/svg11.dtd">
<svg version="1.1" xmlns="http://www.w3.org/2000/svg" xmlns:xlink="http://www.w3.org/1999/xlink" x="0px" y="0px"
	 viewBox="0 0 100 100" enable-background="new 0 0 100 100" xml:space="preserve">
<g id="resource">
	<g>
		<g>
			<circle fill="#68B8CC" cx="49.8" cy="49.9" r="49.9"/>
		</g>
	</g>
</g>
<g id="Layer_4">
	<g>
		<g>
			
				<rect x="27" y="16.6" transform="matrix(0.9875 -0.1577 0.1577 0.9875 -7.23 8.6792)" fill="#E8E7E7" width="48.2" height="66.6"/>
		</g>
		<g>
			
				<rect x="23.6" y="19" transform="matrix(0.9997 2.543212e-02 -2.543212e-02 0.9997 1.3451 -1.1961)" fill="#FFFFFF" width="48.2" height="66.6"/>
		</g>
		<path fill="#4C4B4C" d="M58.5,27.8v-13c0-5.5-3-8.8-8.3-9.1c-5.8,0.2-9,3.4-9,9l0,3.1l2.4-0.4l0-2.6c0-4.4,2.1-6.5,6.7-6.7
			c4,0.2,6,2.4,6,6.7v13.4l0,27.5c0,3.1-3.1,4.2-4.7,4.2c-1.1,0-2.1-0.4-2.9-1.1c-0.8-0.8-1.3-1.9-1.3-3.1V29.6L45,29.9v25.7
			c0,1.9,0.7,3.6,2,4.8c1.2,1.2,2.9,1.8,4.6,1.7c2.9,0,7-2,7-6.5V27.8z"/>
	</g>
</g>
<g id="Layer_5">
	<g>
		<g>
			<g>
				<g>
					<circle fill="#65A844" cx="84.5" cy="84.6" r="15.2"/>
				</g>
			</g>
		</g>
		<g>
			<g>
				<g>
					<g>
						<g>
							<path fill="#FFFFFF" d="M94.4,83c-2.8-2.8-5.6-5.6-8.3-8.3c-0.8-0.8-2.2-0.8-3.1,0c-2.8,2.8-5.6,5.6-8.3,8.3
								c-2,2,1.1,5,3.1,3c2.8-2.8,5.6-5.6,8.3-8.3c-1,0-2,0-3.1,0c2.8,2.8,5.6,5.6,8.3,8.3C93.3,88,96.4,85,94.4,83L94.4,83z"/>
						</g>
					</g>
				</g>
				<g>
					<g>
						<g>
							<line fill="#FFFFFF" x1="84.5" y1="76.6" x2="84.5" y2="93.8"/>
						</g>
					</g>
					<g>
						<g>
							<g>
								<path fill="#FFFFFF" d="M82.4,76.6c0,6.6,0,10.6,0,17.2c0,2.8,4.3,2.8,4.3,0c0-6.6,0-10.6,0-17.2
									C86.7,73.9,82.4,73.8,82.4,76.6L82.4,76.6z"/>
							</g>
						</g>
					</g>
				</g>
			</g>
		</g>
	</g>
</g>
<g id="Layer_3" display="none">
	<g display="inline">
		<path fill="#FFFFFF" d="M85,44.1c-1.4,0-2.7,0.3-4,0.7c-1.4-9.6-8.9-16.9-18-16.9c-3,0-5.8,0.8-8.2,2.2
			C50.9,23.1,43.9,18.5,36,18.5c-10.2,0-18.8,7.6-21.4,17.9C7,38.1,1.3,45.3,1.3,54.1C1.3,64,8.6,72,17.6,72c1,0,2-0.1,2.9-0.3
			c0.4,0.1,0.7,0.1,1.1,0.1h61.9c0.8,0,1.6-0.1,2.3-0.4c6.4-0.5,11.5-6.4,11.5-13.6C97.4,50.2,91.9,44.1,85,44.1z"/>
		<g>
			<line fill="#4BBD97" x1="49.9" y1="81.9" x2="49.9" y2="49.1"/>
			<path fill="#68B8CC" d="M32.1,51.8c3.5,0,6.9,0,10.4,0c0,10,0,20.1,0,30.1c0,9.6,14.8,9.7,14.8,0.1c0-10.1,0-20.1,0-30.2
				c3.3,0,6.6,0,9.9,0c0.1,0,0.1,0,0.2,0c0.8-0.1,1.3-0.5,1.5-1.1c0.3-0.6,0.3-1.3-0.2-1.9c-0.1-0.1-0.1-0.2-0.2-0.2
				C62.6,42.7,56.8,36.9,51,31.1c-0.7-0.7-1.9-0.7-2.6,0c-5.9,5.9-11.7,11.7-17.6,17.6C29.7,49.8,30.5,51.8,32.1,51.8z"/>
		</g>
	</g>
</g>
</svg>
