<svg xmlns="http://www.w3.org/2000/svg" viewBox="0 0 100 100" enable-background="new 0 0 100 100"><g stroke-miterlimit="10"><g stroke="#999"><g fill="#fff" stroke-linejoin="round" stroke-linecap="round" stroke-width="3"><path d="m49.9 33.4h18.4l-23.3-22.3v17.5c0 2.6 2.2 4.8 4.9 4.8z"/><path d="m49.9 33.4c-2.7 0-4.8-2.1-4.8-4.8v-17.5h-37c-2.7 0-4.8 2.1-4.8 4.8v76.9c0 2.7 2.1 4.8 4.8 4.8h55.3c2.7 0 4.8-2.1 4.8-4.8v-59.4c0 0-18.3 0-18.3 0z"/></g><path d="m18.8 44.6c-1 0-2-.4-2.8-1.1-.9-.8-1.3-1.9-1.3-3.2v-21c0-.5.4-.9.9-.9.5 0 .9.4.9.9v21c0 .7.3 1.4.7 1.8.4.4 1 .7 1.6.6.5 0 1.3-.2 1.9-.6.7-.4 1-1.1 1-1.8v-33c0-3-1.2-4.4-3.9-4.5-3.1.1-4.4 1.4-4.4 4.4v2.1c0 .5-.4.9-.9.9-.5 0-.9-.4-.9-.9v-2.1c0-4.1 2.1-6.2 6.3-6.3 2.7.1 5.8 1.3 5.8 6.3v33c0 1.4-.7 2.6-1.8 3.4-1 .6-2.1.9-2.9.9-.1.1-.1.1-.2.1z" fill="#999"/><path d="M17.7,66.4h35.1 M17.7,52.1h35.1 M17.7,81h35.1" fill="none" stroke-linejoin="round" stroke-linecap="round" stroke-width="3"/></g><circle cx="79.7" cy="67" r="18.3" fill="#8bc34a" stroke="#8bc34a" stroke-linejoin="round" stroke-linecap="round" stroke-width="3"/><g fill="#fff" stroke="#fff"><path d="m79.8 77.1c-.6 0-1-.5-1-1v-18.7c0-.6.5-1 1-1 .6 0 1 .5 1 1v18.7c.1.6-.4 1-1 1z"/><path d="m89.2 67.8h-18.7c-.6 0-1-.5-1-1 0-.6.5-1 1-1h18.7c.6 0 1 .5 1 1 0 .5-.4 1-1 1z"/></g></g></svg>