<svg xmlns="http://www.w3.org/2000/svg" width="50" height="50" viewBox="0 0 50 50">
  <g id="Group_170" data-name="Group 170" transform="translate(-2169 -8780)">
    <g id="Group_169" data-name="Group 169" transform="translate(-2636 6715)">
      <g id="Group_57" data-name="Group 57" transform="translate(64 180)">
        <g id="Group_41" data-name="Group 41">
          <rect id="Rectangle_67" data-name="Rectangle 67" width="50" height="50" rx="5" transform="translate(4741 1885)" fill="#399be2"/>
        </g>
      </g>
    </g>
    <g id="monologo" transform="translate(2166.255 8793.863)">
      <path id="Path_108" data-name="Path 108" d="M32.828,6.612,26.654.438A1.551,1.551,0,0,0,25.515,0H8.22A1.589,1.589,0,0,0,6.6,1.62h0V30.956a1.589,1.589,0,0,0,1.62,1.62H31.733a1.589,1.589,0,0,0,1.62-1.62h0V7.794A2.248,2.248,0,0,0,32.828,6.612ZM24.9,2.934l5.473,5.473H24.9ZM8.921,30.3V2.189H22.45V9.02a1.636,1.636,0,0,0,1.664,1.664h6.831V30.256L8.921,30.3Z" transform="translate(8.152 -5.073)" fill="#fff"/>
    </g>
  </g>
</svg>
