<svg xmlns="http://www.w3.org/2000/svg" viewBox="0 0 210 250" enable-background="new 0 0 210 250"><circle fill="#E88524" cx="103.9" cy="125.5" r="97.2"/><path fill="#E8E8E8" d="M202.2 127.2c0-13-2.6-25.4-7.2-36.7h-134c-10.1 0-18.4 8.2-18.4 18.4v92.4c16.9 14.3 38.7 22.9 62.6 22.9 53.6-.1 97-43.5 97-97z"/><path fill="#BC2C2A" d="M65.8 93.9v102.5l38.4-27.3 38.5 27.3v-102.5z"/><path fill="#CC3432" d="M168.1 90.5c0-6.5-5.3-11.8-11.8-11.8h-78.7c-6.5 0-11.8 5.3-11.8 11.8v102.5l38.4-27.3 38.4 27.3v-102.5h25.5z"/><path fill="#DDA027" d="M104.2 104l7.3 14.7 16.3 2.4-11.8 11.5 2.8 16.2-14.6-7.7-14.5 7.7 2.8-16.2-11.8-11.5 16.3-2.4zM118.8 150.3c-.2 0-.5-.1-.7-.2l-13.9-7.3-13.9 7.3c-.5.3-1.1.2-1.6-.1-.5-.3-.7-.9-.6-1.5l2.6-15.4-11.2-10.9c-.4-.4-.6-1-.4-1.6.2-.6.7-1 1.2-1l15.5-2.3 6.9-14c.5-1 2.2-1 2.7 0l6.9 14 15.5 2.3c.6.1 1.1.5 1.2 1 .2.6 0 1.2-.4 1.6l-11.2 10.9 2.6 15.4c.1.6-.1 1.2-.6 1.5 0 .2-.3.3-.6.3zm-14.6-10.7c.2 0 .5.1.7.2l11.8 6.2-2.3-13.2c-.1-.5.1-1 .4-1.4l9.6-9.3-13.2-1.9c-.5-.1-.9-.4-1.2-.8l-5.9-12-5.9 12c-.2.5-.7.8-1.2.8l-13 2 9.6 9.3c.4.4.5.9.4 1.4l-2.3 13.1 11.8-6.2c.2-.1.5-.2.7-.2z"/></svg>