<?xml version="1.0" encoding="utf-8"?>
<!-- Generator: Adobe Illustrator 18.0.0, SVG Export Plug-In . SVG Version: 6.00 Build 0)  -->
<!DOCTYPE svg PUBLIC "-//W3C//DTD SVG 1.1//EN" "http://www.w3.org/Graphics/SVG/1.1/DTD/svg11.dtd">
<svg version="1.1" id="Layer_1" xmlns="http://www.w3.org/2000/svg" xmlns:xlink="http://www.w3.org/1999/xlink" x="0px" y="0px"
	 viewBox="0 0 210 250" enable-background="new 0 0 210 250" xml:space="preserve">
<circle fill="#E88524" cx="103.9" cy="125.5" r="97.2"/>
<g>
	<g>
		<path fill="#E8E8E8" d="M202.2,127.2c0-13-2.6-25.4-7.2-36.7H61c-10.1,0-18.4,8.2-18.4,18.4v92.4c16.9,14.3,38.7,22.9,62.6,22.9
			C158.8,224.1,202.2,180.7,202.2,127.2z"/>
	</g>
	<g>
		<polygon fill="#BC2C2A" points="65.8,93.9 65.8,196.4 104.2,169.1 142.7,196.4 142.7,93.9 		"/>
		<path fill="#CC3432" d="M168.1,90.5c0-6.5-5.3-11.8-11.8-11.8H77.6c-6.5,0-11.8,5.3-11.8,11.8V193l38.4-27.3l38.4,27.3v-49.3
			c0,0,0,0,0,0V90.5H168.1z"/>
		<polygon fill="#DDA027" points="104.2,104 111.5,118.7 127.8,121.1 116,132.6 118.8,148.8 104.2,141.1 89.7,148.8 92.5,132.6 
			80.7,121.1 97,118.7 		"/>
		<path fill="#DDA027" d="M118.8,150.3c-0.2,0-0.5-0.1-0.7-0.2l-13.9-7.3l-13.9,7.3c-0.5,0.3-1.1,0.2-1.6-0.1
			c-0.5-0.3-0.7-0.9-0.6-1.5l2.6-15.4l-11.2-10.9c-0.4-0.4-0.6-1-0.4-1.6c0.2-0.6,0.7-1,1.2-1l15.5-2.3l6.9-14c0.5-1,2.2-1,2.7,0
			l6.9,14l15.5,2.3c0.6,0.1,1.1,0.5,1.2,1c0.2,0.6,0,1.2-0.4,1.6l-11.2,10.9l2.6,15.4c0.1,0.6-0.1,1.2-0.6,1.5
			C119.4,150.2,119.1,150.3,118.8,150.3z M104.2,139.6c0.2,0,0.5,0.1,0.7,0.2l11.8,6.2l-2.3-13.2c-0.1-0.5,0.1-1,0.4-1.4l9.6-9.3
			l-13.2-1.9c-0.5-0.1-0.9-0.4-1.2-0.8l-5.9-12l-5.9,12c-0.2,0.5-0.7,0.8-1.2,0.8L84,122.2l9.6,9.3c0.4,0.4,0.5,0.9,0.4,1.4
			L91.7,146l11.8-6.2C103.7,139.7,104,139.6,104.2,139.6z"/>
	</g>
</g>
</svg>
