<svg xmlns="http://www.w3.org/2000/svg" viewBox="0 0 16 16" enable-background="new 0 0 16 16"><g><circle fill="#B1C635" cx="8" cy="7.9" r="7.9"/><path fill="#828282" d="M7.1 13.5l-.1.8c0 .3.3.4.9.4.5 0 .9-.1.9-.4l-.1-.8h-1.6z"/><path fill="#C0C0C0" d="M6.8 13l-.1.9c0 .4.4.3 1.2.3.8 0 1.3 0 1.3-.3l-.2-.9h-2.2z"/><path fill="#939292" d="M6.6 12.6l-.2.9c0 .4.5.4 1.3.4.9 0 1.4 0 1.4-.4l-.2-.9h-2.3z"/><path fill="#C0C0C0" d="M6.6 12.3l-.2 1c0 .4.6.4 1.5.4s1.4 0 1.4-.4l-.2-1h-2.5z"/><path fill="#A19F9F" d="M6.6 12.5l-.2.3c0 .4.5.4 1.4.4.9 0 1.5 0 1.5-.4l-.2-.3h-2.5z"/><path fill="#C0C0C0" d="M8.5 11.6h-1.3c-.4 0-.8.3-.8.7v.2c0 .4.6.4 1.5.4s1.4.1 1.4-.4v-.2c0-.3-.3-.7-.8-.7z"/><path fill="#828282" d="M7 14l-.1.3c0 .3.4.7 1.1.7.7 0 1.1-.4 1.1-.8l-.2-.2h-1.9z"/><path fill="#C0C0C0" d="M6.6 13.4l-.2.4c0 .4.5 1 1.5 1s1.6-.5 1.6-1l-.2-.4h-2.7z"/><path fill="#939292" d="M6.5 12.9l-.2.4c0 .5.6 1.1 1.7 1.1s1.8-.6 1.8-1.1l-.2-.4h-3.1z"/><path fill="#C0C0C0" d="M6.4 12.5l-.2.4c0 .5.6 1.1 1.7 1.1s1.8-.6 1.8-1.1l-.2-.4h-3.1z"/><path fill="#A19F9F" d="M6.4 12l-.2.4c0 .5.6 1.1 1.7 1.1s1.8-.6 1.8-1.1l-.1-.4h-3.2z"/><path fill="#C0C0C0" d="M8.8 10.9h-1.6c-.5 0-1 .4-1 .9v.2c0 .5.6 1.1 1.7 1.1s1.8-.6 1.8-1.1v-.2c.1-.5-.4-.9-.9-.9z"/><path fill="#F4E028" d="M9.6 11.5c0-2 2.8-2.3 2.8-5.5 0-2.5-2-4.5-4.5-4.5s-4.5 2-4.5 4.5c0 3.1 2.9 3.5 2.9 5.5 0 1.3 3.3 1.4 3.3 0z"/><path fill="#F6E568" d="M4.2 6.4c-.6-.7.1-2.6.8-3.2.7-.7 2.3-1.3 3-.6.6.6-3.1 4.4-3.8 3.8z"/><path fill="#F3E375" d="M9.2 9.1c-.1-.2-.2-.1-.2-.1-.4.1-.7 1.1-1 1.8-.2-.7-.6-1.7-1-1.8 0 0-.1 0-.2.1 0 .1.2.2.2.2.2.1.5.9.8 1.8l.1 1.4h.30000000000000004l.1-1.4c.3-1 .6-1.7.8-1.8 0 0 .1-.1.1-.2z"/><path fill="#A8A7A7" d="M7.9 13.2"/></g></svg>