<svg xmlns="http://www.w3.org/2000/svg" width="50" height="50" viewBox="0 0 50 50">
  <g id="Group_51" data-name="Group 51" transform="translate(-4741 -1975)">
    <rect id="Rectangle_76" data-name="Rectangle 76" width="50" height="50" rx="5" transform="translate(4741 1975)" fill="#e0a839"/>
    <g id="monologo" transform="translate(4740.5 1975.9)">
      <path id="Path_46" data-name="Path 46" d="M39.889,22.123c-.982,0-1.5.809-1.5,1.791V37.086h-26V11.146H28.449a1.5,1.5,0,1,0,0-2.946H11.291A1.8,1.8,0,0,0,9.5,9.99h0V38.357a1.751,1.751,0,0,0,1.733,1.791H39.542a1.8,1.8,0,0,0,1.791-1.791V23.971C41.391,22.931,40.871,22.123,39.889,22.123Z" transform="translate(0 -0.042)" fill="#fff"/>
      <path id="Path_47" data-name="Path 47" d="M26.291,21.272a1.889,1.889,0,0,0-2.542.347,1.962,1.962,0,0,0,.347,2.6l5.488,4.044a1.377,1.377,0,0,0,1.964,0C34.09,25.547,44.316,13.935,46.8,11.278a1.967,1.967,0,0,0,.347-2.08,1.84,1.84,0,0,0-1.733-1.1,1.626,1.626,0,0,0-1.213.578c-2.542,2.715-11.381,12.941-13.75,15.541Z" transform="translate(-5.872 0)" fill="#fff"/>
    </g>
  </g>
</svg>
