<svg xmlns="http://www.w3.org/2000/svg" width="50" height="50" viewBox="0 0 50 50">
  <g id="Group_187" data-name="Group 187" transform="translate(-4939 -1885)">
    <rect id="Rectangle_71" data-name="Rectangle 71" width="50" height="50" rx="5" transform="translate(4939 1885)" fill="#32b9ac"/>
    <g id="monologo" transform="translate(4943.6 1882.5)">
      <path id="Path_113" data-name="Path 113" d="M24.559,32.886a9.522,9.522,0,0,0-2.8-2.8,15.288,15.288,0,0,0-6.67-2.3A6.809,6.809,0,0,0,12.844,14.5a6.768,6.768,0,0,0-6.951,6.782,6.882,6.882,0,0,0,4.821,6.5,15.324,15.324,0,0,0-6.5,2.3A7.734,7.734,0,0,0,.4,36.585v2.13a2.536,2.536,0,0,0,.5,1.457H24.5l.056-7.287ZM10.6,21.282a2.27,2.27,0,0,1,2.3-2.074h.056A2.348,2.348,0,0,1,15.2,21.282a2.232,2.232,0,0,1-2.3,2.186A2.159,2.159,0,0,1,10.6,21.282Z" fill="none"/>
      <path id="Path_114" data-name="Path 114" d="M18,27.881a5.837,5.837,0,0,0,5.886-5.83c-.28-7.735-11.547-7.735-11.883,0A5.935,5.935,0,0,0,18,27.881Zm16.087.056a5.837,5.837,0,0,0,5.886-5.83c-.28-7.735-11.547-7.735-11.883,0A5.935,5.935,0,0,0,34.085,27.937Zm-3.307-5.83a3.315,3.315,0,0,1,6.614,0C37.168,26.368,30.946,26.368,30.778,22.108Zm11.6,9.7a14.091,14.091,0,0,0-7.287-2.242H33.076A14.63,14.63,0,0,0,25.789,31.8a6.7,6.7,0,0,0-3.363,5.661V39.6A1.375,1.375,0,0,0,23.771,41h20.46a1.412,1.412,0,0,0,1.345-1.4v-2.13c.168-2.186-1.009-4.2-3.2-5.661ZM43,38.419H25.341V37.69c.168-2.354,2.242-3.812,4.316-4.6a12.679,12.679,0,0,1,9.081,0c2.018.785,4.2,2.242,4.316,4.6Z" transform="translate(-5.098 -0.769)" fill="#fff"/>
      <path id="Path_115" data-name="Path 115" d="M19.749,41.794c-2.186-1.4-2.8-1.738-5.381-1.794H12.35a14.63,14.63,0,0,0-7.287,2.242A6.7,6.7,0,0,0,1.7,47.9v2.13a1.375,1.375,0,0,0,1.345,1.4H16.386c.168-6.5.168-6.5,3.363-9.641Z" transform="translate(-0.571 -11.206)" fill="#fff"/>
    </g>
  </g>
</svg>
