<svg xmlns="http://www.w3.org/2000/svg" width="50" height="50" viewBox="0 0 50 50">
  <g id="Group_187" data-name="Group 187" transform="translate(-4939 -1885)">
    <rect id="Rectangle_71" data-name="Rectangle 71" width="50" height="50" rx="5" transform="translate(4939 1885)" fill="#82119e"/>
    <g id="icon" transform="translate(4947 1893)">
      <path id="Path_117" data-name="Path 117" d="M34,17A17,17,0,1,1,17,0,17,17,0,0,1,34,17Zm0,0" fill="#fff" fill-rule="evenodd"/>
      <path id="Path_118" data-name="Path 118" d="M21.084,16.233V11.218L25.671,7.86V19.59Zm0,0-1.129-4.189c0-2.464-1.367-4.185-4.046-4.185H4.543v7.488A3.876,3.876,0,0,0,8.61,19.592H19.955V12.044Zm0,0" transform="translate(1.893 3.275)" fill="#82119e" fill-rule="evenodd"/>
    </g>
  </g>
</svg>
