<svg xmlns="http://www.w3.org/2000/svg" viewBox="0 0 16 16" enable-background="new 0 0 16 16"><circle fill="#A0BF19" cx="8" cy="8" r="8"/><g><circle fill="#A0BF19" cx="8" cy="8" r="8"/><path fill="#F6F6E7" d="M12.1 12.5c0 .6-.5 1.1-1.1 1.1h-6.1c-.6 0-1.1-.5-1.1-1.1v-8.5c0-.6.5-1.1 1.1-1.1h6.1c.6 0 1.1.5 1.1 1.1v8.5z"/><path fill="#B5B6B6" d="M5.1 6h3.9v.4h-3.9zM5 8.3h3.9v.4h-3.9zM5 10.6h3.9v.4h-3.9z"/><path fill="#CDCDCE" d="M10.8 6.4c0 .2-.2.4-.4.4h-.5c-.2 0-.4-.2-.4-.4v-.5c0-.2.2-.4.4-.4h.5c.2 0 .4.2.4.4v.5zM10.8 8.8c0 .2-.2.4-.4.4h-.5c-.1-.1-.3-.2-.3-.4v-.5c0-.2.2-.4.4-.4h.5c.2 0 .4.2.4.4l-.1.5z"/><path fill="#6CC077" d="M9.6 10.4h.4l.2.6.3-1.1h.4l-.5 1.5h-.3l-.5-1z"/><path fill="#99999A" d="M7.4 2s.2-.1.5-.1c.4 0 .7.1.7.1s-.3-.3-.6-.3c-.4 0-.6.3-.6.3zM4.9 3.1c0 .5.4.7 1 .7h4.2c.5 0 1-.2 1-.7h-6.2z"/><path fill="#aaa" d="M10.1 2.3h-1.4c0-.4-.3-.8-.8-.8-.4 0-.8.3-.8.8h-1.3c-.5 0-1 .2-1 .7 0 .5.4.6 1 .6h4.2c.5 0 1-.1 1-.6.1-.5-.3-.7-.9-.7zm-2.7 0c0-.3.3-.6.6-.6s.6.3.6.6-.3.6-.6.6c-.3-.1-.6-.3-.6-.6z"/></g></svg>