<svg xmlns="http://www.w3.org/2000/svg" height="24px" width="24px" viewBox="0 0 100 100" enable-background="new 0 0 100 100"><g stroke-miterlimit="10"><g stroke="#999"><g fill="#fff" stroke-linejoin="round" stroke-linecap="round" stroke-width="3"><path d="m92.3 2.2c3.4 0 6 2.6 6 5.7v83.8c0 3.2-2.7 5.7-6 5.7h-59.4c-3.3 0-6-2.6-6-5.7v-83.8c0-3.2 2.7-5.7 6-5.7h59.4z"/><path d="m44.1 34.5h25.1"/><path d="m44.1 49.7h25.1"/><path d="m44.1 66h25.1"/></g><g fill="#999"><circle cx="81.8" cy="66" r="2.7"/><circle cx="81.8" cy="49.4" r="2.7"/><circle cx="81.8" cy="34" r="2.7"/></g></g><g stroke-linejoin="round" stroke-linecap="round"><circle cx="26.4" cy="50" r="24" fill="#ff9800" stroke="#ff9800" stroke-width="3"/><path d="m12.4 50.2l11.2 11m0 0l15.3-20.2" fill="none" stroke="#fff" stroke-width="5"/></g></g></svg>
