<svg xmlns="http://www.w3.org/2000/svg" width="50" height="50" viewBox="0 0 50 50">
  <g id="Group_105" data-name="Group 105" transform="translate(-4805 -2245)">
    <g id="Group_92" data-name="Group 92" transform="translate(0 180)">
      <g id="Group_57" data-name="Group 57" transform="translate(64 180)">
        <g id="Group_41" data-name="Group 41">
          <rect id="Rectangle_67" data-name="Rectangle 67" width="50" height="50" rx="5" transform="translate(4741 1885)" fill="#f7981d"/>
        </g>
      </g>
    </g>
    <g id="monologo" transform="translate(4813.572 2254)">
      <path id="Path_73" data-name="Path 73" d="M8.114,45.9H1.352A1.306,1.306,0,0,0,0,47.252v9.772a1.332,1.332,0,0,0,1.352,1.352H8.114a1.306,1.306,0,0,0,1.352-1.352V47.209A1.322,1.322,0,0,0,8.114,45.9ZM7.2,56.064H2.312v-7.9H7.2Z" transform="translate(0 -25.877)" fill="#fff"/>
      <path id="Path_74" data-name="Path 74" d="M34.478,0H28.152A1.306,1.306,0,0,0,26.8,1.352v29.8A1.332,1.332,0,0,0,28.152,32.5h6.326a1.306,1.306,0,0,0,1.352-1.352V1.352A1.332,1.332,0,0,0,34.478,0Zm-.916,30.188h-4.45V2.312h4.45Z" transform="translate(-15.109)" fill="#fff"/>
      <path id="Path_75" data-name="Path 75" d="M60.814,19.4H54.052A1.306,1.306,0,0,0,52.7,20.752V42.085a1.332,1.332,0,0,0,1.352,1.352h6.762a1.306,1.306,0,0,0,1.352-1.352V20.752A1.332,1.332,0,0,0,60.814,19.4ZM59.9,41.125H55.012V21.668H59.9Z" transform="translate(-29.71 -10.937)" fill="#fff"/>
    </g>
  </g>
</svg>
