<svg xmlns="http://www.w3.org/2000/svg" width="50" height="50" viewBox="0 0 50 50">
  <g id="Group_187" data-name="Group 187" transform="translate(-4939 -1885)">
    <rect id="Rectangle_71" data-name="Rectangle 71" width="50" height="50" rx="5" transform="translate(4939 1885)" fill="#e0a839"/>
    <g id="icon" transform="translate(4937.934 1891.374)">
      <g id="Group_190" data-name="Group 190" transform="translate(12.368 -0.374)">
        <path id="Path_115" data-name="Path 115" d="M38.469,23.112a14.728,14.728,0,0,0-3.215-2.168c-.61-.306-.79-.608-.724-1.138a23.91,23.91,0,0,0-.44-9.469c-1.068-3.888-3.44-7.312-7.339-10.492a1.291,1.291,0,0,0-1.58.11A24.383,24.383,0,0,0,20.7,4.615a18.535,18.535,0,0,0-3.482,9.566,31.453,31.453,0,0,0,.244,6.438.392.392,0,0,1-.167.339c-1.022.664-2.1,1.283-3.085,1.974a3.852,3.852,0,0,0-1.84,3.109,8.156,8.156,0,0,0,.4,2.719,25.963,25.963,0,0,0,3.245,6.321,1.176,1.176,0,0,0,.445.4,1.234,1.234,0,0,0,1.6-.376q1.4-1.985,2.787-3.974a.541.541,0,0,1,.524-.234c1.21,0,2.42,0,3.63,0v3.63a1.1,1.1,0,0,0,2.2,0V30.894c1.251,0,2.5,0,3.754,0a.531.531,0,0,1,.519.238q1.267,1.821,2.567,3.63a1.369,1.369,0,0,0,.522.463,1.2,1.2,0,0,0,1.589-.446c.733-1.22,1.493-2.433,2.136-3.677a11.9,11.9,0,0,0,1.459-4.584A3.851,3.851,0,0,0,38.469,23.112ZM19.177,30.124c-.672.98-1.361,1.955-2.091,3a16.72,16.72,0,0,1-2.56-6.2,2.722,2.722,0,0,1,.5-2.289,10.468,10.468,0,0,1,2.734-1.969c.107.518.213,1.023.316,1.528q.569,2.8,1.133,5.593A.446.446,0,0,1,19.177,30.124Zm12.39-4.954c-.25,1.359-.493,2.717-.741,4.076-.007.038-.02.076-.035.129l-3.589,0V21.754a1.1,1.1,0,1,0-2.2,0v7.624l-3.713,0c-.228-1.11-.474-2.181-.665-3.258-.422-2.39-.914-4.775-1.2-7.172a19.8,19.8,0,0,1,1.143-10A18.829,18.829,0,0,1,25.353,2.2c.2-.184.392-.37.59-.555a.657.657,0,0,1,.112-.053c.351.321.722.638,1.059.972a18.8,18.8,0,0,1,4.134,5.893,18.139,18.139,0,0,1,1.418,6.778A48.039,48.039,0,0,1,31.567,25.17Zm6.056,1.3a11.675,11.675,0,0,1-1.39,4.263c-.342.692-.742,1.369-1.163,2.138-.75-1.071-1.443-2.051-2.125-3.038a.336.336,0,0,1-.037-.25q.7-3.488,1.4-6.976a2.294,2.294,0,0,1,.077-.23,10.413,10.413,0,0,1,2.792,2.109A2.589,2.589,0,0,1,37.624,26.466Z" transform="translate(-12.368 0.374)" fill="#fff"/>
        <path id="Path_116" data-name="Path 116" d="M44.391,27.391a3.555,3.555,0,0,0-2.384.939,3.433,3.433,0,0,0-1.084,2.391,3.465,3.465,0,1,0,3.467-3.329ZM43.335,29.74a1.547,1.547,0,0,1,2.19.094,1.581,1.581,0,0,1-.086,2.194,1.542,1.542,0,0,1-1.058.436,1.522,1.522,0,0,1-1.111-.5,1.59,1.59,0,0,1-.411-1.149A1.53,1.53,0,0,1,43.335,29.74Z" transform="translate(-30.641 -17.395)" fill="#fff"/>
      </g>
    </g>
  </g>
</svg>
