<svg xmlns="http://www.w3.org/2000/svg" viewBox="0 0 16 16" enable-background="new 0 0 16 16"><g><circle fill="#49A0AE" cx="8" cy="7.9" r="7.9"/><path fill="#DFF1ED" d="M14.3 10.9c0 .7-.6 1.3-1.3 1.3h-9.9c-.7 0-1.3-.6-1.3-1.3v-5.8c0-.7.6-1.3 1.3-1.3h9.9c.7 0 1.3.6 1.3 1.3v5.8zM11.3 13.9c-.1.1-.3.1-.4 0l-1.3-1.8c-.1-.1-.1-.3 0-.4h2.9c.1.1.1.3 0 .4l-1.2 1.8z"/><path fill="#B7CAC4" d="M12.4 6c0 .3-.2.5-.5.5h-7.8c-.2 0-.5-.2-.5-.5s.2-.5.5-.5h7.8c.3 0 .5.2.5.5zM12.4 7.9c0 .3-.2.5-.5.5h-7.8c-.3 0-.5-.2-.5-.5s.2-.5.5-.5h7.8c.3 0 .5.2.5.5zM12.4 9.8c0 .3-.2.5-.5.5h-7.8c-.3 0-.5-.2-.5-.5s.2-.5.5-.5h7.8c.3 0 .5.2.5.5z"/></g><g><path fill="#DFF1ED" d="M14.3 11.1c0 .7-.6 1.3-1.3 1.3h-9.9c-.7 0-1.3-.6-1.3-1.3v-6c0-.7.6-1.3 1.3-1.3h9.9c.7 0 1.3.6 1.3 1.3v6zM11.3 14.2c-.1.1-.3.1-.4 0l-1.3-1.8c-.1-.1-.1-.3 0-.4h2.9c.1.1.1.3 0 .4l-1.2 1.8z"/><circle fill="#B7CAC4" cx="5.4" cy="8.3" r=".8"/><circle fill="#B7CAC4" cx="8" cy="8.3" r=".8"/><circle fill="#B7CAC4" cx="10.6" cy="8.3" r=".8"/></g></svg>