<svg xmlns="http://www.w3.org/2000/svg" width="50" height="50" viewBox="0 0 50 50">
  <g id="Group_44" data-name="Group 44" transform="translate(-4872 -1885)">
    <rect id="Rectangle_69" data-name="Rectangle 69" width="50" height="50" rx="5" transform="translate(4872 1885)" fill="#8bc34a"/>
    <path id="monologo" d="M36.122,18.834C33.827,14.544,28.888,12.6,24.447,12.7a9.817,9.817,0,0,0-3.692-5.189C14.819,3.119,4.94,4.017,1,11c-2.544,4.74.1,10.028,4.341,12.273v4.74a1.2,1.2,0,0,0,1.1,1.2.837.837,0,0,0,.7-.3l3.742-3.891a10.808,10.808,0,0,0,1.8.05c1.8,5.787,8.232,8.332,13.57,7.783l3.742,3.892a1.02,1.02,0,0,0,1.547-.05,1.4,1.4,0,0,0,.3-.748v-4.79C36.072,28.912,38.666,23.574,36.122,18.834ZM7.036,21.329c-3.842-1.846-5.638-5.638-3.792-9.18,1.9-3.293,5.638-4.64,9.03-4.69a11.005,11.005,0,0,1,6.735,2.1A7.231,7.231,0,0,1,21.7,13.047c-4.49.649-9.429,4.191-9.429,9.479-.549,0-1.1-.05-1.7-.1a1.306,1.306,0,0,0-.848.249l-2.2,2.245V22.277C7.634,21.978,7.385,21.578,7.036,21.329Zm8.581-1.347C18.86,14.494,27.142,14,31.781,17.587a6.844,6.844,0,0,1,2.844,5.338c0,2.594-1.7,4.939-4.54,6.386a1.078,1.078,0,0,0-.6,1V33l-2.2-2.245a.924.924,0,0,0-.9-.3,9.681,9.681,0,0,1-1.7.1,13.171,13.171,0,0,1-3.891-.6c-3.891-1.3-7.583-5.538-5.189-9.978Z" transform="translate(4877.998 1889.17)" fill="#fff"/>
  </g>
</svg>
