<svg xmlns="http://www.w3.org/2000/svg" viewBox="0 0 16 16" enable-background="new 0 0 16 16"><g><circle fill="#EDC92C" cx="8" cy="8.1" r="8"/><path fill="#DADADA" d="M11.8 13.1c0 .6-.4 1-1 1h-7c-.6 0-1-.4-1-1v-10c0-.6.5-1 1-1h7c.6 0 1 .4 1 1v10z"/><path fill="#F5F5F5" d="M12.1 13.2c0 .6-.5 1-1 1h-7c-.6 0-1-.4-1-1v-10.1c0-.6.5-1 1-1h7c.6 0 1 .4 1 1v10.1z"/><path fill="#C9C9C8" d="M11.3 6.2c0 .1-.1.2-.2.2h-6.7c-.1 0-.2-.1-.2-.2s.1-.2.2-.2h6.7c.1-.1.2 0 .2.2zM11.3 7.3c0 .1-.1.2-.2.2h-6.7c-.1 0-.2-.1-.2-.2 0-.2 0-.3.2-.3h6.7c.1 0 .2.1.2.3zM11.3 8.3c0 .1-.1.2-.2.2h-6.7c-.1 0-.2-.1-.2-.2s.1-.2.2-.2h6.7c.1 0 .2.1.2.2zM11.3 9.4c0 .1-.1.2-.2.2h-6.7c-.1 0-.2-.1-.2-.2s.1-.2.2-.2h6.7c.1 0 .2.1.2.2zM7.9 10.3h-3.5c-.1 0-.2.1-.2.2s.1.2.2.2h3.5c.1 0 .2-.1.2-.2s-.1-.2-.2-.2z"/><path fill="#A0E0BD" d="M13.2 12.1c0 .6-.5 1.1-1.1 1.1v-4.1c.6 0 1.1.5 1.1 1.1v1.9z"/><path fill="#46CC8C" d="M13.2 9.2c0 .6-.5 1.1-1.1 1.1v-4.1c.6 0 1.1.5 1.1 1.1v1.9z"/><path fill="#049E54" d="M13.2 5.8c0 .6-.5 1.1-1.1 1.1v-4.1c.6 0 1.1.5 1.1 1.1v1.9z"/></g></svg>