<svg xmlns="http://www.w3.org/2000/svg" viewBox="0 0 100 100" enable-background="new 0 0 100 100"><g stroke-linejoin="round" stroke-linecap="round" stroke-width="3" stroke-miterlimit="10"><g stroke="#999"><g fill="#fff"><path d="m77.8 27.1h20.2l-25.5-24.4v19.1c0 3 2.4 5.3 5.3 5.3z"/><path d="m77.8 27.1c-3 0-5.3-2.3-5.3-5.3v-19.1h-40.5c-3 0-5.3 2.3-5.3 5.3v84.3c0 3 2.3 5.3 5.3 5.3h60.6c3 0 5.3-2.3 5.3-5.3v-65.2c0 0-20.1 0-20.1 0z"/></g><path d="M42,63.9h39.1 M42,48h39.1 M42,80.2h39.1" fill="none"/></g><circle cx="26.1" cy="50.2" r="24.2" fill="#009688" stroke="#009688"/></g><path d="m32.1 53.6h-1.3l-.4-.4c1.6-1.8 2.5-4.2 2.5-6.8 0-5.8-4.7-10.4-10.4-10.4s-10.4 4.7-10.4 10.4 4.7 10.4 10.4 10.4c2.6 0 4.9-1 6.8-2.5l.4.4v1.3l8 8 2.4-2.4c0 0-8-8-8-8m-9.6 0c-4 0-7.2-3.2-7.2-7.2s3.2-7.2 7.2-7.2 7.2 3.2 7.2 7.2-3.2 7.2-7.2 7.2" fill="#fff"/></svg>