<svg xmlns="http://www.w3.org/2000/svg" width="50" height="50" viewBox="0 0 50 50">
  <g id="Group_48" data-name="Group 48" transform="translate(-4939 -1975)">
    <rect id="Rectangle_73" data-name="Rectangle 73" width="50" height="50" rx="5" transform="translate(4939 1975)" fill="#32b9ac"/>
    <path id="monologo" d="M33.2,29.569V2.874A.97.97,0,0,0,32.638,2L28.849.087A1.547,1.547,0,0,0,28.413,0H7.554A.966.966,0,0,0,6.6.958V31.442a.96.96,0,0,0,.958.958h20.86a1.547,1.547,0,0,0,.435-.087L32.638,30.4A.871.871,0,0,0,33.2,29.569Zm-2.265-.827-1.916.958V25.127l1.916-.958Zm0-7.142-1.916.958V17.985l1.916-.958Zm0-7.011-1.916.958V10.974l1.916-.958ZM30.46,7.708,27.325,9.015a1.16,1.16,0,0,0-.566.871V30.092H8.9V2.265H27.847l2.569,1.219Z" transform="translate(4944.408 1984)" fill="#fff"/>
  </g>
</svg>
