<svg xmlns="http://www.w3.org/2000/svg" width="50" height="50" viewBox="0 0 50 50">
  <g id="Group_210" data-name="Group 210" transform="translate(-4741 -2155)">
    <g id="Group_91" data-name="Group 91" transform="translate(0 90)">
      <g id="Group_56" data-name="Group 56" transform="translate(0 180)">
        <g id="Group_41" data-name="Group 41">
          <rect id="Rectangle_67" data-name="Rectangle 67" width="50" height="50" rx="5" transform="translate(4741 1885)"/>
        </g>
      </g>
    </g>
    <g id="monologo" transform="translate(4742.8 2149)">
      <path id="Path_68" data-name="Path 68" d="M25.315,31.675a2.735,2.735,0,0,0-3.826.432h0l-.432.494-2.653-.37c-1.481-.185-2.653-.432-2.715-.432a3.494,3.494,0,0,1,.185-1.111c.185-.987,2.036-9.071,2.16-9.5L18.1,21H13.158v8.577H6.371V21H.2V40.931H6.371v-7.4h6.664V40.87h3.7c1.975,0,3.641,0,3.579-.062-.185-.123-.494-.185-.679-.309a6.605,6.605,0,0,1-3.147-2.653,6.678,6.678,0,0,1-.864-2.1,23.79,23.79,0,0,1,2.715-.432L21,34.946l.494.494a2.718,2.718,0,1,0,4.2-3.456C25.562,31.984,25.438,31.8,25.315,31.675Z" transform="translate(0 0)" fill="#fff"/>
      <path id="Path_69" data-name="Path 69" d="M59.3,27.047a6.651,6.651,0,0,0-.247-2.221,5.106,5.106,0,0,0-3.949-3.579c-.74-.185-1.111-.185-5.43-.247h-4.69v4.134H35.979l-.309,1.358c-.185.74-.309,1.419-.37,1.543,0,.062,0,.123.123.062a5.815,5.815,0,0,1,1.049-.309,6.913,6.913,0,0,1,2.592-.247,7.836,7.836,0,0,1,2.53.247,6.04,6.04,0,0,1,2.715,1.728A5.541,5.541,0,0,1,45.975,33.9c0,3.085-1.851,5.986-4.258,6.788a4.894,4.894,0,0,0-.555.247,33.5,33.5,0,0,0,3.517.123h3.579v-7.4h1.666a21.923,21.923,0,0,0,4.937-.37,5.791,5.791,0,0,0,4.258-4.134A6.189,6.189,0,0,0,59.3,27.047Zm-6.047.864a2.367,2.367,0,0,1-1.543,1.419,7.823,7.823,0,0,1-2.1.185l-1.543.062V24.949l1.6.062a10.693,10.693,0,0,1,1.975.185,2.207,2.207,0,0,1,1.6,2.715Z" transform="translate(-13.441)" fill="#fff"/>
    </g>
  </g>
</svg>
