<svg xmlns="http://www.w3.org/2000/svg" viewBox="0 0 16 16" enable-background="new 0 0 16 16"><g><circle fill="#EFC849" cx="8" cy="8" r="8"/><g><path fill="#E0E4E3" d="M14.9 4.9c0-.9-.7-1.6-1.6-1.6h-10.6c-.8 0-1.5.7-1.5 1.6v6.6c0 .9.7 1.6 1.6 1.6h10.6c.9 0 1.6-.7 1.6-1.6l-.1-6.6z"/><path fill="#D1D3D3" d="M14.9 4.7c-.1-.8-.8-1.4-1.6-1.4h-10.6c-.9 0-1.6.7-1.6 1.6v.3h13.7v-.5z"/><circle fill="#E84849" cx="2.4" cy="4.3" r=".4"/><circle fill="#EFC849" cx="3.7" cy="4.3" r=".4"/><circle fill="#37B34C" cx="5" cy="4.3" r=".4"/></g><path fill="#666665" d="M8.3 6.5v.5c0 .1-.4.2-.6.2h-4.6c-.2 0-.5-.1-.5-.1-.1 0-.2-.4-.1-.6 0-.1.4-.2.6-.2h4.7c.2 0 .5.1.5.2zM13.6 8.7c0 .3-.2.5-.5.5h-10.2c-.3 0-.5-.2-.5-.5s.2-.5.5-.5h10.2c.3 0 .5.2.5.5zM13.7 10.6c0 .3-.2.5-.5.5h-10.3c-.3 0-.5-.2-.5-.5s.2-.5.5-.5h10.2c.3 0 .6.3.6.5z"/><path fill="#fff" d="M13.7 4.4c0 .3-.1.5-.3.5h-6.1c-.2 0-.3-.2-.3-.5s.1-.5.3-.5h6c.2 0 .4.2.4.5z"/><circle fill="#3CB881" cx="12.1" cy="12.1" r="3.7"/><path fill="#F7D98B" d="M14 10.1l-3.4 1.9-.1.2 1.6 1.6.2-.2z"/><path fill="#626463" d="M14.1 10.1l-1.5.8.7.7z"/><path fill="#E84849" d="M12.3 13.4h-.5l-1.8 1.8c.1.1.3.2.5.3l1.7-1.7.1-.4zM9.4 14.7l1.8-1.8v-.5h-.5l-1.7 1.8.4.5z"/><path fill="#F06668" d="M10.8 12.4l.1-.5-.3.2-1.7 1.7c-.1.2 0 .3.1.4l1.8-1.8zM10 15.2l1.8-1.8v-.5h-.5l-1.8 1.8c.1.2.3.4.5.5z"/></g></svg>