<svg xmlns="http://www.w3.org/2000/svg" height="24px" width="24px" viewBox="0 0 100 100" enable-background="new 0 0 100 100"><g stroke-linejoin="round" stroke-linecap="round" stroke-miterlimit="10"><g stroke-width="3"><g stroke="#999"><g fill="#fff"><path d="m77.8 27.1h20.2l-25.5-24.4v19.1c0 3 2.4 5.3 5.3 5.3z"/><path d="m77.8 27.1c-3 0-5.3-2.3-5.3-5.3v-19.1h-40.5c-3 0-5.3 2.3-5.3 5.3v84.3c0 3 2.3 5.3 5.3 5.3h60.6c3 0 5.3-2.3 5.3-5.3v-65.2c0 0-20.1 0-20.1 0z"/></g><path d="M42,63.9h39.1 M42,48h39.1 M42,80.2h39.1" fill="none"/></g><circle cx="26.1" cy="50.2" r="24.2" fill="#009688" stroke="#009688"/></g><path d="M26.1,62.7V37.1 M13.3,49.9h25.5" fill="none" stroke="#fff" stroke-width="5"/></g></svg>
