<svg xmlns="http://www.w3.org/2000/svg" width="50" height="50" viewBox="0 0 50 50">
  <g id="Group_99" data-name="Group 99" transform="translate(-4997 -2155)">
    <g id="Group_90" data-name="Group 90" transform="translate(0 90)">
      <g id="Group_60" data-name="Group 60" transform="translate(256 180)">
        <g id="Group_41" data-name="Group 41">
          <rect id="Rectangle_67" data-name="Rectangle 67" width="50" height="50" rx="5" transform="translate(4741 1885)" fill="#32b9ac"/>
        </g>
      </g>
    </g>
    <path id="monologo" d="M33.506,4.993a9.483,9.483,0,0,0-3.172-1.471,39.392,39.392,0,0,0-19.076,0A8.72,8.72,0,0,0,8.087,4.993,2.856,2.856,0,0,0,6.8,7.2V29.539a2.931,2.931,0,0,0,1.287,2.206,9.483,9.483,0,0,0,3.172,1.471,39.392,39.392,0,0,0,19.076,0,8.72,8.72,0,0,0,3.172-1.471,2.856,2.856,0,0,0,1.287-2.206V7.2A2.8,2.8,0,0,0,33.506,4.993ZM9.052,10.1a16.456,16.456,0,0,0,4.918,1.471,36.4,36.4,0,0,0,6.711.552,40.89,40.89,0,0,0,6.711-.552A16.865,16.865,0,0,0,32.311,10.1v4.551c0,.046,0,.092-.138.23a1.622,1.622,0,0,1-.506.414,8.758,8.758,0,0,1-2.3.873,36.62,36.62,0,0,1-17.283,0,10.741,10.741,0,0,1-2.3-.873,2.337,2.337,0,0,1-.6-.414c-.138-.138-.138-.23-.138-.23V10.1ZM32.4,29.493c0,.046,0,.092-.138.23a2.865,2.865,0,0,1-.552.414,8.759,8.759,0,0,1-2.3.873,36.62,36.62,0,0,1-17.283,0,10.741,10.741,0,0,1-2.3-.873,2.337,2.337,0,0,1-.6-.414c-.138-.138-.138-.23-.138-.23l.046-4.551a16.456,16.456,0,0,0,4.918,1.471,36.4,36.4,0,0,0,6.711.552,36.4,36.4,0,0,0,6.711-.552A16.865,16.865,0,0,0,32.4,24.942v4.551Zm0-7.355c0,.046,0,.092-.138.23s-.322.23-.552.414a8.758,8.758,0,0,1-2.3.873,36.62,36.62,0,0,1-17.283,0,10.741,10.741,0,0,1-2.3-.873,2.337,2.337,0,0,1-.6-.414c-.138-.138-.138-.23-.138-.23V17.588a16.456,16.456,0,0,0,4.918,1.471,41.662,41.662,0,0,0,13.514,0,16.865,16.865,0,0,0,4.918-1.471L32.4,22.138ZM32.265,7.429c-.184.138-.414.276-.6.414a8.758,8.758,0,0,1-2.3.873,34.185,34.185,0,0,1-8.642,1.011,32.435,32.435,0,0,1-8.642-1.011,10.741,10.741,0,0,1-2.3-.873,2.337,2.337,0,0,1-.6-.414c-.138-.138-.138-.23-.138-.23s0-.092.138-.23a2.228,2.228,0,0,1,.6-.414,8.759,8.759,0,0,1,2.3-.873,36.62,36.62,0,0,1,17.283,0,10.741,10.741,0,0,1,2.3.873,2.337,2.337,0,0,1,.6.414c.138.138.138.23.138.23S32.449,7.291,32.265,7.429Z" transform="translate(5001.2 2161.65)" fill="#fff"/>
  </g>
</svg>
