<?xml version="1.0" encoding="utf-8"?>
<!-- Generator: Adobe Illustrator 17.1.0, SVG Export Plug-In . SVG Version: 6.00 Build 0)  -->
<!DOCTYPE svg PUBLIC "-//W3C//DTD SVG 1.1//EN" "http://www.w3.org/Graphics/SVG/1.1/DTD/svg11.dtd">
<svg version="1.1" id="Layer_1" xmlns="http://www.w3.org/2000/svg" xmlns:xlink="http://www.w3.org/1999/xlink" x="0px" y="0px"
	 viewBox="0 0 50 50" enable-background="new 0 0 50 50" xml:space="preserve">
<g id="Layer_5_1_">
	<g>
		<g>
			<g>
				<circle fill="#4ABC96" cx="25" cy="24.2" r="23.1"/>
			</g>
		</g>
		<g>
			<g>
				<g>
					<path fill="#A3D4AA" d="M35.8,14.3c0,0.6-0.5,1.1-1.1,1.1h-6.7c-0.6,0-1.1-0.5-1.1-1.1v-3.9c0-0.6,0.5-1.1,1.1-1.1h6.7
						c0.6,0,1.1,0.5,1.1,1.1V14.3z"/>
					<path fill="#A3D4AA" d="M38.9,26.7c0,1.9-1.6,3.5-3.5,3.5H13.7c-1.9,0-3.5-1.6-3.5-3.5V14.2c0-1.9,1.6-3.5,3.5-3.5h21.7
						c1.9,0,3.5,1.6,3.5,3.5V26.7z"/>
				</g>
				<g>
					
						<rect x="29.7" y="11.9" transform="matrix(0.7071 -0.7071 0.7071 0.7071 -1.9324 26.2474)" opacity="0.15" enable-background="new    " width="2.1" height="7"/>
					<g>
						<path fill="#F6A2A3" d="M29.3,16.9c0,0.6-0.5,1.1-1.1,1.1h-6.7c-0.6,0-1.1-0.5-1.1-1.1V13c0-0.6,0.5-1.1,1.1-1.1h6.7
							c0.6,0,1.1,0.5,1.1,1.1C29.3,13,29.3,16.9,29.3,16.9z"/>
					</g>
					<path fill="#F6A2A3" d="M38.9,29.5c0,1.9-1.6,3.5-3.5,3.5H13.7c-1.9,0-3.5-1.6-3.5-3.5V16.9c0-1.9,1.6-3.5,3.5-3.5h21.7
						c1.9,0,3.5,1.6,3.5,3.5V29.5z"/>
				</g>
				
					<rect x="23" y="14.5" transform="matrix(0.7072 -0.7071 0.7071 0.7072 -5.7387 22.2704)" opacity="0.15" enable-background="new    " width="2.1" height="7"/>
				<g>
					<path fill="#F9F29A" d="M22.8,19.7c0,0.6-0.5,1.1-1.1,1.1h-6.7c-0.6,0-1.1-0.5-1.1-1.1v-3.9c0-0.6,0.5-1.1,1.1-1.1h6.7
						c0.6,0,1.1,0.5,1.1,1.1V19.7z"/>
					<path fill="#F9F29A" d="M38.9,35.8H10.3V19.8c0-1.9,1.6-3.5,3.5-3.5h11.9h9.8c1.9,0,3.5,1.6,3.5,3.5V35.8z"/>
				</g>
			</g>
			<g>
				<g>
					<g>
						<path fill="#886A29" d="M28.3,27.2h1v0.4h-1V27.2z"/>
						<path fill="#886A29" d="M29.2,27.5h1v0.4h-1V27.5z"/>
						<path fill="#886A29" d="M28.3,27.9h1v0.4h-1V27.9z"/>
						<path fill="#886A29" d="M29.2,28.2h1v0.4h-1V28.2z"/>
						<path fill="#886A29" d="M28.3,28.6h1v0.4h-1V28.6z"/>
						<path fill="#886A29" d="M29.2,28.9h1v0.4h-1V28.9z"/>
					</g>
					<g>
						<path fill="#886A29" d="M28.3,29.3h1v0.4h-1V29.3z"/>
						<path fill="#886A29" d="M29.2,29.6h1V30h-1V29.6z"/>
						<path fill="#886A29" d="M28.3,30h1v0.4h-1V30z"/>
						<path fill="#886A29" d="M29.2,30.4h1v0.4h-1V30.4z"/>
						<path fill="#886A29" d="M28.3,30.7h1v0.4h-1V30.7z"/>
						<path fill="#886A29" d="M29.2,31.1h1v0.4h-1V31.1z"/>
					</g>
					<g>
						<path fill="#886A29" d="M28.3,31.4h1v0.4h-1V31.4z"/>
						<path fill="#886A29" d="M29.2,31.8h1v0.4h-1V31.8z"/>
						<path fill="#886A29" d="M28.3,32.1h1v0.4h-1V32.1z"/>
						<path fill="#886A29" d="M29.2,32.5h1v0.4h-1V32.5z"/>
						<path fill="#886A29" d="M28.3,32.8h1v0.4h-1V32.8z"/>
						<path fill="#886A29" d="M29.2,33.2h1v0.4h-1V33.2z"/>
					</g>
					<g>
						<path fill="#886A29" d="M28.3,33.5h1v0.4h-1V33.5z"/>
						<path fill="#886A29" d="M29.2,33.9h1v0.4h-1V33.9z"/>
						<path fill="#886A29" d="M28.3,34.3h1v0.4h-1V34.3z"/>
						<path fill="#886A29" d="M29.2,34.6h1V35h-1V34.6z"/>
						<path fill="#886A29" d="M28.3,35h1v0.4h-1V35z"/>
						<path fill="#886A29" d="M29.2,35.3h1v0.4h-1V35.3z"/>
					</g>
					<g>
						<path fill="#886A29" d="M28.3,35.7h1v0.1h-1V35.7z"/>
					</g>
				</g>
				<polygon fill="#F6A2A3" points="29.7,21.4 28.8,21.4 24,16.3 34.6,16.3 				"/>
				<g>
					<path fill="#886A29" d="M27.8,21l0.7-0.7l0.3,0.3L28,21.3L27.8,21z"/>
					<path fill="#886A29" d="M27.3,20.5l0.7-0.7l0.3,0.3l-0.7,0.7L27.3,20.5z"/>
					<path fill="#886A29" d="M26.8,20l0.7-0.7l0.3,0.3l-0.7,0.7L26.8,20z"/>
					<path fill="#886A29" d="M26.3,19.5l0.7-0.7l0.3,0.3l-0.7,0.7L26.3,19.5z"/>
					<path fill="#886A29" d="M25.8,18.9l0.7-0.7l0.3,0.3l-0.7,0.7L25.8,18.9z"/>
					<path fill="#886A29" d="M25.4,18.5l0.7-0.7l0.3,0.3l-0.7,0.7L25.4,18.5z"/>
					<path fill="#886A29" d="M24.9,18l0.7-0.7l0.3,0.3l-0.7,0.7L24.9,18z"/>
					<path fill="#886A29" d="M24.4,17.4l0.7-0.7l0.3,0.3l-0.7,0.7L24.4,17.4z"/>
					<path fill="#886A29" d="M23.9,17l0.7-0.7h0.1l0.2,0.2l-0.7,0.7L23.9,17z"/>
					<path fill="#886A29" d="M23.5,16.5l0.2-0.2h0.5l-0.5,0.5L23.5,16.5z"/>
				</g>
				<g>
					<path fill="#886A29" d="M30.4,21.3l-0.7-0.7l0.3-0.3l0.7,0.7L30.4,21.3z"/>
					<path fill="#886A29" d="M30.9,20.7L30.2,20l0.3-0.3l0.7,0.7L30.9,20.7z"/>
					<path fill="#886A29" d="M31.4,20.3l-0.7-0.7l0.3-0.3l0.7,0.7L31.4,20.3z"/>
					<path fill="#886A29" d="M31.9,19.8l-0.7-0.7l0.3-0.3l0.7,0.7L31.9,19.8z"/>
					<path fill="#886A29" d="M32.3,19.2l-0.7-0.7l0.3-0.3l0.7,0.7L32.3,19.2z"/>
					<path fill="#886A29" d="M32.8,18.8l-0.7-0.7l0.3-0.3l0.7,0.7L32.8,18.8z"/>
					<path fill="#886A29" d="M33.3,18.2l-0.7-0.7l0.3-0.3l0.7,0.7L33.3,18.2z"/>
					<path fill="#886A29" d="M33.8,17.7L33.1,17l0.3-0.3l0.7,0.7L33.8,17.7z"/>
					<path fill="#886A29" d="M34.3,17.3l-0.7-0.7l0.2-0.2h0.1l0.7,0.7L34.3,17.3z"/>
					<path fill="#886A29" d="M34.7,16.8l-0.5-0.5h0.5l0.2,0.2L34.7,16.8z"/>
				</g>
				<path fill="#504A2A" d="M30.2,22.8l0.2-1.4l-0.8-0.8h-0.7l-0.8,0.8l0.2,1.4v2.5c0,0.1,0,0.1,0,0.2v1c0,0.1,0,0.2,0,0.2l0,0l0,0
					c0,0.3,0.1,0.4,0.6,0.4h0.7c0.4,0,0.5,0,0.6-0.4l0,0v-0.1c0,0,0-0.1,0-0.1v-1c0,0,0-0.1,0-0.1L30.2,22.8L30.2,22.8z M29.9,26.4
					c0,0.4,0,0.4-0.4,0.4H29c-0.4,0-0.4,0-0.4-0.4v-0.7c0-0.4,0-0.4,0.4-0.4h0.5c0.4,0,0.4,0,0.4,0.4V26.4z"/>
			</g>
		</g>
	</g>
</g>
</svg>
