<svg xmlns="http://www.w3.org/2000/svg" viewBox="0 0 50 50" enable-background="new 0 0 50 50"><g><circle fill="#4ABC96" cx="25" cy="24.2" r="23.1"/><g fill="#A3D4AA"><path d="M35.8 14.3c0 .6-.5 1.1-1.1 1.1h-6.7c-.6 0-1.1-.5-1.1-1.1v-3.9c0-.6.5-1.1 1.1-1.1h6.7c.6 0 1.1.5 1.1 1.1v3.9zM38.9 26.7c0 1.9-1.6 3.5-3.5 3.5h-21.7c-1.9 0-3.5-1.6-3.5-3.5v-12.5c0-1.9 1.6-3.5 3.5-3.5h21.7c1.9 0 3.5 1.6 3.5 3.5v12.5z"/></g><path opacity=".15" enable-background="new" d="M27.483 13.661l1.485-1.485 4.95 4.95-1.485 1.485z"/><path fill="#F6A2A3" d="M29.3 16.9c0 .6-.5 1.1-1.1 1.1h-6.7c-.6 0-1.1-.5-1.1-1.1v-3.9c0-.6.5-1.1 1.1-1.1h6.7c.6 0 1.1.5 1.1 1.1v3.9zM38.9 29.5c0 1.9-1.6 3.5-3.5 3.5h-21.7c-1.9 0-3.5-1.6-3.5-3.5v-12.6c0-1.9 1.6-3.5 3.5-3.5h21.7c1.9 0 3.5 1.6 3.5 3.5v12.6z"/><path opacity=".15" enable-background="new" d="M20.78 16.262l1.485-1.485 4.95 4.95-1.485 1.485z"/><g fill="#F9F29A"><path d="M22.8 19.7c0 .6-.5 1.1-1.1 1.1h-6.7c-.6 0-1.1-.5-1.1-1.1v-3.9c0-.6.5-1.1 1.1-1.1h6.7c.6 0 1.1.5 1.1 1.1v3.9zM38.9 35.8h-28.6v-16c0-1.9 1.6-3.5 3.5-3.5h21.700000000000003c1.9 0 3.5 1.6 3.5 3.5v16z"/></g><g fill="#886A29"><path d="M28.3 27.2h1v.4h-1v-.4zM29.2 27.5h1v.4h-1v-.4zM28.3 27.9h1v.4h-1v-.4zM29.2 28.2h1v.4h-1v-.4zM28.3 28.6h1v.4h-1v-.4zM29.2 28.9h1v.4h-1v-.4z"/></g><g fill="#886A29"><path d="M28.3 29.3h1v.4h-1v-.4zM29.2 29.6h1v.4h-1v-.4zM28.3 30h1v.4h-1v-.4zM29.2 30.4h1v.4h-1v-.4zM28.3 30.7h1v.4h-1v-.4zM29.2 31.1h1v.4h-1v-.4z"/></g><g fill="#886A29"><path d="M28.3 31.4h1v.4h-1v-.4zM29.2 31.8h1v.4h-1v-.4zM28.3 32.1h1v.4h-1v-.4zM29.2 32.5h1v.4h-1v-.4zM28.3 32.8h1v.4h-1v-.4zM29.2 33.2h1v.4h-1v-.4z"/></g><g fill="#886A29"><path d="M28.3 33.5h1v.4h-1v-.4zM29.2 33.9h1v.4h-1v-.4zM28.3 34.3h1v.4h-1v-.4zM29.2 34.6h1v.4h-1v-.4zM28.3 35h1v.4h-1v-.4zM29.2 35.3h1v.4h-1v-.4z"/></g><path fill="#886A29" d="M28.3 35.7h1v.1h-1v-.1z"/><path fill="#F6A2A3" d="M29.7 21.4h-.9l-4.8-5.1h10.6z"/><g fill="#886A29"><path d="M27.8 21l.7-.7.3.3-.8.7-.2-.3zM27.3 20.5l.7-.7.3.3-.7.7-.3-.3zM26.8 20l.7-.7.3.3-.7.7-.3-.3zM26.3 19.5l.7-.7.3.3-.7.7-.3-.3zM25.8 18.9l.7-.7.3.3-.7.7-.3-.3zM25.4 18.5l.7-.7.3.3-.7.7-.3-.3zM24.9 18l.7-.7.3.3-.7.7-.3-.3zM24.4 17.4l.7-.7.3.3-.7.7-.3-.3zM23.9 17l.7-.7h.1l.2.2-.7.7-.3-.2zM23.5 16.5l.2-.2h.5l-.5.5-.2-.3z"/></g><g fill="#886A29"><path d="M30.4 21.3l-.7-.7.3-.3.7.7-.3.3zM30.9 20.7l-.7-.7.3-.3.7.7-.3.3zM31.4 20.3l-.7-.7.3-.3.7.7-.3.3zM31.9 19.8l-.7-.7.3-.3.7.7-.3.3zM32.3 19.2l-.7-.7.3-.3.7.7-.3.3zM32.8 18.8l-.7-.7.3-.3.7.7-.3.3zM33.3 18.2l-.7-.7.3-.3.7.7-.3.3zM33.8 17.7l-.7-.7.3-.3.7.7-.3.3zM34.3 17.3l-.7-.7.2-.2h.1l.7.7-.3.2zM34.7 16.8l-.5-.5h.5l.2.2-.2.3z"/></g><path fill="#504A2A" d="M30.2 22.8l.2-1.4-.8-.8h-.7l-.8.8.2 1.4v3.9000000000000004c0 .3.1.4.6.4h.7c.4 0 .5 0 .6-.4v-3.9000000000000004zm-.3 3.6c0 .4 0 .4-.4.4h-.5c-.4 0-.4 0-.4-.4v-.7c0-.4 0-.4.4-.4h.5c.4 0 .4 0 .4.4v.7z"/></g></svg>