<?xml version="1.0" encoding="utf-8"?>
<!-- Generator: Adobe Illustrator 17.1.0, SVG Export Plug-In . SVG Version: 6.00 Build 0)  -->
<!DOCTYPE svg PUBLIC "-//W3C//DTD SVG 1.1//EN" "http://www.w3.org/Graphics/SVG/1.1/DTD/svg11.dtd">
<svg version="1.1" xmlns="http://www.w3.org/2000/svg" xmlns:xlink="http://www.w3.org/1999/xlink" x="0px" y="0px"
	 viewBox="0 0 137 137" enable-background="new 0 0 137 137" xml:space="preserve">
<g id="Layer_1">
	<g id="Layer_1_1_" display="none">
		<g id="Layer_2" display="inline">
			<g>
				<g>
					<g>
						<g>
							<circle fill="#3289A3" cx="68.4" cy="68.6" r="63.6"/>
						</g>
					</g>
				</g>
				<g>
					<g>
						<g>
							<g>
								<g>
									<path fill="#F5F5F5" d="M43.6,31.1c-2.4,0-4.3,1.9-4.3,4.3V104c0,2.4,1.9,4.3,4.3,4.3h49.3c2.4,0,4.3-1.9,4.3-4.3V51
										L76.5,31.1H43.6z"/>
								</g>
							</g>
						</g>
						<g>
							<g>
								<path fill="#E1E1E1" d="M97.1,51.1H80.8c-2.4,0-4.3-1.9-4.3-4.3V31.1L97.1,51.1z"/>
							</g>
						</g>
						<g>
							<g>
								<path fill="#C9C9C8" d="M91.1,56.9c0,0.7-0.6,1.3-1.3,1.3H47c-0.7,0-1.3-0.6-1.3-1.3l0,0c0-0.7,0.6-1.3,1.3-1.3h42.9
									C90.5,55.6,91.1,56.2,91.1,56.9L91.1,56.9z"/>
							</g>
						</g>
						<g>
							<g>
								<path fill="#C9C9C8" d="M91.1,63.9c0,0.7-0.6,1.3-1.3,1.3H47c-0.7,0-1.3-0.6-1.3-1.3l0,0c0-0.7,0.6-1.3,1.3-1.3h42.9
									C90.5,62.6,91.1,63.2,91.1,63.9L91.1,63.9z"/>
							</g>
						</g>
						<g>
							<g>
								<path fill="#C9C9C8" d="M91.1,70.6c0,0.7-0.6,1.3-1.3,1.3H47c-0.7,0-1.3-0.6-1.3-1.3l0,0c0-0.7,0.6-1.3,1.3-1.3h42.9
									C90.5,69.3,91.1,69.9,91.1,70.6L91.1,70.6z"/>
							</g>
						</g>
						<g>
							<g>
								<path fill="#C9C9C8" d="M91.1,77.6c0,0.7-0.6,1.3-1.3,1.3H47c-0.7,0-1.3-0.6-1.3-1.3l0,0c0-0.7,0.6-1.3,1.3-1.3h42.9
									C90.5,76.3,91.1,76.9,91.1,77.6L91.1,77.6z"/>
							</g>
						</g>
						<g>
							<g>
								<path fill="#C9C9C8" d="M69.4,83.3H47c-0.7,0-1.3,0.6-1.3,1.3c0,0.7,0.6,1.3,1.3,1.3h22.4c0.7,0,1.3-0.6,1.3-1.3
									C70.7,83.9,70.1,83.3,69.4,83.3z"/>
							</g>
						</g>
					</g>
				</g>
			</g>
		</g>
		<g id="Layer_3" display="inline">
			<g>
				<circle fill="#507F6F" cx="67.8" cy="68.8" r="63.4"/>
				<g>
					<path fill="#357180" d="M112.1,98.6c0,0.6-0.5,1.2-1.2,1.2H27.3c-0.6,0-1.2-0.5-1.2-1.2V39.4c0-0.6,0.5-1.2,1.2-1.2h83.5
						c0.6,0,1.2,0.5,1.2,1.2C112.1,39.4,112.1,98.6,112.1,98.6z"/>
					<rect x="66.8" y="38.2" fill="#27636D" width="4.7" height="61.6"/>
					<polygon fill="#D7D7BF" points="69.1,41.2 29.3,41.2 29.3,96.7 69.1,96.7 109,96.7 109,41.2 					"/>
					<rect x="66.9" y="41.2" fill="#C5C3AE" width="4.5" height="55.6"/>
					<polygon fill="#E7E7D6" points="69.1,96.7 30.9,95.1 30.9,39.4 69.1,41.2 					"/>
					<polygon fill="#E7E7D6" points="107.4,95.1 69.1,96.7 69.1,41.2 107.4,39.4 					"/>
					<rect x="68.9" y="42.5" fill="#DCDDD8" width="0.5" height="54.3"/>
					<g>
						<path fill="#B9B9BA" d="M66.1,49.1c0,0.7-0.6,1.3-1.2,1.3l-29.5-0.9c-0.7,0-1.2-0.6-1.2-1.3l0,0c0-0.7,0.6-1.3,1.2-1.3
							l29.5,0.9C65.6,47.8,66.1,48.4,66.1,49.1L66.1,49.1z"/>
						<path fill="#B9B9BA" d="M66.1,54.4c0,0.7-0.6,1.3-1.2,1.3l-29.5-0.9c-0.7,0-1.2-0.6-1.2-1.3l0,0c0-0.7,0.6-1.3,1.2-1.3
							l29.5,0.9C65.6,53.1,66.1,53.7,66.1,54.4L66.1,54.4z"/>
						<path fill="#B9B9BA" d="M66.1,59.6c0,0.7-0.6,1.3-1.2,1.3L35.4,60c-0.7,0-1.2-0.6-1.2-1.3l0,0c0-0.7,0.6-1.3,1.2-1.3l29.5,0.9
							C65.6,58.3,66.1,58.9,66.1,59.6L66.1,59.6z"/>
						<path fill="#B9B9BA" d="M66.1,64.9c0,0.7-0.6,1.3-1.2,1.3l-29.5-0.9c-0.7,0-1.2-0.6-1.2-1.3l0,0c0-0.7,0.6-1.3,1.2-1.3
							l29.5,0.9C65.6,63.6,66.1,64.2,66.1,64.9L66.1,64.9z"/>
						<path fill="#B9B9BA" d="M66.1,70.3c0,0.7-0.6,1.3-1.2,1.3l-29.5-0.9c-0.7,0-1.2-0.6-1.2-1.3l0,0c0-0.7,0.6-1.3,1.2-1.3
							L64.9,69C65.6,69,66.1,69.6,66.1,70.3L66.1,70.3z"/>
						<path fill="#B9B9BA" d="M66.1,75.6c0,0.7-0.6,1.3-1.2,1.3L35.4,76c-0.7,0-1.2-0.6-1.2-1.3l0,0c0-0.7,0.6-1.3,1.2-1.3l29.5,0.9
							C65.6,74.3,66.1,74.9,66.1,75.6L66.1,75.6z"/>
						<path fill="#B9B9BA" d="M66.1,80.7c0,0.7-0.6,1.3-1.2,1.3l-29.5-0.9c-0.7,0-1.2-0.6-1.2-1.3l0,0c0-0.7,0.6-1.3,1.2-1.3
							l29.5,0.9C65.6,79.4,66.1,80,66.1,80.7L66.1,80.7z"/>
						<path fill="#B9B9BA" d="M66.1,86c0,0.7-0.6,1.3-1.2,1.3l-29.5-0.9c-0.7,0-1.2-0.6-1.2-1.3l0,0c0-0.7,0.6-1.3,1.2-1.3l29.5,0.9
							C65.6,84.7,66.1,85.3,66.1,86L66.1,86z"/>
					</g>
					<g>
						<path fill="#B9B9BA" d="M72.3,49.1c0,0.7,0.6,1.3,1.2,1.3l29.5-0.9c0.7,0,1.2-0.6,1.2-1.3l0,0c0-0.7-0.6-1.3-1.2-1.3
							l-29.5,0.9C72.9,47.8,72.3,48.4,72.3,49.1L72.3,49.1z"/>
						<path fill="#B9B9BA" d="M72.3,54.4c0,0.7,0.6,1.3,1.2,1.3l29.5-0.9c0.7,0,1.2-0.6,1.2-1.3l0,0c0-0.7-0.6-1.3-1.2-1.3
							l-29.4,0.9C72.9,53.1,72.3,53.7,72.3,54.4L72.3,54.4z"/>
						<path fill="#B9B9BA" d="M72.3,59.6c0,0.7,0.6,1.3,1.2,1.3L103,60c0.7,0,1.2-0.6,1.2-1.3l0,0c0-0.7-0.6-1.3-1.2-1.3l-29.5,0.9
							C72.9,58.3,72.3,58.9,72.3,59.6L72.3,59.6z"/>
						<path fill="#B9B9BA" d="M72.3,64.9c0,0.7,0.6,1.3,1.2,1.3l29.5-0.9c0.7,0,1.2-0.6,1.2-1.3l0,0c0-0.7-0.6-1.3-1.2-1.3
							l-29.5,0.9C72.9,63.6,72.3,64.2,72.3,64.9L72.3,64.9z"/>
						<path fill="#B9B9BA" d="M72.3,70.3c0,0.7,0.6,1.3,1.2,1.3l29.5-0.9c0.7,0,1.2-0.6,1.2-1.3l0,0c0-0.7-0.6-1.3-1.2-1.3L73.5,69
							C72.9,69,72.3,69.6,72.3,70.3L72.3,70.3z"/>
						<path fill="#B9B9BA" d="M72.3,75.6c0,0.7,0.6,1.3,1.2,1.3L103,76c0.7,0,1.2-0.6,1.2-1.3l0,0c0-0.7-0.6-1.3-1.2-1.3l-29.5,0.9
							C72.9,74.3,72.3,74.9,72.3,75.6L72.3,75.6z"/>
						<path fill="#B9B9BA" d="M72.3,80.7c0,0.7,0.6,1.3,1.2,1.3l29.5-0.9c0.7,0,1.2-0.6,1.2-1.3l0,0c0-0.7-0.6-1.3-1.2-1.3
							l-29.5,0.9C72.9,79.4,72.3,80,72.3,80.7L72.3,80.7z"/>
						<path fill="#B9B9BA" d="M72.3,86c0,0.7,0.6,1.3,1.2,1.3l29.5-0.9c0.7,0,1.2-0.6,1.2-1.3l0,0c0-0.7-0.6-1.3-1.2-1.3l-29.5,0.9
							C72.9,84.7,72.3,85.3,72.3,86L72.3,86z"/>
					</g>
				</g>
			</g>
		</g>
		<g id="Layer_4" display="inline">
			<g>
				<g>
					<g>
						<g>
							<g>
								<circle fill="#4FC9A0" cx="68.2" cy="68.5" r="63.4"/>
							</g>
						</g>
					</g>
				</g>
				<g>
					<g>
						<g>
							<g>
								<g>
									<path fill="#F5F5F5" d="M43.4,30.2c-2.4,0-4.3,1.9-4.3,4.3V103c0,2.4,1.9,4.3,4.3,4.3h49.2c2.4,0,4.3-1.9,4.3-4.3V50
										L76.2,30.2H43.4z"/>
								</g>
							</g>
							<g>
								<path fill="#E1E1E1" d="M96.8,50H80.5c-2.4,0-4.3-1.9-4.3-4.3V30.2L96.8,50z"/>
							</g>
						</g>
					</g>
					<g>
						<g>
							<path fill="#4FC9A0" d="M54.3,61.5c0,0.8-0.7,1.5-1.5,1.5h-7.1c-0.8,0-1.5-0.7-1.5-1.5v-7.7c0-0.8,0.7-1.5,1.5-1.5h7.1
								c0.8,0,1.5,0.7,1.5,1.5V61.5z"/>
						</g>
						<g>
							<path fill="#4FC9A0" d="M66.6,61.5c0,0.8-0.7,1.5-1.5,1.5H58c-0.8,0-1.5-0.7-1.5-1.5v-7.7c0-0.8,0.7-1.5,1.5-1.5h7.1
								c0.8,0,1.5,0.7,1.5,1.5V61.5z"/>
						</g>
						<g>
							<path fill="#4FC9A0" d="M79.1,61.5c0,0.8-0.7,1.5-1.5,1.5h-7.1c-0.8,0-1.5-0.7-1.5-1.5v-7.7c0-0.8,0.7-1.5,1.5-1.5h7.1
								c0.8,0,1.5,0.7,1.5,1.5V61.5z"/>
						</g>
						<g>
							<path fill="#4FC9A0" d="M91.4,61.5c0,0.8-0.7,1.5-1.5,1.5h-7.1c-0.8,0-1.5-0.7-1.5-1.5v-7.7c0-0.8,0.7-1.5,1.5-1.5h7.1
								c0.8,0,1.5,0.7,1.5,1.5V61.5z"/>
						</g>
					</g>
					<g>
						<g>
							<path fill="#4FC9A0" d="M54.3,74.5c0,0.8-0.7,1.5-1.5,1.5h-7.1c-0.8,0-1.5-0.7-1.5-1.5v-7.7c0-0.8,0.7-1.5,1.5-1.5h7.1
								c0.8,0,1.5,0.7,1.5,1.5V74.5z"/>
						</g>
						<g>
							<path fill="#4FC9A0" d="M66.6,74.5c0,0.8-0.7,1.5-1.5,1.5H58c-0.8,0-1.5-0.7-1.5-1.5v-7.7c0-0.8,0.7-1.5,1.5-1.5h7.1
								c0.8,0,1.5,0.7,1.5,1.5V74.5z"/>
						</g>
						<g>
							<path fill="#4FC9A0" d="M79.1,74.5c0,0.8-0.7,1.5-1.5,1.5h-7.1c-0.8,0-1.5-0.7-1.5-1.5v-7.7c0-0.8,0.7-1.5,1.5-1.5h7.1
								c0.8,0,1.5,0.7,1.5,1.5V74.5z"/>
						</g>
						<g>
							<path fill="#4FC9A0" d="M91.4,74.5c0,0.8-0.7,1.5-1.5,1.5h-7.1c-0.8,0-1.5-0.7-1.5-1.5v-7.7c0-0.8,0.7-1.5,1.5-1.5h7.1
								c0.8,0,1.5,0.7,1.5,1.5V74.5z"/>
						</g>
					</g>
					<g>
						<g>
							<path fill="#4ABC96" d="M54.3,87.7c0,0.8-0.7,1.5-1.5,1.5h-7.1c-0.8,0-1.5-0.7-1.5-1.5V80c0-0.8,0.7-1.5,1.5-1.5h7.1
								c0.8,0,1.5,0.7,1.5,1.5V87.7z"/>
						</g>
						<g>
							<path fill="#4ABC96" d="M66.6,87.7c0,0.8-0.7,1.5-1.5,1.5H58c-0.8,0-1.5-0.7-1.5-1.5V80c0-0.8,0.7-1.5,1.5-1.5h7.1
								c0.8,0,1.5,0.7,1.5,1.5V87.7z"/>
						</g>
					</g>
					<g>
						<g>
							<path fill="#4ABC96" d="M54.3,100.7c0,0.8-0.7,1.5-1.5,1.5h-7.1c-0.8,0-1.5-0.7-1.5-1.5V93c0-0.8,0.7-1.5,1.5-1.5h7.1
								c0.8,0,1.5,0.7,1.5,1.5V100.7z"/>
						</g>
						<g>
							<path fill="#4ABC96" d="M66.6,100.7c0,0.8-0.7,1.5-1.5,1.5H58c-0.8,0-1.5-0.7-1.5-1.5V93c0-0.8,0.7-1.5,1.5-1.5h7.1
								c0.8,0,1.5,0.7,1.5,1.5V100.7z"/>
						</g>
					</g>
					<g>
						<path fill="#4ABC96" d="M73.4,89.2h-2.2c-1.1,0-2,0.9-2,2l0,0l0,0l0,0l0,0v10.9h6.1V91.2l0,0C75.4,90.1,74.5,89.2,73.4,89.2z"
							/>
					</g>
					<g>
						<path fill="#4ABC96" d="M83.4,86.4L83.4,86.4L83.4,86.4c0-1.1-0.9-1.9-2-1.9h-2.2c-1.1,0-1.9,0.9-2,1.9l0,0v15.7h6.1
							L83.4,86.4C83.4,86.5,83.4,86.5,83.4,86.4C83.4,86.5,83.4,86.4,83.4,86.4z"/>
					</g>
					<g>
						<path fill="#4ABC96" d="M91.4,81.2L91.4,81.2L91.4,81.2L91.4,81.2c0-1.1-0.9-2-2-2h-2.2c-1.1,0-1.9,0.8-2,1.9l0,0v21h6.1
							L91.4,81.2L91.4,81.2z"/>
					</g>
					<g>
						<rect x="69.2" y="100.9" fill="#4ABC96" width="22.1" height="1.2"/>
					</g>
				</g>
			</g>
		</g>
		<g id="Layer_5" display="inline">
			<g>
				<g>
					<g>
						<g>
							<g>
								<circle fill="#FFA547" cx="69.1" cy="68.6" r="63.4"/>
							</g>
						</g>
					</g>
				</g>
				<g>
					<g>
						<g>
							<path fill="#E87D41" d="M69.6,26.5c-1.5,0-2.7,1.2-2.7,2.7v88.1c0,1.5,1.2,2.7,2.7,2.7s2.7-1.2,2.7-2.7V29.2
								C72.4,27.7,71.1,26.5,69.6,26.5z"/>
						</g>
						<g>
							<path fill="#E87D41" d="M68.5,98.9c-1,1-1,2.7,0,3.8l14.6,14.6c1,1,2.7,1,3.8,0c1-1,1-2.7,0-3.8L72.3,98.9
								C71.2,97.9,69.6,97.9,68.5,98.9z"/>
						</g>
						<g>
							<path fill="#E87D41" d="M70.7,98.9c-1-1-2.7-1-3.8,0l-14.6,14.6c-1,1-1,2.7,0,3.8c1,1,2.7,1,3.8,0l14.6-14.6
								C71.7,101.7,71.7,100,70.7,98.9z"/>
						</g>
						<g>
							<g>
								<path fill="#E87D41" d="M114.7,87.8c0,2.9-2.4,5.3-5.2,5.3H31.8c-2.9,0-5.3-2.4-5.3-5.3v-52c0-2.9,2.4-5.3,5.3-5.3h77.6
									c2.9,0,5.2,2.4,5.2,5.3v52H114.7z"/>
							</g>
						</g>
						<g>
							<g>
								<path fill="#FFFFFF" d="M110.7,84.6c0,2.6-2.1,4.8-4.8,4.8H35.5c-2.6,0-4.8-2.1-4.8-4.8V39.2c0-2.6,2.1-4.8,4.8-4.8H106
									c2.6,0,4.8,2.1,4.8,4.8v45.5L110.7,84.6L110.7,84.6z"/>
							</g>
						</g>
						<g>
							<path fill="#E87D41" d="M102,51.8c0,1.1-0.9,2-2,2H82.8c-1.1,0-2-0.9-2-2s0.9-2,2-2H100C101.1,49.8,102,50.7,102,51.8"/>
						</g>
						<g>
							<path fill="#E87D41" d="M102,60.1c0,1.1-0.9,2-2,2H82.8c-1.1,0-2-0.9-2-2s0.9-2,2-2H100C101.1,58.2,102,59,102,60.1"/>
						</g>
						<g>
							<path fill="#E87D41" d="M102,69c0,1.1-0.9,2-2,2H82.8c-1.1,0-2-0.9-2-2s0.9-2,2-2H100C101.1,67,102,67.9,102,69"/>
						</g>
					</g>
					<g>
						<g>
							<path fill="#F4E028" d="M57.8,56.5"/>
						</g>
						<g>
							<path fill="#78A4A4" d="M38.6,56.1c0-0.1,0-0.2,0-0.3c0,0.2,0,0.3,0,0.5c0,0.5,0,6.1,0,6.5c0,4.5,7.8,8.2,17.5,8.2v-6.7
								C46.5,64.3,38.6,60.6,38.6,56.1z"/>
						</g>
						<g>
							<rect x="56" y="56" fill="#78A4A4" width="17.7" height="6.6"/>
						</g>
						<g>
							<path fill="#DDD374" d="M75.3,64.5c0-0.4,0-6.1,0-6.5c0-0.1,0-0.1,0-0.2l0,0c0,4.5-7.8,8.2-17.5,8.2v6.7
								C67.5,72.7,75.3,69.1,75.3,64.5z"/>
						</g>
						<g>
							<path fill="#EFE87F" d="M57.8,66c9.6,0,17.5-3.7,17.5-8.2H57.8V66z"/>
						</g>
						<g>
							<path fill="#ABC7C8" d="M73.6,55.7c-0.4-4.4-8.1-7.8-17.4-7.8c-9.4,0-17.1,3.5-17.5,7.9c0,0.1,0,0.2,0,0.3
								c0,4.5,7.8,8.2,17.5,8.2v-8.2h17.5l0,0C73.6,55.9,73.6,55.8,73.6,55.7z"/>
						</g>
					</g>
				</g>
			</g>
		</g>
	</g>
	<g id="Layer_2_1_" display="none">
		<g display="inline">
			<g>
				<g>
					<g>
						<g>
							<circle fill="#F38B5E" cx="68.5" cy="67.3" r="63.3"/>
						</g>
					</g>
				</g>
			</g>
			<g>
				<g>
					<g>
						<g>
							<path fill="#FFFFFF" d="M42.5,63l-9.7,5.4l9.7,5.4c1.3,0.8,2,2.1,2,4c0,1.2-0.3,2.3-0.9,3.2c-0.6,0.9-1.3,1.4-2.1,1.4
								c-0.4,0-0.8-0.1-1.2-0.3l-17.1-9.6c-1.6-0.9-2.5-2.3-2.5-4.2c0-1.9,0.8-3.2,2.5-4.2l17.1-9.6c0.4-0.2,0.8-0.3,1.2-0.3
								c0.8,0,1.6,0.5,2.1,1.4c0.6,0.9,0.9,2,0.9,3.3C44.5,60.9,43.8,62.2,42.5,63z"/>
						</g>
					</g>
					<g>
						<g>
							<path fill="#FFFFFF" d="M92.5,59c0-1.2,0.3-2.3,0.9-3.3c0.6-0.9,1.3-1.4,2.1-1.4c0.4,0,0.8,0.1,1.2,0.3l17.1,9.6
								c1.6,0.9,2.5,2.3,2.5,4.2c0,1.9-0.8,3.2-2.5,4.2l-17.1,9.6c-0.4,0.2-0.8,0.3-1.2,0.3c-0.9,0-1.6-0.5-2.1-1.4
								c-0.6-0.9-0.9-2-0.9-3.2c0-1.9,0.7-3.3,2-4l9.7-5.4L94.5,63C93.1,62.2,92.5,60.9,92.5,59z"/>
						</g>
					</g>
					<g>
						<path fill="#FFFFFF" d="M72.9,87.6c-0.9,1.9-3.1,2.7-5,1.8l0,0c-1.9-0.9-2.7-3.1-1.8-5L83.3,47c0.9-1.9,3.1-2.7,5-1.8l0,0
							c1.9,0.9,2.7,3.1,1.8,5L72.9,87.6z"/>
					</g>
				</g>
			</g>
		</g>
	</g>
	<g id="Layer_3_1_">
		<g>
			<g>
				<g>
					<g>
						<circle fill="#E55E34" cx="68.4" cy="67.3" r="63.3"/>
					</g>
				</g>
			</g>
			<g display="none">
				<g display="inline">
					<path fill="#FFFFFF" d="M68.5,43c19.5,0,35.3,23,35.6,47.2h4.8C108.6,62.7,90.7,37,68.5,37S28.4,62.7,28.1,90.2h4.8
						C33.2,66,49,43,68.5,43z"/>
					<g>
						<path fill="#F9B732" d="M68.5,37c20.9,0,38,22.8,40.2,48.4h0.2c-0.3-27.5-9.5-54.8-40-54.8c-29.6,0-40.5,27.3-40.8,54.8h0.2
							C30.5,59.8,47.7,37,68.5,37z"/>
					</g>
				</g>
				<path display="inline" fill="#F9B732" d="M49.4,84.7c1.9,9.3,3,14.6-5.3,18.4c-8.1,3.7-16-4-17.9-13.3s2.4-18.2,10.9-20.3
					C45.7,67.5,47.5,75.5,49.4,84.7z"/>
				<path display="inline" fill="#F9F9F9" d="M49.4,84.7c1.9,9.3,3,14.6-2,17.6c-4.9,2.9-12.3-32.3-7-33.6
					C45.7,67.5,47.5,75.5,49.4,84.7z"/>
				<path display="inline" fill="#F9F9F9" d="M48.4,84.8c1.3,6.2,2,9.8-1.4,11.8c-3.3,1.9-8.3-21.6-4.7-22.5
					C46,73.2,47.1,78.6,48.4,84.8z"/>
				<path display="inline" fill="#F9B732" d="M87.4,84.7c-1.9,9.3-3,14.6,5.3,18.4c8.1,3.7,16-4,17.9-13.3s-2.4-18.2-10.9-20.3
					C91.2,67.5,89.3,75.5,87.4,84.7z"/>
				<path display="inline" fill="#F9F9F9" d="M87.4,84.7c-1.9,9.3-3,14.6,2,17.6c4.9,2.9,12.3-32.3,7-33.6
					C91.1,67.5,89.3,75.5,87.4,84.7z"/>
				<path display="inline" fill="#F9F9F9" d="M88.2,84.8c-1.3,6.2-2,9.8,1.4,11.8c3.3,1.9,8.3-21.6,4.7-22.5
					C90.7,73.2,89.5,78.6,88.2,84.8z"/>
			</g>
		</g>
	</g>
</g>
<g id="Layer_2_2_">
	<g>
		<g display="none">
			<g display="inline">
				<g>
					<g>
						<circle fill="#D1AFD2" cx="68.4" cy="70.4" r="63.3"/>
					</g>
				</g>
			</g>
		</g>
		<g>
			<g>
				<path fill="#EDC92C" d="M39.3,82.1c-1.4,0-2.6-1.6-2.6-3.6l0-20.9c0-2,1.2-3.6,2.6-3.6l37.1-16.9l0,61.8L39.3,82.1z"/>
			</g>
			<g>
				<path fill="#FFB703" d="M74.4,35.5c3.3,0,6,2.7,6,6l0,52.2c0,3.3-2.7,6-6,6c-3.3,0-6-2.7-6-6l0-52.2
					C68.4,38.2,71,35.5,74.4,35.5"/>
			</g>
		</g>
	</g>
	<g>
		<path fill="#F3F4F5" d="M110.9,84.3c0,1.4,1.1,2.5,2.5,2.5l0,0c1.4,0,2.5-1.1,2.5-2.5V47.9c0-1.4-1.1-2.5-2.5-2.5l0,0
			c-1.4,0-2.5,1.1-2.5,2.5V84.3z"/>
		<path fill="#F3F4F5" d="M102.2,51c1.4,0,2.5,1.1,2.5,2.5v25.2c0,1.4-1.1,2.5-2.5,2.5c-1.4,0-2.5-1.1-2.5-2.5V53.5
			C99.7,52.1,100.8,51,102.2,51z"/>
		<path fill="#F3F4F5" d="M91,56.6c1.4,0,2.5,1.1,2.5,2.5v14c0,1.4-1.1,2.5-2.5,2.5c-1.4,0-2.5-1.1-2.5-2.5v-14
			C88.5,57.7,89.6,56.6,91,56.6z"/>
	</g>
	<rect x="20.4" y="54" fill="#EDC92C" width="29" height="29"/>
</g>
</svg>
