<?xml version="1.0" encoding="utf-8"?>
<!-- Generator: Adobe Illustrator 17.1.0, SVG Export Plug-In . SVG Version: 6.00 Build 0)  -->
<!DOCTYPE svg PUBLIC "-//W3C//DTD SVG 1.1//EN" "http://www.w3.org/Graphics/SVG/1.1/DTD/svg11.dtd">
<svg version="1.1" id="Layer_1" xmlns="http://www.w3.org/2000/svg" xmlns:xlink="http://www.w3.org/1999/xlink" x="0px" y="0px"
	 viewBox="0 0 137 137" enable-background="new 0 0 137 137" xml:space="preserve">
<g id="Layer_10">
	<g>
		<g>
			<g>
				<g>
					<g>
						<g>
							<circle fill="#FF6B69" cx="69.6" cy="69.6" r="63.4"/>
						</g>
					</g>
				</g>
			</g>
		</g>
		<g>
			<g>
				<path fill="#FFFFFF" d="M66.1,22.9c-2.3,0-4.1,1.1-4.1,3.4v51c0,2.3,1.8,3.4,4.1,3.4c4.8,0,25.6-24.3,25.6-28.6
					S68.3,22.9,66.1,22.9z"/>
			</g>
			<g>
				<g>
					<path fill="#B03738" d="M113.1,88.4c2.2,0,4,1.8,4,4v3.7c0,2.2-1.8,4-4,4H27.9c-2.2,0-4-1.8-4-4v-3.7c0-2.2,1.8-4,4-4H113.1z"
						/>
				</g>
				<g>
					<circle fill="#E84849" cx="89.4" cy="94.4" r="8.9"/>
					<path fill="#FFFFFF" d="M89.4,104.9c-5.7,0-10.4-4.7-10.4-10.4C79,88.7,83.7,84,89.4,84c5.7,0,10.4,4.7,10.4,10.4
						C99.8,100.1,95.1,104.9,89.4,104.9z M89.4,87c-4.1,0-7.4,3.3-7.4,7.4c0,4.1,3.3,7.4,7.4,7.4s7.4-3.3,7.4-7.4
						C96.8,90.3,93.5,87,89.4,87z"/>
				</g>
			</g>
		</g>
	</g>
</g>
</svg>
