<svg xmlns="http://www.w3.org/2000/svg" xmlns:xlink="http://www.w3.org/1999/xlink" viewBox="0 0 210 250" enable-background="new 0 0 210 250"><circle fill="#41A884" cx="106.4" cy="126.1" r="97.2"/><path fill-rule="evenodd" clip-rule="evenodd" fill="#FFF4E4" d="M160.2 178.8c0 3-2.4 5.4-5.4 5.4h-99c-3 0-5.4-2.4-5.4-5.4v-99c0-3 2.4-5.4 5.4-5.4h99c3 0 5.4 2.4 5.4 5.4v99z"/><defs><path id="a" d="M151.2 158.1c0 2.5-2 4.5-4.5 4.5h-82.9c-2.5 0-4.5-2-4.5-4.5v-57.7c0-2.5 2-4.5 4.5-4.5h82.9c2.5 0 4.5 2 4.5 4.5v57.7z"/></defs><clipPath id="b"><use xlink:href="#a" overflow="visible"/></clipPath><g clip-path="url(#b)"><path fill="#DBF0F5" d="M154.9 163.5l-99.4-.1.1-69.1 99.5.1z"/><path fill="#6CC077" d="M153.8 151.1l-13.4-13.5s-3.9-5-7.4-4.8c-3.2.2-7 4.2-7.7 5l-4.5-4.5s-4.5-5.8-8.7-5.6c-4.2.2-9.2 6.1-9.2 6.1l-1.4 1.4-8.5-8.5s-5.5-7.2-10.7-6.9c-5.2.3-11.3 7.5-11.3 7.5l-14.3 14.3v20.8l97.2.1-.1-11.4z"/><path fill="#67B8CB" d="M111.3 111.8l.1-.3c0-1.8-1.9-3.2-4.3-3.2l-.9.1c-.7-.9-2-1.6-3.5-1.6-2 0-3.6 1.1-4 2.5-1.9.4-3.4 1.6-3.4 3.2 0 1.5 1.3 2.7 3.1 3.2.6 1.4 2.3 2.4 4.3 2.4 1.8 0 3.4-.8 4.1-2 .5.2 1 .3 1.5.3 2.1 0 3.8-1.3 3.8-2.8.1-.8-.3-1.3-.8-1.8zM131.3 115.8l-.1-.2c0-1.3 1.4-2.3 3-2.3l.6.1c.5-.7 1.4-1.1 2.5-1.1 1.4 0 2.6.8 2.8 1.8 1.4.3 2.4 1.2 2.4 2.3 0 1.1-.9 1.9-2.2 2.3-.4 1-1.6 1.7-3 1.7-1.3 0-2.4-.6-2.9-1.4-.3.1-.7.2-1.1.2-1.5 0-2.7-.9-2.7-2 .1-.6.3-1 .7-1.4z"/></g></svg>