<svg xmlns="http://www.w3.org/2000/svg" viewBox="0 0 137 137" enable-background="new 0 0 137 137"><g><circle fill="#EFC849" cx="68.4" cy="68.6" r="63.6"/><path fill="#F5F5F5" d="M43.6 31.1c-2.4 0-4.3 1.9-4.3 4.3v68.6c0 2.4 1.9 4.3 4.3 4.3h49.3c2.4 0 4.3-1.9 4.3-4.3v-53l-20.7-19.9h-32.9z"/><path fill="#E1E1E1" d="M97.1 51.1h-16.3c-2.4 0-4.3-1.9-4.3-4.3v-15.7l20.6 20z"/><path fill="#C9C9C8" d="M91.1 56.9c0 .7-.6 1.3-1.3 1.3h-42.8c-.7 0-1.3-.6-1.3-1.3 0-.7.6-1.3 1.3-1.3h42.9c.6 0 1.2.6 1.2 1.3zM91.1 63.9c0 .7-.6 1.3-1.3 1.3h-42.8c-.7 0-1.3-.6-1.3-1.3 0-.7.6-1.3 1.3-1.3h42.9c.6 0 1.2.6 1.2 1.3zM91.1 70.6c0 .7-.6 1.3-1.3 1.3h-42.8c-.7 0-1.3-.6-1.3-1.3 0-.7.6-1.3 1.3-1.3h42.9c.6 0 1.2.6 1.2 1.3zM91.1 77.6c0 .7-.6 1.3-1.3 1.3h-42.8c-.7 0-1.3-.6-1.3-1.3 0-.7.6-1.3 1.3-1.3h42.9c.6 0 1.2.6 1.2 1.3zM69.4 83.3h-22.4c-.7 0-1.3.6-1.3 1.3 0 .7.6 1.3 1.3 1.3h22.4c.7 0 1.3-.6 1.3-1.3 0-.7-.6-1.3-1.3-1.3z"/></g></svg>