<svg xmlns="http://www.w3.org/2000/svg" viewBox="0 0 136.8 136.8" enable-background="new 0 0 136.8 136.8"><g><circle fill="#666665" cx="69.5" cy="68.5" r="63.3"/><path fill="#E0E4E3" d="M118.7 47.2c0-6-4.9-10.9-10.9-10.9h-72.8c-6 0-10.9 4.9-10.9 10.9v45.2c0 6 4.9 10.9 10.9 10.9h72.9c6 0 10.9-4.9 10.9-10.9v-45.2z"/><path fill="#D1D3D3" d="M118.6 46c-.6-5.4-5.2-9.6-10.8-9.6h-72.8c-6 0-10.9 4.9-10.9 10.9v2.2h94.5v-3.5z"/><circle fill="#E84849" cx="32.8" cy="42.7" r="2.4"/><circle fill="#EFC849" cx="41.8" cy="42.7" r="2.4"/><circle fill="#37B34C" cx="50.8" cy="42.7" r="2.4"/><path fill="#9ED8D8" d="M98.1 94.3h-.2c-.5-1.4-1-2.7-1.7-4l.1-.1c2.4-2.4 5.8-9.3 2.4-12.8l-2.1-2.1c-3.5-3.5-10.2-.2-12.8 2.4l-.1.1c-1.3-.6-2.6-1.2-4-1.7v-.2c0-3.4-2.5-10.7-7.4-10.7h-3c-4.9 0-7.4 7.1-7.4 10.7v.2c-1.4.5-2.7 1-4 1.6l-.1-.1c-2-2-9.3-5.8-12.8-2.4l-2.1 2.1c-3.5 3.5.1 10.6 2.4 12.8l.1.1c-.6 1.3-1.2 2.6-1.7 4h-.2c-2.9 0-10.7 2.5-10.7 7.4v1.4c.7.1 1.4.2 2.1.2h19.4v-.1c0-9.1 7.4-16.5 16.5-16.5s16.5 7.4 16.5 16.5v.1h20.5c.3 0 .7 0 1-.1v-1.5c0-4.9-7-7.3-10.7-7.3z"/></g></svg>