<?xml version="1.0" encoding="utf-8"?>
<!-- Generator: Adobe Illustrator 18.0.0, SVG Export Plug-In . SVG Version: 6.00 Build 0)  -->
<!DOCTYPE svg PUBLIC "-//W3C//DTD SVG 1.1//EN" "http://www.w3.org/Graphics/SVG/1.1/DTD/svg11.dtd">
<svg version="1.1" id="Layer_1" xmlns="http://www.w3.org/2000/svg" xmlns:xlink="http://www.w3.org/1999/xlink" x="0px" y="0px"
	 viewBox="0 0 100 100" enable-background="new 0 0 100 100" xml:space="preserve">
<g id="Layer_6">
	<g>
		<g>
			<g>
				<g>
					<g>
						<circle fill="#666665" cx="50.8" cy="50.1" r="46.3"/>
					</g>
				</g>
			</g>
		</g>
		<g>
			<g>
				<g>
					<path fill="#E0E4E3" d="M86.8,34.5c0-4.4-3.6-8-8-8H25.6c-4.4,0-8,3.6-8,8v33c0,4.4,3.6,8,8,8h53.3c4.4,0,8-3.6,8-8L86.8,34.5
						L86.8,34.5z"/>
				</g>
				<g>
					<g>
						<g>
							<path fill="#D1D3D3" d="M86.7,33.6c-0.4-3.9-3.8-7-7.9-7H25.6c-4.4,0-8,3.6-8,8v1.6h69.1V33.6z"/>
						</g>
					</g>
					<g>
						<circle fill="#E84849" cx="24" cy="31.2" r="1.8"/>
					</g>
					<g>
						<circle fill="#EFC849" cx="30.6" cy="31.2" r="1.8"/>
					</g>
					<g>
						<circle fill="#37B34C" cx="37.1" cy="31.2" r="1.8"/>
					</g>
				</g>
			</g>
		</g>
	</g>
</g>
<g>
	<g>
		<path fill="#666665" d="M53.7,42.6c0.2,0.7,0.2,1.8,0,2.5s-1.9,1.2-3,1.2H27.3c-1.1,0-2.3-0.3-2.7-0.6c-0.4-0.3-0.5-2.5-0.4-3.2
			c0.2-0.7,1.9-1.2,3-1.2h23.4C51.8,41.3,53.5,41.9,53.7,42.6z"/>
	</g>
	<path fill="#666665" d="M80,53.5c0,1.4-1.1,2.5-2.5,2.5H26.2c-1.4,0-2.5-1.1-2.5-2.5l0,0c0-1.4,1.1-2.5,2.5-2.5h51.3
		C78.9,51,80,52.1,80,53.5L80,53.5z"/>
	<path fill="#666665" d="M80.4,63.2c0,1.4-1.1,2.5-2.5,2.5H26.6c-1.4,0-2.5-1.1-2.5-2.5l0,0c0-1.4,1.1-2.5,2.5-2.5h51.3
		C79.3,60.7,80.4,61.8,80.4,63.2L80.4,63.2z"/>
	<path fill="#FFFFFF" d="M80.4,31.8c0,1.4-0.7,2.5-1.5,2.5H48.4c-0.8,0-1.5-1.1-1.5-2.5l0,0c0-1.4,0.7-2.5,1.5-2.5h30.4
		C79.7,29.3,80.4,30.5,80.4,31.8L80.4,31.8z"/>
</g>
</svg>
