<svg xmlns="http://www.w3.org/2000/svg" viewBox="0 0 100 100"><g fill="none" stroke="#999" stroke-linejoin="round" stroke-linecap="round" stroke-width="3" stroke-miterlimit="10"><path d="M56.9 50.9c-.4-1.5-1.5-3-3.1-4.6-5.7-5.7-9.6-4-17.8 4.2-8.3 8.3-10 12.1-4.2 17.8 5.7 5.7 9.6 4 17.8-4.2 3.2-3.2 5.4-5.7 6.6-7.9m-5.3.7c-1 1.2-2.4 2.6-4.2 4.4C41 67.1 39 69 35 65s-2.1-6 3.7-11.7c5.8-5.8 7.7-7.7 11.7-3.7 1 1 1.6 1.9 1.9 2.7"/><path d="M43.1 49.1c.4 1.5 1.5 3 3.1 4.7 5.7 5.7 9.6 4 17.8-4.2 8.3-8.3 10-12.1 4.2-17.8-5.7-5.7-9.6-4-17.8 4.2-3.1 3.1-5.4 5.8-6.6 8 0 0 .6-.3 1.4-.6.4-.2.9-.3 1.3-.3 1.3-.2 2.6.2 2.6.2 1-1.2 2.4-2.7 4.2-4.4C59 32.9 61 31 65 35s2.1 6-3.7 11.7c-5.8 5.8-7.7 7.7-11.7 3.7-1-1-1.7-1.9-1.9-2.8 0 0-.6-.2-1.3-.2-.5 0-1.3.3-2 .8-.8.5-1.3.9-1.3.9z"/></g></svg>