<svg xmlns="http://www.w3.org/2000/svg" width="50" height="50" viewBox="0 0 50 50">
  <g id="Group_66" data-name="Group 66" transform="translate(-4997 -2065)">
    <g id="Group_60" data-name="Group 60" transform="translate(256 180)">
      <g id="Group_41" data-name="Group 41">
        <rect id="Rectangle_67" data-name="Rectangle 67" width="50" height="50" rx="5" transform="translate(4741 1885)" fill="#999"/>
      </g>
    </g>
    <path id="monologo" d="M15.4.2C3.523.2-6.15,15.02,4.519,26.518A15.007,15.007,0,0,0,15.4,31.043a14.843,14.843,0,0,0,10.876-4.525C36.94,15.02,27.267.2,15.4.2ZM28.6,14.522H22.867a31.036,31.036,0,0,0-.789-5.106A11.676,11.676,0,0,0,25.4,7.091,13.184,13.184,0,0,1,28.6,14.522ZM24.029,5.8A14.559,14.559,0,0,1,21.58,7.548a14.627,14.627,0,0,0-2.034-4.4A12.253,12.253,0,0,1,24.029,5.8ZM15.4,14.563h-5.6a26.254,26.254,0,0,1,.623-4.359,14.638,14.638,0,0,0,4.981.872,14.638,14.638,0,0,0,4.981-.872A26.254,26.254,0,0,1,21,14.563Zm5.48,2.159a25.488,25.488,0,0,1-.5,4.359,14.669,14.669,0,0,0-9.963,0,25.488,25.488,0,0,1-.5-4.359H20.875ZM15.4,2.483c1.619,0,3.238,1.827,4.442,5.521,0,.083.083.208.083.332a12.136,12.136,0,0,1-4.525.83,13.028,13.028,0,0,1-4.525-.83c0-.125.083-.249.083-.332C12.157,4.31,13.776,2.525,15.4,2.483Zm-4.151.664a14.627,14.627,0,0,0-2.034,4.4A14.559,14.559,0,0,1,6.761,5.8,12.253,12.253,0,0,1,11.244,3.147ZM5.391,7.091A11.676,11.676,0,0,0,8.712,9.416a31.036,31.036,0,0,0-.789,5.106H2.194A13.184,13.184,0,0,1,5.391,7.091ZM5.142,23.82a12.334,12.334,0,0,1-2.864-7.182H8.006a26.839,26.839,0,0,0,.623,5.147,16.232,16.232,0,0,0-3.279,2.325Zm1.536,1.619a14.791,14.791,0,0,1,2.449-1.785l.042.083A15.294,15.294,0,0,0,11.2,28.054,13.727,13.727,0,0,1,6.678,25.439ZM15.4,28.76c-1.7.042-3.4-1.91-4.566-5.853a12.5,12.5,0,0,1,4.566-.83,13.436,13.436,0,0,1,4.566.83C18.8,26.851,17.1,28.8,15.4,28.76Zm4.193-.706a15.294,15.294,0,0,0,2.034-4.317l.042-.083a14.791,14.791,0,0,1,2.449,1.785A13.727,13.727,0,0,1,19.588,28.054Zm6.061-4.234-.208.291a16.232,16.232,0,0,0-3.279-2.325,26.839,26.839,0,0,0,.623-5.147h5.729A12.334,12.334,0,0,1,25.648,23.82Z" transform="translate(5007.081 2074.8)" fill="#fff"/>
  </g>
</svg>
