<svg xmlns="http://www.w3.org/2000/svg" viewBox="0 0 16 16" enable-background="new 0 0 16 16"><g><circle fill="#A0BF19" cx="8" cy="8" r="8"/><path fill="#FCC288" d="M12.7 8c-.1-.1-.2-.2-.2-.3.2-.1.4-.5.4-.6 0-.9-.8-1-.8-1h-2.4c-.3-.1-.2-.6-.1-.8.4-.8.7-1.4.7-1.8-.1-1.7-1.3-1.4-1.4-1.3 0 1.8-.4 2.2-.9 2.5-.4.3-.5.7-1 1.9s-1.5.8-1.5.8v4c3 .6 4.7.5 5.5.4.8-.1 1-.6 1-.9 0-.3.1-.5.2-.6.6-.5.4-.6.2-.9-.2-.3-.1-.4.2-.7.3-.2.2-.6.1-.7z"/><path fill="#5C524A" d="M5.3 7.3h-1.5c-.1 0-.2.1-.2.2v4c0 .1.1.2.2.2h1.5c.1 0 .2-.1.2-.2v-4c0-.1-.1-.2-.2-.2z"/></g></svg>