<svg xmlns="http://www.w3.org/2000/svg" width="50" height="50" viewBox="0 0 50 50">
  <g id="Group_49" data-name="Group 49" transform="translate(-4872 -1975)">
    <rect id="Rectangle_75" data-name="Rectangle 75" width="50" height="50" rx="5" transform="translate(4872 1975)" fill="#e0a839"/>
    <g id="monologo" transform="translate(4881 1984.004)">
      <path id="Path_48" data-name="Path 48" d="M44.677.084A.8.8,0,0,0,43.688.3C43.6.385,37.322,6.836,31,7.438V18.707c6.322.559,12.6,7.053,12.688,7.139a.883.883,0,0,0,1.247,0,1.088,1.088,0,0,0,.258-.645V1.03A.974.974,0,0,0,44.677.084ZM43,22.491c-2.839-2.538-6.107-4.774-9.72-5.634V9.288c3.656-.86,6.881-3.1,9.72-5.634Z" transform="translate(-17.667 0)" fill="#fff"/>
      <path id="Path_49" data-name="Path 49" d="M70.862,23.462A3.973,3.973,0,0,0,69.4,22v7.182A4.152,4.152,0,0,0,70.862,23.462Z" transform="translate(-39.552 -12.54)" fill="#fff"/>
      <path id="Path_50" data-name="Path 50" d="M11.1,28.439V17.3H5.548a5.548,5.548,0,1,0,0,11.1H11.1Zm-8.9-5.548a3.267,3.267,0,0,1,3.269-3.269H8.731V26.2H5.462A3.333,3.333,0,0,1,2.193,22.891Z" transform="translate(0 -9.862)" fill="#fff"/>
      <path id="Path_51" data-name="Path 51" d="M15.452,48.229H9.431A2.185,2.185,0,0,1,8.7,48.1a63.677,63.677,0,0,0,3.441,10.365,1.828,1.828,0,0,0,1.376.946H18.85c.516,0,.817-.688.688-1.505a2.734,2.734,0,0,0-.258-.774A89.487,89.487,0,0,1,15.452,48.229Zm-1.505,8.946c-.559-1.333-1.978-5.29-2.365-6.666H13.9s2.408,6.365,2.581,6.666Z" transform="translate(-4.958 -27.415)" fill="#fff"/>
    </g>
  </g>
</svg>
