<svg xmlns="http://www.w3.org/2000/svg" viewBox="0 0 16 16" enable-background="new 0 0 16 16"><g><circle fill="#EFC849" cx="8" cy="8" r="8"/><path fill="#F5F5F5" d="M4 2.1c-.4 0-.7.3-.7.7v10.7c0 .4.3.7.7.7h7.7c.4 0 .7-.3.7-.7v-8.3l-3.3-3.1h-5.1z"/><path fill="#E1E1E1" d="M12.3 5.2h-2.5c-.4 0-.7-.3-.7-.7v-2.4l3.2 3.1z"/><path fill="#C9C9C8" d="M11.4 6.1c0 .1-.1.2-.2.2h-6.7c-.1 0-.2-.1-.2-.2s.1-.2.2-.2h6.7c.1 0 .2.1.2.2zM11.4 7.2c0 .1-.1.2-.2.2h-6.7c-.1 0-.2-.1-.2-.2s.1-.2.2-.2h6.7c.1 0 .2.1.2.2zM11.4 8.2c0 .1-.1.2-.2.2h-6.7c-.1 0-.2-.1-.2-.2s.1-.2.2-.2h6.7c.1 0 .2.1.2.2zM11.4 9.3c0 .1-.1.2-.2.2h-6.7c-.1 0-.2-.1-.2-.2s.1-.2.2-.2h6.7c.1 0 .2.1.2.2zM8 10.2h-3.5c-.1 0-.2.1-.2.2s.1.2.2.2h3.5c.1 0 .2-.1.2-.2s-.1-.2-.2-.2z"/><circle fill="#3CB881" cx="12.1" cy="12.1" r="3.7"/><path fill="#F7D98B" d="M14 10.1l-3.4 1.9-.1.2 1.6 1.6.2-.2z"/><path fill="#626463" d="M14.1 10.1l-1.5.8.7.7z"/><path fill="#E84849" d="M12.3 13.4h-.5l-1.8 1.8c.1.1.3.2.5.3l1.7-1.7.1-.4zM9.4 14.7l1.8-1.8v-.5h-.5l-1.7 1.8.4.5z"/><path fill="#F06668" d="M10.8 12.4l.1-.5-.3.2-1.7 1.7c-.1.2 0 .3.1.4l1.8-1.8zM10 15.2l1.8-1.8v-.5h-.5l-1.8 1.8c.1.2.3.4.5.5z"/></g></svg>