<svg xmlns="http://www.w3.org/2000/svg" height="24px" width="24px" viewBox="0 0 100 100" enable-background="new 0 0 100 100"><g stroke-linejoin="round" stroke-linecap="round" stroke-width="3" stroke-miterlimit="10"><g stroke="#999"><g fill="#fff"><path d="m77.8 27.1h20.2l-25.5-24.4v19.1c0 3 2.4 5.3 5.3 5.3z"/><path d="m77.8 27.1c-3 0-5.3-2.3-5.3-5.3v-19.1h-40.5c-3 0-5.3 2.3-5.3 5.3v84.3c0 3 2.3 5.3 5.3 5.3h60.6c3 0 5.3-2.3 5.3-5.3v-65.2c0 0-20.1 0-20.1 0z"/></g><path d="M42,63.9h39.1 M42,48h39.1 M42,80.2h39.1" fill="none"/></g><circle cx="26.1" cy="50.2" r="24.2" fill="#009688" stroke="#009688"/></g><path d="m37.5 45.8l-7.3-7.3 1.5-1.5 7.3 7.3-1.5 1.5m-19.6 10.9l-2.9-2.9 13.8-13.8 2.9 2.9-13.8 13.8m-7.6 7.6c-.2.4-.1.8.3 1.1.3.3.7.4 1.1.3l8.8-3.4-6.8-6.8-3.4 8.8m30.8-22.2c2-2 2-5.3 0-7.3s-5.3-2-7.3 0l-.8.7 7.3 7.3.8-.7m-7.9 2.2l2.9 2.9-13.9 13.9-2.9-2.9 13.9-13.9" fill="#fff"/></svg>
