<svg xmlns="http://www.w3.org/2000/svg" width="50" height="50" viewBox="0 0 50 50">
  <g id="Group_47" data-name="Group 47" transform="translate(-5006 -1975)">
    <rect id="Rectangle_72" data-name="Rectangle 72" width="50" height="50" rx="5" transform="translate(5006 1975)" fill="#32b9ac"/>
    <path id="monologo" d="M32.864,15.783A3.487,3.487,0,0,0,31.63,13.8h0l-.176-.132a3.076,3.076,0,0,0-1.411-.4,3,3,0,0,0-.661.088A3.338,3.338,0,0,0,27.4,14.637a2.035,2.035,0,0,0-.4.661l-4.717.044a3.486,3.486,0,0,0-.485-1.279,4.584,4.584,0,0,0-1.146-1.587l1.234-2.2a1.808,1.808,0,0,0,.485.044,3.113,3.113,0,0,0,2.954-3.262,3.13,3.13,0,1,0-6.26,0,2.915,2.915,0,0,0,.794,2.2l-1.19,2.072a4.8,4.8,0,0,0-1.587-.265,5.642,5.642,0,0,0-1.719.309l-3.615-6.3A4.025,4.025,0,0,0,12.1,4.5h0l.044-.088A3.057,3.057,0,0,0,12.32,2.16,2.827,2.827,0,0,0,10.953.441L10.777.353h0L10.689.309A3.394,3.394,0,0,0,9.41,0,3.068,3.068,0,0,0,7.779.485a3.323,3.323,0,0,0-1.19,1.279A3.089,3.089,0,0,0,6.412,4.1,3.2,3.2,0,0,0,7.955,5.864a3.185,3.185,0,0,0,1.234.309,3.123,3.123,0,0,0,.617.044l3.615,6.3a4.9,4.9,0,0,0-1.587,2.2,5.281,5.281,0,0,0-.309,2.028l-4.32,1.19a3.743,3.743,0,0,0-5.114-1.455,3.8,3.8,0,1,0,3.483,6.745,3.706,3.706,0,0,0,2.16-3.042l4.5-1.234.044.044a3.472,3.472,0,0,0,1.014,1.455l-2.469,4.32a2.842,2.842,0,0,0-.882-.132,3.593,3.593,0,0,0-3.483,3.791,3.055,3.055,0,0,0,.132.882,3.509,3.509,0,0,0,4.276,2.557,2.273,2.273,0,0,0,.882-.4,3.585,3.585,0,0,0,1.323-1.367,4.155,4.155,0,0,0,.485-2.292,3.745,3.745,0,0,0-.749-1.94L15.274,21.6a4.418,4.418,0,0,0,1.5.22h.485l1.411,5.246a3.31,3.31,0,0,0-1.19,1.587,3.055,3.055,0,0,0,.132,2.337A3.188,3.188,0,0,0,19.33,32.58h0a2.372,2.372,0,0,0,.97.176,3.24,3.24,0,0,0,1.323-.309,3.275,3.275,0,0,0,1.587-1.763h0a3.673,3.673,0,0,0,.176-.661,2.915,2.915,0,0,0-.265-1.631A3.105,3.105,0,0,0,21.446,26.8h0a5.67,5.67,0,0,0-.838-.176L19.2,21.382l.088-.044A5.692,5.692,0,0,0,20.917,20.1a4.836,4.836,0,0,0,1.058-1.763V18.3a2.485,2.485,0,0,1,.176-.529v-.088l.044-.044,4.761-.044A2.546,2.546,0,0,0,28.1,19h0a3.069,3.069,0,0,0,4.276-.838h0A3.362,3.362,0,0,0,32.864,15.783ZM20.829,28.524a1.3,1.3,0,0,1,.661.617,1.025,1.025,0,0,1,.044.882h0a1.13,1.13,0,0,1-.573.617h0a1.68,1.68,0,0,1-.441.132,1.287,1.287,0,0,1-.4-.088h0a1.216,1.216,0,0,1-.617-.529,1.025,1.025,0,0,1-.044-.882,1.085,1.085,0,0,1,1.058-.794.75.75,0,0,1,.309.044Zm-.97-11.11h0a2.849,2.849,0,0,1-1.5,1.763h0a2.974,2.974,0,0,1-2.91-.088,2.87,2.87,0,0,1-1.19-1.323,3.309,3.309,0,0,1-.176-2.337,2.788,2.788,0,0,1,1.543-1.763h0a3.593,3.593,0,0,1,1.367-.265,2.513,2.513,0,0,1,.97.176,2.887,2.887,0,0,1,1.719,1.5h0A2.711,2.711,0,0,1,19.859,17.414ZM5.486,19.927A1.587,1.587,0,1,1,3.9,18.34h0a1.581,1.581,0,0,1,1.587,1.587ZM22.2,6.216h0a.837.837,0,0,1,.838.838.838.838,0,1,1-1.675,0,.837.837,0,0,1,.838-.838Z" transform="translate(5014.965 1984)" fill="#fff"/>
  </g>
</svg>
