<?xml version="1.0" encoding="utf-8"?>
<!-- Generator: Adobe Illustrator 18.0.0, SVG Export Plug-In . SVG Version: 6.00 Build 0)  -->
<!DOCTYPE svg PUBLIC "-//W3C//DTD SVG 1.1//EN" "http://www.w3.org/Graphics/SVG/1.1/DTD/svg11.dtd">
<svg version="1.1" id="label" xmlns="http://www.w3.org/2000/svg" xmlns:xlink="http://www.w3.org/1999/xlink" x="0px" y="0px"
	 viewBox="0 0 100 100" enable-background="new 0 0 100 100" xml:space="preserve">
<g>
	<g>
		<circle fill="#F1BE3D" cx="50" cy="50" r="50"/>
	</g>
	<g>
		<polygon fill="#F7D98B" points="78.2,21.1 37.1,43.9 35,45.9 55.3,65.2 56.7,63.5 		"/>
		<polygon fill="#636564" points="78.4,20.9 60.4,30.8 69,39.4 		"/>
		<g>
			<path fill="#E8484A" d="M57.1,60.5L51,60.9L21.1,90.8c1.7,1.2,3.5,2.3,5.3,3.3l28.9-28.9L57.1,60.5z"/>
			<path fill="#E8484A" d="M14,84.7l30.4-30.4l0.3-6.2l-6,0.5L8.8,78.4C10.4,80.6,12.1,82.7,14,84.7z"/>
			<path fill="#F06768" d="M38.7,48.6l0.8-5.6l-4.1,2.4L6.4,74.4c0.8,1.4,1.6,2.7,2.5,4L38.7,48.6z"/>
			<path fill="#F06768" d="M21.1,90.8L51,60.9l-0.1-6.5l-6.5-0.1L14,84.7C16.1,86.9,18.5,89,21.1,90.8z"/>
		</g>
	</g>
</g>
</svg>
