<svg xmlns="http://www.w3.org/2000/svg" viewBox="0 0 100 100" enable-background="new 0 0 100 100"><circle fill="#F1BE3D" cx="50" cy="50" r="50"/><path fill="#F7D98B" d="M78.2 21.1l-41.1 22.8-2.1 2 20.3 19.3 1.4-1.7z"/><path fill="#636564" d="M78.4 20.9l-18 9.9 8.6 8.6z"/><path fill="#E8484A" d="M57.1 60.5l-6.1.4-29.9 29.9c1.7 1.2 3.5 2.3 5.3 3.3l28.9-28.9 1.8-4.7zM14 84.7l30.4-30.4.3-6.2-6 .5-29.9 29.8c1.6 2.2 3.3 4.3 5.2 6.3z"/><path fill="#F06768" d="M38.7 48.6l.8-5.6-4.1 2.4-29 29c.8 1.4 1.6 2.7 2.5 4l29.8-29.8zM21.1 90.8l29.9-29.9-.1-6.5-6.5-.1-30.4 30.4c2.1 2.2 4.5 4.3 7.1 6.1z"/></svg>