<svg xmlns="http://www.w3.org/2000/svg" height="24px" width="24px" viewBox="0 0 100 100" enable-background="new 0 0 100 100"><g fill="#999"><path d="m43.6 19.7l5.3 9.1 5.2 9.2h-21l5.2-9.2 5.3-9.1"/><path d="m26.6 24.5l3.9 6.7 3.9 6.8h-15.5l3.8-6.8 3.9-6.7"/><circle cx="19.6" cy="19.2" r="3.8"/></g><g stroke-miterlimit="10"><g stroke-linejoin="round" stroke-linecap="round" stroke-width="3"><path d="M17.7,66.4h35.1 M17.7,52.1h35.1 M17.7,81h35.1" fill="none" stroke="#999"/><circle cx="79.7" cy="67" r="18.3" fill="#8bc34a" stroke="#8bc34a"/></g><g fill="#fff" stroke="#fff"><path d="m79.8 77.1c-.6 0-1-.5-1-1v-18.7c0-.6.5-1 1-1 .6 0 1 .5 1 1v18.7c.1.6-.4 1-1 1z"/><path d="m89.2 67.8h-18.7c-.6 0-1-.5-1-1 0-.6.5-1 1-1h18.7c.6 0 1 .5 1 1s-.4 1-1 1z"/></g></g></svg>
