<svg xmlns="http://www.w3.org/2000/svg" width="50" height="50" viewBox="0 0 50 50">
  <g id="Group_187" data-name="Group 187" transform="translate(-4939 -1885)">
    <rect id="Rectangle_71" data-name="Rectangle 71" width="50" height="50" rx="5" transform="translate(4939 1885)" fill="#3956b5"/>
    <g id="label-2-6_1_" transform="translate(4946.004 1892)">
      <path id="Subtraction_10-6_1_" d="M34.784,24.144,25.446,34.5a4.41,4.41,0,0,1-3.1,1.5,4.262,4.262,0,0,1-3.193-1.258L2.609,18.773a4.57,4.57,0,0,1-1.452-3.145L0,4.79V4.742A4.511,4.511,0,0,1,4.3,0h.1L14.85.435A4.3,4.3,0,0,1,18,1.645L34.542,17.612a4.678,4.678,0,0,1,.29,6.483.047.047,0,0,0-.048.048ZM2.512,4.548,3.673,15.289v.048A2.191,2.191,0,0,0,4.3,16.789L20.9,32.8a1.893,1.893,0,0,0,1.4.532,2.078,2.078,0,0,0,1.4-.629l9.338-10.354a2.044,2.044,0,0,0-.1-2.855h0L16.4,3.532a1.969,1.969,0,0,0-1.452-.581h-.1l-10.4-.435A1.991,1.991,0,0,0,2.512,4.548ZM13.834,13.6a4.252,4.252,0,0,1-6.1.242A4.626,4.626,0,0,1,7.5,7.548a4.211,4.211,0,0,1,6.1-.242A4.543,4.543,0,0,1,15,10.548,4.5,4.5,0,0,1,13.834,13.6ZM9.431,9.29A1.885,1.885,0,0,0,9.48,11.9a1.825,1.825,0,0,0,2.564-.048A1.885,1.885,0,0,0,12,9.241a1.732,1.732,0,0,0-1.21-.532A2.173,2.173,0,0,0,9.431,9.29Z" fill="#fff"/>
    </g>
  </g>
</svg>
