<svg xmlns="http://www.w3.org/2000/svg" width="50" height="50" viewBox="0 0 50 50">
  <g id="Group_50" data-name="Group 50" transform="translate(-4805 -1975)">
    <rect id="Rectangle_74" data-name="Rectangle 74" width="50" height="50" rx="5" transform="translate(4805 1975)" fill="#e0a839"/>
    <path id="monologo" d="M32.167,3.133,25.611.259A2.087,2.087,0,0,0,22.872,3L23.5,4.525C20.627,5.558,18.337,6.5,16.72,7.938,15.059,6.5,12.769,5.648,9.94,4.66L10.569,3A2.087,2.087,0,0,0,7.829.259L1.274,3.133A2.164,2.164,0,0,0,.2,5.917L2.98,12.7A2.1,2.1,0,0,0,5.629,13.91,2.024,2.024,0,0,0,6.842,12.7l.629-1.617,3.862,1.706a2.858,2.858,0,0,1,1.886,2.874v16.3a1.582,1.582,0,0,0,1.527,1.572H18.7a1.583,1.583,0,0,0,1.572-1.527V15.751c-.09-1.257.225-2.425,1.437-2.874l4.266-1.706.629,1.617A2.1,2.1,0,0,0,29.248,14a1.884,1.884,0,0,0,1.167-1.167L33.2,6.052A2.114,2.114,0,0,0,32.167,3.133ZM17.933,31.108h-2.38V14.943a5.638,5.638,0,0,0-1.078-2.874,4.949,4.949,0,0,0-1.706-1.3L6.258,7.938,5.4,10.048a.664.664,0,0,1-.718.314h0a.74.74,0,0,1-.225-.269L2.531,5.558a.459.459,0,0,1,.225-.629c.359-.09,4.984-2.245,4.984-1.617a.59.59,0,0,1,.135.539l-.853,2.11c3.143,1.347,7.589,2.6,8.846,4.041A8.054,8.054,0,0,1,16.9,11.126a6.165,6.165,0,0,1,1.167,3.907ZM30.91,5.962l-1.751,4.131c-.045.135-.135.18-.225.269a.418.418,0,0,1-.539-.269h0L27.317,7.848,21.211,10.5a3.354,3.354,0,0,0-1.482,1.123c-.314-1.212-.539-1.123-1.3-2.11C20.4,7.848,23.411,7.264,26.6,5.917l-.9-2.2a.44.44,0,0,1,.135-.539c0-.584,4.715,2.021,4.894,1.976a.714.714,0,0,1,.18.629Z" transform="translate(4812.97 1982.937)" fill="#fff"/>
  </g>
</svg>
