<svg xmlns="http://www.w3.org/2000/svg" viewBox="0 0 16 16" enable-background="new 0 0 16 16"><g><g><circle fill="#666665" cx="8.1" cy="8" r="7.4"/><path fill="#E0E4E3" d="M13.9 5.5c0-.7-.6-1.3-1.3-1.3h-8.5c-.7 0-1.3.6-1.3 1.3v5.3c0 .7.6 1.3 1.3 1.3h8.5c.7 0 1.3-.6 1.3-1.3v-5.3z"/><path fill="#D1D3D3" d="M13.9 5.4c-.1-.6-.6-1.1-1.3-1.1h-8.5c-.7 0-1.3.6-1.3 1.3v.3h11.1v-.5z"/><circle fill="#E84849" cx="3.8" cy="5" r=".3"/><circle fill="#EFC849" cx="4.9" cy="5" r=".3"/><circle fill="#37B34C" cx="5.9" cy="5" r=".3"/></g><path fill="#666665" d="M8.6 6.8v.4c0 .1-.3.2-.5.2h-3.7c-.2 0-.4 0-.4-.1-.1 0-.1-.4-.1-.5 0-.1.3-.2.5-.2h3.7c.2 0 .5.1.5.2zM12.8 8.6c0 .2-.2.4-.4.4h-8.2c-.2 0-.4-.2-.4-.4s.2-.4.4-.4h8.2c.2 0 .4.1.4.4zM12.9 10.1c0 .2-.2.4-.4.4h-8.2c-.2 0-.4-.2-.4-.4s.2-.4.4-.4h8.2c.2 0 .4.2.4.4z"/><path fill="#fff" d="M12.9 5.1c0 .2-.1.4-.2.4h-5c-.1 0-.2-.2-.2-.4s.1-.4.2-.4h4.9c.2 0 .3.2.3.4z"/></g><g><circle fill="#49A0AE" cx="8" cy="7.9" r="7.9"/><path fill="#DFF1ED" d="M14.3 10.9c0 .7-.6 1.3-1.3 1.3h-9.9c-.7 0-1.3-.6-1.3-1.3v-5.8c0-.7.6-1.3 1.3-1.3h9.9c.7 0 1.3.6 1.3 1.3v5.8zM11.3 13.9c-.1.1-.3.1-.4 0l-1.3-1.8c-.1-.1-.1-.3 0-.4h2.9c.1.1.1.3 0 .4l-1.2 1.8z"/><path fill="#B7CAC4" d="M12.4 6c0 .3-.2.5-.5.5h-7.8c-.2 0-.5-.2-.5-.5s.2-.5.5-.5h7.8c.3 0 .5.2.5.5zM12.4 7.9c0 .3-.2.5-.5.5h-7.8c-.3 0-.5-.2-.5-.5s.2-.5.5-.5h7.8c.3 0 .5.2.5.5zM12.4 9.8c0 .3-.2.5-.5.5h-7.8c-.3 0-.5-.2-.5-.5s.2-.5.5-.5h7.8c.3 0 .5.2.5.5z"/></g></svg>