<svg xmlns="http://www.w3.org/2000/svg" width="50" height="50" viewBox="0 0 50 50">
  <g id="Group_196" data-name="Group 196" transform="translate(-4954 -1863)">
    <rect id="Rectangle_71" data-name="Rectangle 71" width="50" height="50" rx="5" transform="translate(4954 1863)" fill="#399be2"/>
    <path id="monologo" d="M34.629,19.129a1.27,1.27,0,0,0,1.832-.149,1.292,1.292,0,0,0,.347-.842V6.55a1.311,1.311,0,0,0-1.288-1.288H26.309a5.274,5.274,0,0,0-10.548,0H6.55A1.311,1.311,0,0,0,5.262,6.55h0v9.211a5.274,5.274,0,0,0,0,10.548v9.211A1.311,1.311,0,0,0,6.55,36.808H18.138a1.367,1.367,0,0,0,1.288-1.387,1.086,1.086,0,0,0-.347-.842,2.628,2.628,0,1,1,3.863,0,1.271,1.271,0,0,0,.1,1.832,1.32,1.32,0,0,0,.891.347H35.521a1.311,1.311,0,0,0,1.288-1.288h0V23.883A1.367,1.367,0,0,0,35.422,22.6a1.086,1.086,0,0,0-.842.347,2.647,2.647,0,0,1-3.714-.149h0A2.633,2.633,0,0,1,34.629,19.129ZM32.9,26.309a5.4,5.4,0,0,0,1.288-.149v8.072H26.111a5.273,5.273,0,0,0-10.2-2.674,6.091,6.091,0,0,0,0,2.674H7.837V24.824A1.311,1.311,0,0,0,6.55,23.536h0c-.446.1-.891.149-1.288.2a2.625,2.625,0,1,1,0-5.249,2.59,2.59,0,0,1,.891.149,1.33,1.33,0,0,0,1.684-.842,1.23,1.23,0,0,0,.05-.446V7.887h9.459A1.311,1.311,0,0,0,18.633,6.6a1.371,1.371,0,0,0-.05-.446,2.525,2.525,0,0,1,1.634-3.318A2.525,2.525,0,0,1,23.536,4.47a2.59,2.59,0,0,1,.149.891h0a2.8,2.8,0,0,1-.149.891,1.33,1.33,0,0,0,.842,1.684,1.371,1.371,0,0,0,.446.05h9.459v8.072a5.261,5.261,0,0,0-2.575,10.2,4.579,4.579,0,0,0,1.189.05Z" transform="translate(4960.583 1869.583)" fill="#fff"/>
  </g>
</svg>
