<svg xmlns="http://www.w3.org/2000/svg" width="50" height="50" viewBox="0 0 50 50">
  <g id="Group_187" data-name="Group 187" transform="translate(-4939 -1885)">
    <rect id="Rectangle_71" data-name="Rectangle 71" width="50" height="50" rx="5" transform="translate(4939 1885)" fill="#eb66a2"/>
    <g id="monologo" transform="translate(4937.087 1884.398)">
      <path id="Path_116" data-name="Path 116" d="M42.735,23.427c-1.074,0-1.643.885-1.643,1.959V39.792H12.659V11.422H30.224c2.591.063,2.591-3.286,0-3.222H11.459A1.969,1.969,0,0,0,9.5,10.158h0V41.182a1.915,1.915,0,0,0,1.9,1.959h30.96a1.969,1.969,0,0,0,1.959-1.959V25.449C44.378,24.311,43.809,23.427,42.735,23.427Z" transform="translate(0 -0.036)" fill="#fff"/>
      <path id="Path_117" data-name="Path 117" d="M26.561,22.506a2.065,2.065,0,0,0-2.78.379,2.146,2.146,0,0,0,.379,2.843l6,4.423a1.506,1.506,0,0,0,2.148,0c2.78-2.97,13.964-15.67,16.681-18.576A2.152,2.152,0,0,0,49.371,9.3a2.013,2.013,0,0,0-1.9-1.2,1.778,1.778,0,0,0-1.327.632c-2.78,2.97-12.447,14.153-15.038,17Z" transform="translate(-5.119)" fill="#fff"/>
    </g>
  </g>
</svg>
