<svg xmlns="http://www.w3.org/2000/svg" width="50" height="50" viewBox="0 0 50 50">
  <g id="Group_53" data-name="Group 53" transform="translate(-4818 -2101)">
    <path id="Path_107" data-name="Path 107" d="M5,0H45a5,5,0,0,1,5,5V45a5,5,0,0,1-5,5H5a5,5,0,0,1-5-5V5A5,5,0,0,1,5,0Z" transform="translate(4818 2101)" fill="#ce46b3"/>
    <g id="Layer_1" transform="translate(4826 2109)">
      <path id="Path_57" data-name="Path 57" d="M27.163,33H7.837A5.854,5.854,0,0,1,2,27.163V7.837A5.854,5.854,0,0,1,7.837,2H27.163A5.854,5.854,0,0,1,33,7.837V27.163A5.854,5.854,0,0,1,27.163,33Z" fill="#ce46b3"/>
      <g id="Layer_3" transform="translate(8.98 4.358)">
        <path id="Path_58" data-name="Path 58" d="M28.982,35.663l-5.557-5.589a1.662,1.662,0,1,1,2.35-2.35l5.589,5.589a1.63,1.63,0,0,1,0,2.35A1.727,1.727,0,0,1,28.982,35.663Z" transform="translate(-22.925 -21.359)" fill="#fff" fill-rule="evenodd"/>
        <path id="Path_59" data-name="Path 59" d="M28.982,45.676l-5.557,5.589a1.662,1.662,0,1,0,2.35,2.35l5.589-5.589a1.63,1.63,0,0,0,0-2.35A1.727,1.727,0,0,0,28.982,45.676Z" transform="translate(-22.925 -33.41)" fill="#fff" fill-rule="evenodd"/>
        <path id="Path_60" data-name="Path 60" d="M44.234,45.676,33.025,56.917a1.662,1.662,0,0,0,2.35,2.35L46.584,48.026a1.63,1.63,0,0,0,0-2.35A1.687,1.687,0,0,0,44.234,45.676Z" transform="translate(-29.477 -33.196)" fill="#fff" fill-rule="evenodd"/>
        <path id="Path_61" data-name="Path 61" d="M44.234,23.516,33.025,12.275a1.662,1.662,0,0,1,2.35-2.35L46.584,21.166a1.63,1.63,0,0,1,0,2.35A1.687,1.687,0,0,1,44.234,23.516Z" transform="translate(-29.477 -9.425)" fill="#fff" fill-rule="evenodd"/>
      </g>
    </g>
  </g>
</svg>
