<?xml version="1.0" encoding="utf-8"?>
<!-- Generator: Adobe Illustrator 18.0.0, SVG Export Plug-In . SVG Version: 6.00 Build 0)  -->
<!DOCTYPE svg PUBLIC "-//W3C//DTD SVG 1.1//EN" "http://www.w3.org/Graphics/SVG/1.1/DTD/svg11.dtd">
<svg version="1.1" id="Layer_2" xmlns="http://www.w3.org/2000/svg" xmlns:xlink="http://www.w3.org/1999/xlink" x="0px" y="0px"
	 viewBox="0 0 100 100" enable-background="new 0 0 100 100" xml:space="preserve">
<g>
	<g>
		<g>
			<g>
				<g>
					<g>
						<g>
							<g>
								<circle fill="#A078AB" cx="50" cy="50" r="49.9"/>
							</g>
						</g>
					</g>
				</g>
			</g>
		</g>
	</g>
	<g>
		<g>
			<g>
				<g>
					<g>
						<g>
							<path fill="#D1B0D2" d="M80.1,80.1c0,1.9-1.6,3.5-3.5,3.5H24.9c-1.9,0-3.5-1.6-3.5-3.5V20.2c0-1.9,1.6-3.5,3.5-3.5h51.7
								c1.9,0,3.5,1.6,3.5,3.5V80.1z"/>
						</g>
					</g>
				</g>
			</g>
		</g>
		<g>
			<g>
				<g>
					<g>
						<g>
							<path fill="#E7E7D6" d="M77.5,77.7c0,1.8-1.4,3.2-3.2,3.2H27.2c-1.8,0-3.2-1.4-3.2-3.2V22.6c0-1.8,1.4-3.2,3.2-3.2h47.1
								c1.8,0,3.2,1.4,3.2,3.2V77.7z"/>
						</g>
					</g>
				</g>
			</g>
		</g>
		<g>
			<g>
				<g>
					<g>
						<g>
							<g>
								<g>
									<path fill="#EDC929" d="M74.6,35.4L72.1,32l2.5-1.5c0,0-5.1-2-11-3.7v5C69.5,33.5,74.6,35.4,74.6,35.4z"/>
								</g>
							</g>
						</g>
					</g>
				</g>
			</g>
			<g>
				<g>
					<g>
						<g>
							<g>
								<polygon fill="#D8B22A" points="68.2,30.8 63.7,26.8 63.7,31.7 								"/>
							</g>
						</g>
					</g>
				</g>
			</g>
			<g>
				<g>
					<g>
						<g>
							<g>
								<g>
									<path fill="#EDC929" d="M26.9,35.4l2.5-3.4l-2.5-1.5c0,0,5.1-2,11-3.7v5C32,33.5,26.9,35.4,26.9,35.4z"/>
								</g>
							</g>
						</g>
					</g>
				</g>
			</g>
			<g>
				<g>
					<g>
						<g>
							<g>
								<polygon fill="#D8B22A" points="33.3,30.8 37.9,26.8 37.9,31.7 								"/>
							</g>
						</g>
					</g>
				</g>
			</g>
			<g>
				<g>
					<g>
						<g>
							<g>
								<path fill="#EDC929" d="M33.3,25.8c0,0,9.6-2.5,17.5-2.5c7.9,0,17.4,2.5,17.4,2.5v4.9c0,0-9.6-2.5-17.4-2.5
									c-7.8,0-17.5,2.5-17.5,2.5V25.8z"/>
							</g>
						</g>
					</g>
				</g>
			</g>
		</g>
		<g>
			<g>
				<g>
					<g>
						<g>
							<g>
								<path fill="#BFC1A9" d="M69,44.1H32c-0.5,0-1,0.4-1,1c0,0.5,0.4,1,1,1h37c0.5,0,1-0.4,1-1C70,44.5,69.6,44.1,69,44.1z"/>
							</g>
						</g>
					</g>
				</g>
			</g>
			<g>
				<g>
					<g>
						<g>
							<g>
								<path fill="#B0AFA4" d="M64,38.8H37c-0.7,0-1.3,0.6-1.3,1.3c0,0.7,0.6,1.3,1.3,1.3h27c0.7,0,1.2-0.6,1.2-1.3
									C65.3,39.3,64.7,38.8,64,38.8z"/>
							</g>
						</g>
					</g>
				</g>
			</g>
			<g>
				<g>
					<g>
						<g>
							<g>
								<path fill="#BFC1A9" d="M69,48.3H32c-0.5,0-1,0.4-1,1c0,0.5,0.4,1,1,1h37c0.5,0,1-0.4,1-1C70,48.8,69.6,48.3,69,48.3z"/>
							</g>
						</g>
					</g>
				</g>
			</g>
			<g>
				<g>
					<g>
						<g>
							<g>
								<path fill="#BFC1A9" d="M69,52.6H32c-0.5,0-1,0.4-1,1c0,0.5,0.4,1,1,1h37c0.5,0,1-0.4,1-1C70,53.1,69.6,52.6,69,52.6z"/>
							</g>
						</g>
					</g>
				</g>
			</g>
			<g>
				<g>
					<g>
						<g>
							<g>
								<path fill="#BFC1A9" d="M69,57H32c-0.5,0-1,0.4-1,1c0,0.5,0.4,1,1,1h37c0.5,0,1-0.4,1-1C70,57.5,69.6,57,69,57z"/>
							</g>
						</g>
					</g>
				</g>
			</g>
		</g>
		<g>
			<g>
				<g>
					<g>
						<g>
							<path fill="#BFC1A9" d="M42,72.5H32c-0.5,0-1,0.4-1,1c0,0.5,0.4,1,1,1h10c0.5,0,1-0.4,1-1C43,72.9,42.6,72.5,42,72.5z"/>
						</g>
					</g>
				</g>
			</g>
		</g>
		<g>
			<g>
				<g>
					<g>
						<g>
							<path fill="#BFC1A9" d="M69.2,72.5h-10c-0.5,0-1,0.4-1,1c0,0.5,0.4,1,1,1h10c0.5,0,1-0.4,1-1C70.2,72.9,69.8,72.5,69.2,72.5z
								"/>
						</g>
					</g>
				</g>
			</g>
		</g>
		<g>
			<g>
				<g>
					<g>
						<g>
							<g>
								<polygon fill="#E5BE21" points="56,70.5 56.9,69 56.1,67.6 56.1,66 54.6,65.1 53.8,63.6 52.1,63.6 50.8,62.8 49.3,63.6 
									47.6,63.6 46.8,65 45.3,65.8 45.3,67.5 44.5,69 45.3,70.4 45.3,72 46.7,72.9 47.6,74.4 49.2,74.4 50.6,75.2 52.1,74.4 
									53.8,74.4 54.6,73 56,72.2 								"/>
							</g>
						</g>
					</g>
				</g>
			</g>
			<g>
				<g>
					<g>
						<g>
							<g>
								<polygon fill="#EDC929" points="55.3,70.3 56,69 55.3,67.8 55.3,66.4 54.1,65.7 53.3,64.4 51.9,64.4 50.7,63.7 49.5,64.4 
									48,64.4 47.3,65.6 46.1,66.3 46.1,67.7 45.3,69 46,70.2 46,71.6 47.3,72.4 48,73.6 49.4,73.6 50.6,74.4 51.9,73.6 
									53.3,73.6 54,72.4 55.3,71.8 								"/>
							</g>
						</g>
					</g>
				</g>
			</g>
		</g>
	</g>
</g>
</svg>
