<svg xmlns="http://www.w3.org/2000/svg" viewBox="0 0 100 100" enable-background="new 0 0 100 100"><circle fill="#A078AB" cx="50" cy="50" r="49.9"/><path fill="#D1B0D2" d="M80.1 80.1c0 1.9-1.6 3.5-3.5 3.5h-51.7c-1.9 0-3.5-1.6-3.5-3.5v-59.9c0-1.9 1.6-3.5 3.5-3.5h51.7c1.9 0 3.5 1.6 3.5 3.5v59.9z"/><path fill="#E7E7D6" d="M77.5 77.7c0 1.8-1.4 3.2-3.2 3.2h-47.1c-1.8 0-3.2-1.4-3.2-3.2v-55.1c0-1.8 1.4-3.2 3.2-3.2h47.1c1.8 0 3.2 1.4 3.2 3.2v55.1z"/><path fill="#EDC929" d="M74.6 35.4l-2.5-3.4 2.5-1.5s-5.1-2-11-3.7v5c5.9 1.7 11 3.6 11 3.6z"/><path fill="#D8B22A" d="M68.2 30.8l-4.5-4v4.9z"/><path fill="#EDC929" d="M26.9 35.4l2.5-3.4-2.5-1.5s5.1-2 11-3.7v5c-5.9 1.7-11 3.6-11 3.6z"/><path fill="#D8B22A" d="M33.3 30.8l4.6-4v4.9z"/><path fill="#EDC929" d="M33.3 25.8s9.6-2.5 17.5-2.5 17.4 2.5 17.4 2.5v4.9s-9.6-2.5-17.4-2.5c-7.8 0-17.5 2.5-17.5 2.5v-4.9z"/><path fill="#BFC1A9" d="M69 44.1h-37c-.5 0-1 .4-1 1 0 .5.4 1 1 1h37c.5 0 1-.4 1-1s-.4-1-1-1z"/><path fill="#B0AFA4" d="M64 38.8h-27c-.7 0-1.3.6-1.3 1.3 0 .7.6 1.3 1.3 1.3h27c.7 0 1.2-.6 1.2-1.3.1-.8-.5-1.3-1.2-1.3z"/><path fill="#BFC1A9" d="M69 48.3h-37c-.5 0-1 .4-1 1 0 .5.4 1 1 1h37c.5 0 1-.4 1-1 0-.5-.4-1-1-1zM69 52.6h-37c-.5 0-1 .4-1 1 0 .5.4 1 1 1h37c.5 0 1-.4 1-1 0-.5-.4-1-1-1zM69 57h-37c-.5 0-1 .4-1 1 0 .5.4 1 1 1h37c.5 0 1-.4 1-1 0-.5-.4-1-1-1zM42 72.5h-10c-.5 0-1 .4-1 1 0 .5.4 1 1 1h10c.5 0 1-.4 1-1s-.4-1-1-1zM69.2 72.5h-10c-.5 0-1 .4-1 1 0 .5.4 1 1 1h10c.5 0 1-.4 1-1s-.4-1-1-1z"/><path fill="#E5BE21" d="M56 70.5l.9-1.5-.8-1.4v-1.6l-1.5-.9-.8-1.5h-1.7l-1.3-.8-1.5.8h-1.7l-.8 1.4-1.5.8v1.7l-.8 1.5.8 1.4v1.6l1.4.9.9 1.5h1.6l1.4.8 1.5-.8h1.7l.8-1.4 1.4-.8z"/><path fill="#EDC929" d="M55.3 70.3l.7-1.3-.7-1.2v-1.4l-1.2-.7-.8-1.3h-1.4l-1.2-.7-1.2.7h-1.5l-.7 1.2-1.2.7v1.4l-.8 1.3.7 1.2v1.4l1.3.8.7 1.2h1.4l1.2.8 1.3-.8h1.4l.7-1.2 1.3-.6z"/></svg>