<svg xmlns="http://www.w3.org/2000/svg" viewBox="0 0 100 100"><g stroke-linejoin="round" stroke-linecap="round" stroke-width="3" stroke-miterlimit="10"><path d="M90.8 92.2c0 2.7-2.2 4.9-4.9 4.9H14c-2.7 0-4.9-2.2-4.9-4.9V8.9C9.1 6.2 11.3 4 14 4h72c2.7 0 4.9 2.2 4.9 4.9v83.3z" fill="#fff" stroke="#dadada"/><g fill="none"><path d="M60.6 85.3h21.2m-63.7 0h21.2M18.1 48.6h63.7m-52.1-7.8h40.5m-52.1 16h63.7" stroke="#999"/><g stroke="#dadada"><path d="M67.9 22.3V25c8.1 2.4 15.2 5.1 15.2 5.1l-3.5-4.8 3.5-2.1s-3.8-1.4-8.9-3.1M67.9 25l6.3-1.3M32 22.2V25c-8.1 2.4-15.2 5.1-15.2 5.1l3.5-4.8-3.5-2.1s3.7-1.4 8.9-3.1M32 25l-6.3-1.3"/><path d="M25.7 16.8s13.4-3.4 24.3-3.4 24.2 3.4 24.2 3.4v6.9S60.8 20.3 50 20.3c-10.8 0-24.3 3.4-24.3 3.4v-6.9z"/></g><path d="m57.3 78.8l1.2-2-1.1-2v-2.2l-2-1.2-1.2-2.1h-2.3l-1.9-1.1-2.1 1.1h-2.4l-1.1 2-2 1.1v2.3l-1.2 2.1 1.2 2-.1 2.2 2.1 1.2 1.1 2.1h2.3l1.9 1.1 2.1-1.1h2.4l1.1-2 2-1.1z" stroke="#999"/></g></g></svg>