<svg xmlns="http://www.w3.org/2000/svg" height="24px" width="24px" viewBox="0 0 100 100" enable-background="new 0 0 100 100"><g stroke-miterlimit="10"><g stroke-linejoin="round" stroke-linecap="round" stroke-width="3"><g stroke="#999"><path d="m87.2 76.5c0 3-2.3 5.4-5.1 5.4h-74.6c-2.8 0-5.1-2.4-5.1-5.4v-53c0-2.9 2.3-5.4 5.1-5.4h74.6c2.8 0 5.1 2.4 5.1 5.4v53z" fill="#fff"/><g fill="none"><path d="m53.7 49.7h25.9m-25.9-10.4h25.9m-25.9 21.3h25.9"/><path d="m10.7 49.6h25.9m-25.9-10.5h25.9m-25.9 21.4h25.9"/><path d="m44.8 81.8v-63.6"/></g></g><circle cx="79.7" cy="67" r="18.3" fill="#8bc34a" stroke="#8bc34a"/></g><g fill="#fff" stroke="#fff"><path d="m79.8 77.1c-.6 0-1-.5-1-1v-18.7c0-.6.5-1 1-1 .6 0 1 .5 1 1v18.7c.1.6-.4 1-1 1z"/><path d="m89.2 67.8h-18.7c-.6 0-1-.5-1-1 0-.6.5-1 1-1h18.7c.6 0 1 .5 1 1s-.4 1-1 1z"/></g></g></svg>
