<?xml version="1.0" encoding="utf-8"?>
<!-- Generator: Adobe Illustrator 17.1.0, SVG Export Plug-In . SVG Version: 6.00 Build 0)  -->
<!DOCTYPE svg PUBLIC "-//W3C//DTD SVG 1.1//EN" "http://www.w3.org/Graphics/SVG/1.1/DTD/svg11.dtd">
<svg version="1.1" id="Layer_1" xmlns="http://www.w3.org/2000/svg" xmlns:xlink="http://www.w3.org/1999/xlink" x="0px" y="0px"
	 viewBox="0 0 16 16" enable-background="new 0 0 16 16" xml:space="preserve">
<g id="Layer_3">
	<g>
		<circle fill="#507F6F" cx="7.9" cy="8" r="7.4"/>
		<g>
			<path fill="#70B29C" d="M13.1,11.5c0,0.1-0.1,0.1-0.1,0.1H3.2c-0.1,0-0.1-0.1-0.1-0.1V4.6c0-0.1,0.1-0.1,0.1-0.1h9.8
				c0.1,0,0.1,0.1,0.1,0.1C13.1,4.6,13.1,11.5,13.1,11.5z"/>
			<rect x="7.8" y="4.5" fill="#5E917F" width="0.5" height="7.2"/>
			<polygon fill="#F1F0EE" points="8.1,4.8 3.4,4.8 3.4,11.3 8.1,11.3 12.7,11.3 12.7,4.8 			"/>
			<rect x="7.8" y="4.8" fill="#C5C3AE" width="0.5" height="6.5"/>
			<polygon fill="#F1F0EE" points="8.1,11.3 3.6,11.1 3.6,4.6 8.1,4.8 			"/>
			<polygon fill="#F1F0EE" points="12.5,11.1 8.1,11.3 8.1,4.8 12.5,4.6 			"/>
			<rect x="8" y="5" fill="#DCDDD8" width="0.1" height="6.3"/>
			<g>
				<path fill="#B9B9BA" d="M7.7,5.7c0,0.1-0.1,0.2-0.1,0.2L4.1,5.8C4.1,5.8,4,5.7,4,5.6l0,0c0-0.1,0.1-0.2,0.1-0.2l3.4,0.1
					C7.7,5.6,7.7,5.7,7.7,5.7L7.7,5.7z"/>
				<path fill="#B9B9BA" d="M7.7,6.4c0,0.1-0.1,0.2-0.1,0.2L4.1,6.4C4.1,6.4,4,6.3,4,6.2l0,0c0-0.1,0.1-0.2,0.1-0.2l3.4,0.1
					C7.7,6.2,7.7,6.3,7.7,6.4L7.7,6.4z"/>
				<path fill="#B9B9BA" d="M7.7,7c0,0.1-0.1,0.2-0.1,0.2L4.1,7C4.1,7,4,6.9,4,6.9l0,0c0-0.1,0.1-0.2,0.1-0.2l3.4,0.1
					C7.7,6.8,7.7,6.9,7.7,7L7.7,7z"/>
				<path fill="#B9B9BA" d="M7.7,7.6c0,0.1-0.1,0.2-0.1,0.2L4.1,7.6C4.1,7.6,4,7.6,4,7.5l0,0c0-0.1,0.1-0.2,0.1-0.2l3.4,0.1
					C7.7,7.4,7.7,7.5,7.7,7.6L7.7,7.6z"/>
				<path fill="#B9B9BA" d="M7.7,8.2c0,0.1-0.1,0.2-0.1,0.2L4.1,8.3C4.1,8.3,4,8.2,4,8.1l0,0C4,8,4.1,8,4.1,8l3.4,0.1
					C7.7,8.1,7.7,8.1,7.7,8.2L7.7,8.2z"/>
				<path fill="#B9B9BA" d="M7.7,8.8C7.7,8.9,7.6,9,7.6,9L4.1,8.9C4.1,8.9,4,8.8,4,8.7l0,0c0-0.1,0.1-0.2,0.1-0.2l3.4,0.1
					C7.7,8.7,7.7,8.7,7.7,8.8L7.7,8.8z"/>
				<path fill="#B9B9BA" d="M7.7,9.4c0,0.1-0.1,0.2-0.1,0.2L4.1,9.5C4.1,9.5,4,9.4,4,9.3l0,0c0-0.1,0.1-0.2,0.1-0.2l3.4,0.1
					C7.7,9.3,7.7,9.3,7.7,9.4L7.7,9.4z"/>
				<path fill="#B9B9BA" d="M7.7,10c0,0.1-0.1,0.2-0.1,0.2l-3.4-0.1C4.1,10.1,4,10,4,9.9l0,0c0-0.1,0.1-0.2,0.1-0.2l3.4,0.1
					C7.7,9.9,7.7,10,7.7,10L7.7,10z"/>
			</g>
			<g>
				<path fill="#B9B9BA" d="M8.4,5.7c0,0.1,0.1,0.2,0.1,0.2L12,5.8c0.1,0,0.1-0.1,0.1-0.2l0,0c0-0.1-0.1-0.2-0.1-0.2L8.6,5.6
					C8.5,5.6,8.4,5.7,8.4,5.7L8.4,5.7z"/>
				<path fill="#B9B9BA" d="M8.4,6.4c0,0.1,0.1,0.2,0.1,0.2L12,6.4c0.1,0,0.1-0.1,0.1-0.2l0,0c0-0.1-0.1-0.2-0.1-0.2L8.6,6.2
					C8.5,6.2,8.4,6.3,8.4,6.4L8.4,6.4z"/>
				<path fill="#B9B9BA" d="M8.4,7c0,0.1,0.1,0.2,0.1,0.2L12,7c0.1,0,0.1-0.1,0.1-0.2l0,0c0-0.1-0.1-0.2-0.1-0.2L8.6,6.8
					C8.5,6.8,8.4,6.9,8.4,7L8.4,7z"/>
				<path fill="#B9B9BA" d="M8.4,7.6c0,0.1,0.1,0.2,0.1,0.2L12,7.6c0.1,0,0.1-0.1,0.1-0.2l0,0c0-0.1-0.1-0.2-0.1-0.2L8.6,7.4
					C8.5,7.4,8.4,7.5,8.4,7.6L8.4,7.6z"/>
				<path fill="#B9B9BA" d="M8.4,8.2c0,0.1,0.1,0.2,0.1,0.2L12,8.3c0.1,0,0.1-0.1,0.1-0.2l0,0C12.2,8,12.1,8,12,8L8.6,8.1
					C8.5,8.1,8.4,8.1,8.4,8.2L8.4,8.2z"/>
				<path fill="#B9B9BA" d="M8.4,8.8C8.4,8.9,8.5,9,8.6,9L12,8.9c0.1,0,0.1-0.1,0.1-0.2l0,0c0-0.1-0.1-0.2-0.1-0.2L8.6,8.7
					C8.5,8.7,8.4,8.7,8.4,8.8L8.4,8.8z"/>
				<path fill="#B9B9BA" d="M8.4,9.4c0,0.1,0.1,0.2,0.1,0.2L12,9.5c0.1,0,0.1-0.1,0.1-0.2l0,0c0-0.1-0.1-0.2-0.1-0.2L8.6,9.3
					C8.5,9.3,8.4,9.3,8.4,9.4L8.4,9.4z"/>
				<path fill="#B9B9BA" d="M8.4,10c0,0.1,0.1,0.2,0.1,0.2l3.4-0.1c0.1,0,0.1-0.1,0.1-0.2l0,0c0-0.1-0.1-0.2-0.1-0.2L8.6,9.9
					C8.5,9.9,8.4,10,8.4,10L8.4,10z"/>
			</g>
		</g>
	</g>
</g>
</svg>
