<svg xmlns="http://www.w3.org/2000/svg" width="50" height="50" viewBox="0 0 50 50">
  <g id="Group_62" data-name="Group 62" transform="translate(-4741 -2065)">
    <g id="Group_56" data-name="Group 56" transform="translate(0 180)">
      <g id="Group_41" data-name="Group 41">
        <rect id="Rectangle_67" data-name="Rectangle 67" width="50" height="50" rx="5" transform="translate(4741 1885)" fill="#4a66c3"/>
      </g>
    </g>
    <path id="book-2-6_1_" d="M31,2.333a1.058,1.058,0,0,0-1.042-1.042.7.7,0,0,0-.417.125l-2.75,1.375V1.042A1.068,1.068,0,0,0,25.709,0a1.233,1.233,0,0,0-.417.083L15.459,5,5.625.125A1.034,1.034,0,0,0,4.25.583c-.083.083-.083.25-.125.375v1.75L1.458,1.375a1.022,1.022,0,0,0-1.375.458A.751.751,0,0,0,0,2.25V22.709a1.086,1.086,0,0,0,.542.917L15,30.751a1.27,1.27,0,0,0,.958,0l14.459-7.125a.989.989,0,0,0,.542-.917L31,2.333ZM15.125,26a1.189,1.189,0,0,0,.542,0c.042,0,.083-.042.125-.042h0s10.292-5.083,10.334-5.083a.989.989,0,0,0,.542-.917V5.125l2.167-1.083V21.917L15.375,28.584l-13.167-7V4.25l2.083.875V19.959a1.086,1.086,0,0,0,.542.917c.042,0,10.042,5.083,10.084,5.083h0c.125,0,.167,0,.208.042Zm1.458-2.792V7L24.5,3.083v16.25ZM6.458,19.25V3.042l7.917,3.917V23.125Z" transform="translate(4751 2075)" fill="#fff"/>
  </g>
</svg>
