<svg xmlns="http://www.w3.org/2000/svg" width="50" height="50" viewBox="0 0 50 50">
  <g id="Group_45" data-name="Group 45" transform="translate(-4939 -1885)">
    <rect id="Rectangle_71" data-name="Rectangle 71" width="50" height="50" rx="5" transform="translate(4939 1885)" fill="#45a1cb"/>
    <g id="Group_12483_1_" transform="translate(4947.9 1894.014)">
      <path id="Path_43" data-name="Path 43" d="M28.635,53.5a12.247,12.247,0,0,0-6.848-1.9,12.911,12.911,0,0,0-6,1.4,12.911,12.911,0,0,0-6-1.4,12.247,12.247,0,0,0-6.848,1.9A5.679,5.679,0,0,0,.1,58.234v1.775a1.172,1.172,0,0,0,1.141,1.184H30.41a1.172,1.172,0,0,0,1.141-1.184V58.234A5.878,5.878,0,0,0,28.635,53.5ZM17.263,59.037H2.383V58.4C2.51,56.035,5,54.809,6.906,54.218a10.852,10.852,0,0,1,8.243,1.015,3.865,3.865,0,0,1,2.114,3.128Zm12.006,0H19.546a6.04,6.04,0,0,0-1.522-4.523,10.825,10.825,0,0,1,9.131.719,3.865,3.865,0,0,1,2.114,3.128v.676Z" transform="translate(0 -29.792)" fill="#fff"/>
      <path id="Path_44" data-name="Path 44" d="M16.031,35.18a4.89,4.89,0,0,0,4.946-4.9c-.254-6.468-9.681-6.468-9.977,0a4.99,4.99,0,0,0,5.031,4.9Zm-2.79-4.9a2.776,2.776,0,0,1,5.538,0,2.771,2.771,0,0,1-5.538,0Z" transform="translate(-6.292 -14.685)" fill="#fff"/>
      <path id="Path_45" data-name="Path 45" d="M43.931,35.18a4.89,4.89,0,0,0,4.946-4.9c-.254-6.468-9.681-6.468-9.977,0a5.018,5.018,0,0,0,5.031,4.9Zm0-7.567a2.7,2.7,0,0,1,2.748,2.663,2.727,2.727,0,0,1-5.453,0,2.662,2.662,0,0,1,2.705-2.663Z" transform="translate(-22.398 -14.685)" fill="#fff"/>
      <path id="Path_565_1_" d="M15.789.076a1.222,1.222,0,0,1,.719,1.564l-.676,1.606a19.071,19.071,0,0,1,14.162.085l-.719-1.649A1.2,1.2,0,0,1,29.951.119a1.225,1.225,0,0,1,1.606.634L33.291,4.98a1.2,1.2,0,0,1-.676,1.564h0L28.26,8.235A1.256,1.256,0,0,1,26.7,7.559a1.138,1.138,0,0,1,.676-1.522l1.48-.719a16.355,16.355,0,0,0-12.006-.042l1.564.719A1.168,1.168,0,0,1,18.96,7.6a1.15,1.15,0,0,1-1.48.592L13.126,6.5a1.192,1.192,0,0,1-.719-1.522h0L14.141.753A1.293,1.293,0,0,1,15.789.076Z" transform="translate(-7.066 0)" fill="#fff"/>
    </g>
  </g>
</svg>
