<?xml version="1.0" encoding="utf-8"?>
<!-- Generator: Adobe Illustrator 17.1.0, SVG Export Plug-In . SVG Version: 6.00 Build 0)  -->
<!DOCTYPE svg PUBLIC "-//W3C//DTD SVG 1.1//EN" "http://www.w3.org/Graphics/SVG/1.1/DTD/svg11.dtd">
<svg version="1.1" xmlns="http://www.w3.org/2000/svg" xmlns:xlink="http://www.w3.org/1999/xlink" x="0px" y="0px"
	 viewBox="0 0 16 16" enable-background="new 0 0 16 16" xml:space="preserve">
<g id="forum" display="none">
	<polygon fill="#38A70C" points="15,12.1 8,16.1 1.1,12.1 1.1,4 8,0 15,4 	"/>
	<rect x="2.4" y="4.6" fill="#FFFFFF" width="11.4" height="6.6"/>
	<polyline fill="#FFFFFF" points="6.9,13 6.9,11.2 9.4,11.2 	"/>
	<rect x="1" y="1" fill="#38A70C" width="10.9" height="10.9"/>
	<polyline fill="#38A70C" points="2.5,15.9 2.5,11.9 6.6,11.9 	"/>
	<g>
		<rect x="3.6" y="5.8" display="inline" fill="#B0DD9A" width="9" height="0.8"/>
		<rect x="3.6" y="7.5" display="inline" fill="#B0DD9A" width="9" height="0.8"/>
		<rect x="3.6" y="9.2" display="inline" fill="#B0DD9A" width="9" height="0.8"/>
	</g>
	<g display="inline">
		<g>
			<g>
				<circle fill="#49A0AE" cx="8" cy="7.9" r="7.9"/>
			</g>
		</g>
		<g>
			<g>
				<g>
					<path fill="#DFF1ED" d="M14.3,10.9c0,0.7-0.6,1.3-1.3,1.3H3.1c-0.7,0-1.3-0.6-1.3-1.3V5.1c0-0.7,0.6-1.3,1.3-1.3H13
						c0.7,0,1.3,0.6,1.3,1.3V10.9z"/>
				</g>
				<g>
					<path fill="#DFF1ED" d="M11.3,13.9c-0.1,0.1-0.3,0.1-0.4,0l-1.3-1.8c-0.1-0.1-0.1-0.3,0-0.4h2.9c0.1,0.1,0.1,0.3,0,0.4
						L11.3,13.9z"/>
				</g>
			</g>
			<g>
				<g>
					<path fill="#B7CAC4" d="M12.4,6c0,0.3-0.2,0.5-0.5,0.5H4.1C3.9,6.5,3.6,6.3,3.6,6l0,0c0-0.3,0.2-0.5,0.5-0.5h7.8
						C12.2,5.5,12.4,5.7,12.4,6L12.4,6z"/>
				</g>
				<g>
					<path fill="#B7CAC4" d="M12.4,7.9c0,0.3-0.2,0.5-0.5,0.5H4.1c-0.3,0-0.5-0.2-0.5-0.5l0,0c0-0.3,0.2-0.5,0.5-0.5h7.8
						C12.2,7.4,12.4,7.6,12.4,7.9L12.4,7.9z"/>
				</g>
				<g>
					<path fill="#B7CAC4" d="M12.4,9.8c0,0.3-0.2,0.5-0.5,0.5H4.1c-0.3,0-0.5-0.2-0.5-0.5l0,0c0-0.3,0.2-0.5,0.5-0.5h7.8
						C12.2,9.3,12.4,9.5,12.4,9.8L12.4,9.8z"/>
				</g>
			</g>
		</g>
	</g>
</g>
<g id="chat" display="none">
	<g display="inline">
		<g>
			<g>
				<circle fill="#49A0AE" cx="7.9" cy="8" r="8"/>
			</g>
		</g>
		<g>
			<g>
				<g>
					<path fill="#DFF1ED" d="M14.3,11.1c0,0.7-0.6,1.3-1.3,1.3H3.1c-0.7,0-1.3-0.6-1.3-1.3v-6c0-0.7,0.6-1.3,1.3-1.3H13
						c0.7,0,1.3,0.6,1.3,1.3V11.1z"/>
				</g>
				<g>
					<path fill="#DFF1ED" d="M11.3,14.2c-0.1,0.1-0.3,0.1-0.4,0l-1.3-1.8c-0.1-0.1-0.1-0.3,0-0.4h2.9c0.1,0.1,0.1,0.3,0,0.4
						L11.3,14.2z"/>
				</g>
			</g>
			<g>
				<g>
					<circle fill="#B7CAC4" cx="5.4" cy="8.3" r="0.8"/>
				</g>
				<g>
					<circle fill="#B7CAC4" cx="8" cy="8.3" r="0.8"/>
				</g>
				<g>
					<circle fill="#B7CAC4" cx="10.6" cy="8.3" r="0.8"/>
				</g>
			</g>
		</g>
	</g>
</g>
<g id="assignment">
	<g>
		<g>
			<g>
				<circle fill="#4ABC96" cx="8" cy="8" r="7.9"/>
			</g>
		</g>
		<g>
			<g>
				<rect x="3.8" y="2.5" transform="matrix(0.9875 -0.1577 0.1577 0.9875 -1.1641 1.3286)" fill="#FFFFFF" width="8" height="11"/>
				<g>
					
						<rect x="3.8" y="3.6" transform="matrix(0.9875 -0.1578 0.1578 0.9875 -0.5188 1.1642)" fill="#357180" width="6.5" height="0.4"/>
					
						<rect x="4" y="4.7" transform="matrix(0.9875 -0.1577 0.1577 0.9875 -0.6764 1.2061)" fill="#357180" width="6.5" height="0.4"/>
					
						<rect x="4.2" y="5.7" transform="matrix(0.9875 -0.1578 0.1578 0.9875 -0.8445 1.2466)" fill="#357180" width="6.5" height="0.4"/>
					
						<rect x="4.4" y="7" transform="matrix(0.9875 -0.1578 0.1578 0.9875 -1.0617 1.0619)" fill="#357180" width="3.6" height="0.4"/>
				</g>
			</g>
			<g>
				
					<rect x="7.3" y="10.7" transform="matrix(0.9788 0.2046 -0.2046 0.9788 2.391 -1.4762)" fill="#F7D98B" width="2" height="0.2"/>
				<polygon fill="#F7D98B" points="8.9,7.5 7.4,10.5 9.3,10.9 				"/>
				<polygon fill="#626463" points="8.9,7.5 8.3,8.8 9.1,9 				"/>
				<path fill="#F2BE3E" d="M4,36.6C3.9,37,3.5,37,3.1,36.9l-0.5-0.1c-0.4-0.1-0.7-0.2-0.7-0.6l0.1-0.3c0.1-0.4,2,0,1.9,0.4L4,36.6z
					"/>
				
					<rect x="2.2" y="34.8" transform="matrix(0.979 0.2041 -0.2041 0.979 7.2965 9.334454e-02)" fill="#818282" width="2" height="1.3"/>
				
					<rect x="2.3" y="34.8" transform="matrix(0.979 0.2041 -0.2041 0.979 7.186 5.816199e-02)" fill="#A4A5A4" width="2" height="0.2"/>
				
					<rect x="2.2" y="35.2" transform="matrix(0.9789 0.2043 -0.2043 0.9789 7.2812 8.707953e-02)" fill="#A4A5A4" width="2" height="0.2"/>
				
					<rect x="2.1" y="35.7" transform="matrix(0.9789 0.2044 -0.2044 0.9789 7.3763 0.1161)" fill="#A4A5A4" width="2" height="0.2"/>
				<g>
					<polygon fill="#E84849" points="8.9,11 3.9,34.9 4.3,35 9.3,11.1 9.2,10.7 					"/>
					<polygon fill="#E84849" points="7.7,10.8 2.7,34.7 3.2,34.8 8.2,10.9 8,10.5 					"/>
					<polygon fill="#F06668" points="7.3,10.7 2.3,34.6 2.7,34.7 7.7,10.8 7.5,10.4 					"/>
					<polygon fill="#F06668" points="8.2,10.9 3.2,34.8 3.9,34.9 8.9,11 8.6,10.6 					"/>
				</g>
			</g>
		</g>
	</g>
</g>
</svg>
