<?xml version="1.0" encoding="utf-8"?>
<!-- Generator: Adobe Illustrator 17.1.0, SVG Export Plug-In . SVG Version: 6.00 Build 0)  -->
<!DOCTYPE svg PUBLIC "-//W3C//DTD SVG 1.1//EN" "http://www.w3.org/Graphics/SVG/1.1/DTD/svg11.dtd">
<svg version="1.1" xmlns="http://www.w3.org/2000/svg" xmlns:xlink="http://www.w3.org/1999/xlink" x="0px" y="0px"
	 viewBox="0 0 136.8 136.8" enable-background="new 0 0 136.8 136.8" xml:space="preserve">
<g id="Layer_2" display="none">
	<g display="inline">
		<g>
			<g>
				<g>
					<circle fill="#3289A3" cx="68.3" cy="68.5" r="63.5"/>
				</g>
			</g>
		</g>
		<g>
			<g>
				<g>
					<g>
						<g>
							<path fill="#F5F5F5" d="M43.5,31.1c-2.4,0-4.3,1.9-4.3,4.3v68.5c0,2.4,1.9,4.3,4.3,4.3h49.2c2.4,0,4.3-1.9,4.3-4.3V51
								L76.4,31.1H43.5z"/>
						</g>
					</g>
				</g>
				<g>
					<g>
						<path fill="#E1E1E1" d="M97,51H80.7c-2.4,0-4.3-1.9-4.3-4.3V31.1L97,51z"/>
					</g>
				</g>
				<g>
					<g>
						<path fill="#C9C9C8" d="M91,56.8c0,0.7-0.6,1.3-1.3,1.3H46.9c-0.7,0-1.3-0.6-1.3-1.3l0,0c0-0.7,0.6-1.3,1.3-1.3h42.8
							C90.4,55.5,91,56.1,91,56.8L91,56.8z"/>
					</g>
				</g>
				<g>
					<g>
						<path fill="#C9C9C8" d="M91,63.8c0,0.7-0.6,1.3-1.3,1.3H46.9c-0.7,0-1.3-0.6-1.3-1.3l0,0c0-0.7,0.6-1.3,1.3-1.3h42.8
							C90.4,62.5,91,63.1,91,63.8L91,63.8z"/>
					</g>
				</g>
				<g>
					<g>
						<path fill="#C9C9C8" d="M91,70.5c0,0.7-0.6,1.3-1.3,1.3H46.9c-0.7,0-1.3-0.6-1.3-1.3l0,0c0-0.7,0.6-1.3,1.3-1.3h42.8
							C90.4,69.2,91,69.8,91,70.5L91,70.5z"/>
					</g>
				</g>
				<g>
					<g>
						<path fill="#C9C9C8" d="M91,77.5c0,0.7-0.6,1.3-1.3,1.3H46.9c-0.7,0-1.3-0.6-1.3-1.3l0,0c0-0.7,0.6-1.3,1.3-1.3h42.8
							C90.4,76.2,91,76.8,91,77.5L91,77.5z"/>
					</g>
				</g>
				<g>
					<g>
						<path fill="#C9C9C8" d="M69.3,83.2H46.9c-0.7,0-1.3,0.6-1.3,1.3c0,0.7,0.6,1.3,1.3,1.3h22.4c0.7,0,1.3-0.6,1.3-1.3
							C70.6,83.8,70,83.2,69.3,83.2z"/>
					</g>
				</g>
			</g>
		</g>
	</g>
</g>
<g id="Layer_3">
	<g>
		<circle fill="#507F6F" cx="67.7" cy="68.7" r="63.3"/>
		<g>
			<path fill="#357180" d="M111.9,98.5c0,0.6-0.5,1.2-1.2,1.2H27.3c-0.6,0-1.2-0.5-1.2-1.2V39.3c0-0.6,0.5-1.2,1.2-1.2h83.4
				c0.6,0,1.2,0.5,1.2,1.2V98.5z"/>
			<rect x="66.7" y="38.1" fill="#27636D" width="4.7" height="61.5"/>
			<polygon fill="#D7D7BF" points="69,41.1 29.3,41.1 29.3,96.6 69,96.6 108.8,96.6 108.8,41.1 			"/>
			<rect x="66.8" y="41.1" fill="#C5C3AE" width="4.5" height="55.5"/>
			<polygon fill="#E7E7D6" points="69,96.6 30.9,95 30.9,39.3 69,41.1 			"/>
			<polygon fill="#E7E7D6" points="107.2,95 69,96.6 69,41.1 107.2,39.3 			"/>
			<rect x="68.8" y="42.4" fill="#DCDDD8" width="0.5" height="54.2"/>
			<g>
				<path fill="#B9B9BA" d="M66,49c0,0.7-0.6,1.3-1.2,1.3l-29.5-0.9c-0.7,0-1.2-0.6-1.2-1.3l0,0c0-0.7,0.6-1.3,1.2-1.3l29.5,0.9
					C65.5,47.7,66,48.3,66,49L66,49z"/>
				<path fill="#B9B9BA" d="M66,54.3c0,0.7-0.6,1.3-1.2,1.3l-29.5-0.9c-0.7,0-1.2-0.6-1.2-1.3l0,0c0-0.7,0.6-1.3,1.2-1.3L64.8,53
					C65.5,53,66,53.6,66,54.3L66,54.3z"/>
				<path fill="#B9B9BA" d="M66,59.5c0,0.7-0.6,1.3-1.2,1.3l-29.5-0.9c-0.7,0-1.2-0.6-1.2-1.3l0,0c0-0.7,0.6-1.3,1.2-1.3l29.5,0.9
					C65.5,58.2,66,58.8,66,59.5L66,59.5z"/>
				<path fill="#B9B9BA" d="M66,64.8c0,0.7-0.6,1.3-1.2,1.3l-29.5-0.9c-0.7,0-1.2-0.6-1.2-1.3l0,0c0-0.7,0.6-1.3,1.2-1.3l29.5,0.9
					C65.5,63.5,66,64.1,66,64.8L66,64.8z"/>
				<path fill="#B9B9BA" d="M66,70.2c0,0.7-0.6,1.3-1.2,1.3l-29.5-0.9c-0.7,0-1.2-0.6-1.2-1.3l0,0c0-0.7,0.6-1.3,1.2-1.3l29.5,0.9
					C65.5,68.9,66,69.5,66,70.2L66,70.2z"/>
				<path fill="#B9B9BA" d="M66,75.5c0,0.7-0.6,1.3-1.2,1.3l-29.5-0.9c-0.7,0-1.2-0.6-1.2-1.3l0,0c0-0.7,0.6-1.3,1.2-1.3l29.5,0.9
					C65.5,74.2,66,74.8,66,75.5L66,75.5z"/>
				<path fill="#B9B9BA" d="M66,80.6c0,0.7-0.6,1.3-1.2,1.3l-29.5-0.9c-0.7,0-1.2-0.6-1.2-1.3l0,0c0-0.7,0.6-1.3,1.2-1.3l29.5,0.9
					C65.5,79.3,66,79.9,66,80.6L66,80.6z"/>
				<path fill="#B9B9BA" d="M66,85.9c0,0.7-0.6,1.3-1.2,1.3l-29.5-0.9c-0.7,0-1.2-0.6-1.2-1.3l0,0c0-0.7,0.6-1.3,1.2-1.3l29.5,0.9
					C65.5,84.6,66,85.2,66,85.9L66,85.9z"/>
			</g>
			<g>
				<path fill="#B9B9BA" d="M72.2,49c0,0.7,0.6,1.3,1.2,1.3l29.5-0.9c0.7,0,1.2-0.6,1.2-1.3l0,0c0-0.7-0.6-1.3-1.2-1.3l-29.5,0.9
					C72.8,47.7,72.2,48.3,72.2,49L72.2,49z"/>
				<path fill="#B9B9BA" d="M72.2,54.3c0,0.7,0.6,1.3,1.2,1.3l29.5-0.9c0.7,0,1.2-0.6,1.2-1.3l0,0c0-0.7-0.6-1.3-1.2-1.3L73.5,53
					C72.8,53,72.2,53.6,72.2,54.3L72.2,54.3z"/>
				<path fill="#B9B9BA" d="M72.2,59.5c0,0.7,0.6,1.3,1.2,1.3l29.5-0.9c0.7,0,1.2-0.6,1.2-1.3l0,0c0-0.7-0.6-1.3-1.2-1.3l-29.5,0.9
					C72.8,58.2,72.2,58.8,72.2,59.5L72.2,59.5z"/>
				<path fill="#B9B9BA" d="M72.2,64.8c0,0.7,0.6,1.3,1.2,1.3l29.5-0.9c0.7,0,1.2-0.6,1.2-1.3l0,0c0-0.7-0.6-1.3-1.2-1.3l-29.5,0.9
					C72.8,63.5,72.2,64.1,72.2,64.8L72.2,64.8z"/>
				<path fill="#B9B9BA" d="M72.2,70.2c0,0.7,0.6,1.3,1.2,1.3l29.5-0.9c0.7,0,1.2-0.6,1.2-1.3l0,0c0-0.7-0.6-1.3-1.2-1.3l-29.5,0.9
					C72.8,68.9,72.2,69.5,72.2,70.2L72.2,70.2z"/>
				<path fill="#B9B9BA" d="M72.2,75.5c0,0.7,0.6,1.3,1.2,1.3l29.5-0.9c0.7,0,1.2-0.6,1.2-1.3l0,0c0-0.7-0.6-1.3-1.2-1.3l-29.5,0.9
					C72.8,74.2,72.2,74.8,72.2,75.5L72.2,75.5z"/>
				<path fill="#B9B9BA" d="M72.2,80.6c0,0.7,0.6,1.3,1.2,1.3l29.5-0.9c0.7,0,1.2-0.6,1.2-1.3l0,0c0-0.7-0.6-1.3-1.2-1.3l-29.5,0.9
					C72.8,79.3,72.2,79.9,72.2,80.6L72.2,80.6z"/>
				<path fill="#B9B9BA" d="M72.2,85.9c0,0.7,0.6,1.3,1.2,1.3l29.5-0.9c0.7,0,1.2-0.6,1.2-1.3l0,0c0-0.7-0.6-1.3-1.2-1.3l-29.5,0.9
					C72.8,84.6,72.2,85.2,72.2,85.9L72.2,85.9z"/>
			</g>
		</g>
	</g>
</g>
</svg>
