<?xml version="1.0" encoding="utf-8"?>
<!-- Generator: Adobe Illustrator 18.0.0, SVG Export Plug-In . SVG Version: 6.00 Build 0)  -->
<!DOCTYPE svg PUBLIC "-//W3C//DTD SVG 1.1//EN" "http://www.w3.org/Graphics/SVG/1.1/DTD/svg11.dtd">
<svg version="1.1" id="Layer_1" xmlns="http://www.w3.org/2000/svg" xmlns:xlink="http://www.w3.org/1999/xlink" x="0px" y="0px"
	 viewBox="0 0 210 250" enable-background="new 0 0 210 250" xml:space="preserve">
<circle fill="#E88524" cx="103.9" cy="125.5" r="97.2"/>
<g id="book">
	<g id="book_cover">
		<path fill="#999999" d="M26.6,80.2v-7.7h-4.3c-1.6,2.4-3,4.8-4.4,7.3L26.6,80.2z"/>
		<polygon fill="#999999" points="75.3,78.5 75.3,72.5 39.2,72.5 39.2,80.2 		"/>
		<path fill="#999999" d="M144.2,72.5H102v4.7l32.8-1.6v4.8h4.2v136.2c2.9-1.1,5.7-2.4,8.4-3.7V75.6C147.3,73.9,146,72.5,144.2,72.5
			z"/>
	</g>
	<g id="book_spine">
		<polygon fill="#666666" points="32.7,80.5 39.2,80.2 39.2,72.5 26.6,72.5 26.6,80.2 		"/>
	</g>
	<g id="book_pages">
		<path fill="#E7E7D6" d="M26.6,80.5v-0.3l-8.7-0.4c-0.1,0.2-0.2,0.5-0.4,0.7H26.6z"/>
		<path fill="#D7D7BF" d="M138.9,216.7V80.5h-4.2v137.7C136.1,217.8,137.5,217.3,138.9,216.7z"/>
		<path fill="#E7E7D6" d="M17.6,80.5c-2.9,5.5-5.2,11.2-7,17.2l10.9,0.3c1.8,0.1,3.3,1.7,3.3,3.6c0,1.9-1.5,3.4-3.3,3.4l-12.6-0.4
			c-0.5,2.4-1,4.8-1.3,7.2l14,0.4c1.8,0.1,3.3,1.7,3.3,3.6s-1.5,3.4-3.3,3.4l-14.7-0.5c-0.2,2.3-0.3,4.5-0.3,6.8l15,0.5
			c1.8,0.1,3.3,1.7,3.3,3.6c0,1.9-1.5,3.4-3.3,3.4l-14.7-0.5c0.2,2.4,0.4,4.9,0.8,7.3l14,0.4c1.8,0.1,3.3,1.7,3.3,3.6
			c0,1.9-1.5,3.4-3.3,3.4l-12.7-0.4c0.6,2.5,1.2,5,1.9,7.5l10.8,0.3c1.8,0.1,3.3,1.7,3.3,3.6c0,1.9-1.5,3.4-3.3,3.4l-8.3-0.3
			c1,2.5,2,5,3.2,7.3l5.1,0.2c1.8,0.1,3.3,1.7,3.3,3.6c0,1.9-1.5,3.4-3.3,3.4l-1.3,0c2,3.3,4.2,6.5,6.5,9.6V80.5H17.6z"/>
		<path fill="#E7E7D6" d="M26.8,80.5h-0.2v104.6c0.1,0.1,0.2,0.2,0.2,0.3V80.5z"/>
		<path fill="#E7E7D6" d="M26.8,185.4c1.7,2.2,3.5,4.3,5.4,6.4V84h0.5v-3.5h-5.9V185.4z"/>
		<polygon fill="#E7E7D6" points="75.3,80.5 75.3,78.5 39.2,80.2 39.2,80.5 		"/>
		<polygon fill="#E7E7D6" points="134.7,80.5 134.7,75.7 102,77.2 102,80.5 		"/>
		<polygon fill="#E7E7D6" points="94.8,167.1 91.3,160 87.7,160.1 83.5,167.5 		"/>
		<polygon fill="#E7E7D6" points="75.4,181.5 101.5,180.7 98.1,173.9 79.4,174.5 		"/>
		<path fill="#E7E7D6" d="M102,96.2l21.4-0.7c1.8-0.1,3.3,1.4,3.3,3.4c0,1.9-1.5,3.5-3.3,3.6l-21.4,0.7v7.3l21.4-0.7
			c1.8-0.1,3.3,1.4,3.3,3.4s-1.5,3.5-3.3,3.6l-21.4,0.7v6.8l21.4-0.7c1.8-0.1,3.3,1.4,3.3,3.4c0,1.9-1.5,3.5-3.3,3.6l-21.4,0.7v7.3
			l21.4-0.7c1.8-0.1,3.3,1.4,3.3,3.3c0,1.9-1.5,3.5-3.3,3.6l-21.4,0.7v7.4l21.4-0.7c1.8-0.1,3.3,1.4,3.3,3.4c0,1.9-1.5,3.5-3.3,3.6
			l-21.4,0.7v7.3l21.4-0.7c1.8-0.1,3.3,1.4,3.3,3.4c0,1.9-1.5,3.5-3.3,3.6l-21.4,0.7v6.9l21.4-0.7c1.8-0.1,3.3,1.4,3.3,3.3
			c0,1.9-1.5,3.5-3.3,3.6l-78.7,2.5c-1.8,0.1-3.3-1.4-3.3-3.4c0-1.9,1.5-3.5,3.3-3.6l30.7-1v-6.9l-30.7,1c-1.8,0.1-3.3-1.4-3.3-3.4
			c0-1.9,1.5-3.5,3.3-3.6l30.7-1v-7.3l-30.7,1c-1.8,0.1-3.3-1.4-3.3-3.4c0-1.9,1.5-3.5,3.3-3.6l30.7-1v-7.4l-30.7,1
			c-1.8,0.1-3.3-1.4-3.3-3.4c0-1.9,1.5-3.5,3.3-3.6l30.7-1v-7.3l-30.7,1c-1.8,0.1-3.3-1.4-3.3-3.4c0-1.9,1.5-3.5,3.3-3.6l30.7-1
			v-6.8l-30.7,1c-1.8,0.1-3.3-1.4-3.3-3.4s1.5-3.5,3.3-3.6l30.7-1V104l-30.7,1c-1.8,0.1-3.3-1.4-3.3-3.4c0-1.9,1.5-3.5,3.3-3.6
			l30.7-1V80.5H39.2v118.2c0.7,0.6,1.4,1.3,2.2,1.9c0-0.1,0-0.3,0-0.4c0-1.9,1.5-3.5,3.3-3.6l78.7-2.5c1.8-0.1,3.3,1.4,3.3,3.3
			c0,1.9-1.5,3.5-3.3,3.6l-78.3,2.5c16.3,12.4,36.7,19.7,58.8,19.7c10.8,0,21.2-1.8,30.9-5V80.5H102V96.2z"/>
		<path fill="#E7E7D6" d="M39,198.5c0.1,0.1,0.2,0.1,0.2,0.2V80.5H39V198.5z"/>
		<path fill="#E7E7D6" d="M33.6,84v109.3c1.7,1.8,3.5,3.6,5.4,5.2v-118h-6.2V84H33.6z"/>
		<path fill="#DCDDD8" d="M32.7,84h-0.5v107.8c0.2,0.2,0.4,0.4,0.5,0.6V84z"/>
		<path fill="#DCDDD8" d="M33.6,193.3V84h-0.8v108.4C33,192.7,33.3,193,33.6,193.3z"/>
	</g>
	<g id="book_lines">
		<path fill="#B9B9BA" d="M24.7,101.6c0-1.9-1.5-3.5-3.3-3.6l-10.9-0.3c-0.7,2.3-1.3,4.5-1.8,6.9l12.6,0.4
			C23.2,105.1,24.7,103.6,24.7,101.6z"/>
		<path fill="#B9B9BA" d="M24.7,115.8c0-1.9-1.5-3.5-3.3-3.6l-14-0.4c-0.3,2.3-0.6,4.6-0.7,6.9l14.7,0.5
			C23.2,119.2,24.7,117.7,24.7,115.8z"/>
		<path fill="#B9B9BA" d="M24.7,129.6c0-1.9-1.5-3.5-3.3-3.6l-15-0.5c0,0.1,0,0.2,0,0.3c0,2.2,0.1,4.4,0.2,6.6l14.7,0.5
			C23.2,133,24.7,131.5,24.7,129.6z"/>
		<path fill="#B9B9BA" d="M24.7,143.7c0-1.9-1.5-3.5-3.3-3.6l-14-0.4c0.3,2.3,0.8,4.7,1.3,7l12.7,0.4
			C23.2,147.2,24.7,145.6,24.7,143.7z"/>
		<path fill="#B9B9BA" d="M24.7,158.1c0-1.9-1.5-3.5-3.3-3.6l-10.8-0.3c0.7,2.4,1.5,4.7,2.4,7l8.3,0.3
			C23.2,161.5,24.7,160,24.7,158.1z"/>
		<path fill="#B9B9BA" d="M24.7,172.3c0-1.9-1.5-3.5-3.3-3.6l-5.1-0.2c1.2,2.4,2.5,4.8,3.8,7l1.3,0
			C23.2,175.7,24.7,174.2,24.7,172.3z"/>
		<path fill="#B9B9BA" d="M44.7,98.1c-1.8,0.1-3.3,1.7-3.3,3.6c0,1.9,1.5,3.4,3.3,3.4l30.7-1v-6.9L44.7,98.1z"/>
		<path fill="#B9B9BA" d="M123.4,102.5c1.8-0.1,3.3-1.7,3.3-3.6c0-1.9-1.5-3.4-3.3-3.4L102,96.2v6.9L123.4,102.5z"/>
		<path fill="#B9B9BA" d="M123.4,116.6c1.8-0.1,3.3-1.7,3.3-3.6s-1.5-3.4-3.3-3.4l-21.4,0.7v6.9L123.4,116.6z"/>
		<path fill="#B9B9BA" d="M44.7,112.2c-1.8,0.1-3.3,1.7-3.3,3.6s1.5,3.4,3.3,3.4l30.7-1v-6.9L44.7,112.2z"/>
		<path fill="#B9B9BA" d="M44.7,126c-1.8,0.1-3.3,1.7-3.3,3.6c0,1.9,1.5,3.4,3.3,3.4l30.7-1V125L44.7,126z"/>
		<path fill="#B9B9BA" d="M123.4,130.4c1.8-0.1,3.3-1.7,3.3-3.6c0-1.9-1.5-3.4-3.3-3.4l-21.4,0.7v6.9L123.4,130.4z"/>
		<path fill="#B9B9BA" d="M123.4,144.6c1.8-0.1,3.3-1.7,3.3-3.6c0-1.9-1.5-3.4-3.3-3.3l-21.4,0.7v6.9L123.4,144.6z"/>
		<path fill="#B9B9BA" d="M44.7,140.2c-1.8,0.1-3.3,1.7-3.3,3.6c0,1.9,1.5,3.4,3.3,3.4l30.7-1v-6.9L44.7,140.2z"/>
		<path fill="#B9B9BA" d="M123.4,158.9c1.8-0.1,3.3-1.7,3.3-3.6c0-1.9-1.5-3.4-3.3-3.4l-21.4,0.7v6.9L123.4,158.9z"/>
		<path fill="#B9B9BA" d="M44.7,154.5c-1.8,0.1-3.3,1.7-3.3,3.6c0,1.9,1.5,3.4,3.3,3.4l30.7-1v-6.9L44.7,154.5z"/>
		<polygon fill="#B9B9BA" points="89.6,156.7 87.7,160.1 91.3,160 		"/>
		<path fill="#B9B9BA" d="M123.4,173.1c1.8-0.1,3.3-1.7,3.3-3.6c0-1.9-1.5-3.4-3.3-3.4l-21.4,0.7v6.9L123.4,173.1z"/>
		<path fill="#B9B9BA" d="M44.7,168.7c-1.8,0.1-3.3,1.7-3.3,3.6c0,1.9,1.5,3.4,3.3,3.4l30.7-1v-6.9L44.7,168.7z"/>
		<polygon fill="#B9B9BA" points="79.4,174.5 98.1,173.9 94.8,167.1 83.5,167.5 		"/>
		<path fill="#B9B9BA" d="M101.5,180.7l-26,0.8l-0.1,0.2v-0.2l-30.7,1c-1.8,0.1-3.3,1.7-3.3,3.6c0,1.9,1.5,3.4,3.3,3.4l78.7-2.5
			c1.8-0.1,3.3-1.7,3.3-3.6c0-1.9-1.5-3.4-3.3-3.3l-21.4,0.7v1L101.5,180.7z"/>
		<path fill="#B9B9BA" d="M44.7,203.5l0.4,0c-1.3-1-2.5-1.9-3.7-3C41.6,202.3,43,203.6,44.7,203.5z"/>
		<path fill="#B9B9BA" d="M123.4,201c1.8-0.1,3.3-1.7,3.3-3.6c0-1.9-1.5-3.4-3.3-3.3l-78.7,2.5c-1.8,0.1-3.3,1.7-3.3,3.6
			c0,0.1,0,0.3,0,0.4c1.2,1,2.4,2,3.7,3L123.4,201z"/>
		<rect x="75.3" y="72.5" fill="#BB5538" width="26.6" height="0.1"/>
	</g>
</g>
<g id="bookmark">
	<g>
		<polygon fill="#BB5538" points="102.6,153.8 102.6,70.3 75.3,70.3 75.3,154.6 75.3,154.7 75.3,161.8 75.3,169.4 75.3,176.5 
			75.3,183.7 75.4,183.7 79.6,176.4 83.8,169.1 88.2,161.4 90.2,157.9 91.9,161.3 95.6,168.7 99,175.8 102.5,182.8 103,182.8 
			103,175.7 103,168.5 103,160.9 103,153.7 		"/>
	</g>
</g>
</svg>
