<svg xmlns="http://www.w3.org/2000/svg" viewBox="0 0 210 250" enable-background="new 0 0 210 250"><circle fill="#E88524" cx="103.9" cy="125.5" r="97.2"/><g><g fill="#999"><path d="M26.6 80.2v-7.7h-4.3c-1.6 2.4-3 4.8-4.4 7.3l8.7.4zM75.3 78.5v-6h-36.1v7.7zM144.2 72.5h-42.2v4.7l32.8-1.6v4.8h4.2v136.2c2.9-1.1 5.7-2.4 8.4-3.7v-137.3c-.1-1.7-1.4-3.1-3.2-3.1z"/></g><path fill="#666" d="M32.7 80.5l6.5-.3v-7.7h-12.6v7.7z"/><g><path fill="#E7E7D6" d="M26.6 80.5v-.3l-8.7-.4c-.1.2-.2.5-.4.7h9.1z"/><path fill="#D7D7BF" d="M138.9 216.7v-136.2h-4.2v137.7c1.4-.4 2.8-.9 4.2-1.5z"/><path fill="#E7E7D6" d="M17.6 80.5c-2.9 5.5-5.2 11.2-7 17.2l10.9.3c1.8.1 3.3 1.7 3.3 3.6 0 1.9-1.5 3.4-3.3 3.4l-12.6-.4c-.5 2.4-1 4.8-1.3 7.2l14 .4c1.8.1 3.3 1.7 3.3 3.6s-1.5 3.4-3.3 3.4l-14.7-.5c-.2 2.3-.3 4.5-.3 6.8l15 .5c1.8.1 3.3 1.7 3.3 3.6 0 1.9-1.5 3.4-3.3 3.4l-14.7-.5c.2 2.4.4 4.9.8 7.3l14 .4c1.8.1 3.3 1.7 3.3 3.6 0 1.9-1.5 3.4-3.3 3.4l-12.7-.4c.6 2.5 1.2 5 1.9 7.5l10.8.3c1.8.1 3.3 1.7 3.3 3.6 0 1.9-1.5 3.4-3.3 3.4l-8.3-.3c1 2.5 2 5 3.2 7.3l5.1.2c1.8.1 3.3 1.7 3.3 3.6 0 1.9-1.5 3.4-3.3 3.4h-1.3c2 3.3 4.2 6.5 6.5 9.6v-104.9h-9.3zM26.8 80.5h-.2v104.6c.1.1.2.2.2.3v-104.9zM26.8 185.4c1.7 2.2 3.5 4.3 5.4 6.4v-107.8h.5v-3.5h-5.9v104.9zM75.3 80.5v-2l-36.1 1.7v.3zM134.7 80.5v-4.8l-32.7 1.5v3.3zM94.8 167.1l-3.5-7.1-3.6.1-4.2 7.4zM75.4 181.5l26.1-.8-3.4-6.8-18.7.6zM102 96.2l21.4-.7c1.8-.1 3.3 1.4 3.3 3.4 0 1.9-1.5 3.5-3.3 3.6l-21.4.7v7.3l21.4-.7c1.8-.1 3.3 1.4 3.3 3.4s-1.5 3.5-3.3 3.6l-21.4.7v6.8l21.4-.7c1.8-.1 3.3 1.4 3.3 3.4 0 1.9-1.5 3.5-3.3 3.6l-21.4.7v7.3l21.4-.7c1.8-.1 3.3 1.4 3.3 3.3s-1.5 3.5-3.3 3.6l-21.4.7v7.4l21.4-.7c1.8-.1 3.3 1.4 3.3 3.4 0 1.9-1.5 3.5-3.3 3.6l-21.4.7v7.3l21.4-.7c1.8-.1 3.3 1.4 3.3 3.4 0 1.9-1.5 3.5-3.3 3.6l-21.4.7v6.9l21.4-.7c1.8-.1 3.3 1.4 3.3 3.3s-1.5 3.5-3.3 3.6l-78.7 2.5c-1.8.1-3.3-1.4-3.3-3.4 0-1.9 1.5-3.5 3.3-3.6l30.7-1v-6.9l-30.7 1c-1.8.1-3.3-1.4-3.3-3.4 0-1.9 1.5-3.5 3.3-3.6l30.7-1v-7.3l-30.7 1c-1.8.1-3.3-1.4-3.3-3.4 0-1.9 1.5-3.5 3.3-3.6l30.7-1v-7.4l-30.7 1c-1.8.1-3.3-1.4-3.3-3.4 0-1.9 1.5-3.5 3.3-3.6l30.7-1v-7.3l-30.7 1c-1.8.1-3.3-1.4-3.3-3.4 0-1.9 1.5-3.5 3.3-3.6l30.7-1v-6.8l-30.7 1c-1.8.1-3.3-1.4-3.3-3.4s1.5-3.5 3.3-3.6l30.7-1v-7.1l-30.7 1c-1.8.1-3.3-1.4-3.3-3.4 0-1.9 1.5-3.5 3.3-3.6l30.7-1v-16.5h-36.2v118.2c.7.6 1.4 1.3 2.2 1.9v-.4c0-1.9 1.5-3.5 3.3-3.6l78.7-2.5c1.8-.1 3.3 1.4 3.3 3.3s-1.5 3.5-3.3 3.6l-78.3 2.5c16.3 12.4 36.7 19.7 58.8 19.7 10.8 0 21.2-1.8 30.9-5v-137.7h-32.8v15.7zM39 198.5c.1.1.2.1.2.2v-118.2h-.2v118zM33.6 84v109.3c1.7 1.8 3.5 3.6 5.4 5.2v-118h-6.2v3.5h.8z"/><path fill="#DCDDD8" d="M32.7 84h-.5v107.8c.2.2.4.4.5.6v-108.4zM33.6 193.3v-109.3h-.8v108.4c.2.3.5.6.8.9z"/></g><g><path fill="#B9B9BA" d="M24.7 101.6c0-1.9-1.5-3.5-3.3-3.6l-10.9-.3c-.7 2.3-1.3 4.5-1.8 6.9l12.6.4c1.9.1 3.4-1.4 3.4-3.4zM24.7 115.8c0-1.9-1.5-3.5-3.3-3.6l-14-.4c-.3 2.3-.6 4.6-.7 6.9l14.7.5c1.8 0 3.3-1.5 3.3-3.4zM24.7 129.6c0-1.9-1.5-3.5-3.3-3.6l-15-.5v.3c0 2.2.1 4.4.2 6.6l14.7.5c1.9.1 3.4-1.4 3.4-3.3zM24.7 143.7c0-1.9-1.5-3.5-3.3-3.6l-14-.4c.3 2.3.8 4.7 1.3 7l12.7.4c1.8.1 3.3-1.5 3.3-3.4zM24.7 158.1c0-1.9-1.5-3.5-3.3-3.6l-10.8-.3c.7 2.4 1.5 4.7 2.4 7l8.3.3c1.9 0 3.4-1.5 3.4-3.4zM24.7 172.3c0-1.9-1.5-3.5-3.3-3.6l-5.1-.2c1.2 2.4 2.5 4.8 3.8 7h1.3c1.8.2 3.3-1.3 3.3-3.2zM44.7 98.1c-1.8.1-3.3 1.7-3.3 3.6 0 1.9 1.5 3.4 3.3 3.4l30.7-1v-6.9l-30.7.9zM123.4 102.5c1.8-.1 3.3-1.7 3.3-3.6 0-1.9-1.5-3.4-3.3-3.4l-21.4.7v6.9l21.4-.6zM123.4 116.6c1.8-.1 3.3-1.7 3.3-3.6s-1.5-3.4-3.3-3.4l-21.4.7v6.9l21.4-.6zM44.7 112.2c-1.8.1-3.3 1.7-3.3 3.6s1.5 3.4 3.3 3.4l30.7-1v-6.9l-30.7.9zM44.7 126c-1.8.1-3.3 1.7-3.3 3.6 0 1.9 1.5 3.4 3.3 3.4l30.7-1v-7l-30.7 1zM123.4 130.4c1.8-.1 3.3-1.7 3.3-3.6 0-1.9-1.5-3.4-3.3-3.4l-21.4.7v6.9l21.4-.6zM123.4 144.6c1.8-.1 3.3-1.7 3.3-3.6 0-1.9-1.5-3.4-3.3-3.3l-21.4.7v6.9l21.4-.7zM44.7 140.2c-1.8.1-3.3 1.7-3.3 3.6 0 1.9 1.5 3.4 3.3 3.4l30.7-1v-6.9l-30.7.9zM123.4 158.9c1.8-.1 3.3-1.7 3.3-3.6 0-1.9-1.5-3.4-3.3-3.4l-21.4.7v6.9l21.4-.6zM44.7 154.5c-1.8.1-3.3 1.7-3.3 3.6 0 1.9 1.5 3.4 3.3 3.4l30.7-1v-6.9l-30.7.9zM89.6 156.7l-1.9 3.4 3.6-.1zM123.4 173.1c1.8-.1 3.3-1.7 3.3-3.6 0-1.9-1.5-3.4-3.3-3.4l-21.4.7v6.9l21.4-.6zM44.7 168.7c-1.8.1-3.3 1.7-3.3 3.6 0 1.9 1.5 3.4 3.3 3.4l30.7-1v-6.9l-30.7.9zM79.4 174.5l18.7-.6-3.3-6.8-11.3.4zM101.5 180.7l-26 .8-.1.2v-.2l-30.7 1c-1.8.1-3.3 1.7-3.3 3.6 0 1.9 1.5 3.4 3.3 3.4l78.7-2.5c1.8-.1 3.3-1.7 3.3-3.6 0-1.9-1.5-3.4-3.3-3.3l-21.4.7v1l-.5-1.1zM44.7 203.5h.4c-1.3-1-2.5-1.9-3.7-3 .2 1.8 1.6 3.1 3.3 3zM123.4 201c1.8-.1 3.3-1.7 3.3-3.6 0-1.9-1.5-3.4-3.3-3.3l-78.7 2.5c-1.8.1-3.3 1.7-3.3 3.6v.4c1.2 1 2.4 2 3.7 3l78.3-2.6z"/><path fill="#BB5538" d="M75.3 72.5h26.6v.1h-26.6z"/></g></g><path fill="#BB5538" d="M102.6 153.8v-83.5h-27.3v113.39999999999998h.1l4.2-7.3 4.2-7.3 4.4-7.7 2-3.5 1.7 3.4 3.7 7.4 3.4 7.1 3.5 7h.5v-29.099999999999998z"/></svg>