<svg xmlns="http://www.w3.org/2000/svg" id="Layer_1" viewBox="0 0 100 100">
  <style>
    .st0{fill:#FFFFFF;stroke:#999999;stroke-width:3;stroke-miterlimit:10;} .st1{fill:#999999;}
  </style>
  <path d="M27.3 25.1h45.4c1.5 0 2.8 1.5 2.8 3.3v43.1c0 1.8-1.2 3.3-2.8 3.3H27.3c-1.5 0-2.8-1.5-2.8-3.3V28.4c0-1.8 1.3-3.3 2.8-3.3z" class="st0"/>
  <path d="M41.7 67.7c0 .6-.5 1.1-1.1 1.1h-8.5c-.6 0-1.1-.5-1.1-1.1v-4.6c0-.6.5-1.1 1.1-1.1h8.6c.6 0 1.1.5 1.1 1.1l-.1 4.6zm13.4 0c0 .6-.5 1.1-1.1 1.1h-8.6c-.6 0-1.1-.5-1.1-1.1v-4.6c0-.6.5-1.1 1.1-1.1H54c.6 0 1.1.5 1.1 1.1v4.6zm13.2 0c0 .6-.5 1.1-1.1 1.1h-8.6c-.6 0-1.1-.5-1.1-1.1v-4.6c0-.6.5-1.1 1.1-1.1h8.6c.6 0 1.1.5 1.1 1.1v4.6zm-26.6-9.1c0 .6-.5 1.1-1.1 1.1h-8.5c-.6 0-1.1-.5-1.1-1.1V54c0-.6.5-1.1 1.1-1.1h8.6c.6 0 1.1.5 1.1 1.1l-.1 4.6zm13.4 0c0 .6-.5 1.1-1.1 1.1h-8.6c-.6 0-1.1-.5-1.1-1.1V54c0-.6.5-1.1 1.1-1.1H54c.6 0 1.1.5 1.1 1.1v4.6zm13.2 0c0 .6-.5 1.1-1.1 1.1h-8.6c-.6 0-1.1-.5-1.1-1.1V54c0-.6.5-1.1 1.1-1.1h8.6c.6 0 1.1.5 1.1 1.1v4.6zm0-9.1c0 .6-.5 1.1-1.1 1.1h-8.6c-.6 0-1.1-.5-1.1-1.1v-4.6c0-.6.5-1.1 1.1-1.1h8.6c.6 0 1.1.5 1.1 1.1v4.6zm-26.6 0c0 .6-.5 1.1-1.1 1.1h-8.5c-.6 0-1.1-.5-1.1-1.1v-4.6c0-.6.5-1.1 1.1-1.1h8.6c.6 0 1.1.5 1.1 1.1l-.1 4.6zm13.4 0c0 .6-.5 1.1-1.1 1.1h-8.6c-.6 0-1.1-.5-1.1-1.1v-4.6c0-.6.5-1.1 1.1-1.1H54c.6 0 1.1.5 1.1 1.1v4.6zM27.3 25.1h45.4c1.5 0 2.8 1.2 2.8 2.8v9.6h-51v-9.6c0-1.6 1.3-2.8 2.8-2.8z" class="st1"/>
</svg>
