<?xml version="1.0" encoding="utf-8"?>
<!-- Generator: Adobe Illustrator 19.0.1, SVG Export Plug-In . SVG Version: 6.00 Build 0)  -->
<svg version="1.1" id="Layer_1" xmlns="http://www.w3.org/2000/svg" xmlns:xlink="http://www.w3.org/1999/xlink" x="0px" y="0px"
	 viewBox="-33 35 32 32" style="enable-background:new -33 35 32 32;" xml:space="preserve">
<style type="text/css">
	.st0{fill:#FFFFFF;}
</style>
<path class="st0" d="M-1.8,65.5c0.2,0.2,0.2,0.5,0,0.8c-0.1,0.1-0.2,0.1-0.4,0.1c-0.1,0-0.2,0-0.4-0.1L-17,51.7l-14.5,14.6
	c-0.1,0.1-0.2,0.1-0.4,0.1c-0.1,0-0.2,0-0.4-0.1c-0.2-0.2-0.2-0.5,0-0.8L-17.8,51l-14.5-14.5c-0.2-0.2-0.2-0.5,0-0.7s0.4-0.2,0.7,0
	L-17,50.3l14.5-14.5c0.2-0.2,0.5-0.2,0.7,0s0.2,0.4,0,0.7L-16.2,51C-16.2,51-1.7,65.5-1.8,65.5z"/>
</svg>
