<svg xmlns="http://www.w3.org/2000/svg" viewBox="0 0 137 137" enable-background="new 0 0 137 137"><g><circle fill="#F38B5E" cx="68.5" cy="67.3" r="63.3"/><path fill="#fff" d="M42.5 63l-9.7 5.4 9.7 5.4c1.3.8 2 2.1 2 4 0 1.2-.3 2.3-.9 3.2-.6.9-1.3 1.4-2.1 1.4-.4 0-.8-.1-1.2-.3l-17.1-9.6c-1.6-.9-2.5-2.3-2.5-4.2 0-1.9.8-3.2 2.5-4.2l17.1-9.6c.4-.2.8-.3 1.2-.3.8 0 1.6.5 2.1 1.4.6.9.9 2 .9 3.3 0 2-.7 3.3-2 4.1zM92.5 59c0-1.2.3-2.3.9-3.3.6-.9 1.3-1.4 2.1-1.4.4 0 .8.1 1.2.3l17.1 9.6c1.6.9 2.5 2.3 2.5 4.2 0 1.9-.8 3.2-2.5 4.2l-17.1 9.6c-.4.2-.8.3-1.2.3-.9 0-1.6-.5-2.1-1.4-.6-.9-.9-2-.9-3.2 0-1.9.7-3.3 2-4l9.7-5.4-9.7-5.5c-1.4-.8-2-2.1-2-4zM72.9 87.6c-.9 1.9-3.1 2.7-5 1.8-1.9-.9-2.7-3.1-1.8-5l17.2-37.4c.9-1.9 3.1-2.7 5-1.8 1.9.9 2.7 3.1 1.8 5l-17.2 37.4z"/></g></svg>