<?xml version="1.0" encoding="utf-8"?>
<!-- Generator: Adobe Illustrator 17.1.0, SVG Export Plug-In . SVG Version: 6.00 Build 0)  -->
<!DOCTYPE svg PUBLIC "-//W3C//DTD SVG 1.1//EN" "http://www.w3.org/Graphics/SVG/1.1/DTD/svg11.dtd">
<svg version="1.1" id="Layer_1" xmlns="http://www.w3.org/2000/svg" xmlns:xlink="http://www.w3.org/1999/xlink" x="0px" y="0px"
	 viewBox="0 0 137 137" enable-background="new 0 0 137 137" xml:space="preserve">
<g id="Layer_2_1_">
	<g>
		<g>
			<g>
				<g>
					<g>
						<circle fill="#F38B5E" cx="68.5" cy="67.3" r="63.3"/>
					</g>
				</g>
			</g>
		</g>
		<g>
			<g>
				<g>
					<g>
						<path fill="#FFFFFF" d="M42.5,63l-9.7,5.4l9.7,5.4c1.3,0.8,2,2.1,2,4c0,1.2-0.3,2.3-0.9,3.2c-0.6,0.9-1.3,1.4-2.1,1.4
							c-0.4,0-0.8-0.1-1.2-0.3l-17.1-9.6c-1.6-0.9-2.5-2.3-2.5-4.2c0-1.9,0.8-3.2,2.5-4.2l17.1-9.6c0.4-0.2,0.8-0.3,1.2-0.3
							c0.8,0,1.6,0.5,2.1,1.4c0.6,0.9,0.9,2,0.9,3.3C44.5,60.9,43.8,62.2,42.5,63z"/>
					</g>
				</g>
				<g>
					<g>
						<path fill="#FFFFFF" d="M92.5,59c0-1.2,0.3-2.3,0.9-3.3c0.6-0.9,1.3-1.4,2.1-1.4c0.4,0,0.8,0.1,1.2,0.3l17.1,9.6
							c1.6,0.9,2.5,2.3,2.5,4.2c0,1.9-0.8,3.2-2.5,4.2l-17.1,9.6c-0.4,0.2-0.8,0.3-1.2,0.3c-0.9,0-1.6-0.5-2.1-1.4
							c-0.6-0.9-0.9-2-0.9-3.2c0-1.9,0.7-3.3,2-4l9.7-5.4L94.5,63C93.1,62.2,92.5,60.9,92.5,59z"/>
					</g>
				</g>
				<g>
					<path fill="#FFFFFF" d="M72.9,87.6c-0.9,1.9-3.1,2.7-5,1.8l0,0c-1.9-0.9-2.7-3.1-1.8-5L83.3,47c0.9-1.9,3.1-2.7,5-1.8l0,0
						c1.9,0.9,2.7,3.1,1.8,5L72.9,87.6z"/>
				</g>
			</g>
		</g>
	</g>
</g>
</svg>
