<svg version="1.1" xmlns="http://www.w3.org/2000/svg" xmlns:xlink="http://www.w3.org/1999/xlink" x="0px" y="0px" viewBox="0 0 100 100" enable-background="new 0 0 100 100" xml:space="preserve" style="display:none">

<g id="coursetools-participants">
        <circle fill="#F37C2B" cx="49.9" cy="48.6" r="48.6"/>
        <path fill="#F58648" d="M17.4,84.6c-0.2-7.1-0.4-15-0.7-15.3c1.3-1.7,5.2-5.8,16.3-9.5c-1.9-0.7-4.1-1.3-6.6-1.9c0-3-0.3-4.8-0.3-4.8s3.9-5.4,4.2-12.9c0-1.2,0.6-9.7-9.6-10.1c0,0,0,0,0,0c0,0,0,0-0.1,0c0,0,0,0-0.1,0c0,0,0,0,0,0C10.4,30.5,11,39,11,40.2c0.3,7.5,4.2,12.9,4.2,12.9s-0.3,1.8-0.3,4.8c-5.2,1.3-8.9,2.7-11.7,4C5.8,70.7,10.7,78.6,17.4,84.6z"/>
        <path fill="#F58648" d="M85.6,53.1c0,0,3.9-5.4,4.2-12.9c0-1.2,0.6-9.7-9.6-10.1c0,0,0,0,0,0c0,0,0,0-0.1,0c0,0,0,0-0.1,0c0,0,0,0,0,0c-10.2,0.4-9.6,8.9-9.6,10.1c0.3,7.5,4.2,12.9,4.2,12.9s-0.3,1.8-0.3,4.8c-2.8,0.7-5.2,1.4-7.2,2.1c11,3.8,14.7,7.9,15.8,9.5c-0.1,0.2-0.4,8.1-0.6,15.1c6.7-6.1,11.8-14.2,14.3-23.1c-2.6-1.2-6.2-2.5-10.8-3.6
        C85.9,54.9,85.6,53.1,85.6,53.1z"/>
        <path fill="#519BA2" d="M17.4,84.6C17.4,84.6,17.4,84.6,17.4,84.6c0,0.1,0.1,0.1,0.1,0.1C17.5,84.7,17.4,84.6,17.4,84.6z"/>
        <path fill="#F69757" d="M83.1,69.3c-1-5.1-5.2-5.8-16.3-9.5c-2.5-0.9-5.4-1.7-8.7-2.5c0-4.2-0.4-6.7-0.4-6.7s5.4-7.5,5.8-17.9c0-1.7-0.5-13.9-13.6-13.9S36.4,31.1,36.4,32.7c0.4,10.4,5.8,17.9,5.8,17.9s-0.4,2.5-0.4,6.7c-3.3,0.8-6.2,1.6-8.7,2.5c-11.1,3.8-15.3,4.5-16.3,9.5c-0.3,1.3,0.4,8.1,0.7,15.3c0,0,0.1,0.1,0.1,0.1c8.6,7.7,19.9,12.4,32.4,12.4l0,0c0,0,0,0,0,0c0,0,0,0,0,0l0,0c12.5,0,23.8-4.7,32.4-12.4c0,0,0.1-0.1,0.1-0.1C82.7,77.5,83.4,70.6,83.1,69.3z"/>
</g>


<g id="coursetools-gradbook">
        <circle fill="#4AA1AF" cx="50.6" cy="50.4" r="48.5"/>

        <path fill="#ECB31F" d="M76.4,27.6c-3.8,0.3-7.3,0-10.2-0.5c-10.5-1.9-15.8-7.5-15.9-7.7c0,0,0,0,0,0l0,0l0,0c0,0,0,0,0,0c-0.2,0.3-9.7,10.3-28.8,8c0,21.9,0,28.3,0,28.3c-0.1,1.8,1,6.4,4.5,11.7c1.3,1.9,2.9,3.9,4.8,6c4.5,4.6,11,9.2,20.1,12.4c27.2-11.5,28.1-30,28.1-30s0-6.5,0-28.3C78.1,27.5,77.3,27.6,76.4,27.6z"/>
        <path fill="#FFC614" d="M50.3,19.4C50.3,19.4,50.3,19.4,50.3,19.4L50.3,19.4L50.3,19.4C50.2,19.4,50.2,19.4,50.3,19.4c-0.3,0.3-9.7,10.3-28.8,8c0,21.9,0,28.3,0,28.3c-0.1,1.8,1,6.4,4.5,11.7c1.3,1.9,2.9,3.9,4.8,6c4.5,4.6,11,9.2,20.1,12.4C50.9,85.7,50.4,19.6,50.3,19.4z"/>

        <polygon fill="#F9ED25" points="50.3,36.9 54.9,46.3 65.2,47.8 57.8,55 59.5,65.2 50.3,60.4 41.1,65.2 42.9,55 35.5,47.8
        45.7,46.3"/>
</g>


<g id="coursetools-badges">
<path fill="#C92027" d="M14.1,27.2c0-6.4,5.2-11.7,11.7-11.7h48.6c6.4,0,11.7,5.2,11.7,11.7v48.6c0,6.4-5.2,11.7-11.7,11.7H25.7
c-6.4,0-11.7-5.2-11.7-11.7V27.2z"/>
<path fill="#C92027" d="M41.8,8.9c4.6-4.6,12-4.6,16.5,0l34.4,34.4c4.6,4.6,4.6,12,0,16.5L58.3,94.2c-4.6,4.6-12,4.6-16.5,0
L7.4,59.8c-4.6-4.6-4.6-12,0-16.5L41.8,8.9z"/>
<circle fill="#FFC614" cx="50.1" cy="51.5" r="32.1"/>
<polygon fill="#F9ED25" points="50.1,75.5 43,61.3 27.2,59 38.6,47.8 35.9,32.1 50.1,39.5 64.2,32.1 61.5,47.8 72.9,59 57.1,61.3
"/>
</g>

<g id="coursetools-pld">
<circle fill="#41BDA3" cx="50" cy="49.7" r="49.2"/>
<path fill="#999999" d="M83.5,55L57.7,35.6c-3.9-2.9-10.2-2.9-14.1,0L17.7,55c-3.9,2.9-3.9,7.6,0,10.6l25.8,19.4
c3.9,2.9,10.2,2.9,14.1,0l25.8-19.4C87.4,62.6,87.4,57.9,83.5,55z"/>
<path fill="#CCCCCC" d="M83.5,44.9L57.7,25.5c-3.9-2.9-10.2-2.9-14.1,0L17.7,44.9c-3.9,2.9-3.9,7.6,0,10.6l25.8,19.4
c3.9,2.9,10.2,2.9,14.1,0l25.8-19.4C87.4,52.6,87.4,47.8,83.5,44.9z"/>
<path fill="#FFFFFF" d="M83.5,33.7L57.7,14.3c-3.9-2.9-10.2-2.9-14.1,0L17.7,33.7c-3.9,2.9-3.9,7.6,0,10.6l25.8,19.4
c3.9,2.9,10.2,2.9,14.1,0l25.8-19.4C87.4,41.4,87.4,36.6,83.5,33.7z"/>
</g>

<g id="coursetools-outcomes">
<path fill="#D4595A" d="M47.2,5.7C22.4,5.7,2.2,25.8,2.2,50.6c0,24.8,20.1,44.9,44.9,44.9c24.8,0,44.9-20.1,44.9-44.9
C92.1,25.8,72,5.7,47.2,5.7z M47.2,88.9C26,88.9,8.9,71.8,8.9,50.6c0-21.1,17.1-38.3,38.3-38.3c21.1,0,38.3,17.1,38.3,38.3
C85.5,71.8,68.3,88.9,47.2,88.9z"/>
<path fill="#D4595A" d="M47.2,18.4C29.4,18.4,15,32.8,15,50.6c0,17.8,14.4,32.2,32.2,32.2c17.8,0,32.2-14.4,32.2-32.2
C79.4,32.8,65,18.4,47.2,18.4z M47.2,78C32,78,19.8,65.8,19.8,50.6c0-15.1,12.3-27.4,27.4-27.4s27.4,12.3,27.4,27.4
C74.6,65.8,62.3,78,47.2,78z"/>
<path fill="#CE5050" d="M47.2,29.5c-11.6,0-21.1,9.4-21.1,21.1c0,11.6,9.4,21.1,21.1,21.1c11.6,0,21.1-9.4,21.1-21.1
C68.3,39,58.8,29.5,47.2,29.5z M47.2,67.5c-9.3,0-16.9-7.5-16.9-16.9c0-9.3,7.5-16.9,16.9-16.9S64,41.3,64,50.6
C64,59.9,56.5,67.5,47.2,67.5z"/>
<path fill="#C64443" d="M47.2,57.7c-3.9,0-7.1-3.2-7.1-7.1c0-3.9,3.2-7.1,7.1-7.1c3.9,0,7.1,3.2,7.1,7.1
C54.2,54.5,51.1,57.7,47.2,57.7z"/>

<polygon fill="#C93535" points="69.4,29.7 80.5,32.3 98.8,13.9 87.7,11.4 		"/>
<polygon fill="#E89F2C" points="90.8,13 89.6,8.7 85.4,7.6 44.5,48.5 44.5,53.9 49.8,53.9 		"/>
<polygon fill="#F1BE3D" points="89.6,8.7 85.4,7.6 44.5,48.5 44.5,53.9 		"/>
<polygon fill="#F9CA63" points="90.8,13.1 86.3,12 85.3,7.6 89.7,8.7 		"/>
<polygon fill="#C93535" points="55.6,26.6 66.6,29.1 84.9,10.8 73.9,8.2 		"/>
</g>


<g id="coursetools-reports">
<circle fill="#4D69B1" cx="50.7" cy="50" r="48.9"/>
<path fill="#68B8CB" d="M88.5,31.7C82.6,38,75.3,45.7,61.2,47c-4.6,0.4-13.6,2.7-18.9,4.1c-0.8,0.2-1.5,0.4-2,0.5
c-13,3.3-19,6.1-27,20.5c-1.1,2-2.2,3.5-3.4,4.7c8.8,13.3,23.8,22.1,40.9,22.1c27,0,48.9-21.9,48.9-48.9c0-8.5-2.1-16.4-5.9-23.3
C92.1,27.9,90.4,29.7,88.5,31.7z"/>
<circle fill="#FEF2F7" cx="19.4" cy="61.6" r="6.1"/>
<circle fill="#FEF2F7" cx="50.4" cy="48.4" r="6.1"/>
<circle fill="#FEF2F7" cx="83" cy="36.3" r="6.1"/>
<path fill="#FCF7FB" d="M93.3,25.9c-0.1-0.2-0.2-0.4-0.3-0.6c-1.8,1.4-3.6,3.3-5.5,5.3C81.7,36.7,74.6,44.3,61,45.5
c-4.7,0.4-13.8,2.8-19.2,4.2c-0.8,0.2-1.5,0.4-2,0.5c-13.1,3.3-19.7,6.4-28,21.3c-1,1.7-1.9,3.1-2.9,4.1c0.1,0.2,0.3,0.4,0.4,0.7
c0.1,0.2,0.3,0.4,0.4,0.7c1.2-1.2,2.3-2.7,3.4-4.7c8-14.4,14.1-17.2,27-20.5c0.6-0.1,1.3-0.3,2-0.5c5.4-1.4,14.3-3.7,18.9-4.1
c14.2-1.3,21.5-9.1,27.4-15.3c1.9-2,3.5-3.8,5.2-5C93.6,26.4,93.4,26.1,93.3,25.9z"/>
</g>


<g id="coursetools-settings">
<path fill="#D8B62A" d="M50.6,2.1C37.1,2.1,26.2,13,26.2,26.5c0,13.5,10.9,24.4,24.4,24.4C64.1,50.9,75,40,75,26.5
C75,13,64.1,2.1,50.6,2.1z M50.6,17.9c-2.7,0-4.9-2.2-4.9-4.9s2.2-4.9,4.9-4.9c2.7,0,4.9,2.2,4.9,4.9S53.3,17.9,50.6,17.9z"/>
<path fill="#D8B62A" d="M41.9,34.4v59.1c0,0.2,0.1,0.4,0.2,0.5l4.6,5.1c0.1,0.1,0.2,0.2,0.4,0.2c0,0,0,0,0.1,0
c0.2,0,0.3-0.1,0.4-0.3l6.6-10.7c0.1-0.2,0.2-0.5,0.1-0.7l-3-7.1v-3l2.2-1.9c0.1-0.1,0.2-0.3,0.2-0.5l0.5-8.3l5.3-4.2
c0.2-0.1,0.3-0.3,0.3-0.6V34.6L41.9,34.4z"/>
<path fill="#E8C535" d="M50.6,2.1l-0.2,6c0.1,0,0.1,0,0.2,0c2.7,0,4.9,2.2,4.9,4.9s-2.2,4.9-4.9,4.9c-0.2,0-0.3,0-0.5-0.1
L47.5,99l6.6-10.7c0.1-0.2,0.2-0.5,0.1-0.7l-3-7.1v-3l2.2-1.9c0.1-0.1,0.2-0.3,0.2-0.5l0.5-8.3l5.3-4.2c0.2-0.1,0.3-0.3,0.3-0.6
v-13C68.7,45.5,75,36.7,75,26.5C75,13,64.1,2.1,50.6,2.1z"/>
<circle fill="none" cx="50.6" cy="13" r="4.9"/>
<path fill="#B3932F" d="M45.9,98.2l0.8,0.9c0.1,0.1,0.2,0.2,0.4,0.2c0,0,0,0,0.1,0c0.1,0,0.2-0.1,0.3-0.1V50.7
c-0.5-0.1-1-0.1-1.5-0.2V98.2z"/>
<path fill="#B3932F" d="M54.5,66.7l1.5-1.2V50.3c-0.5,0.1-1,0.2-1.5,0.3V66.7z"/>
</g>


<g id="coursetools-restore">
<path fill="#70C2CB" d="M1.4,49.7c0-26.6,21.5-48.1,48.1-48.1c26.6,0,48.1,21.5,48.1,48.1c0,26.5-21.5,48.1-48.1,48.1
C22.9,97.8,1.4,76.2,1.4,49.7z"/>
<path fill="#FFFFFF" d="M77.7,47.7c-1.1,0-2.1,0.2-3,0.6c-1.1-7.4-6.8-13-13.8-13c-2.3,0-4.4,0.6-6.3,1.7c-3-5.3-8.4-8.8-14.5-8.8
c-7.8,0-14.4,5.8-16.5,13.8c-5.8,1.2-10.1,6.8-10.1,13.5c0,7.6,5.6,13.8,12.5,13.8c0.8,0,1.5-0.1,2.2-0.2c0.3,0,0.6,0.1,0.9,0.1
h47.5c0.6,0,1.2-0.1,1.8-0.3c4.9-0.4,8.9-4.9,8.9-10.5C87.2,52.4,82.9,47.7,77.7,47.7z"/>
<path fill="#70C2CB" d="M64,46.2c-2.7,0-5.3,0-8,0c0-7.7,0-15.4,0-23.1c0-7.4-11.4-7.4-11.4-0.1c0,7.7,0,15.5,0,23.2
c-2.5,0-5.1,0-7.6,0c-0.1,0-0.1,0-0.2,0c-0.6,0.1-1,0.4-1.1,0.9c-0.2,0.4-0.2,1,0.2,1.4c0,0.1,0.1,0.1,0.2,0.2
c4.5,4.5,8.9,8.9,13.4,13.4c0.6,0.6,1.5,0.5,2,0c4.5-4.5,9-9,13.5-13.5C65.9,47.8,65.3,46.2,64,46.2z"/>
</g>
</svg>
