<?xml version="1.0" encoding="utf-8"?>
<!-- Generator: Adobe Illustrator 17.1.0, SVG Export Plug-In . SVG Version: 6.00 Build 0)  -->
<!DOCTYPE svg PUBLIC "-//W3C//DTD SVG 1.1//EN" "http://www.w3.org/Graphics/SVG/1.1/DTD/svg11.dtd">
<svg version="1.1" xmlns="http://www.w3.org/2000/svg" xmlns:xlink="http://www.w3.org/1999/xlink" x="0px" y="0px"
	 viewBox="0 0 136.8 136.8" enable-background="new 0 0 136.8 136.8" xml:space="preserve">
<g id="Layer_2">
	<g>
		<g>
			<g>
				<g>
					<circle fill="#3289A3" cx="68.3" cy="68.5" r="63.5"/>
				</g>
			</g>
		</g>
		<g>
			<g>
				<g>
					<g>
						<g>
							<path fill="#F5F5F5" d="M43.5,31.1c-2.4,0-4.3,1.9-4.3,4.3v68.5c0,2.4,1.9,4.3,4.3,4.3h49.2c2.4,0,4.3-1.9,4.3-4.3V51
								L76.4,31.1H43.5z"/>
						</g>
					</g>
				</g>
				<g>
					<g>
						<path fill="#E1E1E1" d="M97,51H80.7c-2.4,0-4.3-1.9-4.3-4.3V31.1L97,51z"/>
					</g>
				</g>
				<g>
					<g>
						<path fill="#C9C9C8" d="M91,56.8c0,0.7-0.6,1.3-1.3,1.3H46.9c-0.7,0-1.3-0.6-1.3-1.3l0,0c0-0.7,0.6-1.3,1.3-1.3h42.8
							C90.4,55.5,91,56.1,91,56.8L91,56.8z"/>
					</g>
				</g>
				<g>
					<g>
						<path fill="#C9C9C8" d="M91,63.8c0,0.7-0.6,1.3-1.3,1.3H46.9c-0.7,0-1.3-0.6-1.3-1.3l0,0c0-0.7,0.6-1.3,1.3-1.3h42.8
							C90.4,62.5,91,63.1,91,63.8L91,63.8z"/>
					</g>
				</g>
				<g>
					<g>
						<path fill="#C9C9C8" d="M91,70.5c0,0.7-0.6,1.3-1.3,1.3H46.9c-0.7,0-1.3-0.6-1.3-1.3l0,0c0-0.7,0.6-1.3,1.3-1.3h42.8
							C90.4,69.2,91,69.8,91,70.5L91,70.5z"/>
					</g>
				</g>
				<g>
					<g>
						<path fill="#C9C9C8" d="M91,77.5c0,0.7-0.6,1.3-1.3,1.3H46.9c-0.7,0-1.3-0.6-1.3-1.3l0,0c0-0.7,0.6-1.3,1.3-1.3h42.8
							C90.4,76.2,91,76.8,91,77.5L91,77.5z"/>
					</g>
				</g>
				<g>
					<g>
						<path fill="#C9C9C8" d="M69.3,83.2H46.9c-0.7,0-1.3,0.6-1.3,1.3c0,0.7,0.6,1.3,1.3,1.3h22.4c0.7,0,1.3-0.6,1.3-1.3
							C70.6,83.8,70,83.2,69.3,83.2z"/>
					</g>
				</g>
			</g>
		</g>
	</g>
</g>
<g id="Layer_1" display="none">
	<g display="inline">
		<g>
			<circle fill="#344E5D" cx="68.4" cy="68.4" r="63.3"/>
		</g>
		<g>
			<g>
				<path fill="#EAE744" d="M70,22.9c-4.4,0-8,3.6-8,8c0,4.4,3.6,8,8,8c4.4,0,8-3.6,8-8C77.9,26.5,74.4,22.9,70,22.9z M70.1,36.5
					c-2.7,0-4.9-2.2-4.9-4.9s2.2-4.9,4.9-4.9s4.9,2.2,4.9,4.9C74.9,34.3,72.8,36.5,70.1,36.5z"/>
			</g>
			<path fill="#E3A93F" d="M36.8,94c0,0,13.5,9,33.2,9s33.9-9,33.9-9s-18-6.3-33.9-6.3S36.8,94,36.8,94z"/>
			<path fill="#ECB050" d="M36.8,94c0,0,13.5,9,33.2,9V87.7C54.2,87.7,36.8,94,36.8,94z"/>
			<circle fill="#DDD555" cx="69.7" cy="92.9" r="7.4"/>
			<path fill="#EAE744" d="M70,33.8c-24.4,0-21.5,22.3-25.7,38.8c-0.2,0.6-4.1,3-6.1,7.3c-2,4.3-1.7,14.1-1.5,14.1
				c0.6,0,20.9-4.8,33.2-4.8s33.9,5.1,33.9,5.1s0-11-2-14.5c-2-3.5-5.7-6.2-5.9-6.9C91.7,56.4,94.5,33.8,70,33.8z"/>
			<path fill="#F1E85F" d="M70,33.8c-24.4,0-21.5,22.3-25.7,38.8c-0.2,0.6-4.1,3-6.1,7.3c-2,4.3-1.7,14.1-1.5,14.1
				c0.6,0,20.9-4.8,33.2-4.8L70,33.8z"/>
		</g>
	</g>
</g>
</svg>
