<?xml version="1.0" encoding="utf-8"?>
<!-- Generator: Adobe Illustrator 17.1.0, SVG Export Plug-In . SVG Version: 6.00 Build 0)  -->
<!DOCTYPE svg PUBLIC "-//W3C//DTD SVG 1.1//EN" "http://www.w3.org/Graphics/SVG/1.1/DTD/svg11.dtd">
<svg version="1.1" id="Layer_1" xmlns="http://www.w3.org/2000/svg" xmlns:xlink="http://www.w3.org/1999/xlink" x="0px" y="0px"
	 viewBox="0 0 137 137" enable-background="new 0 0 137 137" xml:space="preserve">
<g id="Layer_2">
	<g>
		<g>
			<g>
				<g>
					<circle fill="#EFC849" cx="68.4" cy="68.6" r="63.6"/>
				</g>
			</g>
		</g>
		<g>
			<g>
				<g>
					<g>
						<g>
							<path fill="#F5F5F5" d="M43.6,31.1c-2.4,0-4.3,1.9-4.3,4.3v68.6c0,2.4,1.9,4.3,4.3,4.3h49.3c2.4,0,4.3-1.9,4.3-4.3v-53
								L76.5,31.1H43.6z"/>
						</g>
					</g>
				</g>
				<g>
					<g>
						<path fill="#E1E1E1" d="M97.1,51.1H80.8c-2.4,0-4.3-1.9-4.3-4.3V31.1L97.1,51.1z"/>
					</g>
				</g>
				<g>
					<g>
						<path fill="#C9C9C8" d="M91.1,56.9c0,0.7-0.6,1.3-1.3,1.3H47c-0.7,0-1.3-0.6-1.3-1.3l0,0c0-0.7,0.6-1.3,1.3-1.3h42.9
							C90.5,55.6,91.1,56.2,91.1,56.9L91.1,56.9z"/>
					</g>
				</g>
				<g>
					<g>
						<path fill="#C9C9C8" d="M91.1,63.9c0,0.7-0.6,1.3-1.3,1.3H47c-0.7,0-1.3-0.6-1.3-1.3l0,0c0-0.7,0.6-1.3,1.3-1.3h42.9
							C90.5,62.6,91.1,63.2,91.1,63.9L91.1,63.9z"/>
					</g>
				</g>
				<g>
					<g>
						<path fill="#C9C9C8" d="M91.1,70.6c0,0.7-0.6,1.3-1.3,1.3H47c-0.7,0-1.3-0.6-1.3-1.3l0,0c0-0.7,0.6-1.3,1.3-1.3h42.9
							C90.5,69.3,91.1,69.9,91.1,70.6L91.1,70.6z"/>
					</g>
				</g>
				<g>
					<g>
						<path fill="#C9C9C8" d="M91.1,77.6c0,0.7-0.6,1.3-1.3,1.3H47c-0.7,0-1.3-0.6-1.3-1.3l0,0c0-0.7,0.6-1.3,1.3-1.3h42.9
							C90.5,76.3,91.1,76.9,91.1,77.6L91.1,77.6z"/>
					</g>
				</g>
				<g>
					<g>
						<path fill="#C9C9C8" d="M69.4,83.3H47c-0.7,0-1.3,0.6-1.3,1.3c0,0.7,0.6,1.3,1.3,1.3h22.4c0.7,0,1.3-0.6,1.3-1.3
							C70.7,83.9,70.1,83.3,69.4,83.3z"/>
					</g>
				</g>
			</g>
		</g>
	</g>
</g>
</svg>
