<?xml version="1.0" encoding="utf-8"?>
<!-- Generator: Adobe Illustrator 17.1.0, SVG Export Plug-In . SVG Version: 6.00 Build 0)  -->
<!DOCTYPE svg PUBLIC "-//W3C//DTD SVG 1.1//EN" "http://www.w3.org/Graphics/SVG/1.1/DTD/svg11.dtd">
<svg version="1.1" xmlns="http://www.w3.org/2000/svg" xmlns:xlink="http://www.w3.org/1999/xlink" x="0px" y="0px"
	 viewBox="0 0 136.8 136.8" enable-background="new 0 0 136.8 136.8" xml:space="preserve">
<g id="Layer_2" display="none">
	<g display="inline">
		<g>
			<g>
				<g>
					<circle fill="#FF6B69" cx="68.3" cy="68.5" r="63.5"/>
				</g>
			</g>
		</g>
		<g>
			<g>
				<g>
					<g>
						<g>
							<path fill="#F5F5F5" d="M43.5,31.1c-2.4,0-4.3,1.9-4.3,4.3v68.5c0,2.4,1.9,4.3,4.3,4.3h49.2c2.4,0,4.3-1.9,4.3-4.3V51
								L76.4,31.1H43.5z"/>
						</g>
					</g>
				</g>
				<g>
					<g>
						<path fill="#E1E1E1" d="M97,51H80.7c-2.4,0-4.3-1.9-4.3-4.3V31.1L97,51z"/>
					</g>
				</g>
				<g>
					<g>
						<path fill="#C9C9C8" d="M91,56.8c0,0.7-0.6,1.3-1.3,1.3H46.9c-0.7,0-1.3-0.6-1.3-1.3l0,0c0-0.7,0.6-1.3,1.3-1.3h42.8
							C90.4,55.5,91,56.1,91,56.8L91,56.8z"/>
					</g>
				</g>
				<g>
					<g>
						<path fill="#C9C9C8" d="M91,63.8c0,0.7-0.6,1.3-1.3,1.3H46.9c-0.7,0-1.3-0.6-1.3-1.3l0,0c0-0.7,0.6-1.3,1.3-1.3h42.8
							C90.4,62.5,91,63.1,91,63.8L91,63.8z"/>
					</g>
				</g>
				<g>
					<g>
						<path fill="#C9C9C8" d="M91,70.5c0,0.7-0.6,1.3-1.3,1.3H46.9c-0.7,0-1.3-0.6-1.3-1.3l0,0c0-0.7,0.6-1.3,1.3-1.3h42.8
							C90.4,69.2,91,69.8,91,70.5L91,70.5z"/>
					</g>
				</g>
				<g>
					<g>
						<path fill="#C9C9C8" d="M91,77.5c0,0.7-0.6,1.3-1.3,1.3H46.9c-0.7,0-1.3-0.6-1.3-1.3l0,0c0-0.7,0.6-1.3,1.3-1.3h42.8
							C90.4,76.2,91,76.8,91,77.5L91,77.5z"/>
					</g>
				</g>
				<g>
					<g>
						<path fill="#C9C9C8" d="M69.3,83.2H46.9c-0.7,0-1.3,0.6-1.3,1.3c0,0.7,0.6,1.3,1.3,1.3h22.4c0.7,0,1.3-0.6,1.3-1.3
							C70.6,83.8,70,83.2,69.3,83.2z"/>
					</g>
				</g>
			</g>
		</g>
	</g>
</g>
<g id="Layer_9">
	<g>
		<g>
			<g>
				<circle fill="#4ABC96" cx="69" cy="69.7" r="63.3"/>
			</g>
		</g>
		<g>
			<g>
				<path fill="#A3D4AA" d="M100.7,53.1c0,1.6-1.3,2.9-2.9,2.9H79.5c-1.6,0-2.9-1.3-2.9-2.9V42.5c0-1.6,1.3-2.9,2.9-2.9h18.3
					c1.6,0,2.9,1.3,2.9,2.9V53.1z"/>
				<path fill="#A3D4AA" d="M109.1,87.1c0,5.2-4.3,9.5-9.5,9.5H40.1c-5.2,0-9.5-4.3-9.5-9.5V52.7c0-5.2,4.3-9.5,9.5-9.5h59.4
					c5.2,0,9.5,4.3,9.5,9.5V87.1z"/>
			</g>
			<g>
				
					<rect x="83.9" y="41" transform="matrix(0.7071 -0.7072 0.7072 0.7071 -10.414 76.1936)" opacity="0.15" width="5.7" height="19.3"/>
				<g>
					<path fill="#F6A2A3" d="M82.9,54.6c0,1.6-1.3,2.9-2.9,2.9H61.7c-1.6,0-2.9-1.3-2.9-2.9V44c0-1.6,1.3-2.9,2.9-2.9h18.3
						c1.6,0,2.9,1.3,2.9,2.9V54.6z"/>
				</g>
				<path fill="#F6A2A3" d="M109.1,89.2c0,5.2-4.3,9.5-9.5,9.5H40.1c-5.2,0-9.5-4.3-9.5-9.5V54.8c0-5.2,4.3-9.5,9.5-9.5h59.4
					c5.2,0,9.5,4.3,9.5,9.5V89.2z"/>
			</g>
			
				<rect x="65.6" y="42.7" transform="matrix(0.7071 -0.7072 0.7072 0.7071 -17.0028 63.7208)" opacity="0.15" width="5.7" height="19.3"/>
			<g>
				<path fill="#F9F29A" d="M65,56.8c0,1.6-1.3,2.9-2.9,2.9H43.9c-1.6,0-2.9-1.3-2.9-2.9V46.2c0-1.6,1.3-2.9,2.9-2.9h18.3
					c1.6,0,2.9,1.3,2.9,2.9V56.8z"/>
				<path fill="#F9F29A" d="M109.1,101.1H30.6l0-44c0-5.2,4.3-9.5,9.5-9.5h59.4c5.2,0,9.5,4.3,9.5,9.5V101.1z"/>
			</g>
		</g>
	</g>
</g>
<g id="Layer_3" display="none">
	<g display="inline">
		<circle fill="#507F6F" cx="67.7" cy="68.7" r="63.3"/>
		<g>
			<path fill="#357180" d="M111.9,98.5c0,0.6-0.5,1.2-1.2,1.2H27.3c-0.6,0-1.2-0.5-1.2-1.2V39.3c0-0.6,0.5-1.2,1.2-1.2h83.4
				c0.6,0,1.2,0.5,1.2,1.2V98.5z"/>
			<rect x="66.7" y="38.1" fill="#27636D" width="4.7" height="61.5"/>
			<polygon fill="#D7D7BF" points="69,41.1 29.3,41.1 29.3,96.6 69,96.6 108.8,96.6 108.8,41.1 			"/>
			<rect x="66.8" y="41.1" fill="#C5C3AE" width="4.5" height="55.5"/>
			<polygon fill="#E7E7D6" points="69,96.6 30.9,95 30.9,39.3 69,41.1 			"/>
			<polygon fill="#E7E7D6" points="107.2,95 69,96.6 69,41.1 107.2,39.3 			"/>
			<rect x="68.8" y="42.4" fill="#DCDDD8" width="0.5" height="54.2"/>
			<g>
				<path fill="#B9B9BA" d="M66,49c0,0.7-0.6,1.3-1.2,1.3l-29.5-0.9c-0.7,0-1.2-0.6-1.2-1.3l0,0c0-0.7,0.6-1.3,1.2-1.3l29.5,0.9
					C65.5,47.7,66,48.3,66,49L66,49z"/>
				<path fill="#B9B9BA" d="M66,54.3c0,0.7-0.6,1.3-1.2,1.3l-29.5-0.9c-0.7,0-1.2-0.6-1.2-1.3l0,0c0-0.7,0.6-1.3,1.2-1.3L64.8,53
					C65.5,53,66,53.6,66,54.3L66,54.3z"/>
				<path fill="#B9B9BA" d="M66,59.5c0,0.7-0.6,1.3-1.2,1.3l-29.5-0.9c-0.7,0-1.2-0.6-1.2-1.3l0,0c0-0.7,0.6-1.3,1.2-1.3l29.5,0.9
					C65.5,58.2,66,58.8,66,59.5L66,59.5z"/>
				<path fill="#B9B9BA" d="M66,64.8c0,0.7-0.6,1.3-1.2,1.3l-29.5-0.9c-0.7,0-1.2-0.6-1.2-1.3l0,0c0-0.7,0.6-1.3,1.2-1.3l29.5,0.9
					C65.5,63.5,66,64.1,66,64.8L66,64.8z"/>
				<path fill="#B9B9BA" d="M66,70.2c0,0.7-0.6,1.3-1.2,1.3l-29.5-0.9c-0.7,0-1.2-0.6-1.2-1.3l0,0c0-0.7,0.6-1.3,1.2-1.3l29.5,0.9
					C65.5,68.9,66,69.5,66,70.2L66,70.2z"/>
				<path fill="#B9B9BA" d="M66,75.5c0,0.7-0.6,1.3-1.2,1.3l-29.5-0.9c-0.7,0-1.2-0.6-1.2-1.3l0,0c0-0.7,0.6-1.3,1.2-1.3l29.5,0.9
					C65.5,74.2,66,74.8,66,75.5L66,75.5z"/>
				<path fill="#B9B9BA" d="M66,80.6c0,0.7-0.6,1.3-1.2,1.3l-29.5-0.9c-0.7,0-1.2-0.6-1.2-1.3l0,0c0-0.7,0.6-1.3,1.2-1.3l29.5,0.9
					C65.5,79.3,66,79.9,66,80.6L66,80.6z"/>
				<path fill="#B9B9BA" d="M66,85.9c0,0.7-0.6,1.3-1.2,1.3l-29.5-0.9c-0.7,0-1.2-0.6-1.2-1.3l0,0c0-0.7,0.6-1.3,1.2-1.3l29.5,0.9
					C65.5,84.6,66,85.2,66,85.9L66,85.9z"/>
			</g>
			<g>
				<path fill="#B9B9BA" d="M72.2,49c0,0.7,0.6,1.3,1.2,1.3l29.5-0.9c0.7,0,1.2-0.6,1.2-1.3l0,0c0-0.7-0.6-1.3-1.2-1.3l-29.5,0.9
					C72.8,47.7,72.2,48.3,72.2,49L72.2,49z"/>
				<path fill="#B9B9BA" d="M72.2,54.3c0,0.7,0.6,1.3,1.2,1.3l29.5-0.9c0.7,0,1.2-0.6,1.2-1.3l0,0c0-0.7-0.6-1.3-1.2-1.3L73.5,53
					C72.8,53,72.2,53.6,72.2,54.3L72.2,54.3z"/>
				<path fill="#B9B9BA" d="M72.2,59.5c0,0.7,0.6,1.3,1.2,1.3l29.5-0.9c0.7,0,1.2-0.6,1.2-1.3l0,0c0-0.7-0.6-1.3-1.2-1.3l-29.5,0.9
					C72.8,58.2,72.2,58.8,72.2,59.5L72.2,59.5z"/>
				<path fill="#B9B9BA" d="M72.2,64.8c0,0.7,0.6,1.3,1.2,1.3l29.5-0.9c0.7,0,1.2-0.6,1.2-1.3l0,0c0-0.7-0.6-1.3-1.2-1.3l-29.5,0.9
					C72.8,63.5,72.2,64.1,72.2,64.8L72.2,64.8z"/>
				<path fill="#B9B9BA" d="M72.2,70.2c0,0.7,0.6,1.3,1.2,1.3l29.5-0.9c0.7,0,1.2-0.6,1.2-1.3l0,0c0-0.7-0.6-1.3-1.2-1.3l-29.5,0.9
					C72.8,68.9,72.2,69.5,72.2,70.2L72.2,70.2z"/>
				<path fill="#B9B9BA" d="M72.2,75.5c0,0.7,0.6,1.3,1.2,1.3l29.5-0.9c0.7,0,1.2-0.6,1.2-1.3l0,0c0-0.7-0.6-1.3-1.2-1.3l-29.5,0.9
					C72.8,74.2,72.2,74.8,72.2,75.5L72.2,75.5z"/>
				<path fill="#B9B9BA" d="M72.2,80.6c0,0.7,0.6,1.3,1.2,1.3l29.5-0.9c0.7,0,1.2-0.6,1.2-1.3l0,0c0-0.7-0.6-1.3-1.2-1.3l-29.5,0.9
					C72.8,79.3,72.2,79.9,72.2,80.6L72.2,80.6z"/>
				<path fill="#B9B9BA" d="M72.2,85.9c0,0.7,0.6,1.3,1.2,1.3l29.5-0.9c0.7,0,1.2-0.6,1.2-1.3l0,0c0-0.7-0.6-1.3-1.2-1.3l-29.5,0.9
					C72.8,84.6,72.2,85.2,72.2,85.9L72.2,85.9z"/>
			</g>
		</g>
	</g>
</g>
<g id="Layer_4" display="none">
	<g display="inline">
		<g>
			<g>
				<g>
					<g>
						<circle fill="#4FC9A0" cx="68.1" cy="68.4" r="63.3"/>
					</g>
				</g>
			</g>
		</g>
		<g>
			<g>
				<g>
					<g>
						<g>
							<path fill="#F5F5F5" d="M43.3,30.2c-2.4,0-4.3,1.9-4.3,4.3v68.4c0,2.4,1.9,4.3,4.3,4.3h49.1c2.4,0,4.3-1.9,4.3-4.3V49.9
								L76.1,30.2H43.3z"/>
						</g>
					</g>
					<g>
						<path fill="#E1E1E1" d="M96.7,49.9H80.4c-2.4,0-4.3-1.9-4.3-4.3V30.2L96.7,49.9z"/>
					</g>
				</g>
			</g>
			<g>
				<g>
					<path fill="#4FC9A0" d="M54.2,61.4c0,0.8-0.7,1.5-1.5,1.5h-7.1c-0.8,0-1.5-0.7-1.5-1.5v-7.7c0-0.8,0.7-1.5,1.5-1.5h7.1
						c0.8,0,1.5,0.7,1.5,1.5V61.4z"/>
				</g>
				<g>
					<path fill="#4FC9A0" d="M66.5,61.4c0,0.8-0.7,1.5-1.5,1.5h-7.1c-0.8,0-1.5-0.7-1.5-1.5v-7.7c0-0.8,0.7-1.5,1.5-1.5H65
						c0.8,0,1.5,0.7,1.5,1.5V61.4z"/>
				</g>
				<g>
					<path fill="#4FC9A0" d="M79,61.4c0,0.8-0.7,1.5-1.5,1.5h-7.1c-0.8,0-1.5-0.7-1.5-1.5v-7.7c0-0.8,0.7-1.5,1.5-1.5h7.1
						c0.8,0,1.5,0.7,1.5,1.5V61.4z"/>
				</g>
				<g>
					<path fill="#4FC9A0" d="M91.3,61.4c0,0.8-0.7,1.5-1.5,1.5h-7.1c-0.8,0-1.5-0.7-1.5-1.5v-7.7c0-0.8,0.7-1.5,1.5-1.5h7.1
						c0.8,0,1.5,0.7,1.5,1.5V61.4z"/>
				</g>
			</g>
			<g>
				<g>
					<path fill="#4FC9A0" d="M54.2,74.4c0,0.8-0.7,1.5-1.5,1.5h-7.1c-0.8,0-1.5-0.7-1.5-1.5v-7.7c0-0.8,0.7-1.5,1.5-1.5h7.1
						c0.8,0,1.5,0.7,1.5,1.5V74.4z"/>
				</g>
				<g>
					<path fill="#4FC9A0" d="M66.5,74.4c0,0.8-0.7,1.5-1.5,1.5h-7.1c-0.8,0-1.5-0.7-1.5-1.5v-7.7c0-0.8,0.7-1.5,1.5-1.5H65
						c0.8,0,1.5,0.7,1.5,1.5V74.4z"/>
				</g>
				<g>
					<path fill="#4FC9A0" d="M79,74.4c0,0.8-0.7,1.5-1.5,1.5h-7.1c-0.8,0-1.5-0.7-1.5-1.5v-7.7c0-0.8,0.7-1.5,1.5-1.5h7.1
						c0.8,0,1.5,0.7,1.5,1.5V74.4z"/>
				</g>
				<g>
					<path fill="#4FC9A0" d="M91.3,74.4c0,0.8-0.7,1.5-1.5,1.5h-7.1c-0.8,0-1.5-0.7-1.5-1.5v-7.7c0-0.8,0.7-1.5,1.5-1.5h7.1
						c0.8,0,1.5,0.7,1.5,1.5V74.4z"/>
				</g>
			</g>
			<g>
				<g>
					<path fill="#4ABC96" d="M54.2,87.6c0,0.8-0.7,1.5-1.5,1.5h-7.1c-0.8,0-1.5-0.7-1.5-1.5v-7.7c0-0.8,0.7-1.5,1.5-1.5h7.1
						c0.8,0,1.5,0.7,1.5,1.5V87.6z"/>
				</g>
				<g>
					<path fill="#4ABC96" d="M66.5,87.6c0,0.8-0.7,1.5-1.5,1.5h-7.1c-0.8,0-1.5-0.7-1.5-1.5v-7.7c0-0.8,0.7-1.5,1.5-1.5H65
						c0.8,0,1.5,0.7,1.5,1.5V87.6z"/>
				</g>
			</g>
			<g>
				<g>
					<path fill="#4ABC96" d="M54.2,100.6c0,0.8-0.7,1.5-1.5,1.5h-7.1c-0.8,0-1.5-0.7-1.5-1.5v-7.7c0-0.8,0.7-1.5,1.5-1.5h7.1
						c0.8,0,1.5,0.7,1.5,1.5V100.6z"/>
				</g>
				<g>
					<path fill="#4ABC96" d="M66.5,100.6c0,0.8-0.7,1.5-1.5,1.5h-7.1c-0.8,0-1.5-0.7-1.5-1.5v-7.7c0-0.8,0.7-1.5,1.5-1.5H65
						c0.8,0,1.5,0.7,1.5,1.5V100.6z"/>
				</g>
			</g>
			<g>
				<path fill="#4ABC96" d="M73.3,89.1h-2.2c-1.1,0-2,0.9-2,2h0v0c0,0,0,0,0,0c0,0,0,0,0,0V102h6.1V91.1h0
					C75.3,90,74.4,89.1,73.3,89.1z"/>
			</g>
			<g>
				<path fill="#4ABC96" d="M83.3,86.3L83.3,86.3L83.3,86.3c0-1.1-0.9-1.9-2-1.9h-2.2c-1.1,0-1.9,0.9-2,1.9h0V102h6.1V86.3
					C83.3,86.4,83.3,86.4,83.3,86.3C83.3,86.4,83.3,86.3,83.3,86.3z"/>
			</g>
			<g>
				<path fill="#4ABC96" d="M91.3,81.1C91.3,81.1,91.3,81.1,91.3,81.1L91.3,81.1L91.3,81.1c0-1.1-0.9-2-2-2h-2.2
					c-1.1,0-1.9,0.8-2,1.9h0V102h6.1L91.3,81.1C91.3,81.1,91.3,81.1,91.3,81.1z"/>
			</g>
			<g>
				<rect x="69.1" y="100.8" fill="#4ABC96" width="22.1" height="1.2"/>
			</g>
		</g>
	</g>
</g>
<g id="Layer_5" display="none">
	<g display="inline">
		<g>
			<g>
				<g>
					<g>
						<circle fill="#FFA547" cx="69" cy="68.5" r="63.3"/>
					</g>
				</g>
			</g>
		</g>
		<g>
			<g>
				<g>
					<path fill="#E87D41" d="M69.5,26.5c-1.5,0-2.7,1.2-2.7,2.7v88c0,1.5,1.2,2.7,2.7,2.7c1.5,0,2.7-1.2,2.7-2.7v-88
						C72.3,27.7,71,26.5,69.5,26.5z"/>
				</g>
				<g>
					<path fill="#E87D41" d="M68.4,98.8c-1,1-1,2.7,0,3.8l14.6,14.6c1,1,2.7,1,3.8,0c1-1,1-2.7,0-3.8L72.2,98.8
						C71.1,97.8,69.5,97.8,68.4,98.8z"/>
				</g>
				<g>
					<path fill="#E87D41" d="M70.6,98.8c-1-1-2.7-1-3.8,0l-14.6,14.6c-1,1-1,2.7,0,3.8c1,1,2.7,1,3.8,0l14.6-14.6
						C71.6,101.6,71.6,99.9,70.6,98.8z"/>
				</g>
				<g>
					<g>
						<path fill="#E87D41" d="M114.5,87.7c0,2.9-2.4,5.3-5.2,5.3H31.8c-2.9,0-5.3-2.4-5.3-5.3V35.8c0-2.9,2.4-5.3,5.3-5.3h77.5
							c2.9,0,5.2,2.4,5.2,5.3V87.7z"/>
					</g>
				</g>
				<g>
					<g>
						<path fill="#FFFFFF" d="M110.5,84.5c0,2.6-2.1,4.8-4.8,4.8H35.4c-2.6,0-4.8-2.1-4.8-4.8V39.1c0-2.6,2.1-4.8,4.8-4.8h70.4
							c2.6,0,4.8,2.1,4.8,4.8V84.5z"/>
					</g>
				</g>
				<g>
					<defs>
						<path id="SVGID_1_" d="M114.5,87.7c0,2.9-2.4,5.3-5.2,5.3H31.8c-2.9,0-5.3-2.4-5.3-5.3V35.8c0-2.9,2.4-5.3,5.3-5.3h77.5
							c2.9,0,5.2,2.4,5.2,5.3V87.7z"/>
					</defs>
					<clipPath id="SVGID_2_">
						<use xlink:href="#SVGID_1_"  overflow="visible"/>
					</clipPath>
				</g>
				<g>
					<path fill="#E87D41" d="M101.9,51.7c0,1.1-0.9,2-2,2H82.7c-1.1,0-2-0.9-2-2c0-1.1,0.9-2,2-2h17.2
						C101,49.7,101.9,50.6,101.9,51.7"/>
				</g>
				<g>
					<path fill="#E87D41" d="M101.9,60c0,1.1-0.9,2-2,2H82.7c-1.1,0-2-0.9-2-2c0-1.1,0.9-2,2-2h17.2C101,58.1,101.9,58.9,101.9,60"
						/>
				</g>
				<g>
					<path fill="#E87D41" d="M101.9,68.9c0,1.1-0.9,2-2,2H82.7c-1.1,0-2-0.9-2-2c0-1.1,0.9-2,2-2h17.2
						C101,66.9,101.9,67.8,101.9,68.9"/>
				</g>
			</g>
			<g>
				<g>
					<path fill="#F4E028" d="M57.7,56.4"/>
				</g>
				<g>
					<path fill="#78A4A4" d="M38.5,56c0-0.1,0-0.2,0-0.3c0,0.2,0,0.3,0,0.5c0,0.5,0,6.1,0,6.5c0,4.5,7.8,8.2,17.5,8.2v-6.7
						C46.4,64.2,38.5,60.5,38.5,56z"/>
				</g>
				<g>
					<rect x="55.9" y="55.9" fill="#78A4A4" width="17.7" height="6.6"/>
				</g>
				<g>
					<path fill="#DDD374" d="M75.2,64.4c0-0.4,0-6.1,0-6.5c0-0.1,0-0.1,0-0.2h0c0,4.5-7.8,8.2-17.5,8.2v6.7
						C67.4,72.6,75.2,69,75.2,64.4z"/>
				</g>
				<g>
					<path fill="#EFE87F" d="M57.7,65.9c9.6,0,17.5-3.7,17.5-8.2H57.7V65.9z"/>
				</g>
				<g>
					<path fill="#ABC7C8" d="M73.5,55.6c-0.4-4.4-8.1-7.8-17.4-7.8c-9.4,0-17.1,3.5-17.5,7.9c0,0.1,0,0.2,0,0.3
						c0,4.5,7.8,8.2,17.5,8.2V56h17.5v0C73.5,55.8,73.5,55.7,73.5,55.6z"/>
				</g>
			</g>
		</g>
	</g>
</g>
<g id="Layer_6" display="none">
	<g display="inline">
		<g>
			<g>
				<g>
					<g>
						<circle fill="#666665" cx="69.5" cy="68.5" r="63.3"/>
					</g>
				</g>
			</g>
		</g>
		<g>
			<g>
				<g>
					<path fill="#E0E4E3" d="M118.7,47.2c0-6-4.9-10.9-10.9-10.9H35c-6,0-10.9,4.9-10.9,10.9v45.2c0,6,4.9,10.9,10.9,10.9h72.9
						c6,0,10.9-4.9,10.9-10.9V47.2z"/>
				</g>
				<g>
					<g>
						<g>
							<path fill="#D1D3D3" d="M118.6,46c-0.6-5.4-5.2-9.6-10.8-9.6H35c-6,0-10.9,4.9-10.9,10.9v2.2h94.5V46z"/>
						</g>
					</g>
					<g>
						<circle fill="#E84849" cx="32.8" cy="42.7" r="2.4"/>
					</g>
					<g>
						<circle fill="#EFC849" cx="41.8" cy="42.7" r="2.4"/>
					</g>
					<g>
						<circle fill="#37B34C" cx="50.8" cy="42.7" r="2.4"/>
					</g>
				</g>
				<g>
					<g>
						<path fill="#9ED8D8" d="M98.1,94.3h-0.2c-0.5-1.4-1-2.7-1.7-4l0.1-0.1c2.4-2.4,5.8-9.3,2.4-12.8l-2.1-2.1
							c-3.5-3.5-10.2-0.2-12.8,2.4l-0.1,0.1c-1.3-0.6-2.6-1.2-4-1.7v-0.2c0-3.4-2.5-10.7-7.4-10.7h-3c-4.9,0-7.4,7.1-7.4,10.7v0.2
							c-1.4,0.5-2.7,1-4,1.6l-0.1-0.1c-2-2-9.3-5.8-12.8-2.4l-2.1,2.1c-3.5,3.5,0.1,10.6,2.4,12.8l0.1,0.1c-0.6,1.3-1.2,2.6-1.7,4
							h-0.2c-2.9,0-10.7,2.5-10.7,7.4v1.4c0.7,0.1,1.4,0.2,2.1,0.2h19.4c0,0,0-0.1,0-0.1c0-9.1,7.4-16.5,16.5-16.5
							s16.5,7.4,16.5,16.5c0,0,0,0.1,0,0.1h20.5c0.3,0,0.7,0,1-0.1v-1.5C108.8,96.7,101.8,94.3,98.1,94.3z"/>
					</g>
				</g>
			</g>
		</g>
	</g>
</g>
<g id="Layer_7" display="none">
	<g display="inline">
		<g>
			<g>
				<circle fill="#FF6B69" cx="69.4" cy="69.4" r="63.3"/>
			</g>
		</g>
		<g>
			<g>
				<path fill="#E34947" d="M104.1,101.9c0,6.2-1.3,9.3-7.4,9.3H43.9c-6.2,0-7.4-3.1-7.4-9.3V41.1c0-6.2,1.3-9.3,7.4-9.3h52.7
					c6.2,0,7.4,3.1,7.4,9.3V101.9z"/>
				<path fill="#FF6B69" d="M103.1,101c0,6-1.2,9-7.2,9H44.7c-6,0-7.2-3-7.2-9V42c0-6,1.2-9,7.2-9h51.2c6,0,7.2,3,7.2,9V101z"/>
				<rect x="81.2" y="41.5" fill="#FFFFFF" width="14.9" height="16.6"/>
				<rect x="44.1" y="41.5" display="none" fill="#FFFFFF" width="32.6" height="3.2"/>
				<rect x="44.1" y="46.2" fill="#FFFFFF" width="32.6" height="1.6"/>
				<rect x="44.1" y="48.9" fill="#FFFFFF" width="32.6" height="1.6"/>
				<rect x="44.1" y="51.6" fill="#FFFFFF" width="32.6" height="1.6"/>
				<rect x="44.1" y="54.3" fill="#FFFFFF" width="32.6" height="1.6"/>
				<rect x="44.1" y="99.7" fill="#FFFFFF" width="52.6" height="1.8"/>
				<rect x="44.1" y="103.4" fill="#FFFFFF" width="52.6" height="1.8"/>
				<rect x="44.1" y="95.9" display="none" fill="#FFFFFF" width="52.6" height="1.8"/>
				<g>
					<rect x="44.3" y="63.7" fill="#DBF0F5" width="51.9" height="29.8"/>
					<g>
						<path fill="#6CC077" d="M95.6,87.1l-7-7c0,0-2-2.6-3.9-2.5c-1.7,0.1-3.6,2.2-4,2.6l-2.4-2.4c0,0-2.4-3-4.5-2.9
							C71.6,75,69,78.1,69,78.1l-0.7,0.7l-4.4-4.4c0,0-2.9-3.7-5.6-3.6c-2.7,0.2-5.9,3.9-5.9,3.9l-7.5,7.5l0,10.8l50.7,0L95.6,87.1z
							"/>
						<path fill="#67B8CB" d="M73.7,70c0,0,0-0.1,0-0.1c0-0.7-0.8-1.3-1.8-1.3c-0.1,0-0.2,0-0.4,0.1c-0.3-0.4-0.8-0.7-1.5-0.7
							c-0.8,0-1.5,0.4-1.6,1c-0.8,0.2-1.4,0.7-1.4,1.3c0,0.6,0.5,1.1,1.3,1.3c0.3,0.6,0.9,1,1.8,1c0.8,0,1.4-0.3,1.7-0.8
							c0.2,0.1,0.4,0.1,0.6,0.1c0.9,0,1.6-0.5,1.6-1.2C74.1,70.5,73.9,70.2,73.7,70z"/>
						<path fill="#67B8CB" d="M81.9,71.7C81.9,71.6,81.9,71.6,81.9,71.7c0-0.6,0.5-1,1.2-1c0.1,0,0.2,0,0.3,0c0.2-0.3,0.6-0.5,1-0.5
							c0.6,0,1,0.3,1.2,0.7c0.6,0.1,1,0.5,1,0.9c0,0.4-0.4,0.8-0.9,0.9c-0.2,0.4-0.7,0.7-1.3,0.7c-0.5,0-1-0.2-1.2-0.6
							C83.1,73,83,73,82.8,73c-0.6,0-1.1-0.4-1.1-0.8C81.7,72,81.8,71.8,81.9,71.7z"/>
					</g>
				</g>
				<path fill="#FF6B69" d="M89.7,52.1v-0.8c1.1-0.5,1.9-1.8,2-3.4c0.2-0.1,0.4-0.4,0.4-0.8c0-0.4-0.2-0.8-0.5-0.8
					c-0.4-1.5-1.5-2.3-3-2.3c-1.5,0-2.6,0.8-3,2.3c-0.2,0-0.5,0.4-0.5,0.8c0,0.4,0.2,0.7,0.4,0.8c0.1,1.6,0.9,2.9,2,3.4v0.8
					c-3.5,0.1-5.2,0.5-5.2,3V58h12.5v-2.9C94.9,52.5,93.2,52.2,89.7,52.1z"/>
			</g>
		</g>
	</g>
</g>
<g id="Layer_8" display="none">
	<g display="inline">
		<g>
			<g>
				<circle fill="#357180" cx="69.3" cy="69.1" r="63.3"/>
			</g>
		</g>
		<g>
			<g>
				
					<rect x="38.8" y="29.7" transform="matrix(0.1577 0.9875 -0.9875 0.1577 125.3824 -8.2149)" fill="#EBF6F9" width="57.5" height="79.5"/>
				<g>
					<polygon fill="#DBF0F5" points="109.1,88.8 34.7,101 26.3,49.4 100.7,37.1 					"/>
					<g>
						<path fill="#6CC077" d="M106.7,79.7L95,71.3c0,0-3.5-3.2-6.1-2.6c-2.4,0.5-4.7,4-5.1,4.7l-3.9-2.8c0,0-4.1-3.8-7.2-3.1
							c-3.1,0.7-6.1,5.7-6.1,5.7l-0.9,1.2L58.2,69c0,0-5-4.7-8.9-3.8c-3.8,0.9-7.5,7-7.5,7l-8.9,12.4l2.6,15.5l72.7-12L106.7,79.7z"
							/>
						<path fill="#67B8CB" d="M70.1,55.6c0-0.1,0-0.2,0-0.3c-0.2-1.3-1.8-2.2-3.6-1.9c-0.2,0-0.4,0.1-0.6,0.2
							c-0.6-0.6-1.7-1-2.8-0.8c-1.5,0.2-2.5,1.3-2.7,2.4c-1.4,0.5-2.3,1.7-2.1,2.8c0.2,1.1,1.3,1.9,2.7,2c0.6,0.9,2,1.5,3.5,1.2
							c1.4-0.2,2.4-1,2.8-2c0.4,0.1,0.8,0.1,1.2,0c1.6-0.3,2.7-1.4,2.5-2.6C70.9,56.2,70.6,55.9,70.1,55.6z"/>
						<path fill="#67B8CB" d="M85.6,56.1c0-0.1-0.1-0.1-0.1-0.2c-0.2-0.9,0.7-1.9,2-2.1c0.2,0,0.3,0,0.5,0c0.3-0.6,0.9-1,1.7-1.2
							c1.1-0.2,2,0.3,2.3,1c1.1,0,2,0.6,2.1,1.4c0.1,0.8-0.5,1.6-1.4,2c-0.2,0.8-1,1.5-2.1,1.6c-1,0.2-1.9-0.1-2.4-0.7
							c-0.2,0.1-0.5,0.2-0.8,0.3c-1.1,0.2-2.1-0.3-2.3-1.2C85.2,56.7,85.3,56.4,85.6,56.1z"/>
					</g>
				</g>
			</g>
			<g>
				<path fill="#020202" d="M77.2,66.6c0-0.9-0.4-1.7-0.9-1.7h-3.9c-0.5,0-0.9,0.8-0.9,1.7s0.4,1.7,0.9,1.7h3.9
					C76.7,68.3,77.2,67.6,77.2,66.6"/>
				<path fill="#231F20" d="M116.6,72.3c0-1.6-1.3-3-3-3H71.6c-1.6,0-3,1.3-3,3v22c0,1.6,1.3,3,3,3h42.1c1.6,0,3-1.3,3-3V72.3z"/>
				<path fill="#231F20" d="M89.3,70.2c0-2-1.3-3.6-3-3.6H71.6c-1.7,0-3,1.6-3,3.6v8.5c0,2,1.3,3.6,3,3.6h14.7c1.7,0,3-1.6,3-3.6
					V70.2z"/>
				<path fill="#020202" d="M107.3,83.3c0-8.1-6.6-14.7-14.7-14.7c-8.1,0-14.7,6.6-14.7,14.7c0,8.1,6.6,14.7,14.7,14.7
					C100.7,98,107.3,91.4,107.3,83.3"/>
				<path fill="#231F20" d="M106.6,83.3c0-7.7-6.3-14-14-14s-14,6.3-14,14c0,7.7,6.3,14,14,14S106.6,91,106.6,83.3"/>
				<path fill="#969595" d="M105.8,83.3c0-7.3-5.9-13.2-13.2-13.2c-7.3,0-13.2,5.9-13.2,13.2c0,7.3,5.9,13.2,13.2,13.2
					C99.9,96.5,105.8,90.6,105.8,83.3"/>
				<path fill="#231F20" d="M105.2,83.3c0-7-5.7-12.6-12.6-12.6c-7,0-12.6,5.7-12.6,12.6c0,7,5.7,12.6,12.6,12.6
					C99.6,95.9,105.2,90.2,105.2,83.3"/>
				<path fill="#020202" d="M104.3,83.3c0-6.4-5.2-11.6-11.6-11.6c-6.4,0-11.6,5.2-11.6,11.6c0,6.4,5.2,11.6,11.6,11.6
					C99.1,94.9,104.3,89.7,104.3,83.3"/>
				<path fill="#231F20" d="M103.7,83.3c0-6.1-4.9-11-11-11c-6.1,0-11,4.9-11,11c0,6.1,4.9,11,11,11
					C98.8,94.3,103.7,89.3,103.7,83.3"/>
				<path fill="#5A5B5D" d="M103.1,83.3c0-5.8-4.7-10.4-10.4-10.4c-5.8,0-10.4,4.7-10.4,10.4c0,5.8,4.7,10.4,10.4,10.4
					C98.4,93.7,103.1,89,103.1,83.3"/>
				<path fill="#231F20" d="M102.6,83.3c0-5.5-4.5-10-10-10c-5.5,0-10,4.5-10,10c0,5.5,4.5,10,10,10
					C98.2,93.2,102.6,88.8,102.6,83.3"/>
				<path fill="#A5B6B9" d="M101.3,83.3c0-4.8-3.9-8.6-8.6-8.6c-4.8,0-8.6,3.9-8.6,8.6c0,4.8,3.9,8.6,8.6,8.6
					C97.4,91.9,101.3,88,101.3,83.3"/>
				<path fill="#FFFFFF" d="M93.9,80.4c0,2.3-1.9,4.1-4.1,4.1c-2.3,0-4.1-1.9-4.1-4.1c0-2.3,1.9-4.1,4.1-4.1
					C92,76.2,93.9,78.1,93.9,80.4"/>
				<path fill="#67B8CB" d="M71.3,68.3c-0.6,0-1.1,0.5-1.1,1.1v0.8v0.1l2-2H71.3z"/>
				<path fill="#67B8CB" d="M79.6,69.4c0-0.6-0.5-1.1-1.1-1.1h-1.4l-6.2,6.2c0.1,0,0.2,0.1,0.3,0.1h5.1l3.2-3.2V69.4z"/>
				<path fill="#D6E4F4" d="M72.1,68.3l-2,2v0.8v2.4c0,0.5,0.3,0.9,0.8,1l6.2-6.2H72.1z"/>
				<path fill="#D6E4F4" d="M79.6,73.5v-2.1l-3.2,3.2h2.1C79.1,74.6,79.6,74.1,79.6,73.5"/>
			</g>
		</g>
	</g>
</g>
</svg>
