<svg xmlns="http://www.w3.org/2000/svg" viewBox="0 0 50 50" enable-background="new 0 0 50 50"><g><circle fill="#4ABC96" cx="25.2" cy="25.5" r="23.1"/><g fill="#A3D4AA"><path d="M36.8 15.4c0 .6-.5 1.1-1.1 1.1h-6.7c-.6 0-1.1-.5-1.1-1.1v-3.9c0-.6.5-1.1 1.1-1.1h6.7c.6 0 1.1.5 1.1 1.1v3.9zM39.9 27.8c0 1.9-1.6 3.5-3.5 3.5h-21.7c-1.9 0-3.5-1.6-3.5-3.5v-12.5c0-1.9 1.6-3.5 3.5-3.5h21.7c1.9 0 3.5 1.6 3.5 3.5v12.5z"/></g><path opacity=".15" enable-background="new" d="M28.517 14.737l1.485-1.485 4.95 4.95-1.485 1.485z"/><path fill="#F6A2A3" d="M30.3 18c0 .6-.5 1.1-1.1 1.1h-6.7c-.6 0-1.1-.5-1.1-1.1v-3.9c0-.6.5-1.1 1.1-1.1h6.7c.6 0 1.1.5 1.1 1.1v3.9zM39.9 30.6c0 1.9-1.6 3.5-3.5 3.5h-21.7c-1.9 0-3.5-1.6-3.5-3.5v-12.6c0-1.9 1.6-3.5 3.5-3.5h21.7c1.9 0 3.5 1.6 3.5 3.5v12.6z"/><path opacity=".15" enable-background="new" d="M21.789 17.355l1.485-1.485 4.95 4.95-1.485 1.485z"/><g fill="#F9F29A"><path d="M23.8 20.8c0 .6-.5 1.1-1.1 1.1h-6.6c-.6 0-1.1-.5-1.1-1.1v-3.9c0-.6.5-1.1 1.1-1.1h6.7c.6 0 1.1.5 1.1 1.1l-.1 3.9zM39.9 36.9h-28.7v-16c0-1.9 1.6-3.5 3.5-3.5h21.7c1.9 0 3.5 1.6 3.5 3.5v16z"/></g></g></svg>