<?xml version="1.0" encoding="utf-8"?>
<!-- Generator: Adobe Illustrator 17.1.0, SVG Export Plug-In . SVG Version: 6.00 Build 0)  -->
<!DOCTYPE svg PUBLIC "-//W3C//DTD SVG 1.1//EN" "http://www.w3.org/Graphics/SVG/1.1/DTD/svg11.dtd">
<svg version="1.1" id="Layer_1" xmlns="http://www.w3.org/2000/svg" xmlns:xlink="http://www.w3.org/1999/xlink" x="0px" y="0px"
	 viewBox="0 0 50 50" enable-background="new 0 0 50 50" xml:space="preserve">
<g id="Layer_9">
	<g>
		<g>
			<g>
				<circle fill="#4ABC96" cx="25.2" cy="25.5" r="23.1"/>
			</g>
		</g>
		<g>
			<g>
				<path fill="#A3D4AA" d="M36.8,15.4c0,0.6-0.5,1.1-1.1,1.1h-6.7c-0.6,0-1.1-0.5-1.1-1.1v-3.9c0-0.6,0.5-1.1,1.1-1.1h6.7
					c0.6,0,1.1,0.5,1.1,1.1C36.8,11.5,36.8,15.4,36.8,15.4z"/>
				<path fill="#A3D4AA" d="M39.9,27.8c0,1.9-1.6,3.5-3.5,3.5H14.7c-1.9,0-3.5-1.6-3.5-3.5V15.3c0-1.9,1.6-3.5,3.5-3.5h21.7
					c1.9,0,3.5,1.6,3.5,3.5L39.9,27.8L39.9,27.8L39.9,27.8z"/>
			</g>
			<g>
				
					<rect x="30.7" y="13" transform="matrix(0.7071 -0.7072 0.7072 0.7071 -2.3843 27.2556)" opacity="0.15" enable-background="new    " width="2.1" height="7"/>
				<g>
					<path fill="#F6A2A3" d="M30.3,18c0,0.6-0.5,1.1-1.1,1.1h-6.7c-0.6,0-1.1-0.5-1.1-1.1v-3.9c0-0.6,0.5-1.1,1.1-1.1h6.7
						c0.6,0,1.1,0.5,1.1,1.1V18z"/>
				</g>
				<path fill="#F6A2A3" d="M39.9,30.6c0,1.9-1.6,3.5-3.5,3.5H14.7c-1.9,0-3.5-1.6-3.5-3.5V18c0-1.9,1.6-3.5,3.5-3.5h21.7
					c1.9,0,3.5,1.6,3.5,3.5L39.9,30.6L39.9,30.6L39.9,30.6z"/>
			</g>
			
				<rect x="24" y="15.6" transform="matrix(0.7071 -0.7072 0.7072 0.7071 -6.214 23.2971)" opacity="0.15" enable-background="new    " width="2.1" height="7"/>
			<g>
				<path fill="#F9F29A" d="M23.8,20.8c0,0.6-0.5,1.1-1.1,1.1h-6.6c-0.6,0-1.1-0.5-1.1-1.1v-3.9c0-0.6,0.5-1.1,1.1-1.1h6.7
					c0.6,0,1.1,0.5,1.1,1.1L23.8,20.8L23.8,20.8z"/>
				<path fill="#F9F29A" d="M39.9,36.9H11.2V20.9c0-1.9,1.6-3.5,3.5-3.5h21.7c1.9,0,3.5,1.6,3.5,3.5L39.9,36.9L39.9,36.9L39.9,36.9z
					"/>
			</g>
		</g>
	</g>
</g>
</svg>
