<svg xmlns="http://www.w3.org/2000/svg" id="Layer_1" viewBox="0 0 100 100">
  <style>
    .st0{fill:#FFFFFF;stroke:#999999;stroke-width:3;stroke-miterlimit:10;} .st1{fill:#999999;stroke:#999999;stroke-width:2;stroke-miterlimit:10;}
  </style>
  <path d="M81.7 62.6c0 3.6-3 6.6-6.6 6.6h-6.7l-4.3 9.6-4.3-9.6H25c-3.6 0-6.6-3-6.6-6.6V33.5c0-3.6 3-6.6 6.6-6.6h50c3.6 0 6.6 3 6.6 6.6l.1 29.1z" class="st0"/>
  <path d="M72.2 40.3H27.8c-.4 0-.8-.3-.8-.8s.3-.8.8-.8h44.4c.4 0 .8.3.8.8s-.4.8-.8.8zM60.7 58.4H27.6c-.3 0-.6-.3-.6-.8 0-.4.3-.8.6-.8h33.1c.3 0 .6.3.6.8-.1.4-.3.8-.6.8zm11.5-9.1H27.8c-.4 0-.8-.3-.8-.8 0-.4.3-.8.8-.8h44.4c.4 0 .8.3.8.8-.1.4-.4.8-.8.8z" class="st1"/>
</svg>
