<svg xmlns="http://www.w3.org/2000/svg" viewBox="0 0 100 100"><path d="M85.6 54.7c.2-1.5.3-3.1.3-4.7s-.1-3.2-.3-4.7l10.1-7.9c.9-.7 1.1-2 .6-3.1l-9.6-16.6c-.6-1.1-1.9-1.4-2.9-1.1l-11.9 4.8c-2.5-1.9-5.2-3.5-8.1-4.7L61.9 4.1c-.1-1.1-1.1-2-2.3-2H40.4c-1.2 0-2.2.9-2.3 2l-1.8 12.7c-2.9 1.2-5.6 2.8-8.1 4.7l-11.9-4.8c-1.1-.4-2.3 0-2.9 1.1L3.8 34.3c-.6 1.1-.3 2.3.6 3.1l10.1 7.9c-.2 1.5-.3 3.1-.3 4.7s.1 3.2.3 4.7L4.3 62.6c-.9.7-1.1 2-.6 3.1l9.6 16.6c.6 1.1 1.9 1.4 2.9 1.1l11.9-4.8c2.5 1.9 5.2 3.5 8.1 4.7L38 96c.1 1.1 1.1 2 2.3 2h19.2c1.2 0 2.2-.9 2.3-2l1.8-12.7c2.9-1.2 5.6-2.8 8.1-4.7l11.9 4.8c1.1.4 2.3 0 2.9-1.1l9.6-16.6c.6-1.1.3-2.3-.6-3.1l-9.9-7.9zM50 66.8c-9.2 0-16.8-7.5-16.8-16.8S40.8 33.2 50 33.2 66.8 40.8 66.8 50 59.3 66.8 50 66.8z" style="fill:#999"/></svg>