<svg xmlns="http://www.w3.org/2000/svg" viewBox="0 0 100 100"><circle cx="50.6" cy="50.4" r="48.5" fill="#4AA1AF"/><path fill="#ECB31F" d="M76.4 27.6c-3.8.3-7.3 0-10.2-.5-10.5-1.9-15.8-7.5-15.9-7.7-.2.3-9.7 10.3-28.8 8v28.3c-.1 1.8 1 6.4 4.5 11.7 1.3 1.9 2.9 3.9 4.8 6 4.5 4.6 11 9.2 20.1 12.4 27.2-11.5 28.1-30 28.1-30V27.5c-.9 0-1.7.1-2.6.1z"/><path fill="#FFC614" d="M50.3 19.4c-.1 0-.1 0 0 0-.3.3-9.7 10.3-28.8 8v28.3c-.1 1.8 1 6.4 4.5 11.7 1.3 1.9 2.9 3.9 4.8 6 4.5 4.6 11 9.2 20.1 12.4 0-.1-.5-66.2-.6-66.4z"/><path fill="#F9ED25" d="M50.3 36.9l4.6 9.4 10.3 1.5-7.4 7.2 1.7 10.2-9.2-4.8-9.2 4.8L42.9 55l-7.4-7.2 10.2-1.5"/></svg>