<svg width="20" height="20" viewBox="0 0 20 20" fill="none" xmlns="http://www.w3.org/2000/svg">
<path fill-rule="evenodd" clip-rule="evenodd" d="M3.3123 2.25C2.10429 2.25 1.125 3.1944 1.125 4.35937V13.6406C1.125 14.8056 2.10429 15.75 3.3123 15.75H14.6877C15.8957 15.75 16.875 14.8056 16.875 13.6406V4.35937C16.875 3.1944 15.8957 2.25 14.6877 2.25H3.3123ZM11.8436 5.11575C12.0144 4.951 12.2914 4.951 12.4623 5.11575L12.7176 5.36209L12.9731 5.11575C13.1439 4.951 13.4209 4.951 13.5918 5.11575C13.7626 5.28051 13.7626 5.54762 13.5918 5.71237L13.3363 5.95871L13.5918 6.20504C13.7626 6.36979 13.7626 6.63692 13.5918 6.80167C13.4209 6.96642 13.1439 6.96642 12.9731 6.80167L12.7176 6.55534L12.4623 6.80167C12.2914 6.96642 12.0144 6.96642 11.8436 6.80167C11.6727 6.63692 11.6727 6.36979 11.8436 6.20504L12.099 5.95871L11.8436 5.71237C11.6727 5.54762 11.6727 5.28051 11.8436 5.11575ZM13.8261 8.74983C13.9969 8.58504 13.9969 8.31791 13.826 8.15321C13.6551 7.98843 13.3781 7.98851 13.2073 8.1533L12.4421 8.89149L12.229 8.68596C12.0582 8.52126 11.7812 8.52117 11.6104 8.68587C11.4395 8.85066 11.4395 9.1177 11.6103 9.28249L12.1327 9.78646C12.2147 9.8656 12.3259 9.91007 12.4421 9.91007C12.5581 9.91007 12.6694 9.8656 12.7514 9.78646L13.8261 8.74983ZM13.8261 11.7344C13.9969 11.5696 13.9969 11.3026 13.826 11.1378C13.6551 10.9731 13.3781 10.9731 13.2073 11.1379L12.4421 11.8761L12.229 11.6706C12.0582 11.5059 11.7812 11.5059 11.6104 11.6706C11.4395 11.8353 11.4395 12.1024 11.6103 12.2672L12.1327 12.7711C12.2147 12.8503 12.3259 12.8947 12.4421 12.8947C12.5581 12.8947 12.6694 12.8503 12.7514 12.7711L13.8261 11.7344ZM4.18893 6.0615C4.18893 5.8285 4.38478 5.63962 4.62639 5.63962H9.001C9.24256 5.63962 9.43846 5.8285 9.43846 6.0615C9.43846 6.2945 9.24256 6.48337 9.001 6.48337H4.62639C4.38478 6.48337 4.18893 6.2945 4.18893 6.0615ZM4.62639 11.5327C4.38478 11.5327 4.18893 11.7216 4.18893 11.9546C4.18893 12.1876 4.38478 12.3764 4.62639 12.3764H9.001C9.24256 12.3764 9.43846 12.1876 9.43846 11.9546C9.43846 11.7216 9.24256 11.5327 9.001 11.5327H4.62639ZM4.18893 9.02633C4.18893 8.79337 4.38478 8.60445 4.62639 8.60445L9.001 8.60453C9.24256 8.60453 9.43846 8.79337 9.43846 9.02641C9.43846 9.25937 9.24256 9.44828 9.001 9.44828L4.62639 9.4482C4.38478 9.4482 4.18893 9.25937 4.18893 9.02633Z" fill="#999999"/>
</svg>
