<?xml version="1.0" encoding="utf-8"?>
<!-- Generator: Adobe Illustrator 18.0.0, SVG Export Plug-In . SVG Version: 6.00 Build 0)  -->
<!DOCTYPE svg PUBLIC "-//W3C//DTD SVG 1.1//EN" "http://www.w3.org/Graphics/SVG/1.1/DTD/svg11.dtd">
<svg version="1.1" id="Layer_1" xmlns="http://www.w3.org/2000/svg" xmlns:xlink="http://www.w3.org/1999/xlink" x="0px" y="0px"
	 viewBox="0 0 210 250" enable-background="new 0 0 210 250" xml:space="preserve">
<circle fill="#41A884" cx="106.4" cy="126.1" r="97.2"/>
<path fill-rule="evenodd" clip-rule="evenodd" fill="#FFF4E4" d="M160.2,178.8c0,3-2.4,5.4-5.4,5.4h-99c-3,0-5.4-2.4-5.4-5.4v-99
	c0-3,2.4-5.4,5.4-5.4h99c3,0,5.4,2.4,5.4,5.4V178.8z"/>
<g>
	<defs>
		<path id="SVGID_1_" d="M151.2,158.1c0,2.5-2,4.5-4.5,4.5H63.8c-2.5,0-4.5-2-4.5-4.5v-57.7c0-2.5,2-4.5,4.5-4.5h82.9
			c2.5,0,4.5,2,4.5,4.5V158.1z"/>
	</defs>
	<clipPath id="SVGID_2_">
		<use xlink:href="#SVGID_1_"  overflow="visible"/>
	</clipPath>
	<g clip-path="url(#SVGID_2_)">
		<polygon fill="#DBF0F5" points="154.9,163.5 55.5,163.4 55.6,94.3 155.1,94.4 		"/>
		<path fill="#6CC077" d="M153.8,151.1l-13.4-13.5c0,0-3.9-5-7.4-4.8c-3.2,0.2-7,4.2-7.7,5l-4.5-4.5c0,0-4.5-5.8-8.7-5.6
			c-4.2,0.2-9.2,6.1-9.2,6.1l-1.4,1.4l-8.5-8.5c0,0-5.5-7.2-10.7-6.9c-5.2,0.3-11.3,7.5-11.3,7.5l-14.3,14.3l0,20.8l97.2,0.1
			L153.8,151.1z"/>
		<path fill="#67B8CB" d="M111.3,111.8c0-0.1,0.1-0.2,0.1-0.3c0-1.8-1.9-3.2-4.3-3.2c-0.3,0-0.6,0.1-0.9,0.1c-0.7-0.9-2-1.6-3.5-1.6
			c-2,0-3.6,1.1-4,2.5c-1.9,0.4-3.4,1.6-3.4,3.2c0,1.5,1.3,2.7,3.1,3.2c0.6,1.4,2.3,2.4,4.3,2.4c1.8,0,3.4-0.8,4.1-2
			c0.5,0.2,1,0.3,1.5,0.3c2.1,0,3.8-1.3,3.8-2.8C112.2,112.8,111.8,112.3,111.3,111.8z"/>
		<path fill="#67B8CB" d="M131.3,115.8c0-0.1-0.1-0.1-0.1-0.2c0-1.3,1.4-2.3,3-2.3c0.2,0,0.4,0.1,0.6,0.1c0.5-0.7,1.4-1.1,2.5-1.1
			c1.4,0,2.6,0.8,2.8,1.8c1.4,0.3,2.4,1.2,2.4,2.3c0,1.1-0.9,1.9-2.2,2.3c-0.4,1-1.6,1.7-3,1.7c-1.3,0-2.4-0.6-2.9-1.4
			c-0.3,0.1-0.7,0.2-1.1,0.2c-1.5,0-2.7-0.9-2.7-2C130.7,116.6,130.9,116.2,131.3,115.8z"/>
	</g>
</g>
</svg>
