<svg xmlns="http://www.w3.org/2000/svg" id="Layer_1" viewBox="0 0 18 18">
  <style>
    .st0{fill:#FFFFFF;} .st1{fill:#565656;}
  </style>
  <path d="M17.9 5.3c0-.7-.2-1.5-.4-2.2-.2-.6-.6-1.1-1-1.6s-1-.8-1.6-1c-.7-.3-1.4-.4-2.2-.4C11.8 0 11.4 0 9 0S6.2 0 5.3.1c-.7 0-1.5.2-2.2.4-.6.2-1.1.6-1.6 1s-.8 1-1 1.6C.2 3.8.1 4.5.1 5.3 0 6.2 0 6.6 0 9s0 2.8.1 3.7c0 .7.2 1.5.4 2.2.2.6.6 1.1 1 1.6s1 .8 1.6 1c.7.3 1.4.4 2.2.4.9.1 1.3.1 3.7.1s2.8 0 3.7-.1c.7 0 1.5-.2 2.2-.4 1.2-.5 2.2-1.4 2.6-2.6.3-.7.4-1.4.4-2.2 0-1 .1-1.3.1-3.7s0-2.7-.1-3.7z" class="st0"/>
  <path d="M16.3 12.6c0 .6-.1 1.1-.3 1.7-.3.8-.9 1.4-1.7 1.7-.5.2-1.1.3-1.7.3H5.4c-.6 0-1.1-.1-1.7-.3-.4-.1-.7-.4-1-.7-.3-.3-.5-.6-.7-1-.2-.5-.3-1.1-.3-1.7 0-.9-.1-1.2-.1-3.6s0-2.7.1-3.6c0-.6.1-1.1.3-1.7.1-.4.4-.7.7-1 .3-.3.6-.5 1-.7.5-.2 1.1-.3 1.7-.3.9 0 1.2-.1 3.6-.1s2.7 0 3.6.1c.6 0 1.1.1 1.7.3.4.1.7.4 1 .7.3.3.5.6.7 1 .2.5.3 1.1.3 1.7 0 .9.1 1.2.1 3.6s0 2.7-.1 3.6z" class="st1"/>
  <path d="M9 4.4c-2.6-.1-4.7 2-4.7 4.5s2 4.7 4.5 4.7H9c2.6-.1 4.6-2.2 4.5-4.7-.1-2.5-2-4.5-4.5-4.5z" class="st0"/>
  <circle cx="9" cy="9" r="3" class="st1"/>
  <path d="M14.9 4.2c0 .6-.5 1.1-1.1 1.1-.6 0-1.1-.5-1.1-1.1 0-.6.5-1.1 1.1-1.1.6 0 1.1.5 1.1 1.1z" class="st0"/>
</svg>
