<?xml version="1.0" encoding="utf-8"?>
<!-- Generator: Adobe Illustrator 19.1.0, SVG Export Plug-In . SVG Version: 6.00 Build 0)  -->
<svg version="1.1" id="Layer_1" xmlns="http://www.w3.org/2000/svg" xmlns:xlink="http://www.w3.org/1999/xlink" x="0px" y="0px"
	 viewBox="0 0 100 100" style="enable-background:new 0 0 100 100;" xml:space="preserve">
<style type="text/css">
	.st0{fill:#8BC34A;}
	.st1{fill:#FFFFFF;}
</style>
<ellipse class="st0" cx="49.8" cy="50.1" rx="49.5" ry="49.5"/>
<path class="st1" d="M76.3,48c0.8,0.8,1.2,1.9,1.2,3.2s-0.4,2.3-1.2,3.1c-0.8,0.8-1.9,1.2-3.2,1.2H54.5v18.6c0,1.3-0.4,2.4-1.2,3.2
	c-0.8,0.8-1.9,1.2-3.2,1.2s-2.3-0.4-3.2-1.2c-0.8-0.8-1.3-1.9-1.3-3.2V55.5H27c-1.3,0-2.3-0.4-3.1-1.2c-0.8-0.8-1.2-1.8-1.2-3.1
	s0.4-2.3,1.2-3.2c0.8-0.8,1.8-1.3,3.1-1.3h18.6V28.1c0-1.3,0.4-2.3,1.3-3.2c0.8-0.8,1.9-1.2,3.2-1.2s2.3,0.4,3.2,1.2
	c0.8,0.8,1.2,1.9,1.2,3.2v18.6H73C74.4,46.7,75.4,47.1,76.3,48z"/>
</svg>
