<?xml version="1.0" encoding="utf-8"?>
<!-- Generator: Adobe Illustrator 19.1.0, SVG Export Plug-In . SVG Version: 6.00 Build 0)  -->
<svg version="1.1" xmlns="http://www.w3.org/2000/svg" xmlns:xlink="http://www.w3.org/1999/xlink" x="0px" y="0px"
	 viewBox="0 0 100 100" style="enable-background:new 0 0 100 100;" xml:space="preserve">
<style type="text/css">
	.st0{display:none;}
	.st1{display:inline;}
	.st2{display:none;fill:#999999;}
	.st3{fill:#999999;}
</style>
<g id="Layer_2" class="st0">
	
		<image style="display:inline;overflow:visible;" width="176" height="180" xlink:href="../../../../../../Desktop/Screen Shot 2015-11-05 at 22.07.12.png"  transform="matrix(0.5 0 0 0.5 6.9214 7.3348)">
	</image>
</g>
<g id="Layer_1" class="st0">
	<rect x="56.7" y="31" transform="matrix(0.7071 0.7071 -0.7071 0.7071 42.9787 -37.6502)" class="st1" width="20.6" height="4.1"/>
	<rect x="40.3" y="27.3" transform="matrix(0.7071 0.7071 -0.7071 0.7071 46.1433 -17.679)" class="st1" width="8.2" height="39"/>
	<path class="st1" d="M18.5,78.8c-0.3,0.8-0.1,1.6,0.5,2.2c0.6,0.6,1.4,0.8,2.2,0.5l17.6-6.8L25.3,61.2L18.5,78.8z"/>
	<path class="st1" d="M80,34.5c4-4,4-10.5,0-14.5c-4-4-10.5-4-14.5,0L64,21.4L78.6,36L80,34.5z"/>
	<rect x="49" y="36.1" transform="matrix(-0.7071 -0.7071 0.7071 -0.7071 51.4003 132.4502)" class="st1" width="8.2" height="39"/>
</g>
<g id="Layer_3">
	<ellipse class="st2" cx="49.8" cy="50.1" rx="49.5" ry="49.5"/>
	<path class="st3" d="M81.3,47.3c0.7,0.7,1.2,1.8,1.2,2.9c0,1.1-0.4,2.1-1.2,2.9L56.4,78.1c-1.6,1.6-4.3,1.6-5.9,0
		c-1.6-1.6-1.6-4.3,0-5.9l17.8-17.8H20.2c-2.3,0-4.2-1.9-4.2-4.2c0-2.3,1.9-4.2,4.2-4.2h48.1L50.5,28.2c-1.6-1.6-1.6-4.3,0-5.9
		c1.6-1.6,4.3-1.6,5.9,0L81.3,47.3z"/>
</g>
</svg>
