<svg xmlns="http://www.w3.org/2000/svg" width="480.484" height="480.562" viewBox="0 0 480.484 480.562">
  <g id="new-yellow" transform="translate(-31.016 0.5)">
    <g id="Group_221" data-name="Group 221">
      <path id="Path_128" data-name="Path 128" d="M31.5-.5H446.878c11.705,2.375,35.536,7.945,48.33,20.9,12.547,12.7,14,32.838,16.292,44.129V479.5c-2.248,8.86-150.752-88.185-276.894-214.815C144.533,174.264,67.062,65.728,40.531,20.448,33.046,7.675,29.683-.039,31.5-.5Z" fill="#ffc108" fill-rule="evenodd" opacity="0.994"/>
    </g>
    <g id="Group_222" data-name="Group 222" transform="translate(12 -14)">
      <path id="Path_129" data-name="Path 129" d="M240.5,42.5q12.417-2.049,15,10-7.03,36.9-15,73.5a1.25,1.25,0,0,0,2,0q20.592-21.6,43-41Q299,85,298,98.5l-3,5q-32.791,33.292-66.5,65.5-17.919,2.575-14.5-15.5,7.1-33.994,13-68-20.294,20.794-41.5,40.5-16.287,3.219-14.5-13.5Q205.05,76.7,240.5,42.5Z" fill="#faf9f7" fill-rule="evenodd"/>
    </g>
    <g id="Group_223" data-name="Group 223" transform="translate(12 -14)">
      <path id="Path_130" data-name="Path 130" d="M315.5,117.5a20.88,20.88,0,0,1,10,1.5L361,154.5q3.573,15.588-12.5,15.5l-5-3q-11.547-11.046-22-23a2.5,2.5,0,0,0-3,0q-7.773,7.522-15,15.5,7.47,9.221,15.5,18,1.25,14.749-13.5,13.5a132.068,132.068,0,0,1-18-15.5,181.106,181.106,0,0,0-16,16q13.025,13.273,25.5,27,2.75,17.25-14.5,14.5A323.147,323.147,0,0,1,246,195.5a16.242,16.242,0,0,1,0-8l34-36Q298.048,134.7,315.5,117.5Z" fill="#faf9f6" fill-rule="evenodd"/>
    </g>
    <g id="Group_224" data-name="Group 224" transform="translate(12 -14)">
      <path id="Path_131" data-name="Path 131" d="M368.5,170.5q14.055-1.666,14.5,12-14.733,32.718-31.5,64.5,19.035-5.343,38-12,16.555-2.888,14.5,13.5L391.5,286l1,1.5q31.082-16.541,63-31.5,11.3-1.194,13,10a11.622,11.622,0,0,1-6,10q-44.482,22.992-90,43.5-9.52-1.773-10-11.5,6.854-22.807,14-45.5-23.274,6.84-46.5,14-13.746-2.707-9-16l42-84A47.836,47.836,0,0,1,368.5,170.5Z" fill="#faf9f7" fill-rule="evenodd"/>
    </g>
  </g>
</svg>
