<svg width="16" height="16" viewBox="0 0 16 16" fill="none" xmlns="http://www.w3.org/2000/svg">
<g clip-path="url(#clip0_1550_879)">
<path d="M0.284351 0.0523423C0.128101 0.133592 0.0531006 0.252342 0.0531006 0.417967C0.0531006 0.580467 0.118726 0.696092 0.259351 0.780467C0.524976 0.942967 0.874976 0.752342 0.881226 0.446092C0.884351 0.117967 0.562476 -0.0945327 0.284351 0.0523423Z" fill="#999999"/>
<path d="M1.99684 0.0724528C1.76246 0.228703 1.72809 0.500578 1.91559 0.709953C2.17184 0.988078 2.62496 0.803703 2.62496 0.422453C2.62496 0.0912028 2.26559 -0.108797 1.99684 0.0724528Z" fill="#999999"/>
<path d="M3.75628 0.0631449C3.55315 0.188145 3.4844 0.40377 3.58128 0.613145C3.71878 0.900645 4.1469 0.92252 4.31253 0.64752C4.53753 0.281895 4.11878 -0.155605 3.75628 0.0631449Z" fill="#999999"/>
<path d="M5.50943 0.0505948C5.21568 0.194345 5.20943 0.64747 5.49693 0.79747C5.86568 0.988095 6.27506 0.575595 6.06256 0.225595C5.93756 0.0224698 5.71256 -0.0494052 5.50943 0.0505948Z" fill="#999999"/>
<path d="M7.25943 0.0464823C6.96568 0.171482 6.95943 0.646482 7.24693 0.796482C7.64068 0.996482 8.05006 0.518357 7.77818 0.174607C7.64693 0.00898228 7.45631 -0.0378927 7.25943 0.0464823Z" fill="#999999"/>
<path d="M10.9062 0.0334147C10.8125 0.0709147 9.54687 1.32404 9.48124 1.44279C9.42187 1.55529 9.42499 1.69591 9.48749 1.82091C9.54374 1.93341 10.6031 3.01779 10.7937 3.15841C11.0281 3.33341 11.3469 3.25216 11.45 2.99591C11.5375 2.77404 11.4969 2.68029 11.1781 2.34904L10.8937 2.06154H11.9812C13.2375 2.06154 13.3844 2.08029 13.8281 2.29591C14.2969 2.52404 14.6062 2.81466 14.8594 3.26466C15.0844 3.67091 15.1031 3.77716 15.1219 4.88966C15.1437 6.03654 15.1469 6.05216 15.3937 6.16154C15.6281 6.26466 15.8562 6.17091 15.95 5.93654C15.9906 5.83341 16 5.68029 16 5.09591C16 4.70216 15.9844 4.23966 15.9687 4.06466C15.8937 3.33029 15.6094 2.71466 15.1 2.18029C14.7844 1.84904 14.3531 1.56154 13.9562 1.41466C13.4844 1.24279 13.4687 1.23966 12.15 1.22716C11.4656 1.21779 10.9062 1.20216 10.9062 1.19279C10.9062 1.18029 11.025 1.04904 11.1719 0.90529C11.4594 0.620915 11.5125 0.51779 11.4687 0.327165C11.4125 0.0771647 11.1469 -0.0603353 10.9062 0.0334147Z" fill="#999999"/>
<path d="M0.259351 1.8123C0.118726 1.89667 0.0531006 2.0123 0.0531006 2.17167C0.0531006 2.49667 0.406226 2.6998 0.678101 2.53105C0.818726 2.44667 0.881226 2.3373 0.881226 2.17167C0.881226 2.09042 0.856226 1.99355 0.828101 1.9498C0.756226 1.8373 0.596851 1.7498 0.468726 1.7498C0.409351 1.7498 0.315601 1.77792 0.259351 1.8123Z" fill="#999999"/>
<path d="M7.22816 1.80937C6.86879 2.0375 7.03441 2.59375 7.46254 2.59375C7.58754 2.59375 7.75629 2.475 7.82504 2.33437C7.90004 2.17812 7.87191 2.02812 7.73754 1.88437C7.60629 1.74062 7.38754 1.70937 7.22816 1.80937Z" fill="#999999"/>
<path d="M0.296878 3.52733C0.0281276 3.64608 -0.0343724 4.04295 0.187503 4.23045C0.590628 4.56795 1.125 4.02108 0.771877 3.6367C0.684377 3.53983 0.643752 3.52108 0.512502 3.5117C0.428128 3.50545 0.331253 3.5117 0.296878 3.52733Z" fill="#999999"/>
<path d="M7.22808 3.56321C6.95308 3.72884 6.97183 4.15696 7.25933 4.29134C7.3937 4.35696 7.4687 4.35696 7.6062 4.30071C7.82183 4.21009 7.91558 3.98196 7.82808 3.75696C7.7312 3.52259 7.44683 3.42884 7.22808 3.56321Z" fill="#999999"/>
<path d="M0.249954 5.30258C0.0124544 5.46508 -0.0156706 5.77758 0.190579 5.97133C0.409329 6.17446 0.759329 6.08696 0.856204 5.79946C0.915579 5.63071 0.871829 5.47758 0.737454 5.34946C0.643704 5.26508 0.603079 5.24946 0.474954 5.24946C0.387454 5.24946 0.296829 5.27133 0.249954 5.30258Z" fill="#999999"/>
<path d="M7.15313 5.37135C7.04688 5.4776 7.03125 5.50885 7.03125 5.6401C7.03125 5.83072 7.10625 5.9526 7.275 6.03385C7.49688 6.14322 7.7375 6.0526 7.83125 5.82447C7.8875 5.68697 7.8875 5.61197 7.82188 5.4776C7.75313 5.3276 7.61563 5.24947 7.425 5.24947C7.29063 5.24947 7.25938 5.26197 7.15313 5.37135Z" fill="#999999"/>
<path d="M0.350035 6.99062C0.243785 7.0125 0.0625353 7.20625 0.0562853 7.30625C0.0406603 7.625 0.19066 7.8125 0.468785 7.8125C0.706285 7.8125 0.87816 7.64687 0.881285 7.4125C0.88441 7.12812 0.637535 6.93125 0.350035 6.99062Z" fill="#999999"/>
<path d="M2.08119 7C1.88744 7.05937 1.75619 7.27812 1.79994 7.475C1.84682 7.7 1.99369 7.8125 2.23744 7.8125C2.36557 7.8125 2.39682 7.79687 2.50307 7.69062C2.60932 7.58437 2.62494 7.55312 2.62494 7.42187C2.62494 7.23437 2.54994 7.10937 2.39057 7.03125C2.24994 6.9625 2.21869 6.95937 2.08119 7Z" fill="#999999"/>
<path d="M3.82182 7.00312C3.76869 7.01875 3.68744 7.075 3.64369 7.125C3.40307 7.4125 3.59369 7.8125 3.96869 7.8125C4.42494 7.8125 4.52807 7.19375 4.10307 7.0125C3.99057 6.9625 3.96244 6.9625 3.82182 7.00312Z" fill="#999999"/>
<path d="M5.54686 7.0121C5.24061 7.15272 5.19373 7.54022 5.45623 7.74647C5.64373 7.89335 5.98748 7.79647 6.08436 7.57147C6.22498 7.22772 5.87498 6.8621 5.54686 7.0121Z" fill="#999999"/>
<path d="M7.26557 7.025C6.99682 7.15 6.94682 7.50625 7.1687 7.70937C7.26245 7.79687 7.30307 7.8125 7.42807 7.8125C7.61557 7.8125 7.75307 7.73125 7.82495 7.57812C7.9937 7.22187 7.62495 6.85937 7.26557 7.025Z" fill="#999999"/>
<path d="M8.32498 8.24687C8.11248 8.375 8.12498 8.14062 8.12498 12.0844C8.12498 16.0531 8.10935 15.775 8.3406 15.9281V15.9281C8.40985 15.975 8.49153 16 8.57513 16H12.0281C15.375 16 15.6156 15.9969 15.7156 15.9437C15.775 15.9156 15.8531 15.85 15.8875 15.8031C15.9531 15.7156 15.9531 15.7062 15.9531 12.1C15.9531 8.6125 15.95 8.48125 15.8937 8.3875C15.7656 8.17187 16.05 8.1875 12.0406 8.1875C8.55623 8.1875 8.41873 8.19062 8.32498 8.24687ZM15.0937 12.0938V14.1562C15.0937 14.7085 14.646 15.1562 14.0937 15.1562H12.0312H9.96873C9.41644 15.1562 8.96873 14.7085 8.96873 14.1563V12.0938V10.0313C8.96873 9.47897 9.41644 9.03125 9.96873 9.03125H12.0312H14.0937C14.646 9.03125 15.0937 9.47897 15.0937 10.0312V12.0938Z" fill="#999999"/>
<path d="M0.25625 9.84371C0.153125 9.89058 0.109375 9.93433 0.0625 10.0375C0.00625 10.1593 0 10.2468 0 10.8937C0 11.2937 0.015625 11.7593 0.03125 11.9343C0.10625 12.6562 0.3875 13.275 0.875 13.7937C1.30312 14.2468 1.73125 14.5031 2.39062 14.6968C2.59062 14.7562 2.7125 14.7625 3.85312 14.7718C4.53437 14.7812 5.09375 14.7968 5.09375 14.8062C5.09375 14.8187 4.975 14.95 4.82812 15.0937C4.525 15.3937 4.46875 15.5125 4.52812 15.6968C4.57187 15.8218 4.7125 15.9593 4.83125 15.9875C4.87187 15.9968 4.95937 15.9968 5.025 15.9843C5.12187 15.9656 5.24062 15.8625 5.80625 15.3031C6.175 14.9375 6.49375 14.6031 6.51875 14.5562C6.57187 14.4562 6.575 14.3187 6.53125 14.2C6.49375 14.1062 5.4875 13.0687 5.24062 12.8718C5.1125 12.7718 5.06562 12.75 4.94687 12.75C4.75625 12.75 4.61562 12.8406 4.55 13.0031C4.4625 13.225 4.50312 13.3187 4.82187 13.6468L5.10625 13.9375H4.01875C2.78437 13.9375 2.62187 13.9187 2.19687 13.7187C1.60312 13.4406 1.18125 12.9687 0.975 12.3531C0.896875 12.1156 0.89375 12.0781 0.875 11.1093C0.85625 9.97183 0.853125 9.94996 0.615625 9.84058C0.453125 9.76871 0.421875 9.76871 0.25625 9.84371Z" fill="#999999"/>
</g>
<defs>
<clipPath id="clip0_1550_879">
<rect width="16" height="16" fill="white"/>
</clipPath>
</defs>
</svg>
