<?xml version="1.0" encoding="utf-8"?>
<!-- Generator: Adobe Illustrator 17.1.0, SVG Export Plug-In . SVG Version: 6.00 Build 0)  -->
<!DOCTYPE svg PUBLIC "-//W3C//DTD SVG 1.1//EN" "http://www.w3.org/Graphics/SVG/1.1/DTD/svg11.dtd">
<svg version="1.1" id="Layer_1" xmlns="http://www.w3.org/2000/svg" xmlns:xlink="http://www.w3.org/1999/xlink" x="0px" y="0px"
	 viewBox="0 0 137 137" enable-background="new 0 0 137 137" xml:space="preserve">
<g id="Layer_3">
	<g>
		<circle fill="#507F6F" cx="67.8" cy="68.8" r="63.4"/>
		<g display="none">
			<path display="inline" fill="#357180" d="M112.1,98.6c0,0.6-0.5,1.2-1.2,1.2H27.3c-0.6,0-1.2-0.5-1.2-1.2V39.4
				c0-0.6,0.5-1.2,1.2-1.2h83.5c0.6,0,1.2,0.5,1.2,1.2C112.1,39.4,112.1,98.6,112.1,98.6z"/>
			<rect x="66.8" y="38.2" display="inline" fill="#27636D" width="4.7" height="61.6"/>
			<polygon display="inline" fill="#D7D7BF" points="69.1,41.2 29.3,41.2 29.3,96.7 69.1,96.7 109,96.7 109,41.2 			"/>
			<rect x="66.9" y="41.2" display="inline" fill="#C5C3AE" width="4.5" height="55.6"/>
			<polygon display="inline" fill="#E7E7D6" points="69.1,96.7 30.9,95.1 30.9,39.4 69.1,41.2 			"/>
			<polygon display="inline" fill="#E7E7D6" points="107.4,95.1 69.1,96.7 69.1,41.2 107.4,39.4 			"/>
			<rect x="68.9" y="42.5" display="inline" fill="#DCDDD8" width="0.5" height="54.3"/>
			<g display="inline">
				<path fill="#B9B9BA" d="M66.1,49.1c0,0.7-0.6,1.3-1.2,1.3l-29.5-0.9c-0.7,0-1.2-0.6-1.2-1.3l0,0c0-0.7,0.6-1.3,1.2-1.3l29.5,0.9
					C65.6,47.8,66.1,48.4,66.1,49.1L66.1,49.1z"/>
				<path fill="#B9B9BA" d="M66.1,54.4c0,0.7-0.6,1.3-1.2,1.3l-29.5-0.9c-0.7,0-1.2-0.6-1.2-1.3l0,0c0-0.7,0.6-1.3,1.2-1.3l29.5,0.9
					C65.6,53.1,66.1,53.7,66.1,54.4L66.1,54.4z"/>
				<path fill="#B9B9BA" d="M66.1,59.6c0,0.7-0.6,1.3-1.2,1.3L35.4,60c-0.7,0-1.2-0.6-1.2-1.3l0,0c0-0.7,0.6-1.3,1.2-1.3l29.5,0.9
					C65.6,58.3,66.1,58.9,66.1,59.6L66.1,59.6z"/>
				<path fill="#B9B9BA" d="M66.1,64.9c0,0.7-0.6,1.3-1.2,1.3l-29.5-0.9c-0.7,0-1.2-0.6-1.2-1.3l0,0c0-0.7,0.6-1.3,1.2-1.3l29.5,0.9
					C65.6,63.6,66.1,64.2,66.1,64.9L66.1,64.9z"/>
				<path fill="#B9B9BA" d="M66.1,70.3c0,0.7-0.6,1.3-1.2,1.3l-29.5-0.9c-0.7,0-1.2-0.6-1.2-1.3l0,0c0-0.7,0.6-1.3,1.2-1.3L64.9,69
					C65.6,69,66.1,69.6,66.1,70.3L66.1,70.3z"/>
				<path fill="#B9B9BA" d="M66.1,75.6c0,0.7-0.6,1.3-1.2,1.3L35.4,76c-0.7,0-1.2-0.6-1.2-1.3l0,0c0-0.7,0.6-1.3,1.2-1.3l29.5,0.9
					C65.6,74.3,66.1,74.9,66.1,75.6L66.1,75.6z"/>
				<path fill="#B9B9BA" d="M66.1,80.7c0,0.7-0.6,1.3-1.2,1.3l-29.5-0.9c-0.7,0-1.2-0.6-1.2-1.3l0,0c0-0.7,0.6-1.3,1.2-1.3l29.5,0.9
					C65.6,79.4,66.1,80,66.1,80.7L66.1,80.7z"/>
				<path fill="#B9B9BA" d="M66.1,86c0,0.7-0.6,1.3-1.2,1.3l-29.5-0.9c-0.7,0-1.2-0.6-1.2-1.3l0,0c0-0.7,0.6-1.3,1.2-1.3l29.5,0.9
					C65.6,84.7,66.1,85.3,66.1,86L66.1,86z"/>
			</g>
			<g display="inline">
				<path fill="#B9B9BA" d="M72.3,49.1c0,0.7,0.6,1.3,1.2,1.3l29.5-0.9c0.7,0,1.2-0.6,1.2-1.3l0,0c0-0.7-0.6-1.3-1.2-1.3l-29.5,0.9
					C72.9,47.8,72.3,48.4,72.3,49.1L72.3,49.1z"/>
				<path fill="#B9B9BA" d="M72.3,54.4c0,0.7,0.6,1.3,1.2,1.3l29.5-0.9c0.7,0,1.2-0.6,1.2-1.3l0,0c0-0.7-0.6-1.3-1.2-1.3l-29.4,0.9
					C72.9,53.1,72.3,53.7,72.3,54.4L72.3,54.4z"/>
				<path fill="#B9B9BA" d="M72.3,59.6c0,0.7,0.6,1.3,1.2,1.3L103,60c0.7,0,1.2-0.6,1.2-1.3l0,0c0-0.7-0.6-1.3-1.2-1.3l-29.5,0.9
					C72.9,58.3,72.3,58.9,72.3,59.6L72.3,59.6z"/>
				<path fill="#B9B9BA" d="M72.3,64.9c0,0.7,0.6,1.3,1.2,1.3l29.5-0.9c0.7,0,1.2-0.6,1.2-1.3l0,0c0-0.7-0.6-1.3-1.2-1.3l-29.5,0.9
					C72.9,63.6,72.3,64.2,72.3,64.9L72.3,64.9z"/>
				<path fill="#B9B9BA" d="M72.3,70.3c0,0.7,0.6,1.3,1.2,1.3l29.5-0.9c0.7,0,1.2-0.6,1.2-1.3l0,0c0-0.7-0.6-1.3-1.2-1.3L73.5,69
					C72.9,69,72.3,69.6,72.3,70.3L72.3,70.3z"/>
				<path fill="#B9B9BA" d="M72.3,75.6c0,0.7,0.6,1.3,1.2,1.3L103,76c0.7,0,1.2-0.6,1.2-1.3l0,0c0-0.7-0.6-1.3-1.2-1.3l-29.5,0.9
					C72.9,74.3,72.3,74.9,72.3,75.6L72.3,75.6z"/>
				<path fill="#B9B9BA" d="M72.3,80.7c0,0.7,0.6,1.3,1.2,1.3l29.5-0.9c0.7,0,1.2-0.6,1.2-1.3l0,0c0-0.7-0.6-1.3-1.2-1.3l-29.5,0.9
					C72.9,79.4,72.3,80,72.3,80.7L72.3,80.7z"/>
				<path fill="#B9B9BA" d="M72.3,86c0,0.7,0.6,1.3,1.2,1.3l29.5-0.9c0.7,0,1.2-0.6,1.2-1.3l0,0c0-0.7-0.6-1.3-1.2-1.3l-29.5,0.9
					C72.9,84.7,72.3,85.3,72.3,86L72.3,86z"/>
			</g>
		</g>
	</g>
</g>
<g>
	<g>
		<g>
			<g>
				<g>
					<path fill="#F1F0EE" d="M43.6,30.1c-2.4,0-4.3,1.9-4.3,4.3V103c0,2.4,1.9,4.3,4.3,4.3h49.3c2.4,0,4.3-1.9,4.3-4.3V50L76.5,30.1
						H43.6z"/>
				</g>
			</g>
		</g>
		<g>
			<g>
				<path fill="#CCCCCC" d="M97.1,50.1H80.8c-2.4,0-4.3-1.9-4.3-4.3V30.1L97.1,50.1z"/>
			</g>
		</g>
		<g>
			<g>
				<path fill="#B9B9BA" d="M91.1,55.9c0,0.7-0.6,1.3-1.3,1.3H47c-0.7,0-1.3-0.6-1.3-1.3l0,0c0-0.7,0.6-1.3,1.3-1.3h42.9
					C90.5,54.6,91.1,55.2,91.1,55.9L91.1,55.9z"/>
			</g>
		</g>
		<g>
			<g>
				<path fill="#B9B9BA" d="M91.1,62.9c0,0.7-0.6,1.3-1.3,1.3H47c-0.7,0-1.3-0.6-1.3-1.3l0,0c0-0.7,0.6-1.3,1.3-1.3h42.9
					C90.5,61.6,91.1,62.2,91.1,62.9L91.1,62.9z"/>
			</g>
		</g>
		<g>
			<g>
				<path fill="#B9B9BA" d="M91.1,69.6c0,0.7-0.6,1.3-1.3,1.3H47c-0.7,0-1.3-0.6-1.3-1.3l0,0c0-0.7,0.6-1.3,1.3-1.3h42.9
					C90.5,68.3,91.1,68.9,91.1,69.6L91.1,69.6z"/>
			</g>
		</g>
		<g>
			<g>
				<path fill="#B9B9BA" d="M91.1,76.6c0,0.7-0.6,1.3-1.3,1.3H47c-0.7,0-1.3-0.6-1.3-1.3l0,0c0-0.7,0.6-1.3,1.3-1.3h42.9
					C90.5,75.3,91.1,75.9,91.1,76.6L91.1,76.6z"/>
			</g>
		</g>
		<g>
			<g>
				<path fill="#B9B9BA" d="M69.4,82.3H47c-0.7,0-1.3,0.6-1.3,1.3c0,0.7,0.6,1.3,1.3,1.3h22.4c0.7,0,1.3-0.6,1.3-1.3
					C70.7,82.9,70.1,82.3,69.4,82.3z"/>
			</g>
		</g>
	</g>
</g>
</svg>
