<svg xmlns="http://www.w3.org/2000/svg" id="Layer_1" viewBox="0 0 100 100"><style>.st0{fill:#8BC34A;} .st1{fill:#F7D98B;} .st2{fill:#626463;} .st3{fill:#DCEDC8;} .st4{fill:#4CAF50;}</style><ellipse cx="50" cy="50" class="st0" rx="49.7" ry="49.7"/><path d="M76.9 22.9l-46 25.6-2.4 2.2 22.7 21.6 1.6-1.9z" class="st1"/><path d="M77 22.7L57 33.8l9.6 9.7z" class="st2"/><path d="M53.3 67.1l-6.8.4-24 23.9c2 1.3 4 2.4 6.2 3.4l22.6-22.6 2-5.1zM14.4 84.7L39 60.1l.3-6.9-6.7.6-24 24c1.7 2.4 3.7 4.7 5.8 6.9z" class="st3"/><path d="M32.6 53.7l.9-6.3-4.5 2.7-23 23c.8 1.6 1.7 3.1 2.7 4.5l23.9-23.9zM22.5 91.4l23.9-23.9-.1-7.3-7.3-.1-24.6 24.6c2.4 2.5 5.1 4.7 8.1 6.7z" class="st4"/></svg>
