<svg xmlns="http://www.w3.org/2000/svg" viewBox="0 0 100 100" style="enable-background:new 0 0 100 100"><g style="stroke-miterlimit:10;stroke-linecap:round;stroke-linejoin:round;stroke-width:3"><g style="stroke:#999"><g style="fill:#fff"><path d="m49.9 33.4h18.4l-23.3-22.3v17.5c0 2.6 2.2 4.8 4.9 4.8z"/><path d="m49.9 33.4c-2.7 0-4.8-2.1-4.8-4.8v-17.5h-37c-2.7 0-4.8 2.1-4.8 4.8v76.9c0 2.7 2.1 4.8 4.8 4.8h55.3c2.7 0 4.8-2.1 4.8-4.8v-59.4c0 0-18.3 0-18.3 0z"/></g><path d="M17.7,66.4h35.1 M17.7,52.1h35.1 M17.7,81h35.1" style="fill:none"/></g><circle cx="79.7" cy="67" r="18.3" style="fill:#8bc34a;stroke:#8bc34a"/></g><path d="m88.5 64.5l-5.3-5.3 1.1-1.1 5.3 5.3c0 .1-1.1 1.1-1.1 1.1m-14.3 7.9l-2.1-2.1 10-10 2.1 2.1-10 10m-5.4 5.6c-.1.3 0 .6.2.8.2.2.5.3.8.2l6.4-2.5-4.9-4.9c-.1 0-2.5 6.4-2.5 6.4m22.3-16.1c1.5-1.5 1.5-3.8 0-5.3-1.5-1.5-3.8-1.5-5.3 0l-.5.5 5.3 5.3.5-.5m-5.8 1.6l2.1 2.1-10 10-2.1-2.1c0 0 10-10 10-10" style="fill:#fff"/></svg>