<svg xmlns="http://www.w3.org/2000/svg" viewBox="0 0 100 100" style="enable-background:new 0 0 100 100"><g style="stroke-miterlimit:10;stroke-width:10"><g style="fill:none;stroke:#ffcbb3"><path d="m81.3 77.6v-28.8"/><path d="m50.2 19.8v28.7"/><path d="m81.3 48.8h-31.1"/><path d="m50.2 19.8h-32.2"/></g><path d="m20.8 50.8c1.3-1.5 1-3.8-.6-5s-3.8-1-5 .6c-1.3 1.5-1 3.8.6 5 1.5 1.2 3.8.9 5-.6" style="fill:#999;stroke:#dadada"/><path d="m20.8 22.1c1.3-1.5 1-3.8-.6-5-1.5-1.3-3.8-1-5 .6-1.3 1.5-1 3.8.6 5 1.7 1.1 3.9 1 5-.6" style="fill:#c800a1;stroke:#c800a1"/><g style="fill:#ff7e41;stroke:#ff7e41"><path d="m53 22.1c1.3-1.5 1-3.8-.6-5-1.5-1.3-3.8-1-5 .6-1.3 1.5-1 3.8.6 5 1.6 1.1 3.9 1 5-.6"/><path d="m53 50.8c1.3-1.5 1-3.8-.6-5s-3.8-1-5 .6c-1.3 1.5-1 3.8.6 5 1.5 1.2 3.7.9 5-.6"/></g><g style="fill:#999;stroke:#dadada"><path d="m53.1 79.9c-1.3 1.5-3.5 1.8-5.2.6-1.5-1.3-1.8-3.5-.6-5.2 1.3-1.5 3.5-1.8 5.2-.6 1.6 1.2 1.8 3.6.6 5.2"/><path d="m83.8 22.1c1.3-1.5 1-3.8-.6-5-1.5-1.3-3.8-1-5 .6-1.3 1.5-1 3.8.6 5 1.6 1.1 3.9 1 5-.6"/></g><path d="m83.8 50.8c1.3-1.5 1-3.8-.6-5s-3.8-1-5 .6c-1.3 1.5-1 3.8.6 5 1.5 1.2 3.7.9 5-.6" style="fill:#ff7e41;stroke:#ff7e41"/><path d="m83.8 79.9c-1.3 1.5-3.5 1.8-5.2.6-1.5-1.3-1.8-3.5-.6-5.2 1.3-1.5 3.5-1.8 5.2-.6 1.6 1.2 1.9 3.6.6 5.2" style="fill:#c800a1;stroke:#c800a1"/><path d="m20.9 79.9c-1.3 1.5-3.5 1.8-5.2.6-1.5-1.3-1.8-3.5-.6-5.2 1.3-1.5 3.5-1.8 5.2-.6 1.6 1.2 1.9 3.6.6 5.2" style="fill:#999;stroke:#999"/></g></svg>