<?xml version="1.0" encoding="utf-8"?>
<!-- Generator: Adobe Illustrator 18.0.0, SVG Export Plug-In . SVG Version: 6.00 Build 0)  -->
<!DOCTYPE svg PUBLIC "-//W3C//DTD SVG 1.1//EN" "http://www.w3.org/Graphics/SVG/1.1/DTD/svg11.dtd">
<svg version="1.1" id="Layer_1" xmlns="http://www.w3.org/2000/svg" xmlns:xlink="http://www.w3.org/1999/xlink" x="0px" y="0px"
	 viewBox="0 0 210 250" enable-background="new 0 0 210 250" xml:space="preserve">
<circle fill="#DC6326" cx="105.9" cy="125.2" r="97.2"/>
<g id="bullet_points">
	<path fill="#FFFFFF" d="M176,166.2c0,4.5-3.6,8.3-8.3,8.3H47.4c-4.5,0-8.3-3.6-8.3-8.3V88.6c0-4.5,3.6-8.3,8.3-8.3H168
		c4.5,0,8.3,3.6,8.3,8.3v77.7L176,166.2L176,166.2z"/>
	<path fill="#C9C9C8" d="M163.4,122.7H125c-1.2,0-2.2,1-2.2,2.2s1,2.2,2.2,2.2h38.3c1.2,0,2.2-1,2.2-2.2
		C165.6,123.7,164.6,122.7,163.4,122.7z"/>
	<path fill="#C9C9C8" d="M163.4,110.5H125c-1.2,0-2.2,1-2.2,2.2s1,2.2,2.2,2.2h38.3c1.2,0,2.2-1,2.2-2.2
		C165.6,111.5,164.6,110.5,163.4,110.5z"/>
	<path fill="#C9C9C8" d="M163.4,135H125c-1.2,0-2.2,1-2.2,2.2s1,2.2,2.2,2.2h38.3c1.2,0,2.2-1,2.2-2.2
		C165.6,136,164.6,135,163.4,135z"/>
	<path fill="#FFFFFF" d="M128.9,105v38.4c0,1.2,1,2.2,2.2,2.2s2.2-1,2.2-2.2v-38.3c0-1.2-1-2.2-2.2-2.2
		C129.9,102.8,128.9,103.8,128.9,105z"/>
</g>
<g id="image">
	<path fill="#FFF4E4" d="M108.9,151.9c0,1.6-1.3,2.9-2.9,2.9H52.3c-1.6,0-2.9-1.3-2.9-2.9V98.3c0-1.6,1.3-2.9,2.9-2.9H106
		c1.6,0,2.9,1.3,2.9,2.9V151.9z"/>
	<g>
		<defs>
			<path id="SVGID_1_" d="M104,140.7c0,1.4-1.1,2.4-2.4,2.4H56.7c-1.4,0-2.4-1.1-2.4-2.4v-31.3c0-1.4,1.1-2.4,2.4-2.4h44.9
				c1.4,0,2.4,1.1,2.4,2.4V140.7z"/>
		</defs>
		<clipPath id="SVGID_2_">
			<use xlink:href="#SVGID_1_"  overflow="visible"/>
		</clipPath>
		<g clip-path="url(#SVGID_2_)">
			<polygon fill="#DBF0F5" points="106,143.6 52.2,143.6 52.2,106.2 106.1,106.2 			"/>
			<path fill="#6CC077" d="M105.4,136.9l-7.3-7.3c0,0-2.1-2.7-4-2.6c-1.7,0.1-3.8,2.3-4.2,2.7l-2.4-2.4c0,0-2.4-3.1-4.7-3
				c-2.3,0.1-5,3.3-5,3.3l-0.8,0.8l-4.6-4.6c0,0-3-3.9-5.8-3.7c-2.8,0.2-6.1,4.1-6.1,4.1l-7.7,7.7V143l52.7,0.1L105.4,136.9z"/>
			<path fill="#67B8CB" d="M82.4,115.6c0-0.1,0.1-0.1,0.1-0.2c0-1-1-1.7-2.3-1.7c-0.2,0-0.3,0.1-0.5,0.1c-0.4-0.5-1.1-0.9-1.9-0.9
				c-1.1,0-2,0.6-2.2,1.4c-1,0.2-1.8,0.9-1.8,1.7c0,0.8,0.7,1.5,1.7,1.7c0.3,0.8,1.2,1.3,2.3,1.3c1,0,1.8-0.4,2.2-1.1
				c0.3,0.1,0.5,0.2,0.8,0.2c1.1,0,2.1-0.7,2.1-1.5C82.9,116.2,82.7,115.9,82.4,115.6z"/>
			<path fill="#67B8CB" d="M93.2,117.8c0-0.1-0.1-0.1-0.1-0.1c0-0.7,0.8-1.2,1.6-1.2c0.1,0,0.2,0.1,0.3,0.1c0.3-0.4,0.8-0.6,1.4-0.6
				c0.8,0,1.4,0.4,1.5,1c0.8,0.2,1.3,0.7,1.3,1.2c0,0.6-0.5,1-1.2,1.2c-0.2,0.5-0.9,0.9-1.6,0.9c-0.7,0-1.3-0.3-1.6-0.8
				c-0.2,0.1-0.4,0.1-0.6,0.1c-0.8,0-1.5-0.5-1.5-1.1C92.9,118.2,93,118,93.2,117.8z"/>
		</g>
	</g>
</g>
</svg>
