<?xml version="1.0" encoding="utf-8"?>
<!-- Generator: Adobe Illustrator 17.1.0, SVG Export Plug-In . SVG Version: 6.00 Build 0)  -->
<!DOCTYPE svg PUBLIC "-//W3C//DTD SVG 1.1//EN" "http://www.w3.org/Graphics/SVG/1.1/DTD/svg11.dtd">
<svg version="1.1" id="Layer_1" xmlns="http://www.w3.org/2000/svg" xmlns:xlink="http://www.w3.org/1999/xlink" x="0px" y="0px"
	 viewBox="0 0 137 137" enable-background="new 0 0 137 137" xml:space="preserve">
<g id="Layer_5">
	<g>
		<g>
			<g>
				<g>
					<g>
						<circle fill="#FFA547" cx="69.1" cy="68.6" r="63.4"/>
					</g>
				</g>
			</g>
		</g>
		<g>
			<g>
				<g>
					<path fill="#E87D41" d="M69.6,26.5c-1.5,0-2.7,1.2-2.7,2.7v88.1c0,1.5,1.2,2.7,2.7,2.7c1.5,0,2.7-1.2,2.7-2.7V29.2
						C72.4,27.7,71.1,26.5,69.6,26.5z"/>
				</g>
				<g>
					<path fill="#E87D41" d="M68.5,98.9c-1,1-1,2.7,0,3.8l14.6,14.6c1,1,2.7,1,3.8,0c1-1,1-2.7,0-3.8L72.3,98.9
						C71.2,97.9,69.6,97.9,68.5,98.9z"/>
				</g>
				<g>
					<path fill="#E87D41" d="M70.7,98.9c-1-1-2.7-1-3.8,0l-14.6,14.6c-1,1-1,2.7,0,3.8c1,1,2.7,1,3.8,0l14.6-14.6
						C71.7,101.7,71.7,100,70.7,98.9z"/>
				</g>
				<g>
					<g>
						<path fill="#E87D41" d="M114.7,87.8c0,2.9-2.4,5.3-5.2,5.3H31.8c-2.9,0-5.3-2.4-5.3-5.3v-52c0-2.9,2.4-5.3,5.3-5.3h77.6
							c2.9,0,5.2,2.4,5.2,5.3V87.8z"/>
					</g>
				</g>
				<g>
					<g>
						<path fill="#FFFFFF" d="M110.7,84.6c0,2.6-2.1,4.8-4.8,4.8H35.5c-2.6,0-4.8-2.1-4.8-4.8V39.2c0-2.6,2.1-4.8,4.8-4.8H106
							c2.6,0,4.8,2.1,4.8,4.8v45.5H110.7z"/>
					</g>
				</g>
				<g>
					<path fill="#E87D41" d="M102,51.8c0,1.1-0.9,2-2,2H82.8c-1.1,0-2-0.9-2-2s0.9-2,2-2H100C101.1,49.8,102,50.7,102,51.8"/>
				</g>
				<g>
					<path fill="#E87D41" d="M102,60.1c0,1.1-0.9,2-2,2H82.8c-1.1,0-2-0.9-2-2s0.9-2,2-2H100C101.1,58.2,102,59,102,60.1"/>
				</g>
				<g>
					<path fill="#E87D41" d="M102,69c0,1.1-0.9,2-2,2H82.8c-1.1,0-2-0.9-2-2s0.9-2,2-2H100C101.1,67,102,67.9,102,69"/>
				</g>
			</g>
			<g>
				<g>
					<path fill="#F4E028" d="M57.8,56.5"/>
				</g>
				<g>
					<path fill="#78A4A4" d="M38.6,56.1c0-0.1,0-0.2,0-0.3c0,0.2,0,0.3,0,0.5c0,0.5,0,6.1,0,6.5c0,4.5,7.8,8.2,17.5,8.2v-6.7
						C46.5,64.3,38.6,60.6,38.6,56.1z"/>
				</g>
				<g>
					<rect x="56" y="56" fill="#78A4A4" width="17.7" height="6.6"/>
				</g>
				<g>
					<path fill="#DDD374" d="M75.3,64.5c0-0.4,0-6.1,0-6.5c0-0.1,0-0.1,0-0.2l0,0c0,4.5-7.8,8.2-17.5,8.2v6.7
						C67.5,72.7,75.3,69.1,75.3,64.5z"/>
				</g>
				<g>
					<path fill="#EFE87F" d="M57.8,66c9.6,0,17.5-3.7,17.5-8.2H57.8V66z"/>
				</g>
				<g>
					<path fill="#ABC7C8" d="M73.6,55.7c-0.4-4.4-8.1-7.8-17.4-7.8c-9.4,0-17.1,3.5-17.5,7.9c0,0.1,0,0.2,0,0.3
						c0,4.5,7.8,8.2,17.5,8.2v-8.2h17.5l0,0C73.6,55.9,73.6,55.8,73.6,55.7z"/>
				</g>
			</g>
		</g>
	</g>
</g>
</svg>
