<svg xmlns="http://www.w3.org/2000/svg" xmlns:xlink="http://www.w3.org/1999/xlink" viewBox="0 0 210 250" enable-background="new 0 0 210 250"><circle fill="#DC6326" cx="105.9" cy="125.2" r="97.2"/><g><path fill="#fff" d="M176 166.2c0 4.5-3.6 8.3-8.3 8.3h-120.3c-4.5 0-8.3-3.6-8.3-8.3v-77.6c0-4.5 3.6-8.3 8.3-8.3h120.6c4.5 0 8.3 3.6 8.3 8.3v77.7l-.3-.1z"/><path fill="#C9C9C8" d="M163.4 122.7h-38.4c-1.2 0-2.2 1-2.2 2.2s1 2.2 2.2 2.2h38.3c1.2 0 2.2-1 2.2-2.2.1-1.2-.9-2.2-2.1-2.2zM163.4 110.5h-38.4c-1.2 0-2.2 1-2.2 2.2s1 2.2 2.2 2.2h38.3c1.2 0 2.2-1 2.2-2.2.1-1.2-.9-2.2-2.1-2.2zM163.4 135h-38.4c-1.2 0-2.2 1-2.2 2.2s1 2.2 2.2 2.2h38.3c1.2 0 2.2-1 2.2-2.2.1-1.2-.9-2.2-2.1-2.2z"/><path fill="#fff" d="M128.9 105v38.4c0 1.2 1 2.2 2.2 2.2s2.2-1 2.2-2.2v-38.3c0-1.2-1-2.2-2.2-2.2-1.2-.1-2.2.9-2.2 2.1z"/></g><g><path fill="#FFF4E4" d="M108.9 151.9c0 1.6-1.3 2.9-2.9 2.9h-53.7c-1.6 0-2.9-1.3-2.9-2.9v-53.6c0-1.6 1.3-2.9 2.9-2.9h53.7c1.6 0 2.9 1.3 2.9 2.9v53.6z"/><defs><path id="a" d="M104 140.7c0 1.4-1.1 2.4-2.4 2.4h-44.9c-1.4 0-2.4-1.1-2.4-2.4v-31.3c0-1.4 1.1-2.4 2.4-2.4h44.9c1.4 0 2.4 1.1 2.4 2.4v31.3z"/></defs><clipPath id="b"><use xlink:href="#a" overflow="visible"/></clipPath><g clip-path="url(#b)"><path fill="#DBF0F5" d="M106 143.6h-53.8v-37.4h53.9z"/><path fill="#6CC077" d="M105.4 136.9l-7.3-7.3s-2.1-2.7-4-2.6c-1.7.1-3.8 2.3-4.2 2.7l-2.4-2.4s-2.4-3.1-4.7-3c-2.3.1-5 3.3-5 3.3l-.8.8-4.6-4.6s-3-3.9-5.8-3.7c-2.8.2-6.1 4.1-6.1 4.1l-7.7 7.7v11.1l52.7.1-.1-6.2z"/><path fill="#67B8CB" d="M82.4 115.6l.1-.2c0-1-1-1.7-2.3-1.7l-.5.1c-.4-.5-1.1-.9-1.9-.9-1.1 0-2 .6-2.2 1.4-1 .2-1.8.9-1.8 1.7 0 .8.7 1.5 1.7 1.7.3.8 1.2 1.3 2.3 1.3 1 0 1.8-.4 2.2-1.1.3.1.5.2.8.2 1.1 0 2.1-.7 2.1-1.5 0-.4-.2-.7-.5-1zM93.2 117.8c0-.1-.1-.1-.1-.1 0-.7.8-1.2 1.6-1.2l.3.1c.3-.4.8-.6 1.4-.6.8 0 1.4.4 1.5 1 .8.2 1.3.7 1.3 1.2 0 .6-.5 1-1.2 1.2-.2.5-.9.9-1.6.9-.7 0-1.3-.3-1.6-.8-.2.1-.4.1-.6.1-.8 0-1.5-.5-1.5-1.1.2-.3.3-.5.5-.7z"/></g></g></svg>