<svg xmlns="http://www.w3.org/2000/svg" viewBox="-33 35 32 32"><style>.st0{fill:#999;}</style><g id="Layer_2"><path class="st0" d="M-29.1 67c-.3 0-.7-.1-1.1-.3-.7.3-1.5.1-2-.4s-.7-1.3-.4-2c-.4-.8-.4-1.6 0-2l9.8-9.8c-2.6-4.6-1.9-10.3 1.9-14.1 2.2-2.2 5.2-3.4 8.3-3.4 3.1 0 6.1 1.2 8.3 3.4 2.2 2.2 3.4 5.2 3.4 8.3 0 3.1-1.2 6.1-3.4 8.3-2.2 2.2-5.1 3.4-8.3 3.4-2 0-4-.5-5.8-1.5l-9.8 9.8c-.3.2-.6.3-.9.3zm-1.2-1.2c.1 0 .1 0 .2.1.4.2.7.3.9.3.1 0 .2 0 .3-.1l10-10c.1-.1.3-.2.5-.1 1.7 1 3.7 1.6 5.6 1.6 2.9 0 5.6-1.1 7.7-3.2 2.1-2.1 3.2-4.8 3.2-7.7 0-2.9-1.1-5.6-3.2-7.7-2.1-2.1-4.8-3.2-7.7-3.2s-5.6 1.1-7.7 3.2c-3.6 3.6-4.2 9-1.6 13.4.1.2.1.4-.1.5l-10 10c-.1.1-.1.6.2 1.2.1.1.1.3 0 .4-.2.4-.2.9.2 1.3.3.3.9.4 1.3.2.1-.2.2-.2.2-.2zm17.6-10.2c-2.4 0-4.6-.9-6.3-2.6-1.7-1.7-2.6-3.9-2.6-6.3s.9-4.6 2.6-6.3c1.7-1.7 3.9-2.6 6.3-2.6s4.6.9 6.3 2.6c1.7 1.7 2.6 3.9 2.6 6.3s-.9 4.6-2.6 6.3c-1.7 1.6-3.9 2.6-6.3 2.6zm0-16.9c-2.2 0-4.2.8-5.7 2.4-1.5 1.5-2.4 3.5-2.4 5.7s.8 4.2 2.4 5.7c1.5 1.5 3.5 2.4 5.7 2.4s4.2-.8 5.7-2.4c1.5-1.5 2.4-3.5 2.4-5.7s-.8-4.2-2.4-5.7c-1.5-1.6-3.6-2.4-5.7-2.4z"/><path class="st0" d="M-17.9 45.8l-.7-.3c.2-.4 2.2-4.3 7-4.8.2 0 .4.1.4.4 0 .2-.1.4-.4.4-4.3.4-6.1 3.9-6.3 4.3z"/></g></svg>
