<svg xmlns="http://www.w3.org/2000/svg" id="Layer_1" viewBox="0 0 100 100"><style>.st0{fill:#FFC107;} .st1{fill:#FFEB3B;}</style><path d="M50.2 3.8C31.3 3.8 15.9 19.1 15.9 38c0 24.9 32.3 58.2 35.2 58.2C54 96.2 84.4 60 84.4 38c0-18.9-15.3-34.2-34.2-34.2zM50 49.5c-7.4 0-13.4-5.9-13.4-13.1 0-7.2 6-13.1 13.4-13.1s13.4 5.9 13.4 13.1c0 7.2-6 13.1-13.4 13.1z" class="st0"/><path d="M51.1 96.9c-3 0-35.8-33.7-35.8-58.8 0-19.2 15.6-34.9 34.9-34.9C69.4 3.2 85 18.8 85 38c0 21.9-30.5 58.9-33.9 58.9zm-.9-92.5C31.6 4.4 16.5 19.5 16.5 38c0 25 31.8 57 34.6 57.6C54 94.9 83.8 59.8 83.8 38c0-18.5-15.1-33.6-33.6-33.6zM50 50.1c-7.7 0-14.1-6.1-14.1-13.7S42.2 22.7 50 22.7s14.1 6.1 14.1 13.7S57.8 50.1 50 50.1zm0-26.2c-7.1 0-12.8 5.6-12.8 12.5S43 48.9 50 48.9c7.1 0 12.8-5.6 12.8-12.5S57.1 23.9 50 23.9z" class="st1"/></svg>
