<svg xmlns="http://www.w3.org/2000/svg" viewBox="0 0 210 250" enable-background="new 0 0 210 250"><circle fill="#718839" cx="104.5" cy="125" r="97.2"/><path fill="#fff" d="M170.5 163.1c0 4.3-3.5 8-8 8h-116.4c-4.3 0-8-3.5-8-8v-75c0-4.3 3.5-8 8-8h116.6c4.3 0 8 3.5 8 8v75.2l-.2-.2z"/><g fill="#C9C9C8"><path d="M161.5 100c0 1.7-1.5 3.2-3.2 3.2h-106c-1.7 0-3.2-1.5-3.2-3.2 0-1.7 1.5-3.2 3.2-3.2h106.4c1.2 0 2.8 1.5 2.8 3.2zM161.5 117.4c0 1.7-1.5 3.2-3.2 3.2h-106c-1.7 0-3.2-1.5-3.2-3.2 0-1.7 1.5-3.2 3.2-3.2h106.4c1.2 0 2.8 1.5 2.8 3.2zM161.5 134c0 1.7-1.5 3.2-3.2 3.2h-106c-1.7 0-3.2-1.5-3.2-3.2 0-1.7 1.5-3.2 3.2-3.2h106.4c1.2 0 2.8 1.5 2.8 3.2zM161.5 151.4c0 1.7-1.5 3.2-3.2 3.2h-106c-1.7 0-3.2-1.5-3.2-3.2 0-1.7 1.5-3.2 3.2-3.2h106.4c1.2-.1 2.8 1.4 2.8 3.2z"/></g><g fill="#fff"><path d="M94.7 83.5c1.7 0 3.2 1.1 3.2 2.4v78.6c0 1.3-1.5 2.4-3.2 2.4-1.7 0-3.2-1.1-3.2-2.4v-78.7c-.1-1.2 1.5-2.3 3.2-2.3zM112 83.5c1.7 0 3.2 1.1 3.2 2.4v78.6c0 1.3-1.5 2.4-3.2 2.4-1.7 0-3.2-1.1-3.2-2.4v-78.7c0-1.2 1.4-2.3 3.2-2.3zM128.6 83.5c1.7 0 3.2 1.1 3.2 2.4v78.6c0 1.3-1.5 2.4-3.2 2.4-1.7 0-3.2-1.1-3.2-2.4v-78.7c0-1.2 1.4-2.3 3.2-2.3zM145.9 83.5c1.7 0 3.2 1.1 3.2 2.4v78.6c0 1.3-1.5 2.4-3.2 2.4-1.7 0-3.2-1.1-3.2-2.4v-78.7c0-1.2 1.5-2.3 3.2-2.3z"/></g></svg>