<?xml version="1.0" encoding="utf-8"?>
<!-- Generator: Adobe Illustrator 17.1.0, SVG Export Plug-In . SVG Version: 6.00 Build 0)  -->
<!DOCTYPE svg PUBLIC "-//W3C//DTD SVG 1.1//EN" "http://www.w3.org/Graphics/SVG/1.1/DTD/svg11.dtd">
<svg version="1.1" id="Layer_1" xmlns="http://www.w3.org/2000/svg" xmlns:xlink="http://www.w3.org/1999/xlink" x="0px" y="0px"
	 viewBox="0 0 137 137" enable-background="new 0 0 137 137" xml:space="preserve">
<g id="Layer_4">
	<g>
		<g>
			<g>
				<g>
					<g>
						<circle fill="#4FC9A0" cx="68.2" cy="68.5" r="63.4"/>
					</g>
				</g>
			</g>
		</g>
		<g>
			<g>
				<g>
					<g>
						<g>
							<path fill="#F5F5F5" d="M43.4,30.2c-2.4,0-4.3,1.9-4.3,4.3v68.5c0,2.4,1.9,4.3,4.3,4.3h49.2c2.4,0,4.3-1.9,4.3-4.3V50
								L76.2,30.2H43.4z"/>
						</g>
					</g>
					<g>
						<path fill="#E1E1E1" d="M96.8,50H80.5c-2.4,0-4.3-1.9-4.3-4.3V30.2L96.8,50z"/>
					</g>
				</g>
			</g>
			<g>
				<g>
					<path fill="#4FC9A0" d="M54.3,61.5c0,0.8-0.7,1.5-1.5,1.5h-7.1c-0.8,0-1.5-0.7-1.5-1.5v-7.7c0-0.8,0.7-1.5,1.5-1.5h7.1
						c0.8,0,1.5,0.7,1.5,1.5V61.5z"/>
				</g>
				<g>
					<path fill="#4FC9A0" d="M66.6,61.5c0,0.8-0.7,1.5-1.5,1.5H58c-0.8,0-1.5-0.7-1.5-1.5v-7.7c0-0.8,0.7-1.5,1.5-1.5h7.1
						c0.8,0,1.5,0.7,1.5,1.5V61.5z"/>
				</g>
				<g>
					<path fill="#4FC9A0" d="M79.1,61.5c0,0.8-0.7,1.5-1.5,1.5h-7.1c-0.8,0-1.5-0.7-1.5-1.5v-7.7c0-0.8,0.7-1.5,1.5-1.5h7.1
						c0.8,0,1.5,0.7,1.5,1.5V61.5z"/>
				</g>
				<g>
					<path fill="#4FC9A0" d="M91.4,61.5c0,0.8-0.7,1.5-1.5,1.5h-7.1c-0.8,0-1.5-0.7-1.5-1.5v-7.7c0-0.8,0.7-1.5,1.5-1.5h7.1
						c0.8,0,1.5,0.7,1.5,1.5V61.5z"/>
				</g>
			</g>
			<g>
				<g>
					<path fill="#4FC9A0" d="M54.3,74.5c0,0.8-0.7,1.5-1.5,1.5h-7.1c-0.8,0-1.5-0.7-1.5-1.5v-7.7c0-0.8,0.7-1.5,1.5-1.5h7.1
						c0.8,0,1.5,0.7,1.5,1.5V74.5z"/>
				</g>
				<g>
					<path fill="#4FC9A0" d="M66.6,74.5c0,0.8-0.7,1.5-1.5,1.5H58c-0.8,0-1.5-0.7-1.5-1.5v-7.7c0-0.8,0.7-1.5,1.5-1.5h7.1
						c0.8,0,1.5,0.7,1.5,1.5V74.5z"/>
				</g>
				<g>
					<path fill="#4FC9A0" d="M79.1,74.5c0,0.8-0.7,1.5-1.5,1.5h-7.1c-0.8,0-1.5-0.7-1.5-1.5v-7.7c0-0.8,0.7-1.5,1.5-1.5h7.1
						c0.8,0,1.5,0.7,1.5,1.5V74.5z"/>
				</g>
				<g>
					<path fill="#4FC9A0" d="M91.4,74.5c0,0.8-0.7,1.5-1.5,1.5h-7.1c-0.8,0-1.5-0.7-1.5-1.5v-7.7c0-0.8,0.7-1.5,1.5-1.5h7.1
						c0.8,0,1.5,0.7,1.5,1.5V74.5z"/>
				</g>
			</g>
			<g>
				<g>
					<path fill="#4ABC96" d="M54.3,87.7c0,0.8-0.7,1.5-1.5,1.5h-7.1c-0.8,0-1.5-0.7-1.5-1.5V80c0-0.8,0.7-1.5,1.5-1.5h7.1
						c0.8,0,1.5,0.7,1.5,1.5V87.7z"/>
				</g>
				<g>
					<path fill="#4ABC96" d="M66.6,87.7c0,0.8-0.7,1.5-1.5,1.5H58c-0.8,0-1.5-0.7-1.5-1.5V80c0-0.8,0.7-1.5,1.5-1.5h7.1
						c0.8,0,1.5,0.7,1.5,1.5V87.7z"/>
				</g>
			</g>
			<g>
				<g>
					<path fill="#4ABC96" d="M54.3,100.7c0,0.8-0.7,1.5-1.5,1.5h-7.1c-0.8,0-1.5-0.7-1.5-1.5V93c0-0.8,0.7-1.5,1.5-1.5h7.1
						c0.8,0,1.5,0.7,1.5,1.5V100.7z"/>
				</g>
				<g>
					<path fill="#4ABC96" d="M66.6,100.7c0,0.8-0.7,1.5-1.5,1.5H58c-0.8,0-1.5-0.7-1.5-1.5V93c0-0.8,0.7-1.5,1.5-1.5h7.1
						c0.8,0,1.5,0.7,1.5,1.5V100.7z"/>
				</g>
			</g>
			<g>
				<path fill="#4ABC96" d="M73.4,89.2h-2.2c-1.1,0-2,0.9-2,2l0,0l0,0l0,0l0,0v10.9h6.1V91.2l0,0C75.4,90.1,74.5,89.2,73.4,89.2z"/>
			</g>
			<g>
				<path fill="#4ABC96" d="M83.4,86.4L83.4,86.4L83.4,86.4c0-1.1-0.9-1.9-2-1.9h-2.2c-1.1,0-1.9,0.9-2,1.9l0,0v15.7h6.1V86.4
					C83.4,86.5,83.4,86.5,83.4,86.4C83.4,86.5,83.4,86.4,83.4,86.4z"/>
			</g>
			<g>
				<path fill="#4ABC96" d="M91.4,81.2L91.4,81.2L91.4,81.2L91.4,81.2c0-1.1-0.9-2-2-2h-2.2c-1.1,0-1.9,0.8-2,1.9l0,0v21h6.1
					L91.4,81.2L91.4,81.2z"/>
			</g>
			<g>
				<rect x="69.2" y="100.9" fill="#4ABC96" width="22.1" height="1.2"/>
			</g>
		</g>
	</g>
</g>
</svg>
