<?xml version="1.0" encoding="utf-8"?>
<!-- Generator: Adobe Illustrator 18.0.0, SVG Export Plug-In . SVG Version: 6.00 Build 0)  -->
<!DOCTYPE svg PUBLIC "-//W3C//DTD SVG 1.1//EN" "http://www.w3.org/Graphics/SVG/1.1/DTD/svg11.dtd">
<svg version="1.1" id="Layer_1" xmlns="http://www.w3.org/2000/svg" xmlns:xlink="http://www.w3.org/1999/xlink" x="0px" y="0px"
	 viewBox="0 0 210 250" enable-background="new 0 0 210 250" xml:space="preserve">
<circle fill="#718839" cx="104.5" cy="125" r="97.2"/>
<path fill="#FFFFFF" d="M170.5,163.1c0,4.3-3.5,8-8,8H46.1c-4.3,0-8-3.5-8-8V88.1c0-4.3,3.5-8,8-8h116.6c4.3,0,8,3.5,8,8v75.2
	L170.5,163.1L170.5,163.1z"/>
<g>
	<path fill="#C9C9C8" d="M161.5,100c0,1.7-1.5,3.2-3.2,3.2h-106c-1.7,0-3.2-1.5-3.2-3.2l0,0c0-1.7,1.5-3.2,3.2-3.2h106.4
		C159.9,96.8,161.5,98.3,161.5,100L161.5,100z"/>
	<path fill="#C9C9C8" d="M161.5,117.4c0,1.7-1.5,3.2-3.2,3.2h-106c-1.7,0-3.2-1.5-3.2-3.2l0,0c0-1.7,1.5-3.2,3.2-3.2h106.4
		C159.9,114.2,161.5,115.7,161.5,117.4L161.5,117.4z"/>
	<path fill="#C9C9C8" d="M161.5,134c0,1.7-1.5,3.2-3.2,3.2h-106c-1.7,0-3.2-1.5-3.2-3.2l0,0c0-1.7,1.5-3.2,3.2-3.2h106.4
		C159.9,130.8,161.5,132.3,161.5,134L161.5,134z"/>
	<path fill="#C9C9C8" d="M161.5,151.4c0,1.7-1.5,3.2-3.2,3.2h-106c-1.7,0-3.2-1.5-3.2-3.2l0,0c0-1.7,1.5-3.2,3.2-3.2h106.4
		C159.9,148.1,161.5,149.6,161.5,151.4L161.5,151.4z"/>
</g>
<g>
	<path fill="#FFFFFF" d="M94.7,83.5c1.7,0,3.2,1.1,3.2,2.4v78.6c0,1.3-1.5,2.4-3.2,2.4l0,0c-1.7,0-3.2-1.1-3.2-2.4V85.8
		C91.4,84.6,93,83.5,94.7,83.5L94.7,83.5z"/>
	<path fill="#FFFFFF" d="M112,83.5c1.7,0,3.2,1.1,3.2,2.4v78.6c0,1.3-1.5,2.4-3.2,2.4l0,0c-1.7,0-3.2-1.1-3.2-2.4V85.8
		C108.8,84.6,110.2,83.5,112,83.5L112,83.5z"/>
	<path fill="#FFFFFF" d="M128.6,83.5c1.7,0,3.2,1.1,3.2,2.4v78.6c0,1.3-1.5,2.4-3.2,2.4l0,0c-1.7,0-3.2-1.1-3.2-2.4V85.8
		C125.4,84.6,126.8,83.5,128.6,83.5L128.6,83.5z"/>
	<path fill="#FFFFFF" d="M145.9,83.5c1.7,0,3.2,1.1,3.2,2.4v78.6c0,1.3-1.5,2.4-3.2,2.4l0,0c-1.7,0-3.2-1.1-3.2-2.4V85.8
		C142.7,84.6,144.2,83.5,145.9,83.5L145.9,83.5z"/>
</g>
</svg>
