<?xml version="1.0" encoding="utf-8"?>
<!-- Generator: Adobe Illustrator 17.1.0, SVG Export Plug-In . SVG Version: 6.00 Build 0)  -->
<!DOCTYPE svg PUBLIC "-//W3C//DTD SVG 1.1//EN" "http://www.w3.org/Graphics/SVG/1.1/DTD/svg11.dtd">
<svg version="1.1" xmlns="http://www.w3.org/2000/svg" xmlns:xlink="http://www.w3.org/1999/xlink" x="0px" y="0px"
	 viewBox="0 0 136.8 136.8" enable-background="new 0 0 136.8 136.8" xml:space="preserve">
<g id="Layer_2" display="none">
	<g display="inline">
		<g>
			<g>
				<g>
					<circle fill="#3289A3" cx="68.3" cy="68.5" r="63.5"/>
				</g>
			</g>
		</g>
		<g>
			<g>
				<g>
					<g>
						<g>
							<path fill="#F5F5F5" d="M43.5,31.1c-2.4,0-4.3,1.9-4.3,4.3v68.5c0,2.4,1.9,4.3,4.3,4.3h49.2c2.4,0,4.3-1.9,4.3-4.3V51
								L76.4,31.1H43.5z"/>
						</g>
					</g>
				</g>
				<g>
					<g>
						<path fill="#E1E1E1" d="M97,51H80.7c-2.4,0-4.3-1.9-4.3-4.3V31.1L97,51z"/>
					</g>
				</g>
				<g>
					<g>
						<path fill="#C9C9C8" d="M91,56.8c0,0.7-0.6,1.3-1.3,1.3H46.9c-0.7,0-1.3-0.6-1.3-1.3l0,0c0-0.7,0.6-1.3,1.3-1.3h42.8
							C90.4,55.5,91,56.1,91,56.8L91,56.8z"/>
					</g>
				</g>
				<g>
					<g>
						<path fill="#C9C9C8" d="M91,63.8c0,0.7-0.6,1.3-1.3,1.3H46.9c-0.7,0-1.3-0.6-1.3-1.3l0,0c0-0.7,0.6-1.3,1.3-1.3h42.8
							C90.4,62.5,91,63.1,91,63.8L91,63.8z"/>
					</g>
				</g>
				<g>
					<g>
						<path fill="#C9C9C8" d="M91,70.5c0,0.7-0.6,1.3-1.3,1.3H46.9c-0.7,0-1.3-0.6-1.3-1.3l0,0c0-0.7,0.6-1.3,1.3-1.3h42.8
							C90.4,69.2,91,69.8,91,70.5L91,70.5z"/>
					</g>
				</g>
				<g>
					<g>
						<path fill="#C9C9C8" d="M91,77.5c0,0.7-0.6,1.3-1.3,1.3H46.9c-0.7,0-1.3-0.6-1.3-1.3l0,0c0-0.7,0.6-1.3,1.3-1.3h42.8
							C90.4,76.2,91,76.8,91,77.5L91,77.5z"/>
					</g>
				</g>
				<g>
					<g>
						<path fill="#C9C9C8" d="M69.3,83.2H46.9c-0.7,0-1.3,0.6-1.3,1.3c0,0.7,0.6,1.3,1.3,1.3h22.4c0.7,0,1.3-0.6,1.3-1.3
							C70.6,83.8,70,83.2,69.3,83.2z"/>
					</g>
				</g>
			</g>
		</g>
	</g>
</g>
<g id="Layer_3" display="none">
	<g display="inline">
		<circle fill="#507F6F" cx="67.7" cy="68.7" r="63.3"/>
		<g>
			<path fill="#357180" d="M111.9,98.5c0,0.6-0.5,1.2-1.2,1.2H27.3c-0.6,0-1.2-0.5-1.2-1.2V39.3c0-0.6,0.5-1.2,1.2-1.2h83.4
				c0.6,0,1.2,0.5,1.2,1.2V98.5z"/>
			<rect x="66.7" y="38.1" fill="#27636D" width="4.7" height="61.5"/>
			<polygon fill="#D7D7BF" points="69,41.1 29.3,41.1 29.3,96.6 69,96.6 108.8,96.6 108.8,41.1 			"/>
			<rect x="66.8" y="41.1" fill="#C5C3AE" width="4.5" height="55.5"/>
			<polygon fill="#E7E7D6" points="69,96.6 30.9,95 30.9,39.3 69,41.1 			"/>
			<polygon fill="#E7E7D6" points="107.2,95 69,96.6 69,41.1 107.2,39.3 			"/>
			<rect x="68.8" y="42.4" fill="#DCDDD8" width="0.5" height="54.2"/>
			<g>
				<path fill="#B9B9BA" d="M66,49c0,0.7-0.6,1.3-1.2,1.3l-29.5-0.9c-0.7,0-1.2-0.6-1.2-1.3l0,0c0-0.7,0.6-1.3,1.2-1.3l29.5,0.9
					C65.5,47.7,66,48.3,66,49L66,49z"/>
				<path fill="#B9B9BA" d="M66,54.3c0,0.7-0.6,1.3-1.2,1.3l-29.5-0.9c-0.7,0-1.2-0.6-1.2-1.3l0,0c0-0.7,0.6-1.3,1.2-1.3L64.8,53
					C65.5,53,66,53.6,66,54.3L66,54.3z"/>
				<path fill="#B9B9BA" d="M66,59.5c0,0.7-0.6,1.3-1.2,1.3l-29.5-0.9c-0.7,0-1.2-0.6-1.2-1.3l0,0c0-0.7,0.6-1.3,1.2-1.3l29.5,0.9
					C65.5,58.2,66,58.8,66,59.5L66,59.5z"/>
				<path fill="#B9B9BA" d="M66,64.8c0,0.7-0.6,1.3-1.2,1.3l-29.5-0.9c-0.7,0-1.2-0.6-1.2-1.3l0,0c0-0.7,0.6-1.3,1.2-1.3l29.5,0.9
					C65.5,63.5,66,64.1,66,64.8L66,64.8z"/>
				<path fill="#B9B9BA" d="M66,70.2c0,0.7-0.6,1.3-1.2,1.3l-29.5-0.9c-0.7,0-1.2-0.6-1.2-1.3l0,0c0-0.7,0.6-1.3,1.2-1.3l29.5,0.9
					C65.5,68.9,66,69.5,66,70.2L66,70.2z"/>
				<path fill="#B9B9BA" d="M66,75.5c0,0.7-0.6,1.3-1.2,1.3l-29.5-0.9c-0.7,0-1.2-0.6-1.2-1.3l0,0c0-0.7,0.6-1.3,1.2-1.3l29.5,0.9
					C65.5,74.2,66,74.8,66,75.5L66,75.5z"/>
				<path fill="#B9B9BA" d="M66,80.6c0,0.7-0.6,1.3-1.2,1.3l-29.5-0.9c-0.7,0-1.2-0.6-1.2-1.3l0,0c0-0.7,0.6-1.3,1.2-1.3l29.5,0.9
					C65.5,79.3,66,79.9,66,80.6L66,80.6z"/>
				<path fill="#B9B9BA" d="M66,85.9c0,0.7-0.6,1.3-1.2,1.3l-29.5-0.9c-0.7,0-1.2-0.6-1.2-1.3l0,0c0-0.7,0.6-1.3,1.2-1.3l29.5,0.9
					C65.5,84.6,66,85.2,66,85.9L66,85.9z"/>
			</g>
			<g>
				<path fill="#B9B9BA" d="M72.2,49c0,0.7,0.6,1.3,1.2,1.3l29.5-0.9c0.7,0,1.2-0.6,1.2-1.3l0,0c0-0.7-0.6-1.3-1.2-1.3l-29.5,0.9
					C72.8,47.7,72.2,48.3,72.2,49L72.2,49z"/>
				<path fill="#B9B9BA" d="M72.2,54.3c0,0.7,0.6,1.3,1.2,1.3l29.5-0.9c0.7,0,1.2-0.6,1.2-1.3l0,0c0-0.7-0.6-1.3-1.2-1.3L73.5,53
					C72.8,53,72.2,53.6,72.2,54.3L72.2,54.3z"/>
				<path fill="#B9B9BA" d="M72.2,59.5c0,0.7,0.6,1.3,1.2,1.3l29.5-0.9c0.7,0,1.2-0.6,1.2-1.3l0,0c0-0.7-0.6-1.3-1.2-1.3l-29.5,0.9
					C72.8,58.2,72.2,58.8,72.2,59.5L72.2,59.5z"/>
				<path fill="#B9B9BA" d="M72.2,64.8c0,0.7,0.6,1.3,1.2,1.3l29.5-0.9c0.7,0,1.2-0.6,1.2-1.3l0,0c0-0.7-0.6-1.3-1.2-1.3l-29.5,0.9
					C72.8,63.5,72.2,64.1,72.2,64.8L72.2,64.8z"/>
				<path fill="#B9B9BA" d="M72.2,70.2c0,0.7,0.6,1.3,1.2,1.3l29.5-0.9c0.7,0,1.2-0.6,1.2-1.3l0,0c0-0.7-0.6-1.3-1.2-1.3l-29.5,0.9
					C72.8,68.9,72.2,69.5,72.2,70.2L72.2,70.2z"/>
				<path fill="#B9B9BA" d="M72.2,75.5c0,0.7,0.6,1.3,1.2,1.3l29.5-0.9c0.7,0,1.2-0.6,1.2-1.3l0,0c0-0.7-0.6-1.3-1.2-1.3l-29.5,0.9
					C72.8,74.2,72.2,74.8,72.2,75.5L72.2,75.5z"/>
				<path fill="#B9B9BA" d="M72.2,80.6c0,0.7,0.6,1.3,1.2,1.3l29.5-0.9c0.7,0,1.2-0.6,1.2-1.3l0,0c0-0.7-0.6-1.3-1.2-1.3l-29.5,0.9
					C72.8,79.3,72.2,79.9,72.2,80.6L72.2,80.6z"/>
				<path fill="#B9B9BA" d="M72.2,85.9c0,0.7,0.6,1.3,1.2,1.3l29.5-0.9c0.7,0,1.2-0.6,1.2-1.3l0,0c0-0.7-0.6-1.3-1.2-1.3l-29.5,0.9
					C72.8,84.6,72.2,85.2,72.2,85.9L72.2,85.9z"/>
			</g>
		</g>
	</g>
</g>
<g id="Layer_4">
	<g>
		<g>
			<g>
				<g>
					<g>
						<circle fill="#4FC9A0" cx="68.1" cy="68.4" r="63.3"/>
					</g>
				</g>
			</g>
		</g>
		<g>
			<g>
				<g>
					<g>
						<g>
							<path fill="#F5F5F5" d="M43.3,30.2c-2.4,0-4.3,1.9-4.3,4.3v68.4c0,2.4,1.9,4.3,4.3,4.3h49.1c2.4,0,4.3-1.9,4.3-4.3V49.9
								L76.1,30.2H43.3z"/>
						</g>
					</g>
					<g>
						<path fill="#E1E1E1" d="M96.7,49.9H80.4c-2.4,0-4.3-1.9-4.3-4.3V30.2L96.7,49.9z"/>
					</g>
				</g>
			</g>
			<g>
				<g>
					<path fill="#4FC9A0" d="M54.2,61.4c0,0.8-0.7,1.5-1.5,1.5h-7.1c-0.8,0-1.5-0.7-1.5-1.5v-7.7c0-0.8,0.7-1.5,1.5-1.5h7.1
						c0.8,0,1.5,0.7,1.5,1.5V61.4z"/>
				</g>
				<g>
					<path fill="#4FC9A0" d="M66.5,61.4c0,0.8-0.7,1.5-1.5,1.5h-7.1c-0.8,0-1.5-0.7-1.5-1.5v-7.7c0-0.8,0.7-1.5,1.5-1.5H65
						c0.8,0,1.5,0.7,1.5,1.5V61.4z"/>
				</g>
				<g>
					<path fill="#4FC9A0" d="M79,61.4c0,0.8-0.7,1.5-1.5,1.5h-7.1c-0.8,0-1.5-0.7-1.5-1.5v-7.7c0-0.8,0.7-1.5,1.5-1.5h7.1
						c0.8,0,1.5,0.7,1.5,1.5V61.4z"/>
				</g>
				<g>
					<path fill="#4FC9A0" d="M91.3,61.4c0,0.8-0.7,1.5-1.5,1.5h-7.1c-0.8,0-1.5-0.7-1.5-1.5v-7.7c0-0.8,0.7-1.5,1.5-1.5h7.1
						c0.8,0,1.5,0.7,1.5,1.5V61.4z"/>
				</g>
			</g>
			<g>
				<g>
					<path fill="#4FC9A0" d="M54.2,74.4c0,0.8-0.7,1.5-1.5,1.5h-7.1c-0.8,0-1.5-0.7-1.5-1.5v-7.7c0-0.8,0.7-1.5,1.5-1.5h7.1
						c0.8,0,1.5,0.7,1.5,1.5V74.4z"/>
				</g>
				<g>
					<path fill="#4FC9A0" d="M66.5,74.4c0,0.8-0.7,1.5-1.5,1.5h-7.1c-0.8,0-1.5-0.7-1.5-1.5v-7.7c0-0.8,0.7-1.5,1.5-1.5H65
						c0.8,0,1.5,0.7,1.5,1.5V74.4z"/>
				</g>
				<g>
					<path fill="#4FC9A0" d="M79,74.4c0,0.8-0.7,1.5-1.5,1.5h-7.1c-0.8,0-1.5-0.7-1.5-1.5v-7.7c0-0.8,0.7-1.5,1.5-1.5h7.1
						c0.8,0,1.5,0.7,1.5,1.5V74.4z"/>
				</g>
				<g>
					<path fill="#4FC9A0" d="M91.3,74.4c0,0.8-0.7,1.5-1.5,1.5h-7.1c-0.8,0-1.5-0.7-1.5-1.5v-7.7c0-0.8,0.7-1.5,1.5-1.5h7.1
						c0.8,0,1.5,0.7,1.5,1.5V74.4z"/>
				</g>
			</g>
			<g>
				<g>
					<path fill="#4ABC96" d="M54.2,87.6c0,0.8-0.7,1.5-1.5,1.5h-7.1c-0.8,0-1.5-0.7-1.5-1.5v-7.7c0-0.8,0.7-1.5,1.5-1.5h7.1
						c0.8,0,1.5,0.7,1.5,1.5V87.6z"/>
				</g>
				<g>
					<path fill="#4ABC96" d="M66.5,87.6c0,0.8-0.7,1.5-1.5,1.5h-7.1c-0.8,0-1.5-0.7-1.5-1.5v-7.7c0-0.8,0.7-1.5,1.5-1.5H65
						c0.8,0,1.5,0.7,1.5,1.5V87.6z"/>
				</g>
			</g>
			<g>
				<g>
					<path fill="#4ABC96" d="M54.2,100.6c0,0.8-0.7,1.5-1.5,1.5h-7.1c-0.8,0-1.5-0.7-1.5-1.5v-7.7c0-0.8,0.7-1.5,1.5-1.5h7.1
						c0.8,0,1.5,0.7,1.5,1.5V100.6z"/>
				</g>
				<g>
					<path fill="#4ABC96" d="M66.5,100.6c0,0.8-0.7,1.5-1.5,1.5h-7.1c-0.8,0-1.5-0.7-1.5-1.5v-7.7c0-0.8,0.7-1.5,1.5-1.5H65
						c0.8,0,1.5,0.7,1.5,1.5V100.6z"/>
				</g>
			</g>
			<g>
				<path fill="#4ABC96" d="M73.3,89.1h-2.2c-1.1,0-2,0.9-2,2h0v0c0,0,0,0,0,0c0,0,0,0,0,0V102h6.1V91.1h0
					C75.3,90,74.4,89.1,73.3,89.1z"/>
			</g>
			<g>
				<path fill="#4ABC96" d="M83.3,86.3L83.3,86.3L83.3,86.3c0-1.1-0.9-1.9-2-1.9h-2.2c-1.1,0-1.9,0.9-2,1.9h0V102h6.1V86.3
					C83.3,86.4,83.3,86.4,83.3,86.3C83.3,86.4,83.3,86.3,83.3,86.3z"/>
			</g>
			<g>
				<path fill="#4ABC96" d="M91.3,81.1C91.3,81.1,91.3,81.1,91.3,81.1L91.3,81.1L91.3,81.1c0-1.1-0.9-2-2-2h-2.2
					c-1.1,0-1.9,0.8-2,1.9h0V102h6.1L91.3,81.1C91.3,81.1,91.3,81.1,91.3,81.1z"/>
			</g>
			<g>
				<rect x="69.1" y="100.8" fill="#4ABC96" width="22.1" height="1.2"/>
			</g>
		</g>
	</g>
</g>
<g id="Layer_5" display="none">
	<g display="inline">
		<g>
			<g>
				<g>
					<g>
						<circle fill="#FFA547" cx="69" cy="68.5" r="63.3"/>
					</g>
				</g>
			</g>
		</g>
		<g>
			<g>
				<g>
					<path fill="#E87D41" d="M69.5,26.5c-1.5,0-2.7,1.2-2.7,2.7v88c0,1.5,1.2,2.7,2.7,2.7c1.5,0,2.7-1.2,2.7-2.7v-88
						C72.3,27.7,71,26.5,69.5,26.5z"/>
				</g>
				<g>
					<path fill="#E87D41" d="M68.4,98.8c-1,1-1,2.7,0,3.8l14.6,14.6c1,1,2.7,1,3.8,0c1-1,1-2.7,0-3.8L72.2,98.8
						C71.1,97.8,69.5,97.8,68.4,98.8z"/>
				</g>
				<g>
					<path fill="#E87D41" d="M70.6,98.8c-1-1-2.7-1-3.8,0l-14.6,14.6c-1,1-1,2.7,0,3.8c1,1,2.7,1,3.8,0l14.6-14.6
						C71.6,101.6,71.6,99.9,70.6,98.8z"/>
				</g>
				<g>
					<g>
						<path fill="#E87D41" d="M114.5,87.7c0,2.9-2.4,5.3-5.2,5.3H31.8c-2.9,0-5.3-2.4-5.3-5.3V35.8c0-2.9,2.4-5.3,5.3-5.3h77.5
							c2.9,0,5.2,2.4,5.2,5.3V87.7z"/>
					</g>
				</g>
				<g>
					<g>
						<path fill="#FFFFFF" d="M110.5,84.5c0,2.6-2.1,4.8-4.8,4.8H35.4c-2.6,0-4.8-2.1-4.8-4.8V39.1c0-2.6,2.1-4.8,4.8-4.8h70.4
							c2.6,0,4.8,2.1,4.8,4.8V84.5z"/>
					</g>
				</g>
				<g>
					<defs>
						<path id="SVGID_1_" d="M114.5,87.7c0,2.9-2.4,5.3-5.2,5.3H31.8c-2.9,0-5.3-2.4-5.3-5.3V35.8c0-2.9,2.4-5.3,5.3-5.3h77.5
							c2.9,0,5.2,2.4,5.2,5.3V87.7z"/>
					</defs>
					<clipPath id="SVGID_2_">
						<use xlink:href="#SVGID_1_"  overflow="visible"/>
					</clipPath>
				</g>
				<g>
					<path fill="#E87D41" d="M101.9,51.7c0,1.1-0.9,2-2,2H82.7c-1.1,0-2-0.9-2-2c0-1.1,0.9-2,2-2h17.2
						C101,49.7,101.9,50.6,101.9,51.7"/>
				</g>
				<g>
					<path fill="#E87D41" d="M101.9,60c0,1.1-0.9,2-2,2H82.7c-1.1,0-2-0.9-2-2c0-1.1,0.9-2,2-2h17.2C101,58.1,101.9,58.9,101.9,60"
						/>
				</g>
				<g>
					<path fill="#E87D41" d="M101.9,68.9c0,1.1-0.9,2-2,2H82.7c-1.1,0-2-0.9-2-2c0-1.1,0.9-2,2-2h17.2
						C101,66.9,101.9,67.8,101.9,68.9"/>
				</g>
			</g>
			<g>
				<g>
					<path fill="#F4E028" d="M57.7,56.4"/>
				</g>
				<g>
					<path fill="#78A4A4" d="M38.5,56c0-0.1,0-0.2,0-0.3c0,0.2,0,0.3,0,0.5c0,0.5,0,6.1,0,6.5c0,4.5,7.8,8.2,17.5,8.2v-6.7
						C46.4,64.2,38.5,60.5,38.5,56z"/>
				</g>
				<g>
					<rect x="55.9" y="55.9" fill="#78A4A4" width="17.7" height="6.6"/>
				</g>
				<g>
					<path fill="#DDD374" d="M75.2,64.4c0-0.4,0-6.1,0-6.5c0-0.1,0-0.1,0-0.2h0c0,4.5-7.8,8.2-17.5,8.2v6.7
						C67.4,72.6,75.2,69,75.2,64.4z"/>
				</g>
				<g>
					<path fill="#EFE87F" d="M57.7,65.9c9.6,0,17.5-3.7,17.5-8.2H57.7V65.9z"/>
				</g>
				<g>
					<path fill="#ABC7C8" d="M73.5,55.6c-0.4-4.4-8.1-7.8-17.4-7.8c-9.4,0-17.1,3.5-17.5,7.9c0,0.1,0,0.2,0,0.3
						c0,4.5,7.8,8.2,17.5,8.2V56h17.5v0C73.5,55.8,73.5,55.7,73.5,55.6z"/>
				</g>
			</g>
		</g>
	</g>
</g>
</svg>
