<svg version="1.1" id="coursetools-logo" xmlns="http://www.w3.org/2000/svg" xmlns:xlink="http://www.w3.org/1999/xlink" x="0px" y="0px" viewBox="0 0 100 100" enable-background="new 0 0 100 100" xml:space="preserve"><circle fill="#EDC929" cx="49.7" cy="49.8" r="49.2"/>
    <path fill="#7D7C7C" d="M36.3,24.2l-8.2-3l-3,2.7l5.5,6.1L27,33.3l-5.5-6.1l-2.7,2.4l2,8.5l9.1,1.4l35.4,43c0.5,0.6,1.4,0.6,2,0.1l8-7.2c0.6-0.5,0.6-1.4,0.2-2L36.8,33.9L36.3,24.2z"/>
    <path fill="#666" d="M36.2,24.1l-8-3l-2.9,2.6l5.4,6.1l-3.3,3L22,26.6l-2.6,2.3l2.2,8.3l8.8,1.6l35.1,42.6c0.5,0.6,1.3,0.6,1.9,0.1l7.6-6.8c0.6-0.5,0.6-1.3,0.1-1.9L36.9,33.6L36.2,24.1z"/>
    <path fill="#A46535" d="M60.8,21.5c2.5,4.3,0.2,6.6,0.2,6.6L26.2,76.9c-0.4,0.6-0.3,1.4,0.3,1.8l8.1,5.9c0.6,0.4,1.4,0.3,1.8-0.3c0,0,28.7-49.9,30.1-51.8c2.9-3.9,11,1.2,11,1.2c-0.1,0.3-0.5,1.3-0.4,1.4l3.4,2.5c0.4,0.3,1.2-0.3,1.9-1.2l2.2-3c0.7-0.9,1-1.9,0.6-2.2l-3.4-2.5c-0.2-0.2-0.6,0-1.1,0.4l-6.5-5.8l0,0c0,0-5.4-5.9-6.6-6.7c-8.1-5.9-15.2-0.8-17.2,1.8C50.5,18.4,58.7,18,60.8,21.5z"/>
    <path fill="#636564" d="M60.8,21.5c2.5,4.3,0.2,6.6,0.2,6.6l5.5,4.4c2.9-3.9,11,1.2,11,1.2c-0.1,0.3-0.5,1.3-0.4,1.4l3.4,2.5c0.4,0.3,1.2-0.3,1.9-1.2l2.2-3c0.7-0.9,1-1.9,0.6-2.2l-3.4-2.5c-0.2-0.2-0.6,0-1.1,0.4l-6.5-5.8l0,0c0,0-5.4-5.9-6.6-6.7c-8.1-5.9-15.2-0.8-17.2,1.8C50.5,18.4,58.7,18,60.8,21.5z"/>
</svg>
