<svg xmlns="http://www.w3.org/2000/svg" viewBox="0 0 100 100" enable-background="new 0 0 100 100"><circle fill="#EDC929" cx="49.7" cy="49.8" r="49.2"/><path fill="#7D7C7C" d="M36.3 24.2l-8.2-3-3 2.7 5.5 6.1-3.6 3.3-5.5-6.1-2.7 2.4 2 8.5 9.1 1.4 35.4 43c.5.6 1.4.6 2 .1l8-7.2c.6-.5.6-1.4.2-2l-38.7-39.5-.5-9.7z"/><path fill="#666" d="M36.2 24.1l-8-3-2.9 2.6 5.4 6.1-3.3 3-5.4-6.2-2.6 2.3 2.2 8.3 8.8 1.6 35.1 42.6c.5.6 1.3.6 1.9.1l7.6-6.8c.6-.5.6-1.3.1-1.9l-38.2-39.2-.7-9.5z"/><path fill="#A46535" d="M60.8 21.5c2.5 4.3.2 6.6.2 6.6l-34.8 48.8c-.4.6-.3 1.4.3 1.8l8.1 5.9c.6.4 1.4.3 1.8-.3 0 0 28.7-49.9 30.1-51.8 2.9-3.9 11 1.2 11 1.2-.1.3-.5 1.3-.4 1.4l3.4 2.5c.4.3 1.2-.3 1.9-1.2l2.2-3c.7-.9 1-1.9.6-2.2l-3.4-2.5c-.2-.2-.6 0-1.1.4l-6.5-5.8s-5.4-5.9-6.6-6.7c-8.1-5.9-15.2-.8-17.2 1.8.1 0 8.3-.4 10.4 3.1z"/><path fill="#636564" d="M60.8 21.5c2.5 4.3.2 6.6.2 6.6l5.5 4.4c2.9-3.9 11 1.2 11 1.2-.1.3-.5 1.3-.4 1.4l3.4 2.5c.4.3 1.2-.3 1.9-1.2l2.2-3c.7-.9 1-1.9.6-2.2l-3.4-2.5c-.2-.2-.6 0-1.1.4l-6.5-5.8s-5.4-5.9-6.6-6.7c-8.1-5.9-15.2-.8-17.2 1.8.1 0 8.3-.4 10.4 3.1z"/></svg>