<svg xmlns="http://www.w3.org/2000/svg" viewBox="0 0 100 100" style="enable-background:new 0 0 100 100"><g style="fill:none;stroke-miterlimit:10;stroke:#999;stroke-width:3"><path d="m54.1 48.5l2.9-2.9 2.4 2.4-2.9 2.9m-4.1 4l-29.4 29.4c-.1.1-.2.3-.2.4v3c0 .6-.3 1.1-.9 1.4l-7.4 3.6c-.2.1-.5.1-.7-.1l-1.5-1.5c-.2-.2-.2-.5-.1-.7l3.6-7.5c.2-.5.8-.8 1.3-.9l3-.1c.2 0 .3-.1.4-.2l29.5-29.1m3.3-11.2l5-1.8c.6-.2 1-.8 1-1.4v-7.2c0-.4.2-.8.4-1.1l22.9-22.8c.3-.3.7-.4 1.1-.4l7.5.1c.4 0 .8.2 1.1.4l5.6 5.7c.3.3.4.7.4 1.1v7.4c0 .4-.2.8-.4 1.1l-22.9 22.7c-.3.3-.7.4-1.1.4l-7 .1c-.6 0-1.2.4-1.4 1l-1.8 5.1c-.1.2-.3.3-.5.1l-10-10c-.2-.2-.1-.5.1-.5z"/><path d="m41.5 35.9l26.4 26.4m-30.5-22.3l26.6 26.5m32.9 21.7l-6.7 6.7c-1.1 1.1-3 1.1-4.1 0l-23.2-23.2c-1.1-1.1-1.1-3 0-4.1l6.7-6.7c1.1-1.1 3-1.1 4.1 0l23.3 23.3c1 1.1 1 2.9-.1 4zm-63.7-77.2l-19.5 19.6c1.8 1.9 1.9 5.3-.1 7.3-2 2-5.3 1.9-7.3.1l-4.2 4.2c-.3.3-.3.8 0 1.1l15.6 15.6c.3.3.8.3 1.1 0l4.2-4.2c-.2-.2-.1-.1-.2-.2-2.1-2.1-2.1-5.4 0-7.5 2.1-2.1 5.5-2 7.5.1 0 0-.1-.1.1.1l17.2-17.2c-.2-.2-.1-.1-.1-.1-4.7-4.7-4.7-12.2 0-16.9 4.7-4.7 12.3-4.6 16.9 0 0 0-.1-.1.1.1l2.2-2.2c-9.2-9.2-25.8-7.6-33.5.1z"/><path d="m69.2 35l19.9-19.9" style="stroke-linecap:round"/></g></svg>