<svg xmlns="http://www.w3.org/2000/svg" width="50" height="50" viewBox="0 0 50 50">
  <g id="Group_187" data-name="Group 187" transform="translate(-4939 -1885)">
    <rect id="Rectangle_71" data-name="Rectangle 71" width="50" height="50" rx="5" transform="translate(4939 1885)" fill="#3bb582"/>
    <g id="icon" transform="translate(4944.466 1889)">
      <g id="Group_188" data-name="Group 188" transform="translate(18.537 22.764)">
        <path id="Path_119" data-name="Path 119" d="M48.9,55.936H36.834A1.506,1.506,0,0,1,35.3,54.4V42.234A1.506,1.506,0,0,1,36.834,40.7H48.9a1.506,1.506,0,0,1,1.534,1.534V54.4A1.538,1.538,0,0,1,48.9,55.936ZM38.368,52.868h9v-9.1h-9Z" transform="translate(-35.3 -40.7)" fill="#fff"/>
      </g>
      <g id="Group_189" data-name="Group 189" transform="translate(20.071 14.992)">
        <path id="Path_120" data-name="Path 120" d="M41.368,32.147v-.665a2.913,2.913,0,0,1,2.914-2.914A2.946,2.946,0,0,1,47.2,31.482v.665h3.068v-.665a5.982,5.982,0,1,0-11.964,0v.665Z" transform="translate(-38.3 -25.5)" fill="#fff"/>
      </g>
      <path id="Path_121" data-name="Path 121" d="M30.4,4H8.669A7.659,7.659,0,0,0,1,11.669V21.741a7.659,7.659,0,0,0,7.669,7.669H9.9v3.426a1.54,1.54,0,0,0,.971,1.432,1.2,1.2,0,0,0,.562.1,1.472,1.472,0,0,0,1.074-.46l4.55-4.55h.46V26.292H16.389a1.392,1.392,0,0,0-1.074.46L12.964,29.1V27.826a1.506,1.506,0,0,0-1.534-1.534H8.669a4.582,4.582,0,0,1-4.6-4.6V11.669a4.582,4.582,0,0,1,4.6-4.6H30.4a4.582,4.582,0,0,1,4.6,4.6V21.741a4.429,4.429,0,0,1-.307,1.636v4.7a7.664,7.664,0,0,0,3.374-6.34V11.669A7.659,7.659,0,0,0,30.4,4Z" fill="#fff"/>
    </g>
  </g>
</svg>
