<svg xmlns="http://www.w3.org/2000/svg" viewBox="0 0 16 16" enable-background="new 0 0 16 16"><g><circle fill="#49A0AE" cx="8" cy="7.9" r="7.9"/><path fill="#DFF1ED" d="M14.3 10.9c0 .7-.6 1.3-1.3 1.3h-9.9c-.7 0-1.3-.6-1.3-1.3v-5.8c0-.7.6-1.3 1.3-1.3h9.9c.7 0 1.3.6 1.3 1.3v5.8zM11.3 13.9c-.1.1-.3.1-.4 0l-1.3-1.8c-.1-.1-.1-.3 0-.4h2.9c.1.1.1.3 0 .4l-1.2 1.8z"/><path fill="#B7CAC4" d="M12.4 6c0 .3-.2.5-.5.5h-7.8c-.2 0-.5-.2-.5-.5s.2-.5.5-.5h7.8c.3 0 .5.2.5.5zM12.4 7.9c0 .3-.2.5-.5.5h-7.8c-.3 0-.5-.2-.5-.5s.2-.5.5-.5h7.8c.3 0 .5.2.5.5zM12.4 9.8c0 .3-.2.5-.5.5h-7.8c-.3 0-.5-.2-.5-.5s.2-.5.5-.5h7.8c.3 0 .5.2.5.5z"/><circle fill="#0EA24A" cx="2.5" cy="2.4" r="2.3"/><path fill="#fff" d="M4.1 2.3c0 .2-.2.4-.4.4h-2.4c-.2 0-.3-.2-.3-.4s.1-.3.3-.3h2.4c.2 0 .4.1.4.3zM2.5 3.9c-.2 0-.4-.2-.4-.4v-2.4c0-.2.2-.4.4-.4s.4.2.4.4v2.4c0 .2-.2.4-.4.4z"/></g></svg>