<svg xmlns="http://www.w3.org/2000/svg" width="50" height="50" viewBox="0 0 50 50">
  <g id="Group_52" data-name="Group 52" transform="translate(-4741 -2101)">
    <rect id="Rectangle_77" data-name="Rectangle 77" width="50" height="50" rx="5" transform="translate(4741 2101)" fill="#8bc34a"/>
    <g id="monologo" transform="translate(4749 2106.2)">
      <path id="Path_39" data-name="Path 39" d="M28.294,3.8H5.659A5.658,5.658,0,0,0,0,9.459H0V24.793a5.619,5.619,0,0,0,5.659,5.613H9.766L16.018,35.7a1.506,1.506,0,0,0,1.825,0l6.3-5.294h4.107a5.658,5.658,0,0,0,5.659-5.659V9.459A5.59,5.59,0,0,0,28.294,3.8Zm3.24,5.339v15.79A2.863,2.863,0,0,1,28.659,27.8h-4.2a2.871,2.871,0,0,0-1.871.685l-5.568,4.655-5.613-4.655A2.785,2.785,0,0,0,9.538,27.8H5.385A2.863,2.863,0,0,1,2.51,24.929h0V9.139A2.863,2.863,0,0,1,5.385,6.264H28.568a2.942,2.942,0,0,1,2.966,2.875Z" transform="translate(0 0)" fill="#fff"/>
      <path id="Path_40" data-name="Path 40" d="M13.541,32.57H28.327a1.187,1.187,0,0,0,0-2.373H13.678a1.212,1.212,0,0,0-1.278,1.1A1.253,1.253,0,0,0,13.541,32.57Z" transform="translate(-6.741 -14.349)" fill="#fff"/>
      <path id="Path_41" data-name="Path 41" d="M13.792,22.073h7.347a1.184,1.184,0,0,0,1.1-1.278,1.142,1.142,0,0,0-1.1-1.1h-7.3A1.153,1.153,0,0,0,12.7,20.932,1.222,1.222,0,0,0,13.792,22.073Z" transform="translate(-6.901 -8.644)" fill="#fff"/>
      <path id="Path_42" data-name="Path 42" d="M28.224,40.6H13.574a1.19,1.19,0,0,0-.183,2.373H28.178a1.151,1.151,0,0,0,1.187-1.187A1.115,1.115,0,0,0,28.224,40.6Z" transform="translate(-6.683 -20.003)" fill="#fff"/>
    </g>
  </g>
</svg>
