<svg xmlns="http://www.w3.org/2000/svg" width="50" height="50" viewBox="0 0 50 50">
  <g id="Group_187" data-name="Group 187" transform="translate(-4939 -1885)">
    <rect id="Rectangle_71" data-name="Rectangle 71" width="50" height="50" rx="5" transform="translate(4939 1885)" fill="#be46ce"/>
    <g id="icon" transform="translate(4944.589 1888.503)">
      <path id="Path_113" data-name="Path 113" d="M50.161,42.069h0L46.092,34.3a10.013,10.013,0,0,0,1.774-5.948,10.748,10.748,0,1,0-21.5,0A11.531,11.531,0,0,0,28.144,34.3l-4.069,7.878a1.307,1.307,0,0,0,.1,1.3,1.123,1.123,0,0,0,1.2.365l3.965-.939,1.93,2.87a2.012,2.012,0,0,0,1.1.47h.1a.9.9,0,0,0,.939-.73l3.13-6.574h1.2l3.13,6.574a2.1,2.1,0,0,0,.939.73h.1a1.478,1.478,0,0,0,.939-.47l1.93-2.87,3.965.939a1.021,1.021,0,0,0,1.2-.47A1.193,1.193,0,0,0,50.161,42.069Zm-17.947.574h0l-1.2-1.774a1.163,1.163,0,0,0-1.3-.47l-2.139.574,2.4-4.643a10.8,10.8,0,0,0,4.174,2.4Zm4.9-6.417A7.878,7.878,0,1,1,45,28.348,7.838,7.838,0,0,1,37.118,36.226Zm7.409,4.017h0a1.431,1.431,0,0,0-1.3.47l-1.2,1.774-1.93-4.069a10.8,10.8,0,0,0,4.174-2.4l2.4,4.643Z" transform="translate(-11.449 -6.745)" fill="#fff"/>
      <path id="Path_114" data-name="Path 114" d="M9.756,31.255H2.765V14.611h0V11.846h0V6.316H30.573v1.93h0V8.3a1.409,1.409,0,0,0,2.817,0V6.264A2.783,2.783,0,0,0,30.626,3.5H2.765A2.718,2.718,0,0,0,0,6.264V31.255A2.783,2.783,0,0,0,2.765,34.02H9.756a1.418,1.418,0,0,0,1.356-1.356A1.467,1.467,0,0,0,9.756,31.255Z" transform="translate(0 0)" fill="#fff"/>
    </g>
  </g>
</svg>
