<?xml version="1.0" encoding="utf-8"?>
<!-- Generator: Adobe Illustrator 18.0.0, SVG Export Plug-In . SVG Version: 6.00 Build 0)  -->
<!DOCTYPE svg PUBLIC "-//W3C//DTD SVG 1.1//EN" "http://www.w3.org/Graphics/SVG/1.1/DTD/svg11.dtd">
<svg version="1.1" id="Layer_1" xmlns="http://www.w3.org/2000/svg" xmlns:xlink="http://www.w3.org/1999/xlink" x="0px" y="0px"
	 viewBox="0 0 100 100" enable-background="new 0 0 100 100" xml:space="preserve">
<g id="Layer_9">
	<g>
		<g>
			<g>
				<circle fill="#4ABC96" cx="50.4" cy="51" r="46.2"/>
			</g>
		</g>
		<g>
			<g>
				<path fill="#A3D4AA" d="M73.6,30.8c0,1.2-1,2.2-2.2,2.2H58c-1.2,0-2.2-1-2.2-2.2V23c0-1.2,1-2.2,2.2-2.2h13.4
					c1.2,0,2.2,1,2.2,2.2V30.8z"/>
				<path fill="#A3D4AA" d="M79.8,55.6c0,3.8-3.2,7-7,7H29.4c-3.8,0-7-3.2-7-7v-25c0-3.8,3.2-7,7-7h43.4c3.8,0,7,3.2,7,7V55.6
					L79.8,55.6L79.8,55.6z"/>
			</g>
			<g>
				
					<rect x="61.4" y="25.9" transform="matrix(-0.7071 0.7072 -0.7072 -0.7071 131.6392 11.3444)" opacity="0.15" enable-background="new    " width="4.2" height="14"/>
				<g>
					<path fill="#F6A2A3" d="M60.6,36c0,1.2-1,2.2-2.2,2.2H45c-1.2,0-2.2-1-2.2-2.2v-7.8c0-1.2,1-2.2,2.2-2.2h13.4
						c1.2,0,2.2,1,2.2,2.2C60.6,28.2,60.6,36,60.6,36z"/>
				</g>
				<path fill="#F6A2A3" d="M79.8,61.2c0,3.8-3.2,7-7,7H29.4c-3.8,0-7-3.2-7-7V36c0-3.8,3.2-7,7-7h43.4c3.8,0,7,3.2,7,7V61.2
					L79.8,61.2L79.8,61.2z"/>
			</g>
			
				<rect x="47.9" y="31.2" transform="matrix(-0.7071 0.7072 -0.7072 -0.7071 112.3701 29.7995)" opacity="0.15" enable-background="new    " width="4.2" height="14"/>
			<g>
				<path fill="#F9F29A" d="M47.6,41.6c0,1.2-1,2.2-2.2,2.2H32.2c-1.2,0-2.2-1-2.2-2.2v-7.8c0-1.2,1-2.2,2.2-2.2h13.4
					c1.2,0,2.2,1,2.2,2.2L47.6,41.6L47.6,41.6z"/>
				<path fill="#F9F29A" d="M79.8,73.8H22.4v-32c0-3.8,3.2-7,7-7h43.4c3.8,0,7,3.2,7,7V73.8L79.8,73.8L79.8,73.8z"/>
			</g>
		</g>
	</g>
</g>
</svg>
