<svg xmlns="http://www.w3.org/2000/svg" width="50" height="50" viewBox="0 0 50 50">
  <g id="Group_63" data-name="Group 63" transform="translate(-4805 -2065)">
    <g id="Group_57" data-name="Group 57" transform="translate(64 180)">
      <g id="Group_41" data-name="Group 41">
        <rect id="Rectangle_67" data-name="Rectangle 67" width="50" height="50" rx="5" transform="translate(4741 1885)" fill="#f5ce4d"/>
      </g>
    </g>
    <path id="monologo" d="M34.054,12.322a1.625,1.625,0,0,0-1.464-1.785H17.443L14.057,5.5A1.441,1.441,0,0,0,13,5H1.61A1.72,1.72,0,0,0,.1,6.876v25.58a1.814,1.814,0,0,0,1.51,1.876H32.59a1.6,1.6,0,0,0,1.464-1.419c0-20.18.046-8.557.046-18.213l-.046-2.38Zm-2.38.732V31.907L2.434,31.816V7.38l10.2.137,3.524,5.217a.941.941,0,0,0,.686.366H31.675Z" transform="translate(4812.9 2070)" fill="#fff"/>
  </g>
</svg>
