<?xml version="1.0" encoding="utf-8"?>
<!-- Generator: Adobe Illustrator 18.0.0, SVG Export Plug-In . SVG Version: 6.00 Build 0)  -->
<!DOCTYPE svg PUBLIC "-//W3C//DTD SVG 1.1//EN" "http://www.w3.org/Graphics/SVG/1.1/DTD/svg11.dtd">
<svg version="1.1" id="Layer_1" xmlns="http://www.w3.org/2000/svg" xmlns:xlink="http://www.w3.org/1999/xlink" x="0px" y="0px"
	 viewBox="0 0 100 100" enable-background="new 0 0 100 100" xml:space="preserve">
<g id="forum" display="none">
	<polygon display="inline" fill="#38A70C" points="93.8,75.6 50,100.6 6.9,75.6 6.9,25 50,0 93.8,25 	"/>
	<rect x="15" y="28.8" display="inline" fill="#FFFFFF" width="71.2" height="41.2"/>
	<polyline display="inline" fill="#FFFFFF" points="43.1,81.2 43.1,70 58.7,70 	"/>
	<rect x="6.2" y="6.2" display="inline" fill="#38A70C" width="68.1" height="68.1"/>
	<polyline display="inline" fill="#38A70C" points="15.6,99.4 15.6,74.4 41.2,74.4 	"/>
	<g display="inline">
		<rect x="22.5" y="36.2" fill="#B0DD9A" width="56.3" height="5"/>
		<rect x="22.5" y="46.9" fill="#B0DD9A" width="56.3" height="5"/>
		<rect x="22.5" y="57.5" fill="#B0DD9A" width="56.3" height="5"/>
	</g>
	<g display="inline">
		<g>
			<g>
				<circle fill="#49A0AE" cx="50" cy="49.4" r="49.4"/>
			</g>
		</g>
		<g>
			<g>
				<g>
					<path fill="#DFF1ED" d="M89.4,68.1c0,4.4-3.8,8.1-8.1,8.1H19.4c-4.4,0-8.1-3.8-8.1-8.1V31.9c0-4.4,3.8-8.1,8.1-8.1h61.9
						c4.4,0,8.1,3.8,8.1,8.1V68.1z"/>
				</g>
				<g>
					<path fill="#DFF1ED" d="M70.6,86.9c-0.6,0.6-1.9,0.6-2.5,0L60,75.6c-0.6-0.6-0.6-1.9,0-2.5h18.1c0.6,0.6,0.6,1.9,0,2.5
						L70.6,86.9z"/>
				</g>
			</g>
			<g>
				<g>
					<path fill="#B7CAC4" d="M77.5,37.5c0,1.9-1.2,3.1-3.1,3.1H25.6c-1.2,0-3.1-1.2-3.1-3.1l0,0c0-1.9,1.2-3.1,3.1-3.1h48.8
						C76.2,34.4,77.5,35.6,77.5,37.5L77.5,37.5z"/>
				</g>
				<g>
					<path fill="#B7CAC4" d="M77.5,49.4c0,1.9-1.2,3.1-3.1,3.1H25.6c-1.9,0-3.1-1.2-3.1-3.1l0,0c0-1.9,1.2-3.1,3.1-3.1h48.8
						C76.2,46.2,77.5,47.5,77.5,49.4L77.5,49.4z"/>
				</g>
				<g>
					<path fill="#B7CAC4" d="M77.5,61.2c0,1.9-1.2,3.1-3.1,3.1H25.6c-1.9,0-3.1-1.2-3.1-3.1l0,0c0-1.9,1.2-3.1,3.1-3.1h48.8
						C76.2,58.1,77.5,59.4,77.5,61.2L77.5,61.2z"/>
				</g>
			</g>
		</g>
	</g>
</g>
<g id="chat" display="none">
	<g display="inline">
		<g>
			<g>
				<circle fill="#49A0AE" cx="49.4" cy="50" r="50"/>
			</g>
		</g>
		<g>
			<g>
				<g>
					<path fill="#DFF1ED" d="M89.4,69.4c0,4.4-3.8,8.1-8.1,8.1H19.4c-4.4,0-8.1-3.8-8.1-8.1V31.9c0-4.4,3.8-8.1,8.1-8.1h61.9
						c4.4,0,8.1,3.8,8.1,8.1V69.4z"/>
				</g>
				<g>
					<path fill="#DFF1ED" d="M70.6,88.8c-0.6,0.6-1.9,0.6-2.5,0L60,77.5c-0.6-0.6-0.6-1.9,0-2.5h18.1c0.6,0.6,0.6,1.9,0,2.5
						L70.6,88.8z"/>
				</g>
			</g>
			<g>
				<g>
					<circle fill="#B7CAC4" cx="33.8" cy="51.9" r="5"/>
				</g>
				<g>
					<circle fill="#B7CAC4" cx="50" cy="51.9" r="5"/>
				</g>
				<g>
					<circle fill="#B7CAC4" cx="66.2" cy="51.9" r="5"/>
				</g>
			</g>
		</g>
	</g>
</g>
<g id="assignment" display="none">
	<g display="inline">
		<g>
			<g>
				<circle fill="#4ABC96" cx="50" cy="50" r="49.4"/>
			</g>
		</g>
		<g>
			<g>
				
					<rect x="23.7" y="15.6" transform="matrix(-0.9875 0.1577 -0.1577 -0.9875 104.7735 91.6685)" fill="#FFFFFF" width="50" height="68.8"/>
				<g>
					
						<rect x="23.7" y="22.5" transform="matrix(-0.9875 0.1578 -0.1578 -0.9875 91.2343 40.3091)" fill="#357180" width="40.6" height="2.5"/>
					
						<rect x="25" y="29.4" transform="matrix(-0.9875 0.1577 -0.1577 -0.9875 94.9599 53.7344)" fill="#357180" width="40.6" height="2.5"/>
					
						<rect x="26.2" y="35.6" transform="matrix(-0.9875 0.1578 -0.1578 -0.9875 98.2756 65.9129)" fill="#357180" width="40.6" height="2.5"/>
					
						<rect x="27.5" y="43.7" transform="matrix(-0.9875 0.1578 -0.1578 -0.9875 84.0712 83.2444)" fill="#357180" width="22.5" height="2.5"/>
				</g>
			</g>
			<g>
				
					<rect x="45.7" y="66.8" transform="matrix(-0.9788 -0.2046 0.2046 -0.9788 88.9166 144.1066)" fill="#F7D98B" width="12.5" height="1.2"/>
				<polygon fill="#F7D98B" points="55.6,46.9 46.2,65.6 58.1,68.1 				"/>
				<polygon fill="#626463" points="55.6,46.9 51.9,55 56.9,56.2 				"/>
				<path fill="#F2BE3E" d="M25,228.7c-0.6,2.5-3.1,2.5-5.6,1.9l-3.1-0.6c-2.5-0.6-4.4-1.2-4.4-3.7l0.6-1.9c0.6-2.5,12.5,0,11.9,2.5
					L25,228.7z"/>
				
					<rect x="13.7" y="217.5" transform="matrix(-0.979 -0.2041 0.2041 -0.979 -5.717 442.5606)" fill="#818282" width="12.5" height="8.1"/>
				
					<rect x="14.3" y="217.5" transform="matrix(-0.979 -0.2041 0.2041 -0.979 -3.7788 435.8452)" fill="#A4A5A4" width="12.5" height="1.3"/>
				
					<rect x="13.8" y="220" transform="matrix(-0.9789 -0.2043 0.2043 -0.9789 -5.4675 440.6357)" fill="#A4A5A4" width="12.5" height="1.2"/>
				
					<rect x="13.1" y="223.1" transform="matrix(-0.9789 -0.2044 0.2044 -0.9789 -7.4678 446.6582)" fill="#A4A5A4" width="12.5" height="1.3"/>
				<g>
					<polygon fill="#E84849" points="55.6,68.8 24.4,218.1 26.9,218.8 58.1,69.4 57.5,66.9 					"/>
					<polygon fill="#E84849" points="48.1,67.5 16.9,216.9 20,217.5 51.2,68.1 50,65.6 					"/>
					<polygon fill="#F06668" points="45.6,66.9 14.4,216.2 16.9,216.9 48.1,67.5 46.9,65 					"/>
					<polygon fill="#F06668" points="51.2,68.1 20,217.5 24.4,218.1 55.6,68.8 53.8,66.2 					"/>
				</g>
			</g>
		</g>
	</g>
</g>
<g id="wiki" display="none">
	<g display="inline">
		<g>
			<g>
				<g>
					<circle fill="#EFC849" cx="50" cy="50" r="50"/>
				</g>
			</g>
		</g>
		<g>
			<g>
				<g id="Layer_6">
					<g>
						<g>
							<g>
								<g>
									<path fill="#E0E4E3" d="M93.1,30.6c0-5.6-4.4-10-10-10H16.9c-5,0-9.4,4.4-9.4,10v41.2c0,5.6,4.4,10,10,10h66.2
										c5.6,0,10-4.4,10-10L93.1,30.6L93.1,30.6z"/>
								</g>
								<g>
									<g>
										<g>
											<path fill="#D1D3D3" d="M93.1,29.4c-0.6-5-5-8.8-10-8.8H16.9c-5.6,0-10,4.4-10,10v1.9h85.6v-3.1H93.1z"/>
										</g>
									</g>
									<g>
										<circle fill="#E84849" cx="15" cy="26.9" r="2.5"/>
									</g>
									<g>
										<circle fill="#EFC849" cx="23.1" cy="26.9" r="2.5"/>
									</g>
									<g>
										<circle fill="#37B34C" cx="31.2" cy="26.9" r="2.5"/>
									</g>
								</g>
							</g>
						</g>
					</g>
				</g>
				<g>
					<path fill="#666665" d="M51.9,40.6c0,0.6,0,2.5,0,3.1S49.4,45,48.1,45H19.4c-1.2,0-3.1-0.6-3.1-0.6c-0.6,0-1.2-2.5-0.6-3.8
						c0-0.6,2.5-1.2,3.8-1.2h29.4C50,39.4,51.9,40,51.9,40.6z"/>
				</g>
				<path fill="#666665" d="M85,54.4c0,1.9-1.2,3.1-3.1,3.1H18.1c-1.9,0-3.1-1.2-3.1-3.1l0,0c0-1.9,1.2-3.1,3.1-3.1h63.8
					C83.8,51.2,85,52.5,85,54.4L85,54.4z"/>
				<path fill="#666665" d="M85.6,66.2c0,1.9-1.2,3.1-3.1,3.1H18.1c-1.9,0-3.1-1.2-3.1-3.1l0,0c0-1.9,1.2-3.1,3.1-3.1h63.8
					C83.8,63.1,85.6,65,85.6,66.2L85.6,66.2z"/>
				<path fill="#FFFFFF" d="M85.6,27.5c0,1.9-0.6,3.1-1.9,3.1H45.6c-1.2,0-1.9-1.3-1.9-3.1l0,0c0-1.9,0.6-3.1,1.9-3.1h37.5
					C84.4,24.4,85.6,25.6,85.6,27.5L85.6,27.5z"/>
			</g>
			<g>
				<g>
					<g>
						<g>
							<circle fill="#3CB881" cx="75.6" cy="75.6" r="23.1"/>
						</g>
					</g>
				</g>
				<g>
					<g>
						<g>
							<g>
								<polygon fill="#F7D98B" points="87.5,63.1 66.2,75 65.6,76.2 75.6,86.2 76.9,85 								"/>
							</g>
						</g>
						<g>
							<g>
								<polygon fill="#626463" points="88.1,63.1 78.8,68.1 83.1,72.5 								"/>
							</g>
						</g>
						<g>
							<g>
								<g>
									<path fill="#E84849" d="M76.9,83.8h-3.1L62.5,95c0.6,0.6,1.9,1.2,3.1,1.9l10.6-10.6L76.9,83.8z"/>
								</g>
							</g>
							<g>
								<g>
									<path fill="#E84849" d="M58.7,91.9L70,80.6v-3.1h-3.1L56.2,88.8C56.9,90,58.1,90.6,58.7,91.9z"/>
								</g>
							</g>
							<g>
								<g>
									<path fill="#F06668" d="M67.5,77.5l0.6-3.1l-1.9,1.2L55.6,86.2c-0.6,1.3,0,1.9,0.6,2.5L67.5,77.5z"/>
								</g>
							</g>
							<g>
								<g>
									<path fill="#F06668" d="M62.5,95l11.2-11.2v-3.1h-3.1L59.4,91.9C60,93.1,61.2,94.4,62.5,95z"/>
								</g>
							</g>
						</g>
					</g>
				</g>
			</g>
		</g>
	</g>
</g>
<g id="glossary" display="none">
	<g display="inline">
		<g>
			<circle fill="#EDC92C" cx="50" cy="50.6" r="50"/>
		</g>
		<g>
			<g>
				<g>
					<path fill="#DADADA" d="M73.8,81.9c0,3.8-2.5,6.2-6.2,6.2H23.8c-3.8,0-6.2-2.5-6.2-6.2V19.4c0-3.8,3.1-6.3,6.2-6.3h43.8
						c3.8,0,6.2,2.5,6.2,6.3V81.9z"/>
				</g>
				<g>
					<path fill="#F5F5F5" d="M75.6,82.5c0,3.8-3.1,6.2-6.2,6.2H25.6c-3.7,0-6.2-2.5-6.2-6.2V19.4c0-3.8,3.1-6.3,6.2-6.3h43.8
						c3.8,0,6.2,2.5,6.2,6.3V82.5z"/>
				</g>
				<g>
					<g>
						<g>
							<path fill="#C9C9C8" d="M70.6,38.8c0,0.6-0.6,1.2-1.2,1.2H27.5c-0.6,0-1.2-0.6-1.2-1.2l0,0c0-0.6,0.6-1.2,1.2-1.2h41.9
								C70,36.9,70.6,37.5,70.6,38.8L70.6,38.8z"/>
						</g>
					</g>
					<g>
						<g>
							<path fill="#C9C9C8" d="M70.6,45.6c0,0.6-0.6,1.2-1.2,1.2H27.5c-0.6,0-1.2-0.6-1.2-1.2l0,0c0-1.2,0-1.9,1.2-1.9h41.9
								C70,43.8,70.6,44.4,70.6,45.6L70.6,45.6z"/>
						</g>
					</g>
					<g>
						<g>
							<path fill="#C9C9C8" d="M70.6,51.9c0,0.6-0.6,1.2-1.2,1.2H27.5c-0.6,0-1.2-0.6-1.2-1.2l0,0c0-0.6,0.6-1.2,1.2-1.2h41.9
								C70,50.6,70.6,51.2,70.6,51.9L70.6,51.9z"/>
						</g>
					</g>
					<g>
						<g>
							<path fill="#C9C9C8" d="M70.6,58.7c0,0.6-0.6,1.2-1.2,1.2H27.5c-0.6,0-1.2-0.6-1.2-1.2l0,0c0-0.6,0.6-1.2,1.2-1.2h41.9
								C70,57.5,70.6,58.1,70.6,58.7L70.6,58.7z"/>
						</g>
					</g>
					<g>
						<g>
							<path fill="#C9C9C8" d="M49.4,64.4H27.5c-0.6,0-1.2,0.6-1.2,1.2s0.6,1.2,1.2,1.2h21.9c0.6,0,1.3-0.6,1.3-1.2
								S50,64.4,49.4,64.4z"/>
						</g>
					</g>
				</g>
			</g>
			<g>
				<path fill="#A0E0BD" d="M82.5,75.6c0,3.8-3.1,6.9-6.9,6.9l0,0V56.9l0,0c3.8,0,6.9,3.1,6.9,6.9V75.6z"/>
				<path fill="#46CC8C" d="M82.5,57.5c0,3.8-3.1,6.9-6.9,6.9l0,0V38.8l0,0c3.8,0,6.9,3.1,6.9,6.9V57.5z"/>
				<path fill="#049E54" d="M82.5,36.2c0,3.8-3.1,6.9-6.9,6.9l0,0V17.5l0,0c3.8,0,6.9,3.1,6.9,6.9V36.2z"/>
			</g>
		</g>
	</g>
</g>
<g id="feedback" display="none">
	<g display="inline">
		<g>
			<circle fill="#A0BF19" cx="50" cy="50" r="50"/>
		</g>
		<g>
			<path fill="#FCC288" d="M79.4,50c-0.6-0.6-1.2-1.2-1.2-1.9c1.2-0.6,2.5-3.1,2.5-3.8c0-5.6-5-6.2-5-6.2s0,0-15,0
				c-1.9-0.6-1.2-3.8-0.6-5c2.5-5,4.4-8.8,4.4-11.2c-0.6-10.6-8.1-8.8-8.8-8.1c0,11.2-2.5,13.8-5.6,15.6c-2.5,1.9-3.1,4.4-6.2,11.9
				s-9.4,5-9.4,5s0,2.5,0,25c18.8,3.8,29.4,3.1,34.4,2.5c5-0.6,6.2-3.8,6.2-5.6c0-1.9,0.6-3.1,1.2-3.8c3.8-3.1,2.5-3.8,1.2-5.6
				c-1.2-1.9-0.6-2.5,1.2-4.4C80.6,53.1,80,50.6,79.4,50z"/>
			<path fill="#5C524A" d="M33.1,45.6h-9.4c-0.6,0-1.2,0.6-1.2,1.2v25c0,0.6,0.6,1.2,1.2,1.2h9.4c0.6,0,1.2-0.6,1.2-1.2v-25
				C34.4,46.2,33.8,45.6,33.1,45.6z"/>
		</g>
	</g>
	
		<polyline display="inline" fill="none" stroke="#0C8C1B" stroke-linecap="round" stroke-linejoin="round" stroke-miterlimit="10" points="
		-2.5,50.6 23.8,50.6 28.8,36.9 36.9,58.7 45,45.6 48.8,50.6 53.8,45 58.7,50.6 100.6,50.6 	"/>
</g>
<g id="choice" display="none">
	<g display="inline">
		<circle fill="#A0BF19" cx="50" cy="50" r="50"/>
		<g display="none">
			<g display="inline">
				<g>
					<g>
						<path fill="#67B8CB" d="M81.2,20c-6.2,0-26.9,0-26.9,0v11.2c0,0,22.5,0,27.5,0c5,0,8.8-3.8,8.8-5.6C90.6,23.7,87.5,20,81.2,20
							z"/>
					</g>
				</g>
				<g>
					<g>
						<path fill="#67B8CB" d="M16.2,20c-6.3,0-8.8,3.8-8.8,5.6s3.8,5.6,8.8,5.6s27.5,0,27.5,0V20C43.1,20,21.9,20,16.2,20z"/>
					</g>
				</g>
				<g>
					<g>
						<path fill="#BB813C" d="M54.4,16.9V85c0,3.8-3.1,4.4-5.6,4.4c-2.5,0-5.6,0-5.6-4.4V16.9H54.4z"/>
					</g>
				</g>
				<g>
					<g>
						<path fill="#A26828" d="M48.8,11.9c2.5,0,5.6,3.1,5.6,5.6c0,0-9.4,0-11.3,0C43.1,15,46.2,11.9,48.8,11.9z"/>
					</g>
				</g>
			</g>
			<g display="inline">
				<path fill="#C9E2E8" d="M81.2,25c0,0.6-0.6,0.6-0.6,0.6H58.1c-0.6,0.6-1.2,0-1.2-0.6l0,0c0-0.6,0.6-0.6,0.6-0.6H80
					C80.6,24.4,81.2,24.4,81.2,25L81.2,25z"/>
			</g>
			<g display="inline">
				<path fill="#C9E2E8" d="M39.4,25c0,0.6-0.6,0.6-0.6,0.6H16.2c-0.6,0.6-0.6,0-0.6-0.6l0,0c0-0.6,0.6-0.6,0.6-0.6h22.5
					C39.4,24.4,39.4,24.4,39.4,25L39.4,25z"/>
			</g>
		</g>
	</g>
	<g>
		<g display="inline">
			<g>
				<path fill="#67B8CB" d="M52.5,36.9H85c2.5,0,4.4-6.2,4.4-6.2S87.5,25,85,25H52.5C50,25,50,36.9,52.5,36.9z"/>
				<path fill="#E5E5E5" d="M76.9,30H58.7c-0.6,0-1.9,0-1.9,1.2c0,0.6,0.6,1.2,1.9,1.2h17.5c1.2,0,1.9-0.6,1.9-1.2
					C78.8,30,77.5,30,76.9,30z"/>
				<path fill="#E5E5E5" d="M83.8,30h-1.9c-1.2,0-1.9,0.6-1.9,1.2s0.6,1.2,1.9,1.2h1.9c1.2,0,1.9-0.6,1.9-1.2C85.6,30,85,30,83.8,30
					z"/>
			</g>
			<g>
				<path fill="#67B8CB" d="M48.8,12.5H10c-2.5,0-5,6.2-5,6.2S7.5,25,10,25h38.8C51.2,24.4,51.2,12.5,48.8,12.5z"/>
				<path fill="#E5E5E5" d="M20,20h21.3c1.2,0,2.5-0.6,2.5-1.2s-1.2-1.2-2.5-1.2H20c-1.2,0-2.5,0-2.5,1.2C17.5,19.4,18.8,20,20,20z"
					/>
				<path fill="#E5E5E5" d="M11.2,20h2.5c1.3,0,2.5-0.6,2.5-1.2s-1.2-1.2-2.5-1.2h-2.5c-1.2,0-2.5,0-2.5,1.2C8.8,19.4,10,20,11.2,20
					z"/>
			</g>
			<g>
				<path fill="#67B8CB" d="M48.8,39.4H17.5c-2.5,0-3.8,6.2-3.8,6.2s1.9,6.2,3.8,6.2h31.2C51.2,51.2,51.2,39.4,48.8,39.4z"/>
				<path fill="#E5E5E5" d="M25.6,46.9h16.9c1.2,0,1.9-0.6,1.9-1.2s-0.6-1.2-1.9-1.2H25.6c-0.6,0-1.9,0.6-1.9,1.2S25,46.9,25.6,46.9
					z"/>
				<path fill="#E5E5E5" d="M18.8,46.9h1.9c1.2,0,1.9-0.6,1.9-1.2s-0.6-1.2-1.9-1.2h-1.9c-1.2,0-1.9,0.6-1.9,1.2
					S18.1,46.9,18.8,46.9z"/>
			</g>
			<g>
				<g>
					<ellipse fill="#9D5D26" cx="50.6" cy="90.6" rx="13.7" ry="5"/>
				</g>
				<g>
					<ellipse fill="#AE722D" cx="50.6" cy="90" rx="12.5" ry="3.8"/>
				</g>
				<g>
					<path fill="#AE722D" d="M55,88.1c0,4.4-8.1,4.4-8.1,0V12.5c0-4.4,1.9-7.5,3.8-7.5l0,0c2.5,0,3.8,3.1,3.8,7.5v75.6H55z"/>
				</g>
				<g>
					<path fill="#BB813C" d="M55,88.1c0,3.1-4.4,3.8-6.9,2.5c-0.6-0.6-1.2-80,2.5-85.6l0,0c2.5,0,3.8,3.1,3.8,7.5v75.6H55z"/>
				</g>
			</g>
		</g>
	</g>
</g>
<g id="survey">
	<g>
		<circle fill="#A0BF19" cx="50" cy="50" r="50"/>
		<g>
			<g>
				<path fill="#F6F6E7" d="M75.6,78.1c0,3.8-3.1,6.9-6.9,6.9H30.6c-3.7,0-6.9-3.1-6.9-6.9V25c0-3.8,3.1-6.9,6.9-6.9h38.1
					c3.8,0,6.9,3.1,6.9,6.9V78.1z"/>
			</g>
			<rect x="31.9" y="37.5" fill="#B5B6B6" width="24.4" height="2.5"/>
			<rect x="31.2" y="51.9" fill="#B5B6B6" width="24.4" height="2.5"/>
			<rect x="31.2" y="66.2" fill="#B5B6B6" width="24.4" height="2.5"/>
			<path fill="#CDCDCE" d="M67.5,40c0,1.2-1.2,2.5-2.5,2.5h-3.1c-1.2,0-2.5-1.2-2.5-2.5v-3.1c0-1.2,1.2-2.5,2.5-2.5H65
				c1.2,0,2.5,1.2,2.5,2.5V40z"/>
			<path fill="#CDCDCE" d="M67.5,55c0,1.2-1.2,2.5-2.5,2.5h-3.1C61.2,56.9,60,56.2,60,55v-3.1c0-1.2,1.2-2.5,2.5-2.5h3.1
				c1.2,0,2.5,1.3,2.5,2.5L67.5,55z"/>
			<g>
				<path fill="#6CC077" d="M60,65h2.5l1.2,3.8l1.9-6.9h2.5L65,71.2h-1.9L60,65z"/>
			</g>
			<path fill="#99999A" d="M46.2,12.5c0,0,1.2-0.6,3.1-0.6c2.5,0,4.4,0.6,4.4,0.6s-1.9-1.9-3.8-1.9C47.5,10.6,46.2,12.5,46.2,12.5z"
				/>
			<g>
				<path fill="#99999A" d="M30.6,19.4c0,3.1,2.5,4.4,6.2,4.4h26.3c3.1,0,6.2-1.2,6.2-4.4H30.6z"/>
				<path fill="#AAAAAA" d="M63.1,14.4h-8.8l0,0c0-2.5-1.9-5-5-5c-2.5,0-5,1.9-5,5l0,0h-8.1c-3.1,0-6.2,1.2-6.2,4.4s2.5,3.8,6.2,3.8
					h26.2c3.1,0,6.2-0.6,6.2-3.8C69.4,15.6,66.9,14.4,63.1,14.4z M46.2,14.4c0-1.9,1.9-3.8,3.8-3.8s3.8,1.9,3.8,3.8l0,0
					c0,1.9-1.9,3.7-3.8,3.7C48.1,17.5,46.2,16.2,46.2,14.4L46.2,14.4z"/>
			</g>
		</g>
	</g>
</g>
</svg>
