<svg xmlns="http://www.w3.org/2000/svg" viewBox="0 0 100 100" enable-background="new 0 0 100 100"><g><circle fill="#A0BF19" cx="50" cy="50" r="50"/><path fill="#F6F6E7" d="M75.6 78.1c0 3.8-3.1 6.9-6.9 6.9h-38.1c-3.7 0-6.9-3.1-6.9-6.9v-53.1c0-3.8 3.1-6.9 6.9-6.9h38.1c3.8 0 6.9 3.1 6.9 6.9v53.1z"/><path fill="#B5B6B6" d="M31.9 37.5h24.4v2.5h-24.4zM31.2 51.9h24.4v2.5h-24.4zM31.2 66.2h24.4v2.5h-24.4z"/><path fill="#CDCDCE" d="M67.5 40c0 1.2-1.2 2.5-2.5 2.5h-3.1c-1.2 0-2.5-1.2-2.5-2.5v-3.1c0-1.2 1.2-2.5 2.5-2.5h3.1c1.2 0 2.5 1.2 2.5 2.5v3.1zM67.5 55c0 1.2-1.2 2.5-2.5 2.5h-3.1c-.7-.6-1.9-1.3-1.9-2.5v-3.1c0-1.2 1.2-2.5 2.5-2.5h3.1c1.2 0 2.5 1.3 2.5 2.5l-.6 3.1z"/><path fill="#6CC077" d="M60 65h2.5l1.2 3.8 1.9-6.9h2.5l-3.1 9.3h-1.9l-3.1-6.2z"/><path fill="#99999A" d="M46.2 12.5s1.2-.6 3.1-.6c2.5 0 4.4.6 4.4.6s-1.9-1.9-3.8-1.9c-2.4 0-3.7 1.9-3.7 1.9zM30.6 19.4c0 3.1 2.5 4.4 6.2 4.4h26.3c3.1 0 6.2-1.2 6.2-4.4h-38.7z"/><path fill="#aaa" d="M63.1 14.4h-8.8c0-2.5-1.9-5-5-5-2.5 0-5 1.9-5 5h-8.1c-3.1 0-6.2 1.2-6.2 4.4s2.5 3.8 6.2 3.8h26.2c3.1 0 6.2-.6 6.2-3.8.8-3.2-1.7-4.4-5.5-4.4zm-16.9 0c0-1.9 1.9-3.8 3.8-3.8s3.8 1.9 3.8 3.8-1.9 3.7-3.8 3.7c-1.9-.6-3.8-1.9-3.8-3.7z"/></g></svg>