<svg xmlns="http://www.w3.org/2000/svg" width="50" height="50" viewBox="0 0 50 50">
  <g id="Group_187" data-name="Group 187" transform="translate(-4939 -1885)">
    <rect id="Rectangle_71" data-name="Rectangle 71" width="50" height="50" rx="5" transform="translate(4939 1885)" fill="#45a1cb"/>
    <g id="monologo" transform="translate(4947.5 1891)">
      <path id="path218" d="M38.1,3.561a.552.552,0,0,0-.769.138L24.594,22a.549.549,0,0,0-.093.236l-.84,5.774a.552.552,0,0,0,.811.564l5.123-2.792a.542.542,0,0,0,.189-.169l12.738-18.3a.552.552,0,0,0-.138-.769Z" transform="translate(-11.785 0.268)" fill="#fff"/>
      <path id="path2" d="M37.972,2.661a1.105,1.105,0,0,0-1.541.275l-12.738,18.3a1.1,1.1,0,0,0-.187.473l-.84,5.773a1.106,1.106,0,0,0,1.625,1.129l5.121-2.791a1.094,1.094,0,0,0,.38-.342l12.736-18.3a1.105,1.105,0,0,0-.276-1.539L37.971,2.661Zm-.633.908,4.282,2.982s0,0,0,0,0,0,0,0l-12.738,18.3h0L23.76,27.64h0a.01.01,0,0,1,0,0l.84-5.774v0L37.34,3.569h0Z" transform="translate(-11.339 0.715)" fill="#fff"/>
      <path id="path4" d="M29.891,18.858a1.659,1.659,0,0,0-1.659,1.659V39.056a1.031,1.031,0,0,1-.081.4,1.055,1.055,0,0,1-.557.557,1.031,1.031,0,0,1-.4.081H3.862a1.031,1.031,0,0,1-.4-.081,1.055,1.055,0,0,1-.557-.557,1.031,1.031,0,0,1-.081-.4V15.729a1.031,1.031,0,0,1,.081-.4,1.055,1.055,0,0,1,.557-.557,1.031,1.031,0,0,1,.4-.081h13.75a1.659,1.659,0,1,0,0-3.319H3.862A4.362,4.362,0,0,0-.5,15.729V39.056a4.362,4.362,0,0,0,4.362,4.362H27.189a4.362,4.362,0,0,0,4.362-4.362V20.518a1.659,1.659,0,0,0-1.659-1.659Zm0,2.214a.555.555,0,0,1-.554-.554V39.056a2.13,2.13,0,0,1-.168.834,2.167,2.167,0,0,1-1.146,1.146,2.13,2.13,0,0,1-.834.168H3.862a2.13,2.13,0,0,1-.834-.168A2.167,2.167,0,0,1,1.882,39.89a2.13,2.13,0,0,1-.168-.834V15.729a2.13,2.13,0,0,1,.168-.834A2.167,2.167,0,0,1,3.028,13.75a2.13,2.13,0,0,1,.834-.168h13.75a.554.554,0,0,1,0-1.109H3.862A3.257,3.257,0,0,0,.605,15.729V39.056a3.257,3.257,0,0,0,3.257,3.257H27.189a3.257,3.257,0,0,0,3.257-3.257V20.518a.555.555,0,0,1-.554.554Z" transform="translate(0 -5.076)" fill="#fff"/>
      <path id="path224" d="M57.869,1.27,53.437-1.684a.552.552,0,0,0-.766.153.552.552,0,0,0,.153.766L57.256,2.19a.553.553,0,0,0,.613-.919Z" transform="translate(-24.701 2.608)" fill="#fff"/>
      <path id="path6" d="M55.771,1.687,51.339-1.268a1.385,1.385,0,0,0-.509-.208,1.384,1.384,0,0,0-.53,0,1.382,1.382,0,0,0-.49.2,1.38,1.38,0,0,0-.389.388,1.379,1.379,0,0,0-.207.507,1.383,1.383,0,0,0,0,.53,1.383,1.383,0,0,0,.2.49,1.382,1.382,0,0,0,.387.389l2.216,1.477,2.216,1.477a1.383,1.383,0,1,0,1.534-2.3ZM54.85,3.069a.277.277,0,0,1,.026-.477A.274.274,0,0,1,55,2.56a.278.278,0,0,1,.153.045L52.942,1.129,50.726-.348A.279.279,0,0,1,50.8-.27a.277.277,0,0,1,.041.1.277.277,0,0,1,0,.106.279.279,0,0,1-.042.1.279.279,0,0,1-.078.077.278.278,0,0,1-.1.041.277.277,0,0,1-.106,0,.277.277,0,0,1-.1-.041L54.85,3.069Z" transform="translate(-22.142 1.5)" fill="#fff"/>
    </g>
  </g>
</svg>
