<svg xmlns="http://www.w3.org/2000/svg" viewBox="0 0 100 100" enable-background="new 0 0 100 100"><g stroke="#999" stroke-linejoin="round" stroke-linecap="round" stroke-width="3" stroke-miterlimit="10"><path d="m92.3 2.2c3.4 0 6 2.6 6 5.7v83.8c0 3.2-2.7 5.7-6 5.7h-59.4c-3.3 0-6-2.6-6-5.7v-83.8c0-3.2 2.7-5.7 6-5.7h59.4z" fill="#fff"/><path d="M43,66.9h39.1 M43,51h39.1 M43,83.2h39.1" fill="none"/></g><g fill="#999"><path d="m69.6 19l5.3 9.1 5.2 9.2h-21l5.2-9.2 5.3-9.1"/><path d="m52.6 23.8l3.9 6.7 3.9 6.8h-15.5l3.8-6.8 3.9-6.7"/><circle cx="45.6" cy="18.5" r="3.8"/></g><g stroke-linejoin="round" stroke-linecap="round" stroke-miterlimit="10"><circle cx="26.4" cy="50" r="24" fill="#ff9800" stroke="#ff9800" stroke-width="3"/><path d="m10.6 49.8h29.2m-10.9-10.9l10.9 10.9-10.9 10.9" fill="none" stroke="#fff" stroke-width="5"/></g></svg>