<svg xmlns="http://www.w3.org/2000/svg" viewBox="0 0 100 100" enable-background="new 0 0 100 100"><g><circle fill="#A2D4DE" cx="50" cy="50" r="50"/><path fill="#6CC077" d="M20 46.9s-7.5 16.9-6.2 21.2c0 0-1.2 19.4 33.8 17.5 0 0 4.4 10 13.7 13.8 14.3-3.2 25.6-12.5 32.5-24.4l-23.8-56.2-63.8 7.4c-3.1 5.6-5 11.9-5.6 18.1 3.8 1.3 13.8 3.8 19.4 2.6z"/><path fill="#fff" d="M48.8 85c-1.2-5-3.1-17.5 13.1-30 5.6-4.4 6.3-9.4 5.6-12.5-1.2-6.2-6.9-11.9-15-15-11.9-4.4-19.4 4.4-25 11.2-2.5 3.2-5.6 6.3-7.5 6.9-5 1.9-13.8-.6-19.4-2.5v2.5c5.6 1.9 14.4 4.4 20 2.5 3.1-1.2 5.6-4.4 8.7-8.1 5.6-6.9 12.5-13.8 22.5-10.6 7.5 2.5 12.5 7.5 13.1 13.1.6 3.7-1.2 7.5-5 10-17.4 13.1-15.5 26.9-13.7 32.5 1.9 6.9 6.9 11.2 13.1 13.7 1.2 0 2.5-.6 4.4-1.2-6.8-1.3-12.5-5.6-14.9-12.5zM41.2 85.6c-10.6 0-20-1.9-24.4-7.5-6.9-8.8-4.4-22.5 5.6-34.4l1.9 1.2c-10.6 12.5-11.3 25-6.2 31.2 11.9 14.5 56.9 2.7 74.4-1.7l1.2-.6.6 1.9-1.9.6c-10.5 3.1-33 9.3-51.2 9.3z"/><path fill="#D62127" d="M36.9 22.9c-7.5 0-13.1 5.6-13.1 13.1 0 9.3 12.1 22.4 13.1 22.4s13.1-14 13.1-22.4c0-7.5-5.6-13.1-13.1-13.1zm0 16.8c-2.8 0-5.6-1.9-5.6-4.7s1.9-4.7 5.6-4.7c2.8 0 5.6 1.9 5.6 4.7-.9 2.9-2.8 4.7-5.6 4.7z"/></g></svg>