<?xml version="1.0" encoding="utf-8"?>
<!-- Generator: Adobe Illustrator 18.0.0, SVG Export Plug-In . SVG Version: 6.00 Build 0)  -->
<!DOCTYPE svg PUBLIC "-//W3C//DTD SVG 1.1//EN" "http://www.w3.org/Graphics/SVG/1.1/DTD/svg11.dtd">
<svg version="1.1" id="Layer_1" xmlns="http://www.w3.org/2000/svg" xmlns:xlink="http://www.w3.org/1999/xlink" x="0px" y="0px"
	 viewBox="0 0 100 100" enable-background="new 0 0 100 100" xml:space="preserve">
<g id="lesson">
	<g>
		<circle fill="#A2D4DE" cx="50" cy="50" r="50"/>
		<g>
			<path fill="#6CC077" d="M20,46.9c0,0-7.5,16.9-6.2,21.2c0,0-1.2,19.4,33.8,17.5c0,0,4.4,10,13.7,13.8
				C75.6,96.2,86.9,86.9,93.8,75L70,18.8L6.2,26.2c-3.1,5.6-5,11.9-5.6,18.1C4.4,45.6,14.4,48.1,20,46.9z"/>
			<path fill="#FFFFFF" d="M48.8,85c-1.2-5-3.1-17.5,13.1-30c5.6-4.4,6.3-9.4,5.6-12.5c-1.2-6.2-6.9-11.9-15-15
				c-11.9-4.4-19.4,4.4-25,11.2C25,41.9,21.9,45,20,45.6C15,47.5,6.2,45,0.6,43.1c0,0.6,0,1.9,0,2.5c5.6,1.9,14.4,4.4,20,2.5
				c3.1-1.2,5.6-4.4,8.7-8.1c5.6-6.9,12.5-13.8,22.5-10.6c7.5,2.5,12.5,7.5,13.1,13.1c0.6,3.7-1.2,7.5-5,10
				C42.5,65.6,44.4,79.4,46.2,85c1.9,6.9,6.9,11.2,13.1,13.7c1.2,0,2.5-0.6,4.4-1.2C56.9,96.2,51.2,91.9,48.8,85z"/>
			<g>
				<path fill="#FFFFFF" d="M41.2,85.6c-10.6,0-20-1.9-24.4-7.5c-6.9-8.8-4.4-22.5,5.6-34.4l1.9,1.2c-10.6,12.5-11.3,25-6.2,31.2
					C30,90.6,75,78.8,92.5,74.4l1.2-0.6l0.6,1.9l-1.9,0.6C81.9,79.4,59.4,85.6,41.2,85.6z"/>
			</g>
			<g>
				<g>
					<path fill="#D62127" d="M36.9,22.9c-7.5,0-13.1,5.6-13.1,13.1c0,9.3,12.1,22.4,13.1,22.4S50,44.4,50,36
						C50,28.5,44.4,22.9,36.9,22.9z M36.9,39.7c-2.8,0-5.6-1.9-5.6-4.7s1.9-4.7,5.6-4.7c2.8,0,5.6,1.9,5.6,4.7
						C41.6,37.9,39.7,39.7,36.9,39.7z"/>
					<g display="none">
						<path display="inline" fill="#BA2E2D" d="M43.1,50.6c-1.2,0-9.4-8.8-9.4-15.6c0-5,4.4-9.4,9.4-9.4s9.4,4.4,9.4,9.4
							C52.5,41.2,44.4,50.6,43.1,50.6z M43.1,26.9c-4.4,0-8.1,3.7-8.1,8.1c0,6.2,7.5,13.7,8.8,14.4C45,48.8,51.9,40,51.9,35
							C51.2,30.6,47.5,26.9,43.1,26.9z M43.1,38.8c-1.9,0-3.8-1.9-3.8-3.8c0-1.9,1.2-3.8,3.8-3.8c1.9,0,3.8,1.9,3.8,3.8
							S45,38.8,43.1,38.8z M43.1,31.9c-1.9,0-3.1,1.2-3.1,3.1s1.2,3.1,3.1,3.1s3.1-1.2,3.1-3.1S44.4,31.9,43.1,31.9z"/>
					</g>
				</g>
			</g>
		</g>
	</g>
</g>
</svg>
