<svg xmlns="http://www.w3.org/2000/svg" width="50" height="50" viewBox="0 0 50 50">
  <g id="Group_100" data-name="Group 100" transform="translate(-4933 -2155)">
    <g id="Group_89" data-name="Group 89" transform="translate(0 90)">
      <g id="Group_59" data-name="Group 59" transform="translate(192 180)">
        <g id="Group_41" data-name="Group 41">
          <rect id="Rectangle_67" data-name="Rectangle 67" width="50" height="50" rx="5" transform="translate(4741 1885)" fill="#f7981d"/>
        </g>
      </g>
    </g>
    <path id="monologo" d="M31.53,12.3V9.938h0A2.881,2.881,0,0,0,34.4,7.071V3.512A2.881,2.881,0,0,0,31.53.645H27.97A2.881,2.881,0,0,0,25.1,3.512V4.39H10.587A5.151,5.151,0,0,0,4.623.044,5.213,5.213,0,0,0,0,5.268H0a5.288,5.288,0,0,0,5.363,5.27h0a5.1,5.1,0,0,0,5.132-3.745H25.2v.231a2.881,2.881,0,0,0,2.866,2.866h1.063v1.942c0,2.265-2.358,4.115-4.808,4.115H10.772c-3.976,0-7.258,2.959-7.258,6.611v2.034H3.236A2.881,2.881,0,0,0,.37,27.46v3.56a2.881,2.881,0,0,0,2.866,2.866H6.842a2.881,2.881,0,0,0,2.866-2.866v-.555H23.9a5.1,5.1,0,0,0,10.078-1.2h0a5.015,5.015,0,0,0-4.993-5.178h0A4.994,4.994,0,0,0,23.9,28.061H9.662v-.555A2.881,2.881,0,0,0,6.8,24.639H5.964v-1.8A4.9,4.9,0,0,1,10.726,18.4H24.272C28.2,18.444,31.53,15.948,31.53,12.3ZM5.27,8.089A2.872,2.872,0,0,1,2.4,5.268,2.872,2.872,0,0,1,5.224,2.4a2.872,2.872,0,0,1,2.866,2.82h0A2.757,2.757,0,0,1,5.27,8.089Zm22.653-.6a.388.388,0,0,1-.416-.416V3.512a.388.388,0,0,1,.416-.416H31.53a.388.388,0,0,1,.416.416v3.56a.388.388,0,0,1-.416.416H27.924Zm.925,19.094h0a2.728,2.728,0,0,1,0,5.455,2.7,2.7,0,0,1-2.728-2.728h0a2.675,2.675,0,0,1,2.728-2.728ZM6.75,27a.427.427,0,0,1,.462.416v3.606c0,.277-.185.416-.462.416H3.144a.427.427,0,0,1-.462-.416V27.413c0-.277.185-.416.462-.416H6.75Z" transform="translate(4941 2163.004)" fill="#fff"/>
  </g>
</svg>
